<?xml version="1.0" encoding="utf-8"?>
<!-- Generator: Adobe Illustrator 16.0.0, SVG Export Plug-In . SVG Version: 6.00 Build 0)  -->
<!DOCTYPE svg PUBLIC "-//W3C//DTD SVG 1.1//EN" "http://www.w3.org/Graphics/SVG/1.1/DTD/svg11.dtd">
<svg version="1.1" id="Calque_1" xmlns="http://www.w3.org/2000/svg" xmlns:xlink="http://www.w3.org/1999/xlink" x="0px" y="0px"
	 width="283.46px" height="283.46px" viewBox="0 0 283.46 283.46" enable-background="new 0 0 283.46 283.46" xml:space="preserve">
<rect fill="#FFFFFF" width="283.46" height="283.46"/>
<path fill-rule="evenodd" clip-rule="evenodd" fill="#A83A2F" d="M257.802,175.015c-0.45,0.046-0.899,0.13-1.35,0.13
	c-33.492,0.007-66.985,0.006-100.478,0.006c-31.073,0-62.145,0-93.217,0c-0.42,0-0.841,0-1.332,0c0-3.128,0-6.183,0-9.315
	c0.229-0.028,0.474-0.071,0.722-0.087c0.261-0.015,0.523-0.003,0.785-0.003c64.434,0,128.868-0.001,193.302,0.001
	c0.522,0,1.045,0.029,1.567,0.045C257.802,168.866,257.802,171.94,257.802,175.015z"/>
<path fill-rule="evenodd" clip-rule="evenodd" fill="#A83A2F" d="M164.19,78.656c0.016,0.391,0.045,0.782,0.045,1.173
	c0.002,25.043,0.002,50.086,0.002,75.129c0,0.414,0,0.83,0,1.295c-3.177,0-6.231,0-9.406,0c0-0.467,0-0.883,0-1.299
	c0-25.01,0.001-50.02-0.002-75.03c0-0.423-0.038-0.846-0.059-1.269C157.911,78.656,161.051,78.656,164.19,78.656z"/>
<path fill-rule="evenodd" clip-rule="evenodd" fill="#A83A2F" d="M145.547,78.656c0.016,0.391,0.045,0.782,0.045,1.173
	c0.002,25.043,0.002,50.087,0.002,75.13c0,0.415,0,0.83,0,1.297c-3.147,0-6.17,0-9.271,0c-0.017-0.367-0.044-0.685-0.044-1.003
	c-0.002-25.239-0.002-50.479,0-75.719c0-0.293,0.029-0.586,0.045-0.879C139.398,78.656,142.473,78.656,145.547,78.656z"/>
<path fill-rule="evenodd" clip-rule="evenodd" fill="#A83A2F" d="M257.802,132.821c-3.1,0-6.199,0-9.36,0c0-7.734,0-15.371,0-23.122
	c3.113-0.082,6.237-0.019,9.36-0.036C257.802,117.383,257.802,125.102,257.802,132.821z"/>
<path fill-rule="evenodd" clip-rule="evenodd" fill="#A83A2F" d="M26.031,99.851c1.204,0,2.408,0,3.588,0
	c0.223,0.767,0.295,31.441,0.082,32.97c-1.208,0-2.439,0-3.67,0C26.031,121.831,26.031,110.841,26.031,99.851z"/>
<path fill-rule="evenodd" clip-rule="evenodd" fill="#A83A2F" d="M182.834,78.656c0.009,3.034,0.018,6.068,0.023,9.103
	c0,0.06-0.042,0.119-0.086,0.236c-3.035,0-6.092,0-9.297,0c0-0.3,0-0.611,0-0.923c0-2.448,0.003-4.896-0.002-7.345
	c-0.001-0.357-0.038-0.714-0.059-1.071C176.555,78.656,179.694,78.656,182.834,78.656z"/>
<path fill-rule="evenodd" clip-rule="evenodd" fill="#A83A2F" d="M257.802,109.271c-3.095,0-6.19,0-9.354,0c0-3.162,0-6.238,0-9.405
	c2.399,0.018,4.502,0.708,6.282,2.293c1.541,1.373,2.436,3.113,2.859,5.116c0.045,0.213,0.14,0.415,0.212,0.622
	C257.802,108.355,257.802,108.813,257.802,109.271z"/>
<path fill-rule="evenodd" clip-rule="evenodd" fill="#A83A2F" d="M257.802,148.325c-0.066,0.176-0.161,0.347-0.196,0.528
	c-0.768,4.007-3.809,6.839-7.874,7.323c-0.41,0.049-0.821,0.093-1.296,0.146c0-3.156,0-6.209,0-9.258
	c0.758-0.204,7.174-0.279,9.366-0.113C257.802,147.409,257.802,147.867,257.802,148.325z"/>
<path fill-rule="evenodd" clip-rule="evenodd" fill="#A83A2F" d="M230.72,204.256c0.007-5.911,0.015-11.822,0.021-17.732
	c0.001-0.645,0.001-1.289,0.001-1.979c0.869,0,1.637,0,2.506,0c0,0.397,0,0.747,0,1.098c0,5.846,0,11.691,0.001,17.538
	c0.001,0.358,0.015,0.718,0.021,1.076C232.42,204.256,231.57,204.256,230.72,204.256z"/>
<path fill-rule="evenodd" clip-rule="evenodd" fill="#A83A2F" d="M94.129,204.256c0.02-0.39,0.058-0.78,0.058-1.17
	c0.004-5.786,0.002-11.573,0.002-17.359c0-0.355,0-0.712,0-1.149c0.829,0,1.589,0,2.469,0c0,0.349,0,0.697,0,1.047
	c0,5.852,0,11.703,0.001,17.555c0,0.358,0.014,0.718,0.021,1.077C95.831,204.256,94.98,204.256,94.129,204.256z"/>
<path fill-rule="evenodd" clip-rule="evenodd" fill="#A83A2F" d="M134.361,204.256c0.02-0.357,0.058-0.715,0.058-1.072
	c0.004-4.151,0.003-8.304,0.003-12.456c0-0.354,0-0.71,0-1.113c0.822-0.217,1.586-0.118,2.491-0.066c0,4.922,0,9.815,0,14.708
	C136.062,204.256,135.211,204.256,134.361,204.256z"/>
<path fill-rule="evenodd" clip-rule="evenodd" fill="#A83A2F" d="M163.602,204.256c0.008-4.534,0.016-9.069,0.022-13.604
	c0.001-0.351,0-0.701,0-1.096c0.863,0,1.626,0,2.511,0c0,0.801-0.001,1.54,0,2.278c0.006,4.141,0.013,8.281,0.019,12.422
	C165.303,204.256,164.452,204.256,163.602,204.256z"/>
<path fill-rule="evenodd" clip-rule="evenodd" fill="#A83A2F" d="M209.524,204.256c0-4.886,0-9.772,0-14.765
	c0.624,0,1.139-0.008,1.652,0.003c0.253,0.005,0.506,0.043,0.866,0.076c0,0.813-0.002,1.584,0,2.354
	c0.011,4.11,0.021,8.221,0.033,12.331C211.226,204.256,210.375,204.256,209.524,204.256z"/>
<path fill-rule="evenodd" clip-rule="evenodd" fill="#A83A2F" d="M193.235,204.256c0-4.868,0-9.737,0-14.685c0.83,0,1.594,0,2.491,0
	c0,0.356,0,0.704,0,1.053c0,4.187-0.002,8.373,0.003,12.56c0,0.357,0.037,0.715,0.058,1.072
	C194.937,204.256,194.086,204.256,193.235,204.256z"/>
<path fill-rule="evenodd" clip-rule="evenodd" fill="#A83A2F" d="M214.431,204.256c0-4.006,0-8.013,0-12.072
	c0.893,0,1.658,0,2.552,0c0,4.06,0,8.066,0,12.072C216.132,204.256,215.281,204.256,214.431,204.256z"/>
<path fill-rule="evenodd" clip-rule="evenodd" fill="#A83A2F" d="M225.028,204.256c0-3.982,0-7.966,0-11.96
	c0.882-0.281,1.646-0.15,2.551-0.119c0,4.058,0,8.068,0,12.079C226.729,204.256,225.879,204.256,225.028,204.256z"/>
<path fill-rule="evenodd" clip-rule="evenodd" fill="#A83A2F" d="M168.508,204.256c0.021-0.357,0.058-0.715,0.059-1.072
	c0.004-3.271,0.003-6.54,0.003-9.811c0-0.355,0-0.711,0-1.098c0.822-0.259,1.587-0.131,2.49-0.098c0,4.058,0,8.068,0,12.078
	C170.209,204.256,169.358,204.256,168.508,204.256z"/>
<path fill-rule="evenodd" clip-rule="evenodd" fill="#A83A2F" d="M179.105,204.256c0.022-3.997,0.045-7.995,0.068-12.059
	c0.864,0,1.624,0,2.483,0c0,4.055,0,8.057,0,12.059C180.807,204.256,179.956,204.256,179.105,204.256z"/>
<path fill-rule="evenodd" clip-rule="evenodd" fill="#A83A2F" d="M99.232,204.256c-0.016-1.563-0.039-3.127-0.044-4.691
	c-0.008-2.086-0.002-4.173-0.002-6.26c0-0.35,0-0.699,0-1.112c0.844,0,1.573,0,2.401,0c0,4.06,0,8.062,0,12.063
	C100.802,204.256,100.017,204.256,99.232,204.256z"/>
<path fill-rule="evenodd" clip-rule="evenodd" fill="#A83A2F" d="M120.427,204.256c0-4.002,0-8.004,0-12.063
	c0.829,0,1.558,0,2.323,0c0.03,0.28,0.075,0.501,0.075,0.722c0.004,3.651,0.002,7.303,0,10.955c0,0.129-0.028,0.258-0.043,0.387
	C121.997,204.256,121.212,204.256,120.427,204.256z"/>
<path fill-rule="evenodd" clip-rule="evenodd" fill="#A83A2F" d="M201.479,204.256c0-0.738,0-1.477,0-2.227
	c0.729-0.29,1.388-0.165,2.158-0.11c0,0.803,0,1.57,0,2.337C202.917,204.256,202.198,204.256,201.479,204.256z"/>
<path fill-rule="evenodd" clip-rule="evenodd" fill="#A83A2F" d="M118.072,204.256c0.029-0.764,0.058-1.528,0.089-2.345
	c0.706,0,1.333,0,2.07,0c0,0.814,0,1.58,0,2.345C119.511,204.256,118.792,204.256,118.072,204.256z"/>
<path fill-rule="evenodd" clip-rule="evenodd" fill="#A83A2F" d="M107.475,204.256c0-0.741,0-1.482,0-2.312c0.701,0,1.352,0,2.151,0
	c0.002,0.785,0.005,1.549,0.007,2.312C108.914,204.256,108.194,204.256,107.475,204.256z"/>
<path fill-rule="evenodd" clip-rule="evenodd" fill="#A83A2F" d="M88.438,204.256c0-0.743,0-1.486,0-2.26
	c0.884-0.224,1.672-0.161,2.501-0.067c0.014,0.823-0.302,1.42-0.907,1.878c-0.202,0.152-0.408,0.3-0.613,0.449
	C89.092,204.256,88.765,204.256,88.438,204.256z"/>
<path fill-rule="evenodd" clip-rule="evenodd" fill="#A83A2F" d="M128.669,204.256c0-0.741,0-1.483,0-2.255
	c0.878-0.235,1.666-0.158,2.5-0.077c0.022,0.826-0.338,1.405-0.909,1.88c-0.194,0.161-0.405,0.302-0.609,0.452
	C129.324,204.256,128.997,204.256,128.669,204.256z"/>
<path fill-rule="evenodd" clip-rule="evenodd" fill="#A83A2F" d="M143.192,204.256c-0.657-0.476-1.313-0.952-1.481-1.822
	c-0.029-0.15-0.027-0.307-0.044-0.521c0.818,0,1.581,0,2.372,0c0.26,0.797,0.091,1.578,0.134,2.344
	C143.846,204.256,143.52,204.256,143.192,204.256z"/>
<path fill-rule="evenodd" clip-rule="evenodd" fill="#A83A2F" d="M221.692,204.256c-0.755-0.565-1.504-1.135-1.51-2.285
	c0.768-0.218,1.549-0.116,2.357-0.057c0.257,0.797,0.091,1.577,0.133,2.342C222.346,204.256,222.02,204.256,221.692,204.256z"/>
<path fill-rule="evenodd" clip-rule="evenodd" fill="#A83A2F" d="M146.528,204.256c0-0.74,0-1.481,0-2.339
	c0.826-0.096,1.64-0.105,2.495,0.014c-0.04,0.878-0.392,1.521-1.087,1.98c-0.152,0.101-0.285,0.229-0.427,0.345
	C147.183,204.256,146.855,204.256,146.528,204.256z"/>
<path fill-rule="evenodd" clip-rule="evenodd" fill="#A83A2F" d="M175.77,204.256c-0.725-0.581-1.506-1.125-1.465-2.31
	c0.766-0.173,1.546-0.1,2.446-0.026c0,0.801,0,1.568,0,2.336C176.424,204.256,176.097,204.256,175.77,204.256z"/>
<path fill-rule="evenodd" clip-rule="evenodd" fill="#A83A2F" d="M186.367,204.256c-0.716-0.603-1.5-1.16-1.441-2.328
	c0.761,0,1.526,0,2.423,0c0,0.783,0,1.556,0,2.328C187.021,204.256,186.694,204.256,186.367,204.256z"/>
<path fill-rule="evenodd" clip-rule="evenodd" fill="#A83A2F" d="M203.833,204.256c0-0.743,0-1.486,0-2.268
	c0.834-0.251,1.619-0.099,2.44-0.103c-0.008,1.256-0.724,1.89-1.655,2.37C204.356,204.256,204.095,204.256,203.833,204.256z"/>
<path fill-rule="evenodd" clip-rule="evenodd" fill="#A83A2F" d="M187.545,204.256c0-0.767,0-1.533,0-2.345c0.871,0,1.629,0,2.397,0
	c0.054,1.238-0.715,1.837-1.613,2.345C188.067,204.256,187.806,204.256,187.545,204.256z"/>
<path fill-rule="evenodd" clip-rule="evenodd" fill="#A83A2F" d="M176.947,204.256c0-0.747,0-1.495,0-2.321c0.663,0,1.26,0,1.962,0
	c0,0.781,0,1.552,0,2.321C178.255,204.256,177.602,204.256,176.947,204.256z"/>
<path fill-rule="evenodd" clip-rule="evenodd" fill="#A83A2F" d="M144.369,204.256c0-0.74,0-1.481,0-2.312c0.636,0,1.255,0,1.963,0
	c0,0.783,0,1.548,0,2.312C145.678,204.256,145.023,204.256,144.369,204.256z"/>
<path fill-rule="evenodd" clip-rule="evenodd" fill="#A83A2F" d="M222.869,204.256c0-0.74,0-1.481,0-2.312c0.636,0,1.255,0,1.963,0
	c0,0.783,0,1.548,0,2.312C224.178,204.256,223.523,204.256,222.869,204.256z"/>
<path fill-rule="evenodd" clip-rule="evenodd" fill="#A83A2F" d="M106.493,204.256c-0.438-0.377-0.933-0.708-1.294-1.148
	c-0.222-0.271-0.238-0.709-0.378-1.177c0.861,0,1.593,0,2.458,0c0,0.78,0,1.553,0,2.325
	C107.017,204.256,106.755,204.256,106.493,204.256z"/>
<path fill-rule="evenodd" clip-rule="evenodd" fill="#A83A2F" d="M117.091,204.256c-0.415-0.352-0.89-0.655-1.224-1.072
	c-0.241-0.302-0.292-0.754-0.468-1.255c0.888,0,1.618,0,2.476,0c0,0.785,0,1.556,0,2.327
	C117.614,204.256,117.353,204.256,117.091,204.256z"/>
<path fill-rule="evenodd" clip-rule="evenodd" fill="#A83A2F" d="M127.688,204.256c-0.408-0.357-0.876-0.669-1.206-1.089
	c-0.236-0.303-0.288-0.75-0.46-1.244c0.892,0,1.623,0,2.451,0c0,0.797,0,1.565,0,2.333
	C128.211,204.256,127.95,204.256,127.688,204.256z"/>
<path fill-rule="evenodd" clip-rule="evenodd" fill="#A83A2F" d="M109.83,204.256c0-0.746,0-1.492,0-2.319c0.762,0,1.493,0,2.311,0
	c0.129,0.788-0.258,1.349-0.814,1.829c-0.217,0.188-0.474,0.328-0.712,0.49C110.353,204.256,110.091,204.256,109.83,204.256z"/>
<path fill-rule="evenodd" clip-rule="evenodd" fill="#A83A2F" d="M87.457,204.256c-0.648-0.435-1.3-0.869-1.489-1.702
	c-0.041-0.182-0.034-0.374-0.055-0.633c0.774,0,1.503,0,2.329,0c0,0.801,0,1.567,0,2.335
	C87.98,204.256,87.719,204.256,87.457,204.256z"/>
<path fill-rule="evenodd" clip-rule="evenodd" fill="#A83A2F" d="M200.497,204.256c-0.423-0.387-0.898-0.732-1.247-1.178
	c-0.217-0.275-0.239-0.702-0.378-1.157c0.856,0,1.586,0,2.41,0c0,0.801,0,1.568,0,2.335
	C201.021,204.256,200.759,204.256,200.497,204.256z"/>
<path fill-rule="evenodd" clip-rule="evenodd" fill="#A83A2F" d="M201.408,156.265c-3.077,0-6.104,0-9.124,0
	c-0.208-0.734-0.297-54.303-0.102-56.258c0.694-0.196,7.444-0.266,9.226-0.087C201.408,118.681,201.408,137.449,201.408,156.265z"/>
<path fill-rule="evenodd" clip-rule="evenodd" fill="#A83A2F" d="M173.548,99.889c3.118,0,6.151,0,9.259,0
	c0,18.791,0,37.541,0,56.357c-3.073,0-6.13,0-9.259,0C173.548,137.473,173.548,118.724,173.548,99.889z"/>
<path fill-rule="evenodd" clip-rule="evenodd" fill="#A83A2F" d="M210.982,109.693c3.103,0,6.138,0,9.169,0
	c0.207,0.68,0.266,45.348,0.055,46.564c-3.048,0-6.104,0-9.224,0C210.982,140.752,210.982,125.275,210.982,109.693z"/>
<path fill-rule="evenodd" clip-rule="evenodd" fill="#A83A2F" d="M229.638,109.688c3.101,0,6.135,0,9.163,0
	c0.2,0.709,0.275,35.176,0.079,36.789c-3.051,0-6.109,0-9.242,0C229.638,134.26,229.638,122.024,229.638,109.688z"/>
<path fill-rule="evenodd" clip-rule="evenodd" fill="#A83A2F" d="M117.686,109.698c3.154,0,6.188,0,9.288,0
	c0,12.253,0,24.47,0,36.689c-0.693,0.187-8.171,0.225-9.288,0.036C117.686,134.217,117.686,122.001,117.686,109.698z"/>
<path fill-rule="evenodd" clip-rule="evenodd" fill="#A83A2F" d="M98.846,109.698c3.153,0,6.188,0,9.288,0
	c0,12.253,0,24.471,0,36.69c-0.692,0.187-8.171,0.225-9.288,0.036C98.846,134.217,98.846,122.001,98.846,109.698z"/>
<path fill-rule="evenodd" clip-rule="evenodd" fill="#A83A2F" d="M61.447,109.69c3.092,0,6.126,0,9.234,0
	c0,12.256,0,24.493,0,36.789c-3.056,0-6.114,0-9.176,0C61.317,145.804,61.248,111.247,61.447,109.69z"/>
<path fill-rule="evenodd" clip-rule="evenodd" fill="#A83A2F" d="M210.443,109.194c-2.812,0-5.631,0-8.501,0
	c0-3.087,0-6.141,0-9.325c2.816-0.042,5.633-0.012,8.431-0.019C210.589,100.619,210.637,108.011,210.443,109.194z"/>
<path fill-rule="evenodd" clip-rule="evenodd" fill="#A83A2F" d="M247.958,147.007c0,3.09,0,6.119,0,9.142
	c-0.708,0.2-7.137,0.254-8.54,0.069c0-3.042,0-6.093,0-9.146C240.094,146.868,246.566,146.807,247.958,147.007z"/>
<path fill-rule="evenodd" clip-rule="evenodd" fill="#A83A2F" d="M247.965,123.496c0,3.091,0,6.126,0,9.232
	c-2.846,0-5.668,0-8.552,0c0-3.062,0-6.119,0-9.178C240.096,123.364,246.577,123.312,247.965,123.496z"/>
<path fill-rule="evenodd" clip-rule="evenodd" fill="#A83A2F" d="M239.424,99.9c2.83,0,5.627,0,8.496,0c0,3.093,0,6.173,0,9.301
	c-2.829,0-5.627,0-8.496,0C239.424,106.111,239.424,103.032,239.424,99.9z"/>
<path fill-rule="evenodd" clip-rule="evenodd" fill="#A83A2F" d="M117.186,99.916c0,3.103,0,6.136,0,9.167
	c-0.679,0.204-7.201,0.257-8.521,0.062c0-3.048,0-6.105,0-9.23C111.487,99.916,114.285,99.916,117.186,99.916z"/>
<path fill-rule="evenodd" clip-rule="evenodd" fill="#A83A2F" d="M79.731,99.908c0,3.093,0,6.147,0,9.271c-2.816,0-5.635,0-8.455,0
	c-0.193-0.706-0.234-8.135-0.04-9.271C74.045,99.908,76.863,99.908,79.731,99.908z"/>
<path fill-rule="evenodd" clip-rule="evenodd" fill="#A83A2F" d="M71.197,146.952c2.869,0,5.666,0,8.523,0c0,3.094,0,6.151,0,9.284
	c-2.807,0-5.627,0-8.523,0C71.197,153.173,71.197,150.121,71.197,146.952z"/>
<path fill-rule="evenodd" clip-rule="evenodd" fill="#A83A2F" d="M117.161,156.267c-2.843,0-5.608,0-8.365,0
	c-0.234-0.693-0.288-8.095-0.062-9.298c2.779,0,5.57,0,8.428,0C117.161,150.047,117.161,153.101,117.161,156.267z"/>
<path fill-rule="evenodd" clip-rule="evenodd" fill="#A83A2F" d="M98.882,109.188c-0.338-4.816,3.78-9.516,9.266-9.226
	c0,3.053,0,6.109,0,9.226C105.063,109.188,102.01,109.188,98.882,109.188z"/>
<path fill-rule="evenodd" clip-rule="evenodd" fill="#A83A2F" d="M70.706,99.958c0,3.048,0,6.102,0,9.224c-3.083,0-6.16,0-9.235,0
	C60.692,104.556,65.854,99.38,70.706,99.958z"/>
<path fill-rule="evenodd" clip-rule="evenodd" fill="#A83A2F" d="M220.262,109.208c-3.126,0-6.18,0-9.288,0c0-3.093,0-6.146,0-9.201
	C214.755,99.406,220.39,102.843,220.262,109.208z"/>
<path fill-rule="evenodd" clip-rule="evenodd" fill="#A83A2F" d="M98.864,146.966c3.119,0,6.173,0,9.279,0c0,3.118,0,6.174,0,9.226
	C103.066,156.546,98.716,152.234,98.864,146.966z"/>
<path fill-rule="evenodd" clip-rule="evenodd" fill="#A83A2F" d="M238.968,109.22c-3.203,0-6.238,0-9.27,0
	c-0.477-4.271,3.164-9.357,9.23-9.317C239.003,102.982,238.946,106.063,238.968,109.22z"/>
<path fill-rule="evenodd" clip-rule="evenodd" fill="#A83A2F" d="M89.518,109.204c-3.096,0-6.129,0-9.163,0
	c-0.199-0.669-0.255-7.943-0.07-9.237C84.295,99.56,89.474,102.901,89.518,109.204z"/>
<path fill-rule="evenodd" clip-rule="evenodd" fill="#A83A2F" d="M61.458,146.939c3.096,0,6.13,0,9.229,0c0,3.118,0,6.201,0,9.282
	C65.209,156.488,61.143,151.764,61.458,146.939z"/>
<path fill-rule="evenodd" clip-rule="evenodd" fill="#A83A2F" d="M229.618,146.956c3.119,0,6.173,0,9.287,0c0,3.106,0,6.162,0,9.217
	C234.427,156.598,229.586,152.833,229.618,146.956z"/>
<path fill-rule="evenodd" clip-rule="evenodd" fill="#A83A2F" d="M117.737,99.916c4.581-0.18,9.206,3.37,9.227,9.281
	c-3.053,0-6.107,0-9.161,0C117.596,108.514,117.537,101.227,117.737,99.916z"/>
<path fill-rule="evenodd" clip-rule="evenodd" fill="#A83A2F" d="M80.255,146.95c3.095,0,6.123,0,9.147,0
	c0.503,4.627-3.516,9.37-9.147,9.286C80.255,153.182,80.255,150.126,80.255,146.95z"/>
<path fill-rule="evenodd" clip-rule="evenodd" fill="#A83A2F" d="M41.223,114.178c1.216,0,2.38,0,3.62,0c0,6.205,0,12.362,0,18.57
	c-1.201,0-2.368,0-3.541,0C41.099,132.086,41.015,116.05,41.223,114.178z"/>
<path fill-rule="evenodd" clip-rule="evenodd" fill="#A83A2F" d="M117.676,156.243c0-3.101,0-6.132,0-9.154
	c0.708-0.227,8.173-0.275,9.256-0.068C127.149,151.8,123.365,156.243,117.676,156.243z"/>
<path fill-rule="evenodd" clip-rule="evenodd" fill="#A83A2F" d="M187.283,201.709c-0.607,0-1.095,0.007-1.58-0.003
	c-0.225-0.005-0.448-0.043-0.657-0.064c-0.229-0.703-0.311-15.305-0.098-16.961c0.745-0.18,1.507-0.1,2.335-0.035
	C187.283,190.311,187.283,195.938,187.283,201.709z"/>
<path fill-rule="evenodd" clip-rule="evenodd" fill="#A83A2F" d="M88.219,201.64c-0.766,0-1.468,0-2.164,0
	c-0.208-0.702-0.28-15.398-0.08-16.98c0.717,0,1.445,0,2.244,0C88.219,190.315,88.219,195.942,88.219,201.64z"/>
<path fill-rule="evenodd" clip-rule="evenodd" fill="#A83A2F" d="M128.445,201.666c-0.8,0-1.478,0-2.143,0
	c-0.229-0.717-0.317-15.12-0.106-17.002c0.717,0,1.445,0,2.249,0C128.445,190.305,128.445,195.932,128.445,201.666z"/>
<path fill-rule="evenodd" clip-rule="evenodd" fill="#A83A2F" d="M141.697,201.627c0-3.163,0-6.274,0-9.441c0.782,0,1.518,0,2.353,0
	c0.162,3.131,0.109,6.235,0.026,9.372C143.264,201.812,142.508,201.723,141.697,201.627z"/>
<path fill-rule="evenodd" clip-rule="evenodd" fill="#A83A2F" d="M206.254,201.631c-0.785,0-1.516,0-2.245,0
	c-0.192-0.716-0.264-7.408-0.096-9.424c0.752,0,1.511,0,2.341,0C206.254,195.316,206.254,198.398,206.254,201.631z"/>
<path fill-rule="evenodd" clip-rule="evenodd" fill="#A83A2F" d="M198.994,192.193c0.812,0,1.518,0,2.277,0c0,3.153,0,6.244,0,9.425
	c-0.755,0-1.48,0-2.277,0C198.994,198.481,198.994,195.367,198.994,192.193z"/>
<path fill-rule="evenodd" clip-rule="evenodd" fill="#A83A2F" d="M104.942,192.181c0.784,0,1.489,0,2.266,0c0,3.146,0,6.26,0,9.451
	c-0.75,0-1.475,0-2.266,0C104.942,198.478,104.942,195.39,104.942,192.181z"/>
<path fill-rule="evenodd" clip-rule="evenodd" fill="#A83A2F" d="M33.601,128.671c0-1.703,0-3.319,0-4.994c1.228,0,2.421,0,3.684,0
	c0,1.614,0,3.23,0,4.986C36.085,128.693,34.87,128.674,33.601,128.671z"/>
<path fill-rule="evenodd" clip-rule="evenodd" fill="#A83A2F" d="M146.569,192.183c0.853,0,1.617,0,2.435,0c0,1.963,0,3.874,0,5.857
	c-0.788,0-1.581,0-2.435,0C146.569,196.092,146.569,194.163,146.569,192.183z"/>
<path fill-rule="evenodd" clip-rule="evenodd" fill="#A83A2F" d="M109.849,192.177c0.797,0,1.502,0,2.354,0
	c0.052,1.963,0.032,3.893,0.01,5.879c-0.831,0-1.564,0-2.364,0C109.849,196.104,109.849,194.195,109.849,192.177z"/>
<path fill-rule="evenodd" clip-rule="evenodd" fill="#A83A2F" d="M40.742,123.294c-1.054,0-2.02,0-3.11,0c0-0.635,0-1.244,0-1.852
	c0-0.613,0-1.227,0-1.891c1.073,0,2.064,0,3.11,0C40.742,120.793,40.742,121.986,40.742,123.294z"/>
<path fill-rule="evenodd" clip-rule="evenodd" fill="#A83A2F" d="M37.307,119.546c0,1.262,0,2.458,0,3.724c-1.232,0-2.42,0-3.608,0
	C33.31,121.406,34.921,119.704,37.307,119.546z"/>
<path fill-rule="evenodd" clip-rule="evenodd" fill="#A83A2F" d="M40.748,129.099c0,1.256,0,2.417,0,3.64c-1.027,0-2.02,0-3.064,0
	c0-1.212,0-2.399,0-3.64C38.7,129.099,39.665,129.099,40.748,129.099z"/>
<path fill-rule="evenodd" clip-rule="evenodd" fill="#A83A2F" d="M37.692,110.112c1.02,0,2.009,0,3.051,0c0,1.215,0,2.374,0,3.604
	c-1.009,0-2,0-3.051,0C37.692,112.529,37.692,111.345,37.692,110.112z"/>
<path fill-rule="evenodd" clip-rule="evenodd" fill="#A83A2F" d="M37.302,110.129c0,1.234,0,2.391,0,3.594c-1.264,0-2.478,0-3.691,0
	C33.645,111.521,35.188,110.015,37.302,110.129z"/>
<path fill-rule="evenodd" clip-rule="evenodd" fill="#A83A2F" d="M33.575,129.046c0.432,0,0.783,0,1.134,0c0.843,0,1.687,0,2.585,0
	c0,1.301,0,2.492,0,3.683C35.167,132.756,33.79,131.436,33.575,129.046z"/>
<path fill-rule="evenodd" clip-rule="evenodd" fill="#A83A2F" d="M44.831,113.746c-1.234,0-2.394,0-3.623,0c0-1.211,0-2.394,0-3.575
	C43.166,109.897,44.856,111.527,44.831,113.746z"/>
<path fill-rule="evenodd" clip-rule="evenodd" fill="#A83A2F" d="M174.23,198.381c0.876,0,1.641,0,2.45,0c0,1.088,0,2.117,0,3.191
	c-0.759,0.264-1.527,0.105-2.4,0.105C174.164,200.593,174.239,199.538,174.23,198.381z"/>
<path fill-rule="evenodd" clip-rule="evenodd" fill="#A83A2F" d="M220.198,198.373c0.786,0,1.521,0,2.366,0
	c0.084,1.068,0.058,2.113,0.017,3.248c-0.826,0-1.577,0-2.383,0C220.198,200.526,220.198,199.476,220.198,198.373z"/>
<path fill-rule="evenodd" clip-rule="evenodd" fill="#A83A2F" d="M115.474,198.38c0.832,0,1.536,0,2.37,0
	c0.07,1.049,0.021,2.104,0.027,3.244c-0.796,0-1.519,0-2.346,0c-0.018-0.542-0.042-1.051-0.049-1.56
	C115.468,199.546,115.474,199.026,115.474,198.38z"/>
<path fill-rule="evenodd" clip-rule="evenodd" fill="#A83A2F" d="M193.306,184.537c0.795,0,1.529,0,2.343,0c0,0.79,0,1.547,0,2.379
	c-0.752,0-1.511,0-2.343,0C193.306,186.166,193.306,185.405,193.306,184.537z"/>
<path fill-rule="evenodd" clip-rule="evenodd" fill="#A83A2F" d="M131.133,191.858c-0.807,0-1.548,0-2.328,0
	c-0.241-0.751-0.154-1.478-0.065-2.259c0.794-0.208,1.563-0.067,2.393-0.1C131.133,190.293,131.133,191.025,131.133,191.858z"/>
<path fill-rule="evenodd" clip-rule="evenodd" fill="#A83A2F" d="M189.988,189.559c0,0.812,0,1.515,0,2.275
	c-0.806,0-1.565,0-2.386,0c0-0.752,0-1.479,0-2.275C188.391,189.559,189.149,189.559,189.988,189.559z"/>
<path fill-rule="evenodd" clip-rule="evenodd" fill="#A83A2F" d="M88.495,191.824c0-0.763,0-1.464,0-2.211
	c0.804-0.232,1.578-0.073,2.421-0.119c0,0.792,0,1.525,0,2.33C90.16,191.824,89.393,191.824,88.495,191.824z"/>
<path fill-rule="evenodd" clip-rule="evenodd" fill="#A83A2F" d="M118.161,198.048c0-0.825,0-1.556,0-2.346c0.677,0,1.307,0,2.005,0
	c0,0.765,0,1.522,0,2.346C119.53,198.048,118.901,198.048,118.161,198.048z"/>
<path fill-rule="evenodd" clip-rule="evenodd" fill="#A83A2F" d="M107.548,195.673c0.678,0,1.289,0,1.958,0
	c0.238,0.767,0.141,1.523,0.047,2.36c-0.666,0-1.296,0-2.005,0C107.548,197.288,107.548,196.529,107.548,195.673z"/>
<path fill-rule="evenodd" clip-rule="evenodd" fill="#A83A2F" d="M176.701,195.713c0,0.766,0,1.53,0,2.38c-0.813,0-1.598,0-2.384,0
	C174.351,196.563,175.147,195.767,176.701,195.713z"/>
<path fill-rule="evenodd" clip-rule="evenodd" fill="#A83A2F" d="M220.226,198.162c0.005-1.541,0.729-2.295,2.311-2.476
	c0.259,0.678,0.146,1.387,0.086,2.08c-0.013,0.145-0.302,0.364-0.476,0.377C221.509,198.189,220.865,198.162,220.226,198.162z"/>
<path fill-rule="evenodd" clip-rule="evenodd" fill="#A83A2F" d="M109.744,184.557c-0.227,1.637-0.868,2.263-2.375,2.385
	c0-0.787,0-1.568,0-2.385C108.167,184.557,108.925,184.557,109.744,184.557z"/>
<path fill-rule="evenodd" clip-rule="evenodd" fill="#A83A2F" d="M120.161,191.857c-0.669,0-1.279,0-1.968,0
	c0-0.748,0-1.474,0-2.283c0.634,0,1.264,0,1.968,0C120.161,190.29,120.161,191.02,120.161,191.857z"/>
<path fill-rule="evenodd" clip-rule="evenodd" fill="#A83A2F" d="M109.609,191.856c-0.758,0-1.372,0-2.062,0
	c0-0.746,0-1.477,0-2.287c0.627,0,1.261,0,1.939,0C109.771,190.286,109.598,191.019,109.609,191.856z"/>
<path fill-rule="evenodd" clip-rule="evenodd" fill="#A83A2F" d="M201.559,189.533c0.717,0,1.329,0,2.011,0c0,0.767,0,1.499,0,2.297
	c-0.644,0-1.28,0-1.966,0C201.376,191.104,201.458,190.376,201.559,189.533z"/>
<path fill-rule="evenodd" clip-rule="evenodd" fill="#A83A2F" d="M98.963,191.858c-0.714,0-1.328,0-2.015,0c0-0.752,0-1.483,0-2.291
	c0.634,0,1.268,0,1.953,0C99.147,190.291,99.049,191.021,98.963,191.858z"/>
<path fill-rule="evenodd" clip-rule="evenodd" fill="#A83A2F" d="M224.815,198.058c-0.661,0-1.263,0-1.928,0
	c0-0.807,0-1.563,0-2.368c0.658,0,1.262,0,1.928,0C224.815,196.489,224.815,197.247,224.815,198.058z"/>
<path fill-rule="evenodd" clip-rule="evenodd" fill="#A83A2F" d="M144.388,198.058c0-0.806,0-1.562,0-2.367c0.657,0,1.261,0,1.927,0
	c0,0.798,0,1.556,0,2.367C145.655,198.058,145.055,198.058,144.388,198.058z"/>
<path fill-rule="evenodd" clip-rule="evenodd" fill="#A83A2F" d="M176.984,195.697c0.716,0,1.295,0,1.922,0c0,0.793,0,1.532,0,2.344
	c-0.633,0-1.233,0-1.892,0C176.901,197.236,176.927,196.453,176.984,195.697z"/>
<path fill-rule="evenodd" clip-rule="evenodd" fill="#A83A2F" d="M139.513,191.837c-0.809,0-1.577,0-2.346,0
	c0.056-1.456,0.833-2.216,2.346-2.27C139.513,190.29,139.513,191.014,139.513,191.837z"/>
<path fill-rule="evenodd" clip-rule="evenodd" fill="#A83A2F" d="M181.571,191.842c-0.765,0-1.529,0-2.382,0c0-0.74,0-1.46,0-2.178
	C180.513,189.386,181.524,190.297,181.571,191.842z"/>
<path fill-rule="evenodd" clip-rule="evenodd" fill="#A83A2F" d="M121.705,186.941c-0.228,0.02-0.387,0.043-0.545,0.044
	c-0.586,0.005-1.171,0.002-1.834,0.002c0-0.812,0-1.576,0-2.343C120.729,184.6,121.436,185.248,121.705,186.941z"/>
<path fill-rule="evenodd" clip-rule="evenodd" fill="#A83A2F" d="M222.602,189.604c0,0.698,0,1.401,0,2.164
	c-0.772,0.265-1.573,0.062-2.367,0.124C220.255,190.37,221.124,189.532,222.602,189.604z"/>
<path fill-rule="evenodd" clip-rule="evenodd" fill="#A83A2F" d="M144.117,189.581c0,0.765,0,1.467,0,2.241
	c-0.842,0-1.636,0-2.435,0C141.859,190.27,142.58,189.581,144.117,189.581z"/>
<path fill-rule="evenodd" clip-rule="evenodd" fill="#A83A2F" d="M146.542,191.813c0-0.759,0-1.484,0-2.205
	c1.438-0.118,2.187,0.544,2.485,2.205C148.206,191.813,147.398,191.813,146.542,191.813z"/>
<path fill-rule="evenodd" clip-rule="evenodd" fill="#A83A2F" d="M168.6,189.594c1.438-0.046,2.176,0.643,2.413,2.301
	c-0.393,0-0.77,0-1.146,0c-0.389,0-0.778,0-1.261,0C168.452,191.09,168.457,190.342,168.6,189.594z"/>
<path fill-rule="evenodd" clip-rule="evenodd" fill="#A83A2F" d="M117.818,195.669c0,0.841,0,1.608,0,2.429
	c-0.787,0-1.514,0-2.237,0C115.516,196.66,116.193,195.926,117.818,195.669z"/>
<path fill-rule="evenodd" clip-rule="evenodd" fill="#A83A2F" d="M227.509,191.832c-0.223,0.021-0.444,0.056-0.666,0.06
	c-0.551,0.009-1.101,0.003-1.677,0.003c-0.229-0.803-0.169-1.53-0.065-2.252C226.476,189.458,227.341,190.248,227.509,191.832z"/>
<path fill-rule="evenodd" clip-rule="evenodd" fill="#A83A2F" d="M216.849,191.834c-0.186,0.021-0.374,0.055-0.562,0.058
	c-0.581,0.008-1.162,0.003-1.799,0.003c0-0.821,0-1.554,0-2.283C215.912,189.498,216.767,190.298,216.849,191.834z"/>
<path fill-rule="evenodd" clip-rule="evenodd" fill="#A83A2F" d="M119.019,184.573c0,0.806,0,1.543,0,2.348
	c-0.796,0-1.558,0-2.322,0C116.671,185.494,117.363,184.766,119.019,184.573z"/>
<path fill-rule="evenodd" clip-rule="evenodd" fill="#A83A2F" d="M176.682,191.895c-0.497,0-0.944,0-1.391,0
	c-0.317,0-0.635,0-0.954,0c0.035-1.52,0.822-2.297,2.345-2.334C176.682,190.287,176.682,191.014,176.682,191.895z"/>
<path fill-rule="evenodd" clip-rule="evenodd" fill="#A83A2F" d="M206.272,191.832c-0.772,0-1.536,0-2.372,0c0-0.732,0-1.461,0-2.19
	C205.227,189.454,206.043,190.19,206.272,191.832z"/>
<path fill-rule="evenodd" clip-rule="evenodd" fill="#A83A2F" d="M122.773,191.849c-0.776,0-1.485,0-2.272,0
	c0-0.737,0-1.468,0-2.201C121.785,189.465,122.669,190.277,122.773,191.849z"/>
<path fill-rule="evenodd" clip-rule="evenodd" fill="#A83A2F" d="M117.823,191.842c-0.78,0-1.512,0-2.243,0
	c-0.046-1.424,0.787-2.26,2.243-2.248C117.823,190.325,117.823,191.058,117.823,191.842z"/>
<path fill-rule="evenodd" clip-rule="evenodd" fill="#A83A2F" d="M112.095,191.895c-0.311,0-0.627,0-0.943,0
	c-0.414,0-0.828,0-1.369,0c0-0.467,0-0.844,0-1.222c0-0.35,0-0.698,0-1.034C111.24,189.495,112.173,190.41,112.095,191.895z"/>
<path fill-rule="evenodd" clip-rule="evenodd" fill="#A83A2F" d="M107.228,189.602c0,0.725,0,1.452,0,2.236
	c-0.767,0-1.494,0-2.218,0C104.842,190.478,105.759,189.544,107.228,189.602z"/>
<path fill-rule="evenodd" clip-rule="evenodd" fill="#A83A2F" d="M144.411,189.54c0.634,0,1.212,0,1.879,0c0,0.746,0,1.477,0,2.28
	c-0.581,0-1.186,0-1.879,0C144.411,191.114,144.411,190.388,144.411,189.54z"/>
<path fill-rule="evenodd" clip-rule="evenodd" fill="#A83A2F" d="M166.359,189.546c0.711,0,1.289,0,1.933,0c0,0.782,0,1.511,0,2.295
	c-0.651,0-1.255,0-1.934,0C166.269,191.044,166.276,190.292,166.359,189.546z"/>
<path fill-rule="evenodd" clip-rule="evenodd" fill="#A83A2F" d="M177.014,189.534c0.64,0,1.213,0,1.864,0c0,0.768,0,1.494,0,2.291
	c-0.597,0-1.195,0-1.864,0C177.014,191.102,177.014,190.375,177.014,189.534z"/>
<path fill-rule="evenodd" clip-rule="evenodd" fill="#A83A2F" d="M214.196,189.572c0,0.77,0,1.474,0,2.25c-0.616,0-1.213,0-1.891,0
	c0-0.719,0-1.443,0-2.25C212.899,189.572,213.495,189.572,214.196,189.572z"/>
<path fill-rule="evenodd" clip-rule="evenodd" fill="#A83A2F" d="M222.911,189.54c0.634,0,1.212,0,1.879,0c0,0.744,0,1.475,0,2.28
	c-0.581,0-1.185,0-1.879,0C222.911,191.114,222.911,190.388,222.911,189.54z"/>
<path fill-rule="evenodd" clip-rule="evenodd" fill="#A83A2F" d="M101.55,191.852c-0.776,0-1.485,0-2.279,0c0-0.741,0-1.467,0-2.195
	C100.532,189.458,101.423,190.274,101.55,191.852z"/>
<path fill-rule="evenodd" clip-rule="evenodd" fill="#A83A2F" d="M201.328,191.854c-0.854,0-1.562,0-2.266,0
	c-0.165-1.304,0.667-2.198,2.229-2.297c0.013,0.377,0.029,0.753,0.036,1.129C201.333,191.041,201.328,191.396,201.328,191.854z"/>
</svg>
