<?xml version="1.0" encoding="utf-8"?>
<!-- Generator: Adobe Illustrator 16.0.0, SVG Export Plug-In . SVG Version: 6.00 Build 0)  -->
<!DOCTYPE svg PUBLIC "-//W3C//DTD SVG 1.1//EN" "http://www.w3.org/Graphics/SVG/1.1/DTD/svg11.dtd">
<svg version="1.1" id="Calque_1" xmlns="http://www.w3.org/2000/svg" xmlns:xlink="http://www.w3.org/1999/xlink" x="0px" y="0px"
	 width="283.46px" height="283.46px" viewBox="0 0 283.46 283.46" enable-background="new 0 0 283.46 283.46" xml:space="preserve">
<path fill="#A83A2F" d="M257.802,175.015c-0.45,0.046-0.899,0.13-1.35,0.13c-33.492,0.007-66.986,0.006-100.479,0.006
	c-31.073,0-62.145,0-93.217,0c-0.42,0-0.841,0-1.332,0c0-3.128,0-6.183,0-9.315c0.229-0.027,0.474-0.07,0.722-0.086
	c0.261-0.016,0.523-0.004,0.785-0.004c64.434,0,128.868,0,193.302,0.002c0.521,0,1.045,0.028,1.566,0.045
	C257.802,168.867,257.802,171.94,257.802,175.015z"/>
<path fill="#A83A2F" d="M164.19,78.656c0.017,0.391,0.045,0.782,0.045,1.173c0.002,25.043,0.002,50.086,0.002,75.129
	c0,0.414,0,0.83,0,1.295c-3.177,0-6.231,0-9.405,0c0-0.467,0-0.883,0-1.299c0-25.011,0-50.021-0.002-75.031
	c0-0.423-0.039-0.846-0.06-1.269C157.912,78.656,161.05,78.656,164.19,78.656z"/>
<path fill="#A83A2F" d="M145.546,78.656c0.017,0.391,0.045,0.782,0.045,1.173c0.003,25.043,0.003,50.087,0.003,75.129
	c0,0.416,0,0.83,0,1.297c-3.147,0-6.17,0-9.271,0c-0.017-0.366-0.044-0.685-0.044-1.002c-0.002-25.239-0.002-50.479,0-75.719
	c0-0.293,0.029-0.586,0.045-0.879C139.398,78.656,142.473,78.656,145.546,78.656z"/>
<path fill="#A83A2F" d="M257.802,132.821c-3.1,0-6.199,0-9.36,0c0-7.734,0-15.371,0-23.122c3.113-0.082,6.237-0.019,9.36-0.036
	C257.802,117.383,257.802,125.102,257.802,132.821z"/>
<path fill="#A83A2F" d="M26.031,99.851c1.204,0,2.408,0,3.588,0c0.223,0.767,0.295,31.441,0.082,32.97c-1.208,0-2.439,0-3.67,0
	C26.031,121.831,26.031,110.841,26.031,99.851z"/>
<path fill="#A83A2F" d="M182.833,78.656c0.01,3.034,0.019,6.068,0.023,9.103c0,0.06-0.042,0.119-0.086,0.236
	c-3.035,0-6.092,0-9.297,0c0-0.3,0-0.611,0-0.923c0-2.448,0.003-4.896-0.002-7.345c-0.001-0.357-0.038-0.714-0.059-1.071
	C176.555,78.656,179.694,78.656,182.833,78.656z"/>
<path fill="#A83A2F" d="M257.802,109.271c-3.096,0-6.19,0-9.354,0c0-3.162,0-6.238,0-9.405c2.399,0.018,4.503,0.708,6.282,2.293
	c1.541,1.373,2.436,3.113,2.859,5.116c0.045,0.213,0.14,0.415,0.211,0.622C257.802,108.355,257.802,108.813,257.802,109.271z"/>
<path fill="#A83A2F" d="M257.802,148.326c-0.066,0.176-0.161,0.346-0.196,0.527c-0.769,4.007-3.81,6.839-7.874,7.322
	c-0.41,0.05-0.82,0.094-1.296,0.146c0-3.156,0-6.209,0-9.258c0.758-0.204,7.174-0.279,9.366-0.113
	C257.802,147.41,257.802,147.867,257.802,148.326z"/>
<path fill="#A83A2F" d="M230.72,204.255c0.007-5.91,0.015-11.821,0.021-17.731c0-0.646,0-1.289,0-1.979c0.869,0,1.637,0,2.506,0
	c0,0.397,0,0.748,0,1.099c0,5.846,0,11.69,0.002,17.538c0,0.357,0.015,0.718,0.021,1.076
	C232.419,204.255,231.57,204.255,230.72,204.255z"/>
<path fill="#A83A2F" d="M94.129,204.255c0.02-0.389,0.058-0.779,0.058-1.17c0.004-5.785,0.002-11.572,0.002-17.358
	c0-0.354,0-0.712,0-1.149c0.829,0,1.589,0,2.469,0c0,0.35,0,0.697,0,1.047c0,5.853,0,11.703,0.001,17.556
	c0,0.358,0.014,0.718,0.021,1.077C95.831,204.255,94.98,204.255,94.129,204.255z"/>
<path fill="#A83A2F" d="M134.361,204.255c0.02-0.356,0.058-0.715,0.058-1.071c0.004-4.151,0.003-8.304,0.003-12.456
	c0-0.354,0-0.71,0-1.113c0.822-0.217,1.586-0.117,2.491-0.066c0,4.923,0,9.815,0,14.709
	C136.062,204.255,135.211,204.255,134.361,204.255z"/>
<path fill="#A83A2F" d="M163.602,204.255c0.008-4.533,0.017-9.068,0.022-13.604c0-0.352,0-0.701,0-1.096c0.862,0,1.625,0,2.511,0
	c0,0.801-0.001,1.54,0,2.277c0.006,4.142,0.013,8.281,0.019,12.422C165.303,204.255,164.453,204.255,163.602,204.255z"/>
<path fill="#A83A2F" d="M209.524,204.255c0-4.885,0-9.771,0-14.764c0.624,0,1.14-0.009,1.651,0.002
	c0.254,0.006,0.507,0.043,0.867,0.076c0,0.812-0.002,1.584,0,2.354c0.011,4.111,0.021,8.222,0.033,12.332
	C211.226,204.255,210.375,204.255,209.524,204.255z"/>
<path fill="#A83A2F" d="M193.235,204.255c0-4.867,0-9.736,0-14.685c0.83,0,1.595,0,2.491,0c0,0.356,0,0.704,0,1.054
	c0,4.187-0.002,8.373,0.003,12.56c0,0.356,0.037,0.715,0.058,1.071C194.937,204.255,194.085,204.255,193.235,204.255z"/>
<path fill="#A83A2F" d="M214.431,204.255c0-4.006,0-8.012,0-12.071c0.893,0,1.658,0,2.552,0c0,4.06,0,8.065,0,12.071
	C216.132,204.255,215.281,204.255,214.431,204.255z"/>
<path fill="#A83A2F" d="M225.028,204.255c0-3.981,0-7.965,0-11.959c0.882-0.281,1.646-0.15,2.552-0.119c0,4.058,0,8.068,0,12.078
	C226.729,204.255,225.878,204.255,225.028,204.255z"/>
<path fill="#A83A2F" d="M168.507,204.255c0.021-0.356,0.059-0.715,0.06-1.071c0.004-3.271,0.003-6.54,0.003-9.812
	c0-0.354,0-0.711,0-1.098c0.822-0.259,1.588-0.131,2.49-0.098c0,4.058,0,8.068,0,12.078
	C170.208,204.255,169.358,204.255,168.507,204.255z"/>
<path fill="#A83A2F" d="M179.105,204.255c0.021-3.996,0.045-7.994,0.068-12.059c0.863,0,1.623,0,2.482,0c0,4.055,0,8.057,0,12.059
	C180.807,204.255,179.957,204.255,179.105,204.255z"/>
<path fill="#A83A2F" d="M99.232,204.255c-0.016-1.562-0.039-3.127-0.044-4.69c-0.008-2.086-0.002-4.173-0.002-6.26
	c0-0.351,0-0.699,0-1.112c0.844,0,1.573,0,2.401,0c0,4.061,0,8.062,0,12.062C100.802,204.255,100.017,204.255,99.232,204.255z"/>
<path fill="#A83A2F" d="M120.427,204.255c0-4.002,0-8.004,0-12.062c0.829,0,1.558,0,2.323,0c0.03,0.28,0.075,0.501,0.075,0.723
	c0.004,3.65,0.002,7.303,0,10.955c0,0.129-0.028,0.258-0.043,0.387C121.997,204.255,121.212,204.255,120.427,204.255z"/>
<path fill="#A83A2F" d="M201.479,204.255c0-0.737,0-1.477,0-2.227c0.729-0.29,1.388-0.165,2.158-0.109c0,0.803,0,1.569,0,2.336
	C202.917,204.255,202.198,204.255,201.479,204.255z"/>
<path fill="#A83A2F" d="M118.072,204.255c0.029-0.764,0.058-1.527,0.089-2.344c0.706,0,1.333,0,2.07,0c0,0.813,0,1.58,0,2.344
	C119.511,204.255,118.792,204.255,118.072,204.255z"/>
<path fill="#A83A2F" d="M107.475,204.255c0-0.74,0-1.481,0-2.312c0.701,0,1.352,0,2.151,0c0.002,0.785,0.005,1.55,0.007,2.312
	C108.914,204.255,108.194,204.255,107.475,204.255z"/>
<path fill="#A83A2F" d="M88.438,204.255c0-0.742,0-1.485,0-2.26c0.884-0.224,1.672-0.16,2.501-0.066
	c0.014,0.822-0.302,1.42-0.907,1.878c-0.202,0.151-0.408,0.3-0.613,0.448C89.092,204.255,88.765,204.255,88.438,204.255z"/>
<path fill="#A83A2F" d="M128.669,204.255c0-0.74,0-1.482,0-2.254c0.878-0.235,1.666-0.158,2.5-0.078
	c0.022,0.826-0.338,1.406-0.909,1.881c-0.194,0.16-0.405,0.302-0.609,0.451C129.324,204.255,128.997,204.255,128.669,204.255z"/>
<path fill="#A83A2F" d="M143.192,204.255c-0.657-0.476-1.313-0.951-1.481-1.821c-0.029-0.149-0.027-0.308-0.044-0.521
	c0.818,0,1.581,0,2.372,0c0.26,0.797,0.092,1.578,0.135,2.344C143.846,204.255,143.52,204.255,143.192,204.255z"/>
<path fill="#A83A2F" d="M221.692,204.255c-0.755-0.564-1.504-1.135-1.51-2.284c0.769-0.218,1.549-0.116,2.356-0.058
	c0.258,0.797,0.092,1.577,0.133,2.342C222.346,204.255,222.02,204.255,221.692,204.255z"/>
<path fill="#A83A2F" d="M146.528,204.255c0-0.739,0-1.48,0-2.338c0.826-0.097,1.64-0.105,2.495,0.014
	c-0.04,0.878-0.393,1.521-1.087,1.98c-0.151,0.101-0.285,0.229-0.427,0.344C147.183,204.255,146.855,204.255,146.528,204.255z"/>
<path fill="#A83A2F" d="M175.77,204.255c-0.726-0.58-1.506-1.125-1.465-2.31c0.766-0.173,1.546-0.1,2.446-0.026
	c0,0.802,0,1.568,0,2.336C176.423,204.255,176.097,204.255,175.77,204.255z"/>
<path fill="#A83A2F" d="M186.367,204.255c-0.716-0.603-1.5-1.159-1.441-2.327c0.762,0,1.527,0,2.424,0c0,0.782,0,1.556,0,2.327
	C187.021,204.255,186.694,204.255,186.367,204.255z"/>
<path fill="#A83A2F" d="M203.833,204.255c0-0.742,0-1.485,0-2.268c0.834-0.251,1.619-0.099,2.439-0.103
	c-0.008,1.256-0.725,1.89-1.654,2.37C204.356,204.255,204.095,204.255,203.833,204.255z"/>
<path fill="#A83A2F" d="M187.544,204.255c0-0.767,0-1.532,0-2.344c0.871,0,1.629,0,2.397,0c0.054,1.237-0.715,1.836-1.612,2.344
	C188.067,204.255,187.806,204.255,187.544,204.255z"/>
<path fill="#A83A2F" d="M176.947,204.255c0-0.746,0-1.494,0-2.32c0.663,0,1.26,0,1.963,0c0,0.781,0,1.552,0,2.32
	C178.255,204.255,177.602,204.255,176.947,204.255z"/>
<path fill="#A83A2F" d="M144.369,204.255c0-0.739,0-1.48,0-2.312c0.637,0,1.256,0,1.963,0c0,0.783,0,1.548,0,2.312
	C145.678,204.255,145.023,204.255,144.369,204.255z"/>
<path fill="#A83A2F" d="M222.869,204.255c0-0.739,0-1.48,0-2.312c0.637,0,1.256,0,1.963,0c0,0.783,0,1.548,0,2.312
	C224.178,204.255,223.523,204.255,222.869,204.255z"/>
<path fill="#A83A2F" d="M106.493,204.255c-0.438-0.377-0.933-0.707-1.294-1.147c-0.222-0.271-0.238-0.709-0.378-1.177
	c0.861,0,1.593,0,2.458,0c0,0.779,0,1.553,0,2.324C107.017,204.255,106.755,204.255,106.493,204.255z"/>
<path fill="#A83A2F" d="M117.091,204.255c-0.415-0.352-0.89-0.654-1.224-1.071c-0.241-0.302-0.292-0.754-0.468-1.255
	c0.888,0,1.618,0,2.476,0c0,0.785,0,1.556,0,2.326C117.614,204.255,117.353,204.255,117.091,204.255z"/>
<path fill="#A83A2F" d="M127.688,204.255c-0.408-0.356-0.876-0.668-1.206-1.088c-0.236-0.304-0.288-0.75-0.46-1.244
	c0.892,0,1.623,0,2.451,0c0,0.797,0,1.564,0,2.332C128.211,204.255,127.95,204.255,127.688,204.255z"/>
<path fill="#A83A2F" d="M109.83,204.255c0-0.745,0-1.491,0-2.318c0.762,0,1.493,0,2.311,0c0.129,0.788-0.258,1.35-0.814,1.829
	c-0.217,0.188-0.474,0.328-0.712,0.489C110.353,204.255,110.091,204.255,109.83,204.255z"/>
<path fill="#A83A2F" d="M87.457,204.255c-0.648-0.435-1.3-0.868-1.489-1.701c-0.041-0.182-0.034-0.374-0.055-0.633
	c0.774,0,1.503,0,2.329,0c0,0.801,0,1.566,0,2.334C87.98,204.255,87.719,204.255,87.457,204.255z"/>
<path fill="#A83A2F" d="M200.498,204.255c-0.424-0.387-0.898-0.731-1.248-1.178c-0.217-0.274-0.238-0.701-0.377-1.156
	c0.855,0,1.586,0,2.41,0c0,0.801,0,1.567,0,2.334C201.021,204.255,200.759,204.255,200.498,204.255z"/>
<path fill="#A83A2F" d="M201.408,156.265c-3.076,0-6.104,0-9.123,0c-0.209-0.734-0.298-54.303-0.103-56.258
	c0.694-0.196,7.444-0.266,9.226-0.087C201.408,118.681,201.408,137.449,201.408,156.265z"/>
<path fill="#A83A2F" d="M173.548,99.889c3.117,0,6.15,0,9.259,0c0,18.791,0,37.541,0,56.356c-3.073,0-6.13,0-9.259,0
	C173.548,137.473,173.548,118.724,173.548,99.889z"/>
<path fill="#A83A2F" d="M210.982,109.693c3.104,0,6.139,0,9.169,0c0.207,0.68,0.267,45.348,0.056,46.564c-3.049,0-6.104,0-9.225,0
	C210.982,140.752,210.982,125.275,210.982,109.693z"/>
<path fill="#A83A2F" d="M229.638,109.688c3.101,0,6.135,0,9.162,0c0.201,0.709,0.275,35.176,0.08,36.789c-3.051,0-6.109,0-9.242,0
	C229.638,134.26,229.638,122.024,229.638,109.688z"/>
<path fill="#A83A2F" d="M117.686,109.698c3.154,0,6.188,0,9.288,0c0,12.253,0,24.47,0,36.689c-0.693,0.187-8.171,0.225-9.288,0.036
	C117.686,134.217,117.686,122.001,117.686,109.698z"/>
<path fill="#A83A2F" d="M98.846,109.698c3.153,0,6.188,0,9.288,0c0,12.253,0,24.471,0,36.69c-0.692,0.188-8.171,0.225-9.288,0.035
	C98.846,134.217,98.846,122.001,98.846,109.698z"/>
<path fill="#A83A2F" d="M61.447,109.69c3.092,0,6.126,0,9.234,0c0,12.256,0,24.493,0,36.789c-3.056,0-6.114,0-9.176,0
	C61.317,145.804,61.248,111.247,61.447,109.69z"/>
<path fill="#A83A2F" d="M210.443,109.194c-2.812,0-5.631,0-8.501,0c0-3.087,0-6.141,0-9.325c2.815-0.042,5.634-0.012,8.431-0.019
	C210.589,100.619,210.637,108.011,210.443,109.194z"/>
<path fill="#A83A2F" d="M247.958,147.007c0,3.09,0,6.119,0,9.142c-0.709,0.2-7.138,0.254-8.541,0.069c0-3.043,0-6.094,0-9.146
	C240.094,146.869,246.566,146.807,247.958,147.007z"/>
<path fill="#A83A2F" d="M247.964,123.496c0,3.091,0,6.126,0,9.232c-2.846,0-5.668,0-8.551,0c0-3.062,0-6.119,0-9.178
	C240.096,123.364,246.578,123.312,247.964,123.496z"/>
<path fill="#A83A2F" d="M239.423,99.9c2.83,0,5.627,0,8.496,0c0,3.093,0,6.173,0,9.301c-2.828,0-5.627,0-8.496,0
	C239.423,106.111,239.423,103.032,239.423,99.9z"/>
<path fill="#A83A2F" d="M117.186,99.916c0,3.103,0,6.136,0,9.167c-0.679,0.204-7.201,0.257-8.521,0.062c0-3.048,0-6.105,0-9.23
	C111.487,99.916,114.285,99.916,117.186,99.916z"/>
<path fill="#A83A2F" d="M79.731,99.908c0,3.093,0,6.147,0,9.271c-2.816,0-5.635,0-8.455,0c-0.193-0.706-0.234-8.135-0.04-9.271
	C74.045,99.908,76.863,99.908,79.731,99.908z"/>
<path fill="#A83A2F" d="M71.197,146.953c2.869,0,5.666,0,8.523,0c0,3.094,0,6.15,0,9.283c-2.807,0-5.627,0-8.523,0
	C71.197,153.173,71.197,150.121,71.197,146.953z"/>
<path fill="#A83A2F" d="M117.161,156.267c-2.843,0-5.608,0-8.365,0c-0.234-0.693-0.288-8.096-0.062-9.298c2.779,0,5.57,0,8.428,0
	C117.161,150.046,117.161,153.101,117.161,156.267z"/>
<path fill="#A83A2F" d="M98.882,109.188c-0.338-4.816,3.78-9.516,9.266-9.226c0,3.053,0,6.109,0,9.226
	C105.063,109.188,102.01,109.188,98.882,109.188z"/>
<path fill="#A83A2F" d="M70.706,99.958c0,3.048,0,6.102,0,9.224c-3.083,0-6.16,0-9.235,0C60.692,104.556,65.854,99.38,70.706,99.958
	z"/>
<path fill="#A83A2F" d="M220.262,109.208c-3.126,0-6.181,0-9.288,0c0-3.093,0-6.146,0-9.201
	C214.755,99.406,220.39,102.843,220.262,109.208z"/>
<path fill="#A83A2F" d="M98.864,146.966c3.119,0,6.173,0,9.279,0c0,3.117,0,6.174,0,9.226
	C103.066,156.546,98.716,152.234,98.864,146.966z"/>
<path fill="#A83A2F" d="M238.968,109.22c-3.203,0-6.238,0-9.271,0c-0.477-4.271,3.164-9.357,9.23-9.317
	C239.003,102.982,238.946,106.063,238.968,109.22z"/>
<path fill="#A83A2F" d="M89.518,109.204c-3.096,0-6.129,0-9.163,0c-0.199-0.669-0.255-7.943-0.07-9.237
	C84.295,99.56,89.474,102.901,89.518,109.204z"/>
<path fill="#A83A2F" d="M61.458,146.939c3.096,0,6.13,0,9.229,0c0,3.118,0,6.201,0,9.282
	C65.209,156.488,61.143,151.764,61.458,146.939z"/>
<path fill="#A83A2F" d="M229.619,146.957c3.118,0,6.172,0,9.286,0c0,3.105,0,6.162,0,9.217
	C234.427,156.598,229.585,152.833,229.619,146.957z"/>
<path fill="#A83A2F" d="M117.737,99.916c4.581-0.18,9.206,3.37,9.227,9.281c-3.053,0-6.107,0-9.161,0
	C117.596,108.514,117.537,101.227,117.737,99.916z"/>
<path fill="#A83A2F" d="M80.255,146.951c3.095,0,6.123,0,9.147,0c0.503,4.627-3.516,9.369-9.147,9.285
	C80.255,153.182,80.255,150.126,80.255,146.951z"/>
<path fill="#A83A2F" d="M41.223,114.178c1.216,0,2.38,0,3.62,0c0,6.205,0,12.362,0,18.57c-1.201,0-2.368,0-3.541,0
	C41.099,132.086,41.015,116.05,41.223,114.178z"/>
<path fill="#A83A2F" d="M117.676,156.244c0-3.102,0-6.133,0-9.154c0.708-0.228,8.173-0.275,9.256-0.068
	C127.149,151.8,123.365,156.244,117.676,156.244z"/>
<path fill="#A83A2F" d="M187.283,201.708c-0.607,0-1.095,0.008-1.58-0.002c-0.225-0.006-0.447-0.043-0.656-0.064
	c-0.229-0.703-0.312-15.305-0.099-16.961c0.745-0.18,1.507-0.1,2.335-0.035C187.283,190.311,187.283,195.938,187.283,201.708z"/>
<path fill="#A83A2F" d="M88.219,201.64c-0.766,0-1.468,0-2.164,0c-0.208-0.702-0.28-15.398-0.08-16.98c0.717,0,1.445,0,2.244,0
	C88.219,190.315,88.219,195.942,88.219,201.64z"/>
<path fill="#A83A2F" d="M128.445,201.666c-0.8,0-1.478,0-2.143,0c-0.229-0.717-0.317-15.119-0.106-17.002c0.717,0,1.445,0,2.249,0
	C128.445,190.305,128.445,195.932,128.445,201.666z"/>
<path fill="#A83A2F" d="M141.697,201.626c0-3.162,0-6.273,0-9.44c0.782,0,1.518,0,2.354,0c0.162,3.131,0.109,6.235,0.025,9.372
	C143.264,201.812,142.507,201.723,141.697,201.626z"/>
<path fill="#A83A2F" d="M206.253,201.63c-0.784,0-1.516,0-2.244,0c-0.192-0.715-0.264-7.407-0.096-9.424c0.752,0,1.51,0,2.34,0
	C206.253,195.316,206.253,198.398,206.253,201.63z"/>
<path fill="#A83A2F" d="M198.994,192.193c0.812,0,1.519,0,2.277,0c0,3.153,0,6.244,0,9.426c-0.755,0-1.48,0-2.277,0
	C198.994,198.481,198.994,195.367,198.994,192.193z"/>
<path fill="#A83A2F" d="M104.942,192.181c0.784,0,1.489,0,2.266,0c0,3.146,0,6.26,0,9.451c-0.75,0-1.475,0-2.266,0
	C104.942,198.478,104.942,195.39,104.942,192.181z"/>
<path fill="#A83A2F" d="M33.601,128.671c0-1.703,0-3.319,0-4.994c1.228,0,2.421,0,3.684,0c0,1.614,0,3.23,0,4.986
	C36.085,128.693,34.87,128.674,33.601,128.671z"/>
<path fill="#A83A2F" d="M146.569,192.183c0.853,0,1.617,0,2.435,0c0,1.963,0,3.874,0,5.857c-0.787,0-1.58,0-2.435,0
	C146.569,196.091,146.569,194.164,146.569,192.183z"/>
<path fill="#A83A2F" d="M109.849,192.177c0.797,0,1.502,0,2.354,0c0.052,1.963,0.032,3.893,0.01,5.879c-0.831,0-1.564,0-2.364,0
	C109.849,196.104,109.849,194.195,109.849,192.177z"/>
<path fill="#A83A2F" d="M40.742,123.294c-1.054,0-2.02,0-3.11,0c0-0.635,0-1.244,0-1.852c0-0.613,0-1.227,0-1.891
	c1.073,0,2.064,0,3.11,0C40.742,120.793,40.742,121.986,40.742,123.294z"/>
<path fill="#A83A2F" d="M37.307,119.546c0,1.262,0,2.458,0,3.724c-1.232,0-2.42,0-3.608,0
	C33.31,121.406,34.921,119.704,37.307,119.546z"/>
<path fill="#A83A2F" d="M40.748,129.099c0,1.256,0,2.417,0,3.64c-1.027,0-2.02,0-3.064,0c0-1.212,0-2.399,0-3.64
	C38.7,129.099,39.665,129.099,40.748,129.099z"/>
<path fill="#A83A2F" d="M37.692,110.112c1.02,0,2.009,0,3.051,0c0,1.215,0,2.374,0,3.604c-1.009,0-2,0-3.051,0
	C37.692,112.529,37.692,111.345,37.692,110.112z"/>
<path fill="#A83A2F" d="M37.302,110.129c0,1.234,0,2.391,0,3.594c-1.264,0-2.478,0-3.691,0
	C33.645,111.521,35.188,110.015,37.302,110.129z"/>
<path fill="#A83A2F" d="M33.575,129.046c0.432,0,0.783,0,1.134,0c0.843,0,1.687,0,2.585,0c0,1.301,0,2.492,0,3.683
	C35.167,132.756,33.79,131.436,33.575,129.046z"/>
<path fill="#A83A2F" d="M44.831,113.746c-1.234,0-2.394,0-3.623,0c0-1.211,0-2.394,0-3.575
	C43.166,109.897,44.856,111.527,44.831,113.746z"/>
<path fill="#A83A2F" d="M174.23,198.38c0.876,0,1.641,0,2.45,0c0,1.089,0,2.117,0,3.191c-0.759,0.264-1.527,0.105-2.4,0.105
	C174.164,200.593,174.239,199.539,174.23,198.38z"/>
<path fill="#A83A2F" d="M220.198,198.373c0.786,0,1.521,0,2.366,0c0.084,1.068,0.059,2.113,0.018,3.248c-0.826,0-1.578,0-2.384,0
	C220.198,200.526,220.198,199.476,220.198,198.373z"/>
<path fill="#A83A2F" d="M115.474,198.38c0.832,0,1.536,0,2.37,0c0.07,1.049,0.021,2.104,0.027,3.244c-0.796,0-1.519,0-2.346,0
	c-0.018-0.543-0.042-1.052-0.049-1.561C115.468,199.546,115.474,199.026,115.474,198.38z"/>
<path fill="#A83A2F" d="M193.306,184.537c0.795,0,1.529,0,2.343,0c0,0.791,0,1.547,0,2.379c-0.752,0-1.511,0-2.343,0
	C193.306,186.166,193.306,185.405,193.306,184.537z"/>
<path fill="#A83A2F" d="M131.133,191.858c-0.807,0-1.548,0-2.328,0c-0.241-0.751-0.154-1.478-0.065-2.259
	c0.794-0.208,1.563-0.067,2.393-0.1C131.133,190.292,131.133,191.025,131.133,191.858z"/>
<path fill="#A83A2F" d="M189.988,189.559c0,0.812,0,1.515,0,2.274c-0.806,0-1.564,0-2.386,0c0-0.752,0-1.479,0-2.274
	C188.391,189.559,189.149,189.559,189.988,189.559z"/>
<path fill="#A83A2F" d="M88.495,191.824c0-0.763,0-1.464,0-2.211c0.804-0.232,1.578-0.072,2.421-0.119c0,0.793,0,1.525,0,2.33
	C90.16,191.824,89.393,191.824,88.495,191.824z"/>
<path fill="#A83A2F" d="M118.161,198.048c0-0.825,0-1.557,0-2.346c0.677,0,1.307,0,2.005,0c0,0.764,0,1.521,0,2.346
	C119.53,198.048,118.901,198.048,118.161,198.048z"/>
<path fill="#A83A2F" d="M107.548,195.673c0.678,0,1.289,0,1.958,0c0.238,0.767,0.141,1.522,0.047,2.359c-0.666,0-1.296,0-2.005,0
	C107.548,197.289,107.548,196.529,107.548,195.673z"/>
<path fill="#A83A2F" d="M176.701,195.712c0,0.767,0,1.531,0,2.381c-0.812,0-1.598,0-2.384,0
	C174.351,196.563,175.147,195.767,176.701,195.712z"/>
<path fill="#A83A2F" d="M220.226,198.162c0.005-1.541,0.729-2.295,2.311-2.476c0.26,0.678,0.146,1.387,0.086,2.08
	c-0.013,0.146-0.302,0.364-0.476,0.377C221.509,198.189,220.865,198.162,220.226,198.162z"/>
<path fill="#A83A2F" d="M109.744,184.557c-0.227,1.637-0.868,2.263-2.375,2.385c0-0.787,0-1.567,0-2.385
	C108.167,184.557,108.925,184.557,109.744,184.557z"/>
<path fill="#A83A2F" d="M120.161,191.857c-0.669,0-1.279,0-1.968,0c0-0.748,0-1.475,0-2.283c0.634,0,1.264,0,1.968,0
	C120.161,190.291,120.161,191.02,120.161,191.857z"/>
<path fill="#A83A2F" d="M109.609,191.856c-0.758,0-1.372,0-2.062,0c0-0.746,0-1.478,0-2.287c0.627,0,1.261,0,1.939,0
	C109.771,190.287,109.598,191.019,109.609,191.856z"/>
<path fill="#A83A2F" d="M201.559,189.533c0.717,0,1.329,0,2.011,0c0,0.768,0,1.499,0,2.297c-0.645,0-1.279,0-1.966,0
	C201.376,191.104,201.458,190.376,201.559,189.533z"/>
<path fill="#A83A2F" d="M98.963,191.858c-0.714,0-1.328,0-2.015,0c0-0.752,0-1.483,0-2.291c0.634,0,1.268,0,1.953,0
	C99.147,190.291,99.049,191.021,98.963,191.858z"/>
<path fill="#A83A2F" d="M224.815,198.058c-0.661,0-1.263,0-1.928,0c0-0.807,0-1.562,0-2.368c0.657,0,1.262,0,1.928,0
	C224.815,196.489,224.815,197.248,224.815,198.058z"/>
<path fill="#A83A2F" d="M144.388,198.058c0-0.807,0-1.562,0-2.367c0.656,0,1.261,0,1.927,0c0,0.798,0,1.557,0,2.367
	C145.655,198.058,145.055,198.058,144.388,198.058z"/>
<path fill="#A83A2F" d="M176.984,195.697c0.717,0,1.295,0,1.922,0c0,0.793,0,1.532,0,2.344c-0.633,0-1.232,0-1.892,0
	C176.901,197.236,176.927,196.453,176.984,195.697z"/>
<path fill="#A83A2F" d="M139.513,191.837c-0.809,0-1.577,0-2.346,0c0.056-1.457,0.833-2.217,2.346-2.271
	C139.513,190.291,139.513,191.014,139.513,191.837z"/>
<path fill="#A83A2F" d="M181.571,191.841c-0.765,0-1.528,0-2.382,0c0-0.739,0-1.459,0-2.178
	C180.513,189.386,181.524,190.296,181.571,191.841z"/>
<path fill="#A83A2F" d="M121.705,186.941c-0.228,0.02-0.387,0.043-0.545,0.044c-0.586,0.005-1.171,0.002-1.834,0.002
	c0-0.812,0-1.575,0-2.343C120.729,184.6,121.436,185.248,121.705,186.941z"/>
<path fill="#A83A2F" d="M222.602,189.604c0,0.698,0,1.401,0,2.164c-0.772,0.265-1.573,0.062-2.367,0.124
	C220.255,190.371,221.125,189.532,222.602,189.604z"/>
<path fill="#A83A2F" d="M144.117,189.582c0,0.765,0,1.467,0,2.24c-0.842,0-1.636,0-2.435,0
	C141.859,190.27,142.58,189.582,144.117,189.582z"/>
<path fill="#A83A2F" d="M146.542,191.813c0-0.759,0-1.483,0-2.205c1.438-0.118,2.187,0.544,2.484,2.205
	C148.207,191.813,147.398,191.813,146.542,191.813z"/>
<path fill="#A83A2F" d="M168.6,189.594c1.438-0.046,2.176,0.643,2.413,2.301c-0.393,0-0.77,0-1.146,0c-0.389,0-0.777,0-1.261,0
	C168.453,191.089,168.457,190.341,168.6,189.594z"/>
<path fill="#A83A2F" d="M117.818,195.669c0,0.841,0,1.607,0,2.429c-0.787,0-1.514,0-2.237,0
	C115.516,196.66,116.193,195.925,117.818,195.669z"/>
<path fill="#A83A2F" d="M227.509,191.832c-0.223,0.021-0.444,0.057-0.666,0.061c-0.551,0.009-1.102,0.003-1.678,0.003
	c-0.229-0.804-0.168-1.53-0.064-2.252C226.476,189.458,227.341,190.248,227.509,191.832z"/>
<path fill="#A83A2F" d="M216.849,191.833c-0.186,0.021-0.374,0.056-0.562,0.059c-0.58,0.008-1.162,0.003-1.799,0.003
	c0-0.821,0-1.554,0-2.283C215.912,189.498,216.767,190.298,216.849,191.833z"/>
<path fill="#A83A2F" d="M119.019,184.573c0,0.806,0,1.544,0,2.349c-0.796,0-1.558,0-2.322,0
	C116.671,185.494,117.363,184.766,119.019,184.573z"/>
<path fill="#A83A2F" d="M176.682,191.895c-0.497,0-0.944,0-1.392,0c-0.316,0-0.635,0-0.953,0c0.035-1.521,0.822-2.297,2.345-2.334
	C176.682,190.287,176.682,191.014,176.682,191.895z"/>
<path fill="#A83A2F" d="M206.272,191.832c-0.772,0-1.536,0-2.372,0c0-0.731,0-1.461,0-2.189
	C205.227,189.455,206.042,190.19,206.272,191.832z"/>
<path fill="#A83A2F" d="M122.773,191.849c-0.776,0-1.485,0-2.272,0c0-0.737,0-1.469,0-2.201
	C121.785,189.464,122.669,190.277,122.773,191.849z"/>
<path fill="#A83A2F" d="M117.823,191.841c-0.78,0-1.512,0-2.243,0c-0.046-1.424,0.787-2.26,2.243-2.247
	C117.823,190.326,117.823,191.058,117.823,191.841z"/>
<path fill="#A83A2F" d="M112.095,191.895c-0.311,0-0.627,0-0.943,0c-0.414,0-0.828,0-1.369,0c0-0.467,0-0.844,0-1.222
	c0-0.351,0-0.698,0-1.034C111.24,189.496,112.173,190.41,112.095,191.895z"/>
<path fill="#A83A2F" d="M107.228,189.602c0,0.726,0,1.452,0,2.235c-0.767,0-1.494,0-2.218,0
	C104.842,190.478,105.759,189.544,107.228,189.602z"/>
<path fill="#A83A2F" d="M144.412,189.541c0.633,0,1.211,0,1.879,0c0,0.746,0,1.477,0,2.279c-0.582,0-1.187,0-1.879,0
	C144.412,191.114,144.412,190.388,144.412,189.541z"/>
<path fill="#A83A2F" d="M166.359,189.546c0.711,0,1.289,0,1.934,0c0,0.781,0,1.511,0,2.295c-0.651,0-1.256,0-1.935,0
	C166.269,191.044,166.276,190.292,166.359,189.546z"/>
<path fill="#A83A2F" d="M177.014,189.535c0.64,0,1.213,0,1.864,0c0,0.768,0,1.493,0,2.291c-0.598,0-1.195,0-1.864,0
	C177.014,191.102,177.014,190.375,177.014,189.535z"/>
<path fill="#A83A2F" d="M214.196,189.572c0,0.77,0,1.475,0,2.25c-0.616,0-1.213,0-1.891,0c0-0.719,0-1.443,0-2.25
	C212.899,189.572,213.496,189.572,214.196,189.572z"/>
<path fill="#A83A2F" d="M222.912,189.541c0.633,0,1.211,0,1.879,0c0,0.744,0,1.475,0,2.279c-0.582,0-1.186,0-1.879,0
	C222.912,191.114,222.912,190.388,222.912,189.541z"/>
<path fill="#A83A2F" d="M101.55,191.852c-0.776,0-1.485,0-2.279,0c0-0.741,0-1.467,0-2.195
	C100.532,189.458,101.423,190.274,101.55,191.852z"/>
<path fill="#A83A2F" d="M201.328,191.854c-0.854,0-1.562,0-2.266,0c-0.165-1.304,0.667-2.198,2.229-2.297
	c0.014,0.377,0.029,0.753,0.037,1.129C201.333,191.041,201.328,191.396,201.328,191.854z"/>
</svg>
