<?xml version="1.0" encoding="utf-8"?>
<!-- Generator: Adobe Illustrator 16.0.0, SVG Export Plug-In . SVG Version: 6.00 Build 0)  -->
<!DOCTYPE svg PUBLIC "-//W3C//DTD SVG 1.1//EN" "http://www.w3.org/Graphics/SVG/1.1/DTD/svg11.dtd">
<svg version="1.1" id="Calque_1" xmlns="http://www.w3.org/2000/svg" xmlns:xlink="http://www.w3.org/1999/xlink" x="0px" y="0px"
	 width="283.46px" height="283.46px" viewBox="0 0 283.46 283.46" enable-background="new 0 0 283.46 283.46" xml:space="preserve">
<rect fill="#3E490E" width="283.46" height="283.46"/>
<path fill-rule="evenodd" clip-rule="evenodd" fill="#BFAF6D" d="M80.508,83.426c2.23,0.596,2.499,2.305,2.497,4.249
	c-0.017,15.627-0.01,31.256-0.006,46.884c0,0.806,0.02,1.613,0.065,2.418c0.077,1.386,0.464,1.779,1.885,1.745
	c2.082-0.051,4.161-0.2,6.242-0.263c6.145-0.186,12.289-0.369,18.435-0.503c0.858-0.019,1.747,0.153,2.578,0.391
	c2.194,0.628,2.861,2.854,1.361,4.585c-0.563,0.649-1.268,1.214-1.997,1.677c-6.053,3.839-9.828,9.531-12.843,15.817
	c-0.509,1.062-0.691,2.302-0.887,3.482c-0.069,0.417,0.273,0.903,0.427,1.357c0.471-0.184,1.075-0.243,1.388-0.576
	c0.848-0.899,1.693-1.844,2.323-2.899c2.322-3.893,4.557-7.837,6.82-11.765c0.453-0.785,0.86-1.598,1.337-2.368
	c0.64-1.036,1.596-1.523,2.812-1.361c1.269,0.168,1.803,1.062,1.992,2.213c0.614,3.74,1.199,7.485,1.831,11.222
	c0.122,0.722,0.348,1.438,0.625,2.117c0.601,1.476,1.324,1.583,2.303,0.355c0.416-0.522,0.809-1.084,1.103-1.681
	c2.491-5.053,4.252-10.364,5.476-15.853c0.325-1.458,0.037-2.878-0.841-4.132c-0.501-0.715-1.029-1.412-1.527-2.129
	c-1.44-2.07-1.569-4.319-0.774-6.633c0.673-1.958,2.361-3.129,4.354-3.161c1.626-0.026,2.669,0.581,3.14,2.131
	c0.356,1.174,0.483,2.426,0.62,3.654c0.095,0.864,0.006,1.747,0.049,2.619c0.107,2.202,0.877,3.21,2.955,3.943
	c1.139,0.402,2.299,0.756,3.404,1.236c0.949,0.412,1.881,0.902,2.737,1.48c1.397,0.943,2.094,2.279,2.077,4.018
	c-0.037,3.932-0.018,7.864-0.003,11.797c0.003,0.872-0.014,1.764,0.159,2.609c0.102,0.492,0.476,1.112,0.892,1.291
	c0.283,0.122,1.024-0.31,1.263-0.684c0.807-1.27,1.579-2.58,2.188-3.954c1.947-4.398,3.447-8.947,4.431-13.666
	c0.311-1.491-0.026-2.797-0.823-4.022c-0.549-0.845-1.16-1.648-1.727-2.482c-1.314-1.938-1.442-4.011-0.593-6.145
	c0.829-2.08,2.472-3.123,4.644-3.348c1.265-0.131,2.372,0.503,2.785,1.717c0.329,0.969,0.479,2.016,0.584,3.041
	c0.134,1.3,0.108,2.615,0.213,3.919c0.14,1.742,1.082,2.936,2.69,3.573c0.966,0.382,1.981,0.639,2.944,1.028
	c0.961,0.389,1.929,0.798,2.814,1.331c1.874,1.127,2.775,2.775,2.725,5.031c-0.096,4.232-0.069,8.468-0.077,12.702
	c-0.002,0.833-0.098,1.869,0.816,2.21c1.005,0.375,1.575-0.586,2.083-1.253c2.214-2.906,3.413-6.288,4.474-9.736
	c0.611-1.985,1.157-4.016,2.018-5.896c2.062-4.505,5.351-7.648,10.47-8.306c4.313-0.554,8.063,0.607,10.86,4.123
	c0.71,0.892,1.333,1.854,1.972,2.801c1.001,1.483,1.619,1.851,3.298,1.267c3.227-1.124,6.427-2.34,9.578-3.661
	c2.412-1.012,4.706-2.302,7.103-3.354c1.022-0.449,2.161-0.786,3.269-0.86c2.493-0.167,2.885-0.473,2.887-3.021
	c0.007-8.873-0.005-17.746,0.008-26.618c0.003-2.25-0.002-4.504,0.128-6.749c0.108-1.884,1.125-2.73,3.031-2.768
	c0.739-0.015,1.479-0.017,2.218,0.001c1.592,0.04,2.238,0.665,2.337,2.272c0.039,0.637,0.04,1.276,0.04,1.915
	c0.002,20.467,0.01,40.936-0.018,61.402c-0.001,1.191-0.13,2.428-0.467,3.563c-0.521,1.763-1.735,2.515-3.56,2.525
	c-3.287,0.021-3.999-0.648-4.22-3.913c-0.091-1.339-0.167-2.683-0.373-4.006c-0.065-0.416-0.477-1.003-0.832-1.089
	c-0.367-0.089-0.944,0.245-1.276,0.558c-0.456,0.429-0.754,1.022-1.145,1.525c-1.089,1.405-2.104,2.881-3.319,4.169
	c-0.812,0.861-1.841,1.592-2.9,2.132c-2.601,1.325-5.159,0.534-6.704-1.944c-1.208-1.938-1.626-4.11-1.73-6.343
	c-0.169-3.566,0.677-6.995,1.515-10.422c0.15-0.616,0.302-1.246,0.33-1.876c0.041-0.876-0.506-1.482-1.305-1.214
	c-1.823,0.615-3.68,1.27-5.32,2.248c-1.099,0.655-1.156,2.137-1.179,3.395c-0.053,2.978-0.401,5.89-1.65,8.64
	c-1.133,2.492-2.65,4.675-4.929,6.255c-4.825,3.348-11.392,2.412-15.361-2.212c-0.808-0.94-1.479-1.998-2.248-2.973
	c-1.461-1.849-2.505-1.813-3.847,0.108c-1.058,1.514-2.038,3.086-3.172,4.54c-1.588,2.036-3.673,2.961-6.297,2.458
	c-1.3-0.249-2.291-0.924-3.008-2.014c-1.157-1.76-1.731-3.713-1.743-5.804c-0.031-5.344-0.003-10.688-0.033-16.031
	c-0.004-0.689-0.098-1.428-0.358-2.057c-0.658-1.584-2.501-1.905-3.592-0.59c-0.534,0.646-0.89,1.502-1.126,2.32
	c-1.704,5.905-3.422,11.81-6.24,17.304c-0.853,1.66-1.847,3.308-3.066,4.707c-3.083,3.534-7.74,2.86-9.676-1.398
	c-0.635-1.397-1.035-3.02-1.072-4.551c-0.13-5.307-0.04-10.619-0.072-15.929c-0.004-0.724-0.113-1.49-0.372-2.159
	c-0.622-1.605-2.271-1.978-3.335-0.645c-0.744,0.932-1.269,2.136-1.575,3.302c-1.345,5.114-3,10.112-5.504,14.779
	c-1.042,1.944-2.301,3.786-3.599,5.574c-0.658,0.905-1.554,1.684-2.464,2.352c-1.889,1.386-4.001,1.04-5.202-0.968
	c-0.762-1.273-1.207-2.751-1.69-4.172c-0.419-1.235-0.605-2.553-1.064-3.771c-0.25-0.663-0.745-1.509-1.324-1.71
	c-0.884-0.306-1.355,0.673-1.798,1.322c-1.154,1.692-2.167,3.489-3.417,5.105c-1.039,1.343-2.207,2.65-3.541,3.686
	c-2.593,2.011-5.117,1.327-6.648-1.592c-1.44-2.746-1.387-5.619-0.708-8.536c1.078-4.627,2.6-9.092,4.893-13.275
	c1.012-1.847,0.503-3.134-1.579-3.27c-2.766-0.181-5.557,0.001-8.336,0.074c-0.765,0.021-1.536,0.164-2.286,0.33
	c-0.9,0.199-1.493,0.758-1.587,1.722c-0.064,0.666-0.128,1.337-0.128,2.006c-0.002,11.863,0.012,23.728,0.001,35.591
	c-0.001,1.068-0.061,2.154-0.26,3.2c-0.284,1.494-1.178,2.164-2.698,2.195c-1.042,0.021-2.085,0.03-3.125-0.011
	c-1.235-0.048-1.716-0.44-1.923-1.635c-0.142-0.821-0.208-1.666-0.209-2.5c-0.016-12.166-0.015-24.333-0.019-36.499
	c-0.001-2.976-0.444-3.481-3.385-3.268c-3.178,0.231-6.347,0.608-9.512,0.982c-1.712,0.203-2.249,0.851-2.267,2.614
	c-0.028,2.755-0.01,5.512-0.01,8.268c0,9.175,0.006,18.35-0.01,27.524c-0.001,0.834-0.079,1.683-0.249,2.498
	c-0.286,1.378-1.193,2.162-2.61,2.24c-1.475,0.082-2.956,0.084-4.434,0.065c-2.585-0.034-4.095-1.483-4.295-4.087
	c-0.039-0.501-0.023-1.008-0.023-1.512c-0.001-10.855,0.001-21.711-0.006-32.566c0-0.635-0.02-1.28-0.129-1.903
	c-0.224-1.273-0.774-1.806-2.058-1.723c-2.342,0.152-4.678,0.405-7.01,0.677c-4.766,0.554-9.527,1.148-14.291,1.725
	c-0.833,0.101-1.673,0.157-2.5,0.291c-1.192,0.192-2.121-0.113-2.68-1.248c0-0.471,0-0.941,0-1.412
	c0.389-0.78,1.099-1.038,1.892-1.145c0.798-0.107,1.599-0.193,2.398-0.29c5.362-0.65,10.726-1.285,16.085-1.959
	c2.228-0.28,4.449-0.619,6.665-0.98c1.013-0.166,1.589-0.837,1.672-1.869c0.076-0.936,0.153-1.875,0.154-2.812
	c0.009-15.962,0.006-31.925,0.011-47.888c0-0.67-0.003-1.349,0.095-2.009c0.345-2.324,1.788-3.74,3.898-4.573
	c1.412,0,2.823,0,4.235,0c2.208,0.48,3.118,2.043,3.352,4.11c0.105,0.932,0.09,1.879,0.091,2.82
	c0.005,15.191,0.001,30.382,0.009,45.573c0,1.041,0.057,2.083,0.133,3.121c0.108,1.469,0.66,1.945,2.149,1.879
	c0.569-0.025,1.134-0.12,1.702-0.176c2.772-0.277,5.547-0.527,8.315-0.839c1.622-0.183,2.27-0.875,2.473-2.539
	c0.093-0.764,0.134-1.54,0.134-2.31c0.008-14.855,0.005-29.71,0.008-44.565c0-1.008-0.037-2.022,0.053-3.023
	c0.216-2.417,0.932-3.676,3.089-3.925c0.095-0.011,0.182-0.083,0.273-0.126C78.895,83.426,79.701,83.426,80.508,83.426z
	 M183.676,156.046c0.119,3.313,0.347,6.018,1.729,8.467c0.89,1.576,2.186,2.61,4.025,2.867c2.667,0.371,4.773-0.604,6.235-2.808
	c2.11-3.183,2.641-6.772,2.383-10.504c-0.079-1.135-0.5-1.38-1.677-1.394c-1.338-0.015-2.682-0.006-4.011-0.131
	c-1.472-0.139-2.719-0.841-3.895-1.741c-2.192-1.678-3.789-1.079-4.328,1.627C183.864,153.805,183.777,155.217,183.676,156.046z
	 M213.946,164.273c0.238,0.846,0.091,1.753,1.034,2.137c0.892,0.362,1.564-0.207,2.129-0.778c0.586-0.593,1.132-1.245,1.587-1.942
	c2.439-3.736,4.117-7.828,5.411-12.074c0.415-1.365,0.68-2.809,0.77-4.231c0.096-1.521-1.078-2.18-2.332-1.319
	c-0.862,0.591-1.635,1.403-2.238,2.265c-2.254,3.213-3.739,6.812-4.929,10.526C214.81,160.632,214.418,162.466,213.946,164.273z
	 M188.617,145.377c0.181,0.529,0.26,1.127,0.561,1.575c1.118,1.666,2.794,2.454,4.735,2.366c2.464-0.111,3.484-2.365,2.093-4.407
	c-0.779-1.145-1.833-1.961-3.181-2.336C190.731,141.992,188.739,143.348,188.617,145.377z"/>
<path fill-rule="evenodd" clip-rule="evenodd" fill="#BFAF6D" d="M236.646,185.287c0.013-2.327,0.976-4.199,2.924-5.427
	c1.557-0.98,3.269-1.709,4.881-2.606c2.109-1.173,4.239-2.32,6.261-3.634c1.506-0.979,2.683-2.338,3.314-4.082
	c0.96-2.649,0.23-5.027-2.199-6.432c-1.56-0.902-3.271-1.547-4.936-2.258c-1.512-0.645-3.051-1.226-4.58-1.83
	c-5.886-2.324-5.825-7.549-3.634-11.625c0.686-1.275,1.706-2.425,2.758-3.44c4.282-4.133,9.373-6.935,15.031-8.696
	c2.457-0.765,4.488,0.581,4.62,3.112c0.113,2.19-0.695,4.684-3.303,5.709c-1.431,0.563-2.93,0.956-4.405,1.404
	c-3.62,1.101-6.552,3.209-8.909,6.131c-1.793,2.222-1.433,4.016,1.145,5.274c1.408,0.688,2.939,1.126,4.419,1.664
	c0.852,0.31,1.712,0.594,2.568,0.889c6.72,2.313,9.555,9.353,6.426,16.131c-0.962,2.085-2.433,3.789-4.221,5.198
	c-3.632,2.862-7.555,5.25-11.859,6.965c-0.864,0.345-1.789,0.598-2.709,0.73C237.773,188.819,236.651,187.79,236.646,185.287z"/>
</svg>
