<?xml version="1.0" encoding="utf-8"?>
<!-- Generator: Adobe Illustrator 16.0.0, SVG Export Plug-In . SVG Version: 6.00 Build 0)  -->
<!DOCTYPE svg PUBLIC "-//W3C//DTD SVG 1.1//EN" "http://www.w3.org/Graphics/SVG/1.1/DTD/svg11.dtd">
<svg version="1.1" id="Calque_1" xmlns="http://www.w3.org/2000/svg" xmlns:xlink="http://www.w3.org/1999/xlink" x="0px" y="0px"
	 width="283.46px" height="283.46px" viewBox="0 0 283.46 283.46" enable-background="new 0 0 283.46 283.46" xml:space="preserve">
<rect fill="#FFFFFF" width="283.46" height="283.46"/>
<path fill-rule="evenodd" clip-rule="evenodd" fill="#D3591C" d="M141.958,117.389c2.646,0,5.223,0,7.799,0
	c0.058-0.079,0.114-0.158,0.172-0.237c-0.312-0.367-0.613-0.745-0.94-1.099c-0.7-0.757-0.672-1.125,0.213-1.686
	c0.579-0.367,0.762-0.771,0.326-1.371c-0.171-0.234-0.349-0.504-0.397-0.779c-0.329-1.879-1.605-2.987-3.092-3.965
	c-0.737-0.485-1.398-1.081-2.111-1.604c-0.507-0.371-0.486-0.8-0.197-1.271c0.153-0.25,0.307-0.519,0.522-0.707
	c1.594-1.389,3.194-2.771,4.814-4.131c0.595-0.499,1.232-0.939,1.262-1.778c-0.077-0.088-0.154-0.175-0.231-0.263
	c-0.705,0.475-1.445,0.906-2.108,1.434c-1.532,1.219-3.174,2.345-4.507,3.758c-2.977,3.154-5.216,6.695-4.281,11.341
	c0.175,0.868,0.666,1.69,1.102,2.483c0.331,0.602,0.368,0.909-0.437,0.908c-5.471-0.003-10.942-0.002-16.506-0.002
	c0.34-0.771,0.819-1.057,1.609-1.049c3.277,0.035,6.555,0.017,9.833,0.013c1.173-0.001,1.251-0.107,1.054-1.244
	c-0.044-0.255-0.144-0.583-0.033-0.766c0.393-0.657,0.456-1.188-0.257-1.674c-0.105-0.072-0.08-0.416-0.036-0.617
	c0.605-2.774,1.218-5.546,1.848-8.315c0.061-0.27,0.242-0.512,0.367-0.768c0.114,0.022,0.229,0.045,0.343,0.067
	c-0.186,1.277-0.311,2.566-0.575,3.827c-0.328,1.565-0.798,3.101-1.146,4.663c-0.09,0.408,0.041,0.868,0.084,1.303
	c0.038,0.383,0.119,0.764,0.135,1.147c0.008,0.188-0.105,0.377-0.134,0.57c-0.105,0.711,0.024,1.363,0.797,1.577
	c0.429,0.12,0.92,0.018,1.383,0.017c-0.15-0.641-0.089-1.559-0.493-1.866c-0.906-0.69-0.651-1.492-0.519-2.255
	c0.524-3.023,1.112-6.036,1.709-9.046c0.055-0.279,0.317-0.536,0.527-0.761c0.501-0.538,1.03-1.051,1.463-1.709
	c-2.671,0.46-5.414,0.609-7.582,2.448c-0.79,0.67-1.283,1.568-1.239,2.671c0.03,0.738-0.126,1.442-0.906,1.671
	c-0.864,0.254-1.731,0.489-2.529-0.375c-1.634-1.768-3.707-2.239-6.061-1.822c0.794,1.475,0.849,1.495,2.248,0.981
	c0.483-0.177,0.971-0.341,1.457-0.511c0.035,0.099,0.069,0.197,0.104,0.296c-0.823,0.329-1.645,0.658-2.32,0.928
	c0.187,1.529,0.516,2.965,0.505,4.398c-0.024,3.342-3.142,6.366-6.484,6.637c-4.425,0.359-7.384-2.661-7.983-5.652
	c-0.121-0.603-0.188-1.242-0.126-1.849c0.085-0.835-0.317-1.077-1.029-1.184c-0.729-0.109-1.445-0.301-2.166-0.456
	c-0.021-0.109-0.043-0.219-0.064-0.328c0.772-0.35,1.521-0.772,2.322-1.032c1.174-0.38,2.084-1.014,2.985-1.892
	c0.92-0.898,2.233-1.397,3.385-2.05c0.244-0.138,0.54-0.187,0.785-0.51c-1.7,0.093-3.408,0.114-5.096,0.307
	c-0.931,0.107-1.576,0.028-1.934-0.942c-0.66-1.788-1.671-2.521-3.842-2.234c-5.517,0.728-10.828-0.499-16.067-2.273
	c-2.137-0.724-4.484-0.995-6.669,0.21c-1.406,0.776-2,1.913-1.698,3.087c0.15,0.581,0.402,0.728,0.974,0.566
	c3.587-1.014,6.56-0.005,9.015,2.749c0.258,0.289,0.68,0.485,1.062,0.599c0.995,0.296,2.011,0.522,3.041,1.021
	c-0.855,0.226-1.709,0.452-2.667,0.706c0.08,0.48,0.156,0.949,0.237,1.418c0.775,4.527-2.109,8.762-6.578,9.656
	c-4.4,0.88-8.689-1.834-9.682-6.257c-0.258-1.149-0.17-2.4-0.082-3.593c0.046-0.62,0.041-0.886-0.654-0.954
	c-0.728-0.071-1.442-0.29-2.189-0.67c1.012-0.31,2.04-0.575,3.028-0.947c0.488-0.184,0.937-0.524,1.343-0.866
	c0.748-0.629,1.472-1.292,2.16-1.986c0.206-0.208,0.407-0.595,0.359-0.854c-0.335-1.837,0.282-3.282,1.899-4.21
	c0.396-0.228,0.81-0.441,1.241-0.586c1.29-0.435,2.033-1.322,2.112-2.66c0.086-1.46,0.137-2.934,0.026-4.388
	c-0.034-0.45-0.572-0.968-1.009-1.26c-0.975-0.651-2.078-1.112-3.042-1.776c-0.881-0.607-1.479-1.494-1.588-2.605
	c-0.099-1.016,0.534-1.56,1.52-1.295c0.651,0.175,1.275,0.453,1.974,0.708c0.127-0.354,0.231-0.646,0.346-0.965
	c0.839-0.137,1.2,0.516,1.465,1.053c0.492,0.997,1.237,1.447,2.303,1.529c2.052,0.158,4.106,0.312,6.153,0.529
	c2.109,0.223,4.241,0.374,6.307,0.815c2.837,0.606,4.842,2.366,6.308,4.904c1.24,2.147,2.688,4.188,4.189,6.166
	c4.403,5.801,13.092,3.896,15.913-1.806c1.146-2.317,2.273-4.645,3.455-6.944c1.315-2.559,2.958-4.871,5.297-6.616
	c0.126-0.094,0.26-0.178,0.481-0.174c-0.715,0.861-1.503,1.671-2.128,2.593c-1.08,1.596-2.1,3.237-3.049,4.913
	c-0.235,0.415-0.291,1.128-0.096,1.551c0.607,1.322,1.229,2.683,2.117,3.817c0.966,1.235,2.448,1.535,4.013,1.323
	c0.782-0.105,1.096-0.414,1.044-1.271c-0.145-2.41,0.178-4.763,1.135-7.007c0.858-2.011,2.196-3.521,4.252-4.397
	c1.466-0.624,2.818-1.557,4.321-2.04c2.5-0.804,5.024-0.546,7.479,0.414c-1.134,1.437-2.291,2.769-3.298,4.206
	c-2.029,2.893-3.435,6.088-4.367,9.496c-0.084,0.305-0.313,0.72-0.568,0.804c-1.329,0.438-2.688,0.785-4.113,1.185
	c0-1.1,0-2.114,0-3.312c-0.617,0.288-1.093,0.51-1.569,0.732c-0.058-0.081-0.115-0.162-0.173-0.242
	c0.358-0.236,0.701-0.499,1.078-0.7c0.488-0.259,0.618-0.565,0.605-1.165c-0.039-1.759-0.07-3.544,0.193-5.274
	c0.168-1.105,0.865-2.13,1.345-3.235c-0.976,0.202-1.593,0.903-2.097,1.694c-0.958,1.502-1.282,3.207-1.396,4.949
	c-0.061,0.914-0.007,1.835-0.024,2.752c-0.005,0.253,0.003,0.571-0.136,0.745c-0.442,0.549-0.715,0.841,0.186,1.359
	c0.796,0.458,0.273,1.995-0.652,2.196c-1.813,0.395-1.813,0.395-2.332-1.454c-4.375,0.877-6.241-1.866-7.562-5.707
	c-0.319,0.652-0.521,1.04-0.701,1.437c-0.782,1.729-1.518,3.479-2.345,5.186c-1.418,2.926-3.645,4.828-6.957,5.29
	c-0.281,0.039-0.549,0.167-0.875,0.271c1.368,0.808,2.613,0.948,4.163,0.493c3.913-1.149,7.863-2.458,11.884-2.882
	c5.389-0.568,10.456-2.166,15.544-3.739c4.024-1.245,7.938-2.853,11.879-4.356c0.777-0.296,1.132-0.266,1.613,0.516
	c0.936,1.517,2.077,2.907,3.206,4.449c-0.977,0.155-2.015,0.379-3.064,0.472c-1.713,0.152-3.38-0.051-5.001-0.716
	c-1.081-0.444-2.215-0.812-3.36-1.027c-0.773-0.145-1.624-0.049-2.412,0.093c-0.837,0.15-1.533,0.401-1.498,1.628
	c0.02,0.674-0.635,1.48-1.182,2.033c-0.987,0.998-2.143,1.827-3.19,2.768c-1.318,1.186-1.493,2.235-0.452,3.687
	c0.738,1.03,1.661,1.934,2.551,2.847c0.568,0.583,0.743,1.193,0.735,2.017c-0.014,1.59,0.164,3.182,0.267,4.86
	c0.34,0.024,0.655,0.066,0.972,0.066c9.407,0.003,18.813,0.004,28.221,0.001c0.512,0,1.094,0.121,1.182-0.668
	c0.07-0.628,0.614-1.344-0.449-1.707c-0.179-0.061-0.315-0.47-0.339-0.729c-0.171-1.899-0.3-3.798-1.844-5.218
	c-0.174-0.16-0.218-0.469-0.305-0.714c-0.74-2.096-1.441-4.208-2.248-6.277c-0.152-0.39-0.677-0.736-1.106-0.897
	c-1.341-0.505-2.763-0.812-4.073-1.378c-2.876-1.243-4.335-3.661-5.139-6.564c-0.176-0.639,0.119-0.932,0.665-1.205
	c2.459-1.23,4.897-2.5,7.341-3.76c0.262-0.135,0.548-0.263,0.747-0.468c1.216-1.249,2.593-1.626,4.273-1.018
	c0.414,0.15,0.988,0.01,1.438-0.146c0.279-0.096,0.462-0.472,0.821-0.87c1.878,2.562,4.616,4.428,7.458,6.187
	c-2.389-0.738-4.283-2.284-6.241-3.945c-0.951,1.95,1.159,3.321,0.481,5.253c3.294-0.555,6.34-1.068,9.385-1.581
	c0.018,0.09,0.034,0.181,0.051,0.272c-1.146,0.233-2.291,0.475-3.439,0.697c-1.699,0.33-3.393,0.708-5.104,0.945
	c-0.964,0.134-1.162,0.622-1.153,1.46c0.005,0.47-0.053,1.021-0.295,1.399c-1.154,1.798-1.079,3.783-0.752,5.709
	c0.309,1.819,1.074,3.557,1.467,5.368c0.371,1.715,0.481,3.484,0.776,5.218c0.26,1.528,1.062,2.679,2.445,3.492
	c0.53,0.312,0.853,1.008,1.201,1.572c0.05,0.081-0.251,0.449-0.454,0.592c-0.132,0.093-0.381,0.021-0.577,0.021
	c-14.356,0-28.713-0.002-43.069,0.008C142.702,118.43,142.119,118.398,141.958,117.389z M77.902,112.407
	c0.246,0.807,0.493,1.614,0.837,2.74c1.517-1.205,2.762-2.179,3.98-3.186c0.122-0.101,0.171-0.467,0.084-0.595
	c-0.094-0.139-0.399-0.22-0.592-0.191c-0.806,0.121-1.62,0.238-2.4,0.462c-0.664,0.19-1.286,0.523-1.927,0.793
	c0.049-0.281,0.098-0.562,0.132-0.758c1.384-0.261,2.694-0.487,3.992-0.771c0.248-0.054,0.445-0.337,0.666-0.515
	c-0.206-0.209-0.375-0.521-0.624-0.611c-1.361-0.489-2.743-0.924-4.208-1.407C77.478,109.809,77.156,111.109,77.902,112.407z
	 M82.35,117.39c0.758,0.171,1.51,0.389,2.277,0.5c0.766,0.111,1.254-0.322,1.156-1.072c-0.159-1.225-0.438-2.436-0.72-3.64
	c-0.053-0.226-0.355-0.393-0.543-0.587c-0.179,0.201-0.435,0.373-0.525,0.608c-0.422,1.095-0.788,2.212-1.197,3.313
	c-0.118,0.317-0.311,0.605-0.469,0.907c0.046-0.305,0.046-0.626,0.146-0.912c0.407-1.167,0.86-2.318,1.254-3.489
	c0.066-0.196,0.001-0.545-0.139-0.668c-0.128-0.112-0.508-0.105-0.663,0.007c-1.001,0.729-1.985,1.482-2.945,2.265
	c-0.551,0.45-0.664,1.011,0.004,1.443C80.744,116.554,81.557,116.957,82.35,117.39z M114.195,116.81
	c0.697-1.096,1.413-2.18,2.074-3.297c0.132-0.223,0.152-0.626,0.033-0.843c-0.075-0.138-0.541-0.189-0.761-0.102
	c-0.996,0.398-1.962,0.87-2.948,1.295c-0.527,0.228-0.624,0.587-0.268,0.987c0.599,0.673,1.254,1.297,1.885,1.942
	c2.105,1.324,4.276,1.462,6.498,0.324c1.014-0.521,1.049-0.752,0.313-1.589c-0.54-0.613-1.07-1.239-1.661-1.801
	c-0.266-0.253-0.668-0.364-1.008-0.539c-0.137,0.361-0.393,0.724-0.389,1.084c0.01,1.049,0.124,2.097,0.196,3.145
	c-0.305-1.036-0.363-2.092-0.487-3.14c-0.041-0.338-0.257-0.656-0.393-0.982c-0.297,0.187-0.669,0.312-0.876,0.571
	C115.636,114.826,114.923,115.829,114.195,116.81z M104.454,90.766c-0.285-0.383-0.425-0.645-0.631-0.836
	c-1.231-1.143-2.699-1.938-4.334-2.146c-2.585-0.329-5.196-0.497-7.801-0.617c-2.87-0.132-5.676-0.4-8.156-2.049
	c-0.352-0.234-0.733-0.479-1.135-0.57c-0.43-0.097-1.159-0.186-1.293,0.022c-0.223,0.345-0.246,1.015-0.054,1.399
	c0.826,1.657,2.359,2.491,4.022,3.08c2.471,0.875,5.03,0.61,7.58,0.521c2.54-0.089,5.092-0.221,7.621-0.06
	C101.589,89.594,102.869,90.268,104.454,90.766z M184.986,117.177c-0.191-0.295-0.298-0.65-0.455-0.673
	c-1.206-0.181-1.199-1.05-1.227-1.958c-0.011-0.348-0.153-0.705-0.292-1.034c-0.611-1.448-1.311-2.862-1.853-4.335
	c-0.879-2.39-1.631-4.826-2.511-7.216c-0.128-0.349-0.665-0.546-1.014-0.814c-0.063,0.395-0.272,0.835-0.166,1.178
	c0.601,1.934,1.262,3.849,1.931,5.76c0.56,1.595,1.168,3.172,1.733,4.765c0.181,0.507,0.259,1.052,0.449,1.555
	c0.181,0.476,0.527,0.897,0.661,1.381C182.688,117.404,183.117,117.671,184.986,117.177z M91.504,109.427
	c0.018,0.067,0.037,0.134,0.055,0.201c-0.136,0.05-0.268,0.122-0.408,0.145c-1.254,0.205-2.513,0.383-3.762,0.617
	c-0.234,0.044-0.429,0.303-0.641,0.463c0.183,0.159,0.341,0.384,0.553,0.465c1.128,0.429,2.279,0.799,3.405,1.234
	c0.726,0.281,1.112-0.012,1.149-0.689c0.049-0.875,0.022-1.764-0.071-2.635c-0.14-1.3-0.185-1.358-1.505-1.205
	c-1.039,0.121-2.2-0.129-3.057,0.722c-0.268,0.266-0.426,0.641-0.634,0.966c0.431,0.116,0.877,0.369,1.29,0.322
	C89.093,109.895,90.296,109.637,91.504,109.427z M133.086,103.444c-2.421,0.214-4.695,0.803-7.01,1.775
	c0.868,0.579,1.54,1.373,2.273,1.435c1.161,0.098,2.364-0.286,3.543-0.497c0.096-0.018,0.156-0.271,0.22-0.419
	C132.415,105.033,132.713,104.326,133.086,103.444z M86.225,117.826c0.78-0.357,1.631-0.725,2.46-1.134
	c0.525-0.259,0.58-0.687,0.214-1.119c-0.84-0.997-1.691-1.986-2.571-2.947c-0.133-0.146-0.543-0.247-0.653-0.157
	c-0.176,0.144-0.287,0.466-0.282,0.709c0.007,0.384,0.139,0.764,0.208,1.147C85.802,115.438,85.998,116.551,86.225,117.826z
	 M91.301,98.603c0.048-0.066,0.096-0.131,0.144-0.197c-1.496-1.463-2.992-2.926-4.421-4.324c-0.357,0.84-0.733,1.738-1.121,2.631
	c-0.274,0.633-0.159,1.006,0.609,1.018c1.291,0.019,2.594-0.074,3.755,0.719C90.526,98.625,90.952,98.558,91.301,98.603z
	 M123.851,109.327c-1.557,0.604-2.833,1.052-4.067,1.599c-0.494,0.219-0.393,0.936,0.147,1.11c1.05,0.341,2.113,0.656,3.191,0.885
	c0.239,0.051,0.801-0.286,0.81-0.464C123.979,111.509,123.898,110.555,123.851,109.327z M111.802,113.831
	c1.337-0.569,2.562-1.07,3.765-1.623c0.174-0.081,0.356-0.434,0.318-0.614c-0.049-0.226-0.285-0.489-0.506-0.583
	c-0.381-0.164-0.81-0.269-1.225-0.294c-0.877-0.054-1.758-0.04-2.637-0.054C111.604,111.641,111.693,112.62,111.802,113.831z
	 M178.108,100.583c-0.318-1.067-0.687-1.62-1.832-1.47c-1.888,0.248-3.776,0.172-5.567-0.667c-0.31-0.145-0.745-0.021-1.123-0.021
	C172.219,100.005,174.801,101.597,178.108,100.583z M89.791,115.915c0.532-0.75,0.897-1.245,1.241-1.755
	c0.38-0.562,0.227-1.022-0.375-1.258c-1.186-0.465-2.388-0.891-3.596-1.296c-0.166-0.056-0.492,0.037-0.578,0.169
	s-0.041,0.467,0.076,0.598C87.574,113.518,88.618,114.637,89.791,115.915z M123.811,113.76c-0.284-0.233-0.416-0.42-0.589-0.471
	c-1.124-0.33-2.253-0.646-3.391-0.926c-0.176-0.043-0.53,0.07-0.576,0.195c-0.072,0.195-0.031,0.527,0.1,0.688
	c0.703,0.859,1.434,1.697,2.191,2.509c0.137,0.146,0.586,0.253,0.647,0.179C122.743,115.263,123.237,114.548,123.811,113.76z
	 M111.598,109.82c1.562,0,2.909,0,4.562,0c-0.571-0.727-0.921-1.186-1.285-1.633c-0.677-0.831-1.911-0.827-2.525,0.051
	C112.062,108.647,111.909,109.149,111.598,109.82z M120.819,106.164c-0.936,0.158-1.817,0.292-2.69,0.467
	c-0.145,0.029-0.355,0.23-0.362,0.36c-0.034,0.752-0.017,1.507-0.017,2.268C119.304,109.161,120.46,107.971,120.819,106.164z
	 M86.068,108.001c1.382,0.234,3.021-0.736,3.506-2.025C86.418,105.202,86.638,105.568,86.068,108.001z M81.99,108.188
	c0.038-0.106,0.076-0.213,0.114-0.32c-0.825-0.613-1.087-1.961-2.492-1.81c-1.006,0.109-1.187,0.956-1.595,1.952
	C79.447,108.074,80.719,108.131,81.99,108.188z M84.084,108.052c-0.096-2.563-0.757-2.976-3.225-1.949
	C81.894,106.875,82.245,108.526,84.084,108.052z M114.621,107.402c0.605,0.732,1.107,1.397,1.681,1.993
	c0.15,0.156,0.566,0.198,0.78,0.106c0.192-0.082,0.371-0.412,0.391-0.646c0.187-2.167,0.034-2.288-2.046-1.714
	C115.217,107.199,115.013,107.274,114.621,107.402z M85.257,103.441c-0.097-0.014-0.194-0.035-0.291-0.04
	c-0.601-0.033-1.157,0.042-1.187,0.806c-0.028,0.712,0.299,1.087,1.073,0.994c0.387-0.046,0.822,0.095,1.165-0.036
	c0.314-0.12,0.731-0.483,0.739-0.751c0.009-0.294-0.346-0.672-0.637-0.88C85.915,103.388,85.55,103.465,85.257,103.441z
	 M119.463,110.709c1.283-0.485,2.509-0.936,3.72-1.424c0.111-0.045,0.221-0.365,0.167-0.48c-0.081-0.171-0.351-0.416-0.467-0.382
	c-1.215,0.359-2.422,0.749-3.611,1.187c-0.156,0.058-0.277,0.442-0.258,0.662C119.028,110.429,119.303,110.563,119.463,110.709z
	 M84.062,105.689c0.121,0.722,0.188,1.334,0.341,1.925c0.052,0.2,0.315,0.471,0.494,0.48c0.239,0.013,0.621-0.134,0.711-0.322
	c0.304-0.632,0.506-1.313,0.786-2.083C85.573,105.689,84.905,105.689,84.062,105.689z M122.692,107.965
	c0.031-0.128,0.062-0.256,0.093-0.384c-0.482-0.321-1.252-1.013-1.396-0.9c-0.612,0.477-1.039,1.192-1.534,1.82
	c0.079,0.093,0.158,0.187,0.237,0.28C120.959,108.509,121.826,108.237,122.692,107.965z M114.13,106.437
	c0.032,0.127,0.063,0.254,0.095,0.382c0.953-0.218,1.909-0.423,2.854-0.671c0.107-0.028,0.244-0.332,0.202-0.447
	c-0.062-0.172-0.291-0.426-0.417-0.409C115.846,105.425,114.873,105.692,114.13,106.437z M88.462,107.556
	c0.064,0.142,0.128,0.283,0.192,0.425c0.823-0.098,1.646-0.195,2.76-0.326c-0.407-0.518-0.799-1.203-0.932-1.155
	C89.773,106.75,89.128,107.185,88.462,107.556z M80.104,108.428c-0.009,0.083-0.018,0.166-0.027,0.25
	c0.686,0.263,1.357,0.573,2.062,0.769c0.303,0.084,0.672-0.07,1.011-0.115c-0.28-0.301-0.522-0.802-0.847-0.862
	C81.591,108.336,80.839,108.428,80.104,108.428z M86.945,104.818c0.032,0.137,0.064,0.274,0.096,0.412
	c0.818,0.081,1.636,0.162,2.454,0.243c0.044-0.107,0.088-0.214,0.133-0.321c-0.628-0.349-1.233-0.757-1.899-1.002
	C87.571,104.091,87.211,104.581,86.945,104.818z M108.478,109.256c0.005,0.129,0.011,0.258,0.017,0.387
	c0.638,0.061,1.301,0.242,1.903,0.121c0.234-0.047,0.332-0.775,0.596-1.462C109.942,108.701,109.21,108.979,108.478,109.256z
	 M82.462,105.288c-0.641-1.189-1.101-1.328-1.864-0.598c-0.131,0.125-0.249,0.418-0.188,0.548c0.069,0.149,0.349,0.29,0.528,0.279
	C81.419,105.49,81.896,105.379,82.462,105.288z M75.026,107.258c1.438,0.859,1.946,0.693,2.231-0.705
	C76.506,106.791,75.847,106.999,75.026,107.258z M92.226,106.192c-0.072,0.104-0.144,0.208-0.216,0.311
	c0.254,0.292,0.47,0.763,0.772,0.829c0.384,0.083,0.839-0.164,1.263-0.269c-0.011-0.119-0.021-0.238-0.032-0.357
	C93.417,106.534,92.821,106.363,92.226,106.192z M119.614,105.756c-0.001-0.099-0.003-0.197-0.004-0.296
	c-0.462-0.071-0.924-0.186-1.386-0.19c-0.164-0.001-0.33,0.266-0.495,0.411c0.166,0.1,0.336,0.292,0.495,0.284
	C118.689,105.938,119.151,105.832,119.614,105.756z"/>
<path fill-rule="evenodd" clip-rule="evenodd" fill="#D3591C" d="M165.843,153.744c2.854-6.915,5.703-13.794,8.524-20.686
	c0.242-0.592,0.583-0.761,1.185-0.758c3.605,0.021,7.212,0.029,10.816-0.004c0.773-0.007,1.055,0.224,1.001,1.01
	c-0.063,0.914-0.075,1.839,0.002,2.75c0.078,0.912-0.298,1.132-1.13,1.077c-0.946-0.062-1.9,0.001-2.851-0.017
	c-0.525-0.01-0.767,0.169-0.766,0.736c0.014,8.128,0.014,16.257,0.021,24.386c0,0.091,0.05,0.182,0.114,0.403
	c1.179,0,2.381,0.033,3.579-0.012c0.744-0.028,1.085,0.169,1.031,0.988c-0.066,1.012-0.036,2.032-0.009,3.047
	c0.015,0.554-0.201,0.752-0.748,0.751c-4.229-0.013-8.457-0.013-12.685-0.001c-0.537,0.002-0.781-0.183-0.771-0.74
	c0.021-1.081,0.025-2.163-0.001-3.244c-0.015-0.608,0.258-0.806,0.832-0.795c1.174,0.022,2.349,0.007,3.593,0.007
	c0-8.278,0-16.465,0-24.651c-0.071-0.016-0.143-0.032-0.214-0.048c-0.158,0.467-0.288,0.946-0.479,1.4
	c-3.102,7.426-6.236,14.838-9.293,22.284c-0.437,1.063-1.173,0.781-1.908,0.851c-0.731,0.068-1.177-0.116-1.493-0.886
	c-3.176-7.714-6.396-15.409-9.605-23.109c-0.07-0.169-0.166-0.327-0.397-0.442c0,8.137,0,16.273,0,24.601
	c0.949,0,1.915,0.001,2.881,0c1.797-0.001,1.552-0.084,1.562,1.605c0.005,0.82,0.054,1.645-0.031,2.455
	c-0.026,0.255-0.421,0.674-0.651,0.676c-4.293,0.04-8.587,0.04-12.88-0.001c-0.233-0.003-0.646-0.431-0.661-0.681
	c-0.073-1.11-0.021-2.228-0.037-3.342c-0.008-0.576,0.296-0.725,0.805-0.717c0.95,0.016,1.905-0.05,2.851,0.02
	c0.878,0.065,1.12-0.266,1.114-1.117c-0.034-4.687-0.016-9.374-0.016-14.061c0-3.081-0.024-6.163,0.015-9.243
	c0.011-0.853-0.254-1.189-1.126-1.131c-0.913,0.061-1.835-0.012-2.752,0.021c-0.606,0.021-0.916-0.154-0.896-0.822
	c0.033-1.081,0.021-2.163,0.005-3.245c-0.008-0.543,0.218-0.755,0.763-0.754c3.77,0.012,7.539-0.012,11.308,0.039
	c0.327,0.004,0.812,0.403,0.947,0.732c2.765,6.75,5.488,13.516,8.224,20.277C165.674,153.498,165.772,153.625,165.843,153.744z"/>
<path fill-rule="evenodd" clip-rule="evenodd" fill="#D3591C" d="M34.929,162.644c1.265,0,2.375,0.022,3.483-0.009
	c0.629-0.018,0.886,0.199,0.861,0.854c-0.041,1.047-0.038,2.098-0.001,3.146c0.021,0.619-0.242,0.786-0.816,0.784
	c-4.064-0.015-8.128-0.018-12.193,0.003c-0.642,0.003-0.875-0.221-0.854-0.857c0.035-1.015,0.042-2.033-0.002-3.047
	c-0.031-0.718,0.288-0.911,0.94-0.882c0.818,0.036,1.644-0.052,2.456,0.024c0.908,0.084,1.114-0.32,1.104-1.131
	c-0.031-2.491-0.01-4.982-0.01-7.474c0-5.178,0.002-10.356-0.001-15.536c-0.001-1.397-0.009-1.397-1.429-1.4
	c-0.754-0.001-1.509-0.028-2.261,0.007c-0.609,0.028-0.808-0.233-0.794-0.813c0.026-1.081,0.023-2.164,0.002-3.245
	c-0.01-0.539,0.191-0.764,0.746-0.763c4.13,0.012,8.26-0.004,12.389,0.036c0.24,0.002,0.666,0.408,0.681,0.647
	c0.072,1.142,0.018,2.292,0.039,3.439c0.009,0.511-0.202,0.704-0.7,0.695c-0.95-0.017-1.901,0.018-2.852-0.008
	c-0.591-0.016-0.806,0.217-0.801,0.809c0.021,2.425,0.023,4.852-0.002,7.276c-0.006,0.595,0.213,0.831,0.792,0.83
	c4.851-0.006,9.702-0.007,14.553-0.001c0.6,0.001,0.775-0.283,0.77-0.855c-0.022-2.393-0.031-4.786,0.003-7.178
	c0.01-0.718-0.29-0.906-0.938-0.884c-0.949,0.032-1.901-0.011-2.851,0.013c-0.547,0.014-0.763-0.192-0.75-0.748
	c0.027-1.114,0.029-2.229,0-3.343c-0.015-0.578,0.25-0.728,0.773-0.727c4.228,0.01,8.457,0.011,12.685,0
	c0.539-0.001,0.77,0.184,0.756,0.745c-0.028,1.114-0.028,2.229,0,3.343c0.015,0.572-0.236,0.744-0.767,0.731
	c-0.917-0.023-1.84,0.054-2.751-0.021c-0.999-0.082-1.201,0.366-1.194,1.263c0.033,4.687,0.015,9.374,0.015,14.061
	c0,2.982,0.033,5.966-0.019,8.948c-0.017,0.953,0.204,1.392,1.247,1.286c0.876-0.089,1.768,0,2.652-0.024
	c0.575-0.016,0.838,0.179,0.818,0.794c-0.035,1.08-0.029,2.163-0.001,3.244c0.015,0.562-0.219,0.743-0.757,0.741
	c-4.229-0.012-8.457-0.015-12.685,0.003c-0.621,0.003-0.789-0.255-0.772-0.828c0.03-1.048,0.033-2.098,0-3.146
	c-0.02-0.602,0.214-0.823,0.803-0.809c0.982,0.024,1.967-0.022,2.949,0.015c0.611,0.023,0.787-0.219,0.784-0.804
	c-0.02-3.409-0.019-6.817,0-10.227c0.003-0.603-0.157-0.912-0.819-0.911c-4.818,0.013-9.636-0.003-14.454,0.031
	c-0.276,0.002-0.787,0.36-0.79,0.558C34.917,155.028,34.929,158.759,34.929,162.644z"/>
<path fill-rule="evenodd" clip-rule="evenodd" fill="#D3591C" d="M133.682,162.644c1.439,0,2.548,0.022,3.656-0.009
	c0.649-0.019,0.981,0.178,0.959,0.886c-0.033,1.015-0.019,2.032-0.005,3.048c0.007,0.547-0.158,0.854-0.783,0.849
	c-2.622-0.019-5.245-0.025-7.866,0.004c-0.746,0.008-0.735-0.416-0.752-0.95c-0.115-3.568-0.237-7.136-0.379-10.702
	c-0.109-2.728-1.719-4.406-4.439-4.474c-3.112-0.077-6.227-0.009-9.341-0.033c-0.611-0.005-0.817,0.258-0.817,0.812
	c0.003,3.278,0.003,6.556,0,9.833c0,0.521,0.203,0.765,0.765,0.744c0.949-0.034,1.901,0.008,2.851-0.014
	c0.559-0.014,0.86,0.152,0.845,0.775c-0.027,1.081-0.021,2.163-0.002,3.244c0.009,0.539-0.198,0.761-0.751,0.759
	c-4.129-0.013-8.259-0.013-12.389,0c-0.568,0.002-0.738-0.24-0.725-0.772c0.025-1.081,0.027-2.164,0-3.245
	c-0.014-0.554,0.207-0.771,0.75-0.76c0.917,0.019,1.839-0.047,2.752,0.019c0.835,0.061,1.044-0.258,1.04-1.059
	c-0.03-5.867-0.016-11.734-0.016-17.602c0-1.835,0.001-3.671,0-5.506c-0.001-1.369-0.002-1.37-1.418-1.372
	c-0.787-0.001-1.574-0.021-2.359,0.005c-0.55,0.018-0.761-0.197-0.748-0.75c0.027-1.114,0.028-2.229,0-3.343
	c-0.015-0.58,0.255-0.726,0.775-0.725c6.916,0.017,13.835-0.125,20.746,0.075c6.455,0.187,10.406,6.178,8.279,12.203
	c-0.832,2.356-2.333,4.066-5.016,4.639c2.403,1.018,3.738,2.774,4.26,5.141c0.16,0.724,0.119,1.496,0.124,2.246
	C133.691,158.57,133.682,160.53,133.682,162.644z M120.069,137.288c0-0.056,0-0.112,0-0.168c-1.733,0-3.468,0.021-5.201-0.011
	c-0.655-0.012-0.965,0.196-0.961,0.881c0.015,2.617,0.011,5.233,0.003,7.851c-0.002,0.619,0.259,0.853,0.89,0.849
	c3.369-0.022,6.739,0.022,10.107-0.029c1.659-0.026,3.145-0.609,4.247-1.919c1.182-1.406,1.367-3.008,0.729-4.689
	c-0.599-1.577-1.656-2.699-3.45-2.75C124.312,137.242,122.19,137.288,120.069,137.288z"/>
<path fill-rule="evenodd" clip-rule="evenodd" fill="#D3591C" d="M81.886,167.411c-4.424,0-8.848-0.02-13.272,0.018
	c-0.843,0.007-1.194-0.2-1.126-1.094c0.072-0.944,0.043-1.9,0.008-2.85c-0.024-0.649,0.243-0.872,0.87-0.851
	c0.949,0.032,1.904-0.042,2.85,0.022c0.845,0.058,1.05-0.288,1.043-1.077c-0.031-3.769-0.014-7.537-0.014-11.306
	c0-3.998-0.023-7.997,0.018-11.994c0.009-0.901-0.264-1.241-1.175-1.176c-0.913,0.066-1.835-0.006-2.752,0.021
	c-0.562,0.017-0.855-0.142-0.838-0.768c0.031-1.114-0.032-2.231,0.041-3.341c0.017-0.248,0.406-0.507,0.673-0.687
	c0.136-0.091,0.383-0.02,0.579-0.02c8.75,0,17.5,0,26.25,0c1.269,0,1.271,0.003,1.271,1.301c0.001,2.36-0.046,4.721,0.023,7.078
	c0.029,0.98-0.308,1.26-1.233,1.188c-0.912-0.072-1.834-0.037-2.751-0.01c-0.589,0.018-0.826-0.211-0.81-0.807
	c0.027-1.048-0.017-2.098,0.015-3.146c0.018-0.602-0.226-0.803-0.809-0.801c-4.228,0.013-8.455,0.015-12.683-0.001
	c-0.643-0.002-0.854,0.247-0.848,0.875c0.024,2.327,0.034,4.654-0.005,6.98c-0.013,0.753,0.28,0.947,0.981,0.941
	c3.31-0.024,6.62,0.024,9.929-0.032c0.938-0.017,1.207,0.297,1.137,1.177c-0.063,0.813-0.077,1.644,0.003,2.455
	c0.097,0.987-0.311,1.197-1.228,1.183c-3.276-0.051-6.555,0.004-9.831-0.037c-0.789-0.01-1.002,0.245-0.994,1.009
	c0.035,3.342,0.032,6.685,0.002,10.027c-0.006,0.708,0.176,0.974,0.931,0.968c4.129-0.033,8.258-0.037,12.387,0.002
	c0.826,0.009,1.001-0.32,0.986-1.044c-0.033-1.572,0.029-3.146-0.025-4.718c-0.028-0.797,0.264-1.032,1.022-0.992
	c1.013,0.053,2.031,0.03,3.046,0.007c0.541-0.012,0.762,0.184,0.76,0.741c-0.015,3.343-0.021,6.686,0.003,10.028
	c0.005,0.761-0.448,0.731-0.966,0.73C90.865,167.409,86.375,167.411,81.886,167.411z"/>
<path fill-rule="evenodd" clip-rule="evenodd" fill="#D3591C" d="M204.13,150.672c0,4.031,0,7.941,0,11.911
	c4.698,0,9.334,0,14.149,0c0-1.574-0.007-3.104,0.002-4.634c0.014-2.385-0.214-2.011,2.051-2.021
	c0.901-0.004,2.091-0.218,2.618,0.255c0.457,0.409,0.189,1.656,0.194,2.532c0.015,2.557-0.015,5.112,0.018,7.668
	c0.01,0.723-0.13,1.047-0.963,1.045c-9.012-0.028-18.023-0.024-27.035-0.006c-0.717,0.002-1.009-0.202-0.969-0.948
	c0.051-0.947,0.055-1.902-0.001-2.849c-0.047-0.803,0.288-1.031,1.037-0.995c0.981,0.048,1.968-0.02,2.948,0.022
	c0.652,0.028,0.89-0.241,0.869-0.858c-0.019-0.556,0-1.113,0-1.671c0-7.209,0.001-14.418-0.001-21.627
	c0-1.374-0.006-1.375-1.348-1.377c-0.885-0.002-1.77-0.021-2.654,0.006c-0.557,0.017-0.862-0.133-0.846-0.764
	c0.029-1.113-0.033-2.231,0.04-3.34c0.017-0.249,0.43-0.474,0.664-0.706c0.018-0.017,0.063-0.003,0.097-0.003
	c9.077,0,18.154,0.003,27.231-0.006c0.548,0,0.753,0.209,0.75,0.755c-0.015,2.687-0.015,5.374,0,8.061
	c0.003,0.557-0.229,0.754-0.765,0.744c-1.016-0.021-2.032-0.025-3.048,0.002c-0.592,0.017-0.818-0.209-0.799-0.807
	c0.034-1.015-0.013-2.032,0.017-3.047c0.017-0.601-0.15-0.904-0.821-0.901c-4.227,0.018-8.454,0.018-12.682-0.001
	c-0.66-0.003-0.834,0.263-0.827,0.88c0.025,2.326,0.036,4.653-0.006,6.979c-0.014,0.754,0.261,0.945,0.969,0.939
	c3.343-0.028,6.686,0.013,10.027-0.029c0.832-0.011,1.092,0.26,1.041,1.065c-0.061,0.947-0.051,1.902-0.002,2.85
	c0.036,0.706-0.245,0.893-0.916,0.887c-3.276-0.027-6.554-0.012-9.83-0.012C204.957,150.672,204.574,150.672,204.13,150.672z"/>
<path fill-rule="evenodd" clip-rule="evenodd" fill="#D3591C" d="M236.566,164.684c0,0.72-0.04,1.24,0.01,1.751
	c0.077,0.799-0.272,1.03-1.026,0.989c-0.947-0.053-1.9-0.031-2.85-0.008c-0.544,0.014-0.755-0.189-0.752-0.746
	c0.016-3.539,0.019-7.078-0.002-10.617c-0.004-0.631,0.287-0.787,0.838-0.777c0.982,0.018,1.967,0.032,2.949-0.005
	c0.583-0.022,0.833,0.253,0.929,0.771c0.042,0.225,0.083,0.451,0.142,0.672c1.234,4.62,4.416,7.048,9.23,7.101
	c1.847,0.021,3.664-0.069,5.389-0.812c2.293-0.987,3.614-2.731,3.668-5.224c0.05-2.363-1.17-4.163-3.329-4.984
	c-2.058-0.782-4.271-1.152-6.411-1.722c-2.393-0.636-4.845-1.119-7.154-1.983c-3.097-1.158-4.904-3.533-5.248-6.873
	c-0.37-3.61,0.917-6.549,3.986-8.499c4.769-3.029,9.699-2.916,14.621-0.33c0.729,0.383,1.319,1.026,2.018,1.583
	c0-0.688-0.067-1.334,0.031-1.955c0.041-0.262,0.416-0.651,0.662-0.669c1.044-0.075,2.096-0.017,3.144-0.039
	c0.54-0.011,0.761,0.186,0.758,0.744c-0.017,2.884-0.013,5.768-0.003,8.651c0.002,0.481-0.144,0.731-0.672,0.721
	c-1.146-0.02-2.296,0.028-3.439-0.033c-0.247-0.013-0.611-0.324-0.692-0.572c-1.122-3.472-3.75-5.04-7.112-5.683
	c-1.605-0.307-3.192-0.183-4.729,0.387c-0.426,0.158-0.845,0.361-1.227,0.607c-3.301,2.127-3.226,6.054,0.307,7.734
	c1.791,0.853,3.858,1.142,5.815,1.622c2.435,0.599,4.96,0.916,7.309,1.744c3.855,1.36,5.91,4.277,6.2,8.382
	c0.324,4.591-1.306,8.208-5.54,10.268c-5.288,2.571-10.561,2.328-15.671-0.61C238.017,165.866,237.409,165.312,236.566,164.684z"/>
<path fill-rule="evenodd" clip-rule="evenodd" fill="#D3591C" d="M140.04,121.763c-21.401,0-42.803,0-64.204,0
	c-1.307,0-1.286-0.011-1.288-1.305c-0.001-0.663,0.196-0.937,0.901-0.919c1.67,0.042,3.346-0.053,5.013,0.041
	c0.896,0.05,1.78,0.366,2.666,0.577c1.614,0.384,3.178,0.104,4.744-0.304c0.592-0.155,1.212-0.287,1.82-0.288
	c7.702-0.019,15.404-0.041,23.105,0.015c1.284,0.009,2.561,0.511,3.849,0.553c1.314,0.043,2.638-0.189,3.956-0.324
	c0.546-0.056,1.086-0.245,1.629-0.246c27.333-0.012,54.667-0.009,82-0.021c0.772,0,1.277,0.006,1.258,1.06
	c-0.019,0.978-0.328,1.18-1.245,1.179C182.842,121.758,161.44,121.763,140.04,121.763z"/>
<path fill-rule="evenodd" clip-rule="evenodd" fill="#D3591C" d="M184.465,69.963c-0.54-0.254-0.986-0.464-1.553-0.731
	c0.136,1.136,0.899,1.62,2.049,1.633c-0.335,0.112-0.67,0.224-1.229,0.412c0.434,0.491,0.807,0.914,1.299,1.47
	c-1.802-0.6-2.195,1.225-3.482,1.511c0.482-0.479,0.928-1.005,1.455-1.426c0.67-0.535,0.642-1.183,0.182-1.691
	c-0.256-0.282-0.908-0.38-1.333-0.301c-1.317,0.247-1.359,0.387-1.023,1.712c0.104,0.409,0.188,0.823,0.197,1.259
	c-0.222-0.764-0.442-1.528-0.63-2.174c-0.857,0-1.571,0.02-2.283-0.006c-0.605-0.022-0.876,0.262-0.776,0.827
	c0.227,1.275,0.495,2.542,0.769,3.926c-0.277,0.252-0.697,0.633-1.116,1.015c0.039,0.076,0.079,0.152,0.118,0.228
	c0.497-0.156,0.993-0.312,1.578-0.497c1.388,2.298,1.762,4.74,1.01,7.638c-1.128-0.568-2.213-0.998-3.166-1.627
	c-1.143-0.754-2.128-1.749-3.267-2.511c-1.01-0.676-2.272-1.024-3.161-1.812c-0.534-0.474-0.619-1.502-0.797-2.306
	c-0.089-0.399,0.007-0.871,0.125-1.279c0.338-1.161,0.667-2.313,0.785-3.53c0.055-0.565,0.381-1.104,0.587-1.653
	c0.079-0.213,0.122-0.458,0.255-0.631c0.415-0.542,0.883-1.045,1.297-1.588c0.425-0.557,0.812-1.144,1.35-1.908
	c-0.315-0.174-0.743-0.411-1.171-0.648c0.081-0.091,0.163-0.182,0.244-0.273c1.399,0.459,2.965,0.439,4.123,1.605
	c0.261,0.263,0.773,0.328,1.182,0.367c0.192,0.018,0.46-0.204,0.601-0.387c0.086-0.111,0.065-0.453-0.03-0.523
	c-0.194-0.142-0.583-0.312-0.697-0.223c-0.955,0.744-1.254-0.245-1.834-0.57c0.972-0.994,3.333-0.967,4.06,0.173
	c0.828,1.3,2.046,1.745,3.371,2.14c0.501,0.149,0.991,0.332,1.486,0.497c0.742,0.248,1.131,0.723,0.997,1.597
	C185.49,69.776,184.938,69.877,184.465,69.963z"/>
<path fill-rule="evenodd" clip-rule="evenodd" fill="#D3591C" d="M188.878,117.386c1.825,0,3.651,0.004,5.478-0.001
	c1.757-0.005,2.599-0.913,2.155-2.574c-0.412-1.539-0.956-3.066-1.647-4.5c-0.902-1.874-1.117-3.635,0-5.485
	c0.438-0.723,0.665-1.569,1.072-2.312c0.61-1.112,0.54-2.323,0.704-3.516c0.217-1.565,0.502-3.147,1-4.641
	c0.412-1.234,0.897-2.523,2.126-3.303c0.242-0.154,0.327-0.554,0.48-0.831c0.331,0.35,0.229,0.541-0.463,1.235
	c-0.354,0.354-0.588,0.827-0.876,1.246c0.075,0.052,0.15,0.104,0.226,0.156c0.823-0.513,1.688-0.971,2.449-1.563
	c0.342-0.267,0.451-0.817,0.704-1.214c0.729-1.147,0.168-1.975-0.51-2.926c-0.346-0.485-0.592-1.028-1.175-0.917
	c-0.399,0.075-0.72,0.566-1.099,0.891c0.005,0.009-0.109-0.127-0.159-0.284c-0.133-0.415-0.237-0.838-0.354-1.258
	c0.423-0.062,0.865-0.068,1.264-0.202c0.488-0.165,1.018-0.349,1.395-0.679c1.47-1.285,1.935-1.262,3.193,0.265
	c0.545,0.662,0.706,1.226-0.013,1.931c-0.724,0.709-1.529,1.431-1.177,2.699c0.064,0.233-0.491,0.64-0.944,1.189
	c0.302,0.415,0.773,1.011,1.188,1.645c1.14,1.737,1.621,3.687,1.503,5.726c-0.03,0.521-0.642,1.147-1.147,1.47
	c-0.959,0.611-1.215,1.306-0.898,2.381c0.476,1.621,0.845,3.272,1.284,5.009c-0.425,0.08-0.702,0.13-0.979,0.185
	c-0.491,0.097-1.275,0.045-1.419,0.323c-0.405,0.788-0.758,1.712-0.751,2.58c0.012,1.548,0.305,3.094,0.473,4.642
	c0.021,0.194,0.003,0.394-0.007,0.59c-0.024,0.521,0.153,1.28-0.121,1.518c-0.827,0.721-1.544,1.781-2.89,1.604
	c-0.088-0.012-0.171-0.065-0.252-0.098c0-0.085-0.027-0.177,0.004-0.208c2.373-2.339,1.354-5.088,0.89-7.742
	c-0.126-0.72-0.538-1.396-0.851-2.078c-0.211-0.459-0.57-1.024-1.085-0.629c-0.446,0.343-0.817,0.993-0.891,1.551
	c-0.064,0.487,0.38,1.023,0.517,1.559c0.507,1.983,0.991,3.972,1.447,5.968c0.046,0.199-0.099,0.588-0.26,0.663
	c-0.786,0.366-1.594,0.874-2.42,0.929c-1.99,0.134-3.996,0.078-5.993,0.016c-0.449-0.014-0.887-0.366-1.33-0.562
	C188.772,117.683,188.825,117.535,188.878,117.386z M199.488,102.509c-0.086,0.046-0.173,0.093-0.259,0.139
	c-0.076-1.541-1.459-1.266-2.219-1.961c-0.816,1.869-1.555,3.674-2.393,5.43c-0.525,1.101-0.385,2.094,0.202,3.069
	c0.14,0.233,0.479,0.501,0.705,0.482c0.225-0.019,0.509-0.342,0.61-0.595c0.203-0.501,0.254-1.064,0.45-1.569
	c0.35-0.902,0.762-1.778,1.143-2.668c0.092-0.213,0.16-0.437,0.323-0.886c0.16,0.601,0.249,0.943,0.342,1.284
	c0.414,1.508,0.804,3.024,1.257,4.521c0.173,0.57,0.541,0.995,1.265,0.596c-0.089-0.614-0.177-1.222-0.306-2.111
	c0.27,0.447,0.379,0.627,0.487,0.809c0.099,0.009,0.197,0.019,0.297,0.028c0.329-1.292,0.659-2.584,1.043-4.089
	c-1.324,0.153-1.214-0.597-1.184-1.323c0.011-0.251,0.007-0.597-0.143-0.742c-0.489-0.474-0.195-0.843,0.008-1.299
	c0.14-0.313,0.18-0.728,0.099-1.055c-0.036-0.145-0.591-0.337-0.726-0.244c-0.309,0.214-0.575,0.561-0.727,0.911
	C199.597,101.626,199.574,102.082,199.488,102.509z M197.083,100.358c0.689,0.184,1.12,0.407,1.533,0.377
	c0.405-0.029,0.817-0.281,1.162-0.525c0.054-0.038-0.182-0.591-0.37-0.841c-0.229-0.304-0.55-0.539-0.96-0.926
	C197.979,99.103,197.564,99.683,197.083,100.358z M197.416,111.349c-0.472-0.554-0.767-0.993-1.165-1.293
	c-0.087-0.065-0.82,0.511-0.798,0.554c0.264,0.506,0.599,0.981,0.977,1.411C196.456,112.051,196.964,111.66,197.416,111.349z
	 M201.842,111.983c-0.51-0.468-0.782-0.828-1.144-0.988c-0.121-0.054-0.712,0.498-0.669,0.608c0.167,0.424,0.504,0.782,0.777,1.165
	C201.069,112.569,201.333,112.369,201.842,111.983z"/>
<path fill-rule="evenodd" clip-rule="evenodd" fill="#D3591C" d="M147.579,190.809c3.409,2.4,4.833,6.18,7.384,9.45
	c-1.17,0-2.049,0.062-2.909-0.033c-0.308-0.034-0.637-0.407-0.845-0.703c-1.321-1.874-2.57-3.8-3.924-5.648
	c-1.034-1.413-2.32-2.472-4.236-2.477c-0.826-0.003-1.167,0.195-1.144,1.097c0.059,2.293-0.002,4.589,0.033,6.883
	c0.01,0.691-0.224,0.919-0.904,0.906c-2.3-0.043-1.916,0.182-1.922-1.842c-0.018-5.638,0.021-11.275-0.031-16.912
	c-0.01-1.028,0.307-1.296,1.281-1.235c2.055,0.128,4.146-0.037,6.165,0.277c3.371,0.524,5.172,3.319,4.453,6.511
	c-0.305,1.354-1.108,2.349-2.275,3.067C148.376,190.352,148.039,190.54,147.579,190.809z M143.884,182.438
	c-0.004,0.028-0.008,0.056-0.012,0.084c-0.457,0-0.927-0.063-1.365,0.026c-0.222,0.045-0.548,0.364-0.553,0.565
	c-0.043,1.795-0.043,3.591-0.001,5.386c0.005,0.22,0.35,0.625,0.519,0.616c1.259-0.069,2.553-0.071,3.76-0.386
	c1.441-0.375,1.99-1.483,1.938-3.219c-0.042-1.398-0.724-2.358-2.078-2.737C145.38,182.576,144.621,182.545,143.884,182.438z"/>
<path fill-rule="evenodd" clip-rule="evenodd" fill="#D3591C" d="M131.957,200.261c-0.86,0-1.643,0.059-2.407-0.032
	c-0.261-0.03-0.572-0.39-0.7-0.672c-0.673-1.488-1.312-2.993-1.925-4.508c-0.214-0.53-0.514-0.737-1.098-0.73
	c-2.488,0.029-4.977,0.033-7.465-0.003c-0.637-0.009-0.938,0.238-1.153,0.799c-0.549,1.435-1.169,2.843-1.701,4.283
	c-0.24,0.647-0.577,0.956-1.292,0.887c-0.604-0.058-1.218-0.012-1.991-0.012c0.722-1.655,1.368-3.146,2.022-4.632
	c2.16-4.906,4.331-9.809,6.472-14.723c0.239-0.548,0.502-0.844,1.147-0.804c0.602,0.037,1.093,0.002,1.415,0.722
	c2.814,6.298,5.672,12.575,8.514,18.86C131.858,199.837,131.882,199.994,131.957,200.261z M122.013,183.771
	c-0.096,0.012-0.192,0.022-0.289,0.034c-1.01,2.621-2.021,5.241-3.066,7.955c2.362,0,4.493,0,6.84,0
	C124.285,188.979,123.149,186.375,122.013,183.771z"/>
<path fill-rule="evenodd" clip-rule="evenodd" fill="#D3591C" d="M96.058,190.282c0-2.98,0.028-5.963-0.019-8.943
	c-0.013-0.834,0.261-1.072,1.064-1.041c2.515,0.099,5.056-0.058,7.542,0.252c2.899,0.361,4.463,2.426,4.479,5.3
	c0.016,2.862-1.546,4.831-4.463,5.315c-1.535,0.255-3.127,0.246-4.691,0.223c-0.976-0.015-1.242,0.344-1.223,1.255
	c0.044,2.161-0.022,4.325,0.029,6.486c0.022,0.912-0.303,1.27-1.193,1.147c-0.193-0.026-0.395-0.024-0.589-0.001
	c-0.73,0.088-0.96-0.22-0.952-0.95C96.078,196.312,96.058,193.297,96.058,190.282z M98.777,185.863c0,0.852-0.037,1.705,0.022,2.553
	c0.018,0.251,0.309,0.696,0.465,0.691c1.658-0.046,3.353,0.021,4.958-0.316c1.582-0.332,2.223-1.718,2.055-3.544
	c-0.117-1.276-1.054-2.318-2.505-2.491c-1.422-0.169-2.868-0.166-4.303-0.151c-0.233,0.003-0.634,0.441-0.662,0.708
	C98.722,184.155,98.776,185.013,98.777,185.863z"/>
<path fill-rule="evenodd" clip-rule="evenodd" fill="#D3591C" d="M163.214,92.297c-4.778,1.674-9.434,3.304-14.331,5.02
	c0.113-0.607,0.14-0.855,0.206-1.093c1.207-4.272,3.189-8.134,6.076-11.522c0.813-0.954,1.638-1.546,3.028-1.021
	c0.922,0.348,1.996,0.276,2.985,0.475c0.235,0.047,0.604,0.456,0.573,0.646C161.354,87.368,162.103,89.714,163.214,92.297z"/>
<path fill-rule="evenodd" clip-rule="evenodd" fill="#D3591C" d="M175.8,195.435c1.66,1.577,3.282,2.575,5.321,2.637
	c0.643,0.02,1.32,0,1.932-0.177c2.382-0.688,2.96-3.008,1.123-4.664c-0.839-0.758-1.877-1.299-2.834-1.922
	c-1.314-0.855-2.739-1.574-3.937-2.568c-2.676-2.219-2.261-6.204,0.826-7.78c2.701-1.378,5.5-1.236,8.213,0.099
	c0.264,0.13,0.524,0.512,0.561,0.805c0.083,0.672,0.026,1.361,0.026,2.251c-0.448-0.251-0.742-0.415-1.035-0.582
	c-1.732-0.982-3.546-1.534-5.543-0.977c-0.991,0.276-1.845,0.786-2.062,1.879c-0.207,1.038,0.302,1.872,1.096,2.468
	c0.808,0.605,1.696,1.104,2.561,1.632c1.088,0.664,2.239,1.236,3.271,1.977c2.134,1.531,2.956,3.756,2.339,6.001
	c-0.583,2.122-2.526,3.681-5.034,3.896c-2.054,0.175-4.036-0.169-5.898-1.123c-0.657-0.336-1.004-0.758-0.937-1.531
	C175.847,197.077,175.8,196.393,175.8,195.435z"/>
<path fill-rule="evenodd" clip-rule="evenodd" fill="#D3591C" d="M175.449,85.518c-2.946,2.472-6.239,4.003-9.563,5.64
	c-0.098-0.285-0.195-0.433-0.192-0.58c0.042-2.122,0.104-4.244,0.145-6.366c0.017-0.813,0.323-1.487,1.002-1.912
	c1.542-0.965,1.16-2.529,1.271-3.937c0.012-0.151-0.199-0.322-0.312-0.479c-0.134-0.186-0.406-0.38-0.39-0.547
	c0.124-1.245-0.676-2.46-0.088-3.726c0.146-0.314,0.071-0.724,0.145-1.081c0.117-0.575,0.265-1.144,0.419-1.71
	c0.031-0.116,0.231-0.233,0.21-0.309c-0.313-1.087,0.268-1.872,0.97-2.582c-0.379-0.342-0.662-0.598-1.093-0.987
	c1.419-0.099,2.657-0.185,3.641-0.254c-0.398,0.47-0.988,1.019-1.403,1.678c-1.811,2.877-2.418,6.026-1.978,9.39
	c0.101,0.773,0.158,1.551,0.24,2.366C171.826,80.615,172.962,83.78,175.449,85.518z"/>
<path fill-rule="evenodd" clip-rule="evenodd" fill="#D3591C" d="M165.918,190.271c0,2.913,0,5.827-0.001,8.74
	c0,1.261-0.001,1.261-1.309,1.261c-0.032,0-0.065-0.004-0.098,0.001c-0.967,0.149-1.329-0.208-1.296-1.231
	c0.072-2.224,0.021-4.451,0.021-6.677c0-3.601-0.011-7.201,0.017-10.802c0.003-0.406,0.168-1.125,0.354-1.158
	c0.688-0.123,1.422-0.055,2.125,0.042c0.101,0.014,0.176,0.578,0.178,0.889C165.923,184.314,165.918,187.293,165.918,190.271z"/>
<path fill-rule="evenodd" clip-rule="evenodd" fill="#D3591C" d="M203.266,127.56c3.102,0,6.203-0.003,9.305,0.009
	c0.179,0,0.415,0.073,0.527,0.199c0.666,0.745,1.303,1.515,1.983,2.316c-0.205,0.114-0.284,0.196-0.363,0.196
	c-2.909,0.015-5.818,0.027-8.728,0.02c-0.242-0.001-0.554-0.079-0.714-0.24c-0.732-0.732-1.422-1.506-2.127-2.265
	C203.188,127.716,203.228,127.638,203.266,127.56z"/>
<path fill-rule="evenodd" clip-rule="evenodd" fill="#D3591C" d="M112.069,118.37c-7.14,0-14.209,0-21.347,0
	c0.45-0.731,0.998-1.003,1.807-0.999c5.953,0.029,11.907,0.03,17.86-0.001C111.182,117.365,111.664,117.662,112.069,118.37z"/>
<path fill-rule="evenodd" clip-rule="evenodd" fill="#D3591C" d="M164.344,83.669c0,2.549,0,5.038,0,7.526
	c-1.215-1.849-1.704-3.829-1.301-5.989C163.293,83.868,163.295,83.869,164.344,83.669z"/>
<path fill-rule="evenodd" clip-rule="evenodd" fill="#D3591C" d="M78.736,118.414c-1.23,0-2.46,0.014-3.689-0.018
	c-0.156-0.004-0.403-0.236-0.432-0.394c-0.031-0.171,0.136-0.542,0.231-0.547c0.946-0.052,1.904-0.128,2.838-0.019
	c0.403,0.047,0.758,0.511,1.135,0.785C78.792,118.285,78.764,118.35,78.736,118.414z"/>
<path fill-rule="evenodd" clip-rule="evenodd" fill="#D3591C" d="M202.009,118.415c0.596-0.897,2.46-1.392,3.176-0.969
	c0.145,0.086,0.259,0.388,0.227,0.561c-0.029,0.157-0.272,0.383-0.429,0.39C204.049,118.433,203.113,118.415,202.009,118.415z"/>
<path fill-rule="evenodd" clip-rule="evenodd" fill="#D3591C" d="M181.545,75.306c0.136,2.444,0.271,4.888,0.406,7.332
	c-0.023,0.001-0.047,0.002-0.07,0.003c-0.164-2.442-0.328-4.885-0.491-7.327C181.441,75.312,181.493,75.309,181.545,75.306z"/>
<path fill-rule="evenodd" clip-rule="evenodd" fill="#D3591C" d="M180.924,75.1c-0.655,0.494-1.311,0.988-1.967,1.482
	c-0.055-0.068-0.109-0.135-0.165-0.203c0.649-0.507,1.298-1.014,1.947-1.52C180.801,74.939,180.862,75.02,180.924,75.1z"/>
</svg>
