<?xml version="1.0" encoding="utf-8"?>
<!-- Generator: Adobe Illustrator 16.0.0, SVG Export Plug-In . SVG Version: 6.00 Build 0)  -->
<!DOCTYPE svg PUBLIC "-//W3C//DTD SVG 1.1//EN" "http://www.w3.org/Graphics/SVG/1.1/DTD/svg11.dtd">
<svg version="1.1" id="Calque_1" xmlns="http://www.w3.org/2000/svg" xmlns:xlink="http://www.w3.org/1999/xlink" x="0px" y="0px"
	 width="283.46px" height="283.46px" viewBox="0 0 283.46 283.46" enable-background="new 0 0 283.46 283.46" xml:space="preserve">
<path fill="#FFFDFD" d="M38.751,92.21c12.61,5.379,25.195,10.819,37.87,16.042c1.258,0.519,3.181,0.012,4.598-0.534
	c11.65-4.485,23.278-9.029,34.856-13.697c3.712-1.498,7.161-1.461,10.859,0.062c12.351,5.087,24.724,10.124,37.183,14.938
	c3.48,1.345,4.706,3.285,4.639,6.983c-0.207,11.618-0.075,23.241-0.075,34.863c0,1.209,0,2.42,0,4.112
	c2.291-0.877,4.142-1.535,5.955-2.286c8.534-3.531,17.036-7.15,25.606-10.596c2.051-0.824,2.764-1.922,2.745-4.146
	c-0.106-12.995-0.164-25.993,0.054-38.985c0.037-2.264,1.453-4.505,2.232-6.757c1.501,0,3.001,0,4.501,0
	c5.577,2.43,11.126,4.926,16.736,7.274c8.061,3.375,16.177,6.614,24.245,9.967c3.576,1.486,4.886,3.895,3.746,6.567
	c-1.174,2.749-3.666,3.495-7.315,1.969c-10.366-4.333-20.701-8.739-31.054-13.107c-1.125-0.476-2.276-0.894-3.791-1.485
	c-0.072,1.643-0.18,2.947-0.18,4.251c-0.016,11.496-0.064,22.992,0.019,34.487c0.024,3.298-1.224,5.304-4.354,6.579
	c-12.947,5.271-25.818,10.733-38.74,16.07c-5.946,2.454-8.824,0.508-8.828-5.854c-0.006-12.87-0.075-25.741,0.062-38.61
	c0.026-2.539-0.751-3.768-3.129-4.653c-10.274-3.828-20.483-7.842-31.384-12.046c0,1.792,0,3.08,0,4.367
	c0,11.496-0.023,22.991,0.016,34.487c0.01,2.896-0.486,5.367-4,5.589c-2.824,0.179-4.582-1.938-4.596-5.562
	c-0.043-11.371-0.017-22.74-0.018-34.111c0-1.352,0-2.704,0-4.652c-1.835,0.666-3.199,1.119-4.53,1.652
	c-9.04,3.618-18.043,7.333-27.13,10.828c-2.341,0.901-3.195,2.044-3.167,4.622c0.145,13.369,0.039,26.74,0.09,40.109
	c0.009,2.489-0.608,4.497-3.117,5.374c-2.95,1.03-5.543-1.282-5.569-5.073c-0.062-8.996-0.022-17.992-0.023-26.99
	c0-4.748,0.107-9.5-0.082-14.242c-0.044-1.098-0.843-2.752-1.736-3.142c-10.522-4.592-21.127-8.995-31.718-13.43
	c-0.192-0.08-0.469,0.045-1.03,0.114c-0.053,1.15-0.153,2.348-0.155,3.545c-0.012,11.621-0.021,23.241,0.004,34.862
	c0.005,2.556,0.111,5.149-2.723,6.41c-2.774,1.232-4.75-0.312-6.572-2.16c0-18.002,0-36.004,0-54.007
	C32.786,92.21,35.769,92.21,38.751,92.21z M37.225,100.056c12.267,5.188,23.706,10.118,35.235,14.827
	c2.534,1.035,3.205,2.454,3.182,5.038c-0.118,13.241-0.057,26.484-0.051,39.725c0,0.998-0.241,2.148,0.171,2.951
	c0.443,0.861,1.521,1.918,2.33,1.925c0.81,0.008,1.963-1.024,2.355-1.88c0.432-0.941,0.203-2.201,0.204-3.323
	c0.008-13.241,0.077-26.485-0.057-39.726c-0.026-2.556,0.817-3.727,3.169-4.636c9.895-3.823,19.644-8.027,29.584-11.721
	c3.813-1.417,4.623-3.499,3.381-7.268c-1.264,0.435-2.426,0.788-3.554,1.229c-10.806,4.235-21.578,8.558-32.438,12.648
	c-1.537,0.579-3.699,0.556-5.221-0.058c-11.458-4.622-22.826-9.466-34.226-14.23c-1.266-0.53-2.521-1.134-3.839-1.482
	c-3.714-0.982-5.913,0.593-5.926,4.394c-0.054,14.866-0.021,29.732-0.021,44.598c0,2.089,0.621,4.142,3.012,3.657
	c1.101-0.223,2.563-2.339,2.587-3.62c0.206-10.99,0.121-21.985,0.122-32.979C37.225,107.023,37.225,103.92,37.225,100.056z
	 M204.736,139.544c2.083,0,3.678,0,5.635,0c0-12.839,0-25.65,0-38.968c1.731,0.655,3,1.087,4.232,1.608
	c11.146,4.711,22.287,9.434,33.425,14.166c1.9,0.808,4.026,1.179,4.617-1.175c0.263-1.042-1.146-3.29-2.31-3.784
	c-13.664-5.797-27.414-11.394-41.174-16.968c-2.764-1.121-4.375-0.067-4.392,2.97C204.692,111.365,204.736,125.337,204.736,139.544z
	"/>
<path fill="#FFFDFD" d="M31.25,193.474c-0.282-4.346-0.563-8.689-0.846-13.034c0.539-0.162,1.077-0.323,1.615-0.485
	c1.543,1.91,3.085,3.82,4.854,6.012c1.548-2.02,3.055-3.983,5.196-6.776c1.479,5.435,1.304,9.842,0.432,14.285c-0.5,0-1,0-1.5,0
	c-0.27-2.261-0.54-4.522-0.842-7.06c-1.21,1.356-2.167,2.43-3.704,4.153c-1.079-1.496-1.972-2.733-3.175-4.403
	c-0.21,2.897-0.37,5.104-0.53,7.31C32.25,193.474,31.75,193.474,31.25,193.474z"/>
<path fill="#FFFDFD" d="M147.516,193.474c-0.185-3.7-0.403-7.398-0.519-11.102c-0.019-0.528,0.5-1.558,0.703-1.539
	c2.967,0.256,6.168,0.071,8.797,1.198c1.965,0.843,1.279,4.104-0.67,6.431c0.518,1.801,0.979,3.406,1.439,5.012
	c-0.75,0-1.5,0-2.251,0c-1.161-1.948-1.664-4.671-4.866-4.355c-0.408,1.572-0.771,2.965-1.134,4.355
	C148.516,193.474,148.017,193.474,147.516,193.474z M149.272,185.539c0.519,0.562,1.034,1.123,1.55,1.687
	c1.332-0.86,2.663-1.722,3.994-2.582c-1.046-0.584-2.181-1.735-3.111-1.59C150.787,183.196,150.074,184.655,149.272,185.539z"/>
<path fill="#FFFDFD" d="M71.006,193.474c-0.171-3.579-0.507-7.164-0.394-10.734c0.027-0.859,1.483-2.289,2.393-2.384
	c2.399-0.246,4.858,0.099,7.293,0.208c0.009,0.521,0.017,1.044,0.025,1.566c-1.567,0.178-3.173,0.203-4.687,0.591
	c-0.863,0.22-1.578,1.026-2.358,1.567c0.755,0.438,1.462,1.056,2.275,1.267c1.205,0.312,2.485,0.335,3.733,0.481
	c0.009,0.399,0.017,0.801,0.026,1.202c-1.303,0.175-2.643,0.216-3.896,0.569c-0.782,0.221-1.43,0.911-2.139,1.391
	c0.679,0.518,1.289,1.268,2.053,1.494c0.919,0.271,1.97,0.126,2.963,0.114c2.017-0.024,2.247,1.067,1.713,2.666
	C77.006,193.474,74.006,193.474,71.006,193.474z"/>
<path fill="#FFFDFD" d="M245.779,193.474c-0.5-0.354-1.016-0.686-1.498-1.061c-3.441-2.664-4.021-6.719-1.404-9.783
	c2.547-2.989,7.303-3.077,9.926-0.186c2.604,2.869,2.117,7.209-1.105,9.881c-0.469,0.389-0.943,0.766-1.416,1.147
	C248.779,193.474,247.279,193.474,245.779,193.474z M243.609,185.489c-0.062,0.566-0.123,1.134-0.186,1.698
	c1.397,1.256,2.72,3.371,4.217,3.503c1.256,0.11,3.438-1.854,3.918-3.321c0.744-2.279-0.801-4.388-3.316-4.262
	C246.662,183.187,245.15,184.647,243.609,185.489z"/>
<path fill="#FFFDFD" d="M224.026,193.474c-0.222-3.906-0.457-7.812-0.644-11.723c-0.014-0.311,0.346-0.926,0.488-0.912
	c2.967,0.266,6.186-0.002,8.81,1.115c2.103,0.896,1.446,4.088-0.409,6.137c0.291,2.072,0.523,3.728,0.756,5.383c-0.5,0-1,0-1.5,0
	c-1.533-1.721-1.895-5.034-5.492-4.215c-0.186,1.531-0.347,2.873-0.509,4.215C225.026,193.474,224.526,193.474,224.026,193.474z
	 M226.322,187.333c1.777-1.004,3.233-1.828,4.688-2.649c-0.896-0.603-1.728-1.554-2.7-1.733
	C225.83,182.484,225.365,183.932,226.322,187.333z"/>
<path fill="#FFFDFD" d="M172.27,193.474c-0.31-3.986-0.644-7.973-0.883-11.963c-0.021-0.329,0.588-0.99,0.919-0.999
	c2.852-0.08,5.704-0.046,8.557-0.046c0.045,0.482,0.088,0.968,0.133,1.451c-1.272,0.242-2.572,0.394-3.812,0.754
	c-1.149,0.334-2.233,0.895-3.349,1.354c1.037,0.524,2.035,1.158,3.121,1.541c0.934,0.329,1.967,0.372,2.957,0.541
	c-0.006,0.402-0.014,0.804-0.02,1.205c-1.329,0.149-2.698,0.153-3.975,0.502c-0.758,0.206-1.369,0.951-2.049,1.454
	c0.698,0.495,1.336,1.234,2.109,1.428c1.059,0.266,2.383-0.207,3.284,0.249c0.673,0.341,0.854,1.649,1.255,2.527
	C177.77,193.474,175.02,193.474,172.27,193.474z"/>
<path fill="#FFFDFD" d="M133.264,193.474c-0.256-0.657-0.908-1.49-0.706-1.946c1.724-3.905,3.602-7.741,6.122-11.629
	c2.29,4.543,6.506,7.96,5.836,13.575c-0.5,0-1,0-1.5,0c-1.088-1.087-1.992-2.686-3.301-3.155c-2.774-0.993-4.554,0.72-5.701,3.155
	C133.764,193.474,133.514,193.474,133.264,193.474z"/>
<path fill="#FFFDFD" d="M49.253,193.474c-3.986-2.986-5.093-9.15-1.873-13.594c0.406,1.371,0.838,2.289,0.923,3.238
	c0.144,1.612-0.275,3.354,0.196,4.834c0.374,1.172,1.727,2.031,2.645,3.029c0.921-0.993,2.416-1.869,2.647-3.004
	c0.497-2.432,0.342-4.996,0.476-8.006c3.751,2.811,3.118,9.379-0.513,13.501C52.253,193.474,50.753,193.474,49.253,193.474z"/>
<path fill="#FFFDFD" d="M61.254,193.474c-0.865-0.975-1.729-1.947-2.594-2.921c0.23-0.318,0.461-0.638,0.691-0.955
	c1.061,0.411,2.093,1.024,3.19,1.176c1.006,0.14,2.082-0.219,3.465-0.401c-1.683-3.756-10.64-2.306-5.656-9.043
	c1.668-2.254,5.595-1.262,7.759,1.856c-2.267,0-4.239,0-6.975,0c2.386,3.604,12.279,3.503,4.621,10.288
	C64.255,193.474,62.754,193.474,61.254,193.474z"/>
<path fill="#FFFDFD" d="M85.258,193.474c-4.438-2.95-2.975-7.494-3.068-11.592c-0.01-0.44,0.646-0.896,0.993-1.344
	c0.463,0.457,1.279,0.881,1.326,1.377c0.174,1.857-0.238,3.828,0.225,5.584c0.342,1.297,1.701,2.328,2.607,3.478
	c1.025-1.159,2.541-2.168,2.952-3.515c0.525-1.717,0.09-3.713,0.223-5.577c0.033-0.47,0.589-1.163,1.02-1.263
	c0.346-0.082,1.085,0.484,1.271,0.924c1.335,3.17-0.315,9.459-3.046,11.928C88.258,193.474,86.758,193.474,85.258,193.474z"/>
<path fill="#FFFDFD" d="M163.269,193.474c-0.225-1.696-0.527-3.389-0.646-5.092c-0.11-1.588-0.023-3.188-0.023-4.648
	c-1.518-0.652-2.73-1.174-3.946-1.695c0.067-0.344,0.136-0.688,0.203-1.031c3.438,0,6.874,0,10.312,0
	c0.103,0.287,0.205,0.57,0.308,0.856c-1.128,0.554-2.256,1.106-3.563,1.746c-0.357,3.101-0.75,6.481-1.141,9.864
	C164.268,193.474,163.769,193.474,163.269,193.474z"/>
<path fill="#FFFDFD" d="M103.26,193.474c-0.055-3.37-0.052-6.743-0.187-10.109c-0.079-1.978,0.479-2.921,2.694-2.982
	c4.501-0.123,7.208,1.226,8.094,4.443c1.041,3.783-0.326,6.354-4.6,8.648C107.261,193.474,105.26,193.474,103.26,193.474z
	 M104.874,180.815c0,4.396,0,7.536,0,11.897c2.688-1.146,5.373-1.534,6.65-3.082c0.985-1.194,0.992-4.489,0.012-5.689
	C110.268,182.389,107.586,181.988,104.874,180.815z"/>
<path fill="#FFFDFD" d="M190.271,193.474c-0.2-4.176-0.4-8.35-0.596-12.4c6.154-1.383,9.367-0.306,10.777,3.27
	c1.418,3.594,0.094,6.486-4.182,9.132C194.272,193.474,192.272,193.474,190.271,193.474z M191.425,180.835c0,4.446,0,7.604,0,12.059
	c2.845-1.316,5.496-1.874,7.005-3.495c0.929-0.998,0.868-4.356-0.095-5.346C196.81,182.483,194.156,182.012,191.425,180.835z"/>
<path fill="#FFFDFD" d="M206.774,193.474c-1.127-1.287-2.547-2.42-3.317-3.895c-1.539-2.938-0.252-6.851,2.604-8.451
	c2.878-1.614,5.545-1.119,7.751,1.312c2.232,2.459,2.223,6.397-0.009,8.886c-0.731,0.815-1.681,1.438-2.529,2.148
	C209.774,193.474,208.274,193.474,206.774,193.474z M214.14,186.757c-0.069-2.93-2.523-5.334-5.271-5.166
	c-2.629,0.162-4.672,2.55-4.617,5.396c0.056,2.901,2.129,5.093,4.853,5.13C211.919,192.153,214.21,189.716,214.14,186.757z"/>
<path fill="#FFFDFD" d="M116.012,193.474c-0.098-3.352-0.117-6.707-0.32-10.053c-0.137-2.264,0.709-3.178,2.996-3.008
	c1.882,0.141,3.782,0.028,6.044,0.028c-2.132,3.171-8.207-1.712-7.626,5.224c2.199,0.172,4.344,0.338,6.49,0.506
	c0.027,0.324,0.054,0.646,0.081,0.97c-2.005,0.215-4.009,0.431-6.348,0.682c0,1.167,0,2.419,0,3.199
	c2.732,0.871,5.208,1.662,7.685,2.452C122.013,193.474,119.012,193.474,116.012,193.474z"/>
<path fill="#FFFDFD" d="M236.778,193.474c-0.176-3.797-0.401-7.594-0.467-11.391c-0.009-0.523,0.789-1.061,1.213-1.59
	c0.497,0.438,1.437,0.889,1.422,1.31c-0.129,3.894-0.423,7.78-0.668,11.671C237.778,193.474,237.278,193.474,236.778,193.474z"/>
</svg>
