<?xml version="1.0" encoding="utf-8"?>
<!-- Generator: Adobe Illustrator 16.0.0, SVG Export Plug-In . SVG Version: 6.00 Build 0)  -->
<!DOCTYPE svg PUBLIC "-//W3C//DTD SVG 1.1//EN" "http://www.w3.org/Graphics/SVG/1.1/DTD/svg11.dtd">
<svg version="1.1" id="Calque_1" xmlns="http://www.w3.org/2000/svg" xmlns:xlink="http://www.w3.org/1999/xlink" x="0px" y="0px"
	 width="283.46px" height="283.46px" viewBox="0 0 283.46 283.46" enable-background="new 0 0 283.46 283.46" xml:space="preserve">
<path fill-rule="evenodd" clip-rule="evenodd" fill="#FFFF03" d="M66.142,153.899c8.759-0.045,17.518-0.1,26.277-0.13
	c5.656-0.02,11.313-0.062,16.968,0.033c1.611,0.026,2.152-0.497,2.035-2.047c-0.114-1.505-0.082-3.021-0.113-4.531
	c0.931-0.212,1.998-0.288,1.956-1.633c-0.117-3.746,0.4-7.521-0.344-11.237c-0.77-3.841-4.729-5.978-8.468-4.651
	c-0.67,0.238-1.301,0.585-1.985,0.898c-0.431-0.404-0.772-0.889-1.239-1.132c-1.544-0.802-3.589-0.073-3.567,1.341
	c0.083,5.348-0.276,10.702,0.193,16.044c-1.833,0.285-3.668,0.217-5.504,0.023c0.508-5.003,0.091-10.021,0.217-15.031
	c0.023-0.912,0.38-2.105-0.862-2.444c-1.109-0.302-2.365-0.596-3.344,0.456c-0.268,0.287-0.462,0.651-0.937,0.596
	c-4.163-1.849-7.905-1.251-10.698,1.71c-2.582,2.737-3.037,6.587-1.248,10.207c1.094,2.212,3.14,3.286,5.138,4.432
	c-3.456,0.542-6.922,0.306-10.388,0.134c0.435-0.897,0.352-1.858,0.354-2.814c0.014-6.131,0.038-12.262,0.059-18.393
	c12.114,0.021,24.228,0.05,36.342,0.061c4.463,0.004,4.371-0.016,4.461-4.554c0.038-1.879-0.646-2.298-2.37-2.216
	c-2.461,0.117-4.936-0.022-7.404-0.053c1.756-0.858,3.248-2.051,4.519-3.533c0.385-0.448,0.697-0.943,0.5-1.515
	c-0.222-0.644-0.862-0.605-1.422-0.627c-1.374-0.053-2.627,0.158-3.895,0.861c-2.936,1.629-6.075,0.565-6.979-2.199
	c0.126-0.092,0.254-0.257,0.384-0.259c3.431-0.038,6.864-0.129,10.293-0.053c1.912,0.043,2.69-0.681,2.354-2.562
	c-0.702-3.919-3.541-8.268-10.576-7.697c-3.049,0.247-6.663,3.53-7.27,7.254c-0.709,4.361,1.396,7.753,6.276,10.115
	c-3.399,0.567-6.803,0.393-10.208,0.073c0.405-4.05,0.445-8.118-0.011-12.15c-0.351-3.106-2.262-4.699-5.316-5.256
	c-2.05-0.374-3.844,0.38-5.715,1.101c0-1.766,0-3.345,0-4.925c6.154,0.035,12.308,0.07,18.461,0.104
	c0.556,1.595,1.648,1.817,3.148,1.366c1.958-0.59,3.954-1.051,5.933-1.567c2.617,0.07,5.234,0.134,7.851,0.214
	c0.858,0.026,1.483-0.306,1.356-1.21c-0.358-2.56,1.195-2.696,3.054-2.546c1.027,0.083,2.057,0.125,3.085,0.185
	c-0.803,1.59-2.704,2.166-3.498,3.755c2.096,2.79,2.591,2.896,4.775,0.354c1.327-1.545,2.35-1.652,3.56-0.029
	c0.236,0.317,0.569,0.561,0.808,0.876c0.854,1.126,1.697,1.266,2.746,0.182c0.977-1.011,1.048-1.826-0.061-2.796
	c-0.768-0.672-1.378-1.524-2.06-2.295c3.81-0.315,7.618-0.447,11.424,0.045c-0.931,1.648-0.459,3.438-0.468,5.164
	c-0.005,1.224-0.171,2.066-1.665,1.916c-1.568-0.159-1.867,0.795-1.846,2.095c0.019,1.189,0.273,2.114,1.733,1.934
	c1.648-0.203,1.801,0.73,1.772,2.039c-0.068,3.19,0.013,6.385-0.067,9.575c-0.04,1.584,0.649,2.092,2.144,2.112
	c1.499,0.02,2.204-0.456,2.159-2.059c-0.078-2.791-0.013-5.585-0.02-8.378c-0.008-3.181-0.013-3.277,3.134-3.218
	c2.09,0.038,2.445-1.062,2.231-2.725c-0.207-1.614-1.502-1.541-2.572-1.37c-2.442,0.39-3.065-0.652-2.842-2.911
	c0.138-1.401,0.292-2.871-0.199-4.273c1.433-0.056,2.866-0.159,4.298-0.16c29.984-0.01,59.968-0.008,89.951-0.008
	c3.172,0,3.184,0.013,3.184,3.228c-0.003,44.776-0.005,89.552-0.007,134.328c0,1.039,0.003,2.078-0.002,3.118
	c-0.025,4.971-0.921,5.895-5.864,5.896c-38.699,0.01-77.397-0.008-116.097,0.054c-2.291,0.004-2.807-0.813-2.798-2.953
	c0.071-17.27,0.036-34.541,0.032-51.811c0.791-0.058,1.582-0.164,2.372-0.164c24.616-0.008,49.231-0.006,73.846-0.005
	c11.028,0,22.058-0.048,33.086,0.045c2.179,0.018,2.732-0.787,2.702-2.819c-0.032-2.246-1.393-2.088-2.894-2.088
	c-35.404,0.011-70.809,0.01-106.213,0.001c-0.949,0-1.897-0.114-2.847-0.175c-0.046-1.836-0.092-3.672-0.138-5.508
	c2.183,0.18,4.279-0.064,6.316-1.516c0.742,2.163,2.43,1.795,3.841,1.431c1.634-0.422,0.924-1.997,0.942-3.082
	c0.069-4.068,0.03-8.139,0.029-12.208c0-0.865,0.216-1.916-0.82-2.285c-1.039-0.369-2.192-0.488-3.197,0.221
	c-0.369,0.261-0.422,0.881-0.997,0.947c-3.669-1.823-6.767-1.748-9.631,0.451c-2.914,2.238-4.042,5.276-3.385,8.897
	c0.611,3.367,2.976,5.32,5.778,6.878c-3.185,0.521-6.378,0.452-9.575,0.127c0.417-3.732,0.239-7.48,0.156-11.214
	c-0.128-5.779-4.882-8.223-9.817-5.155c-0.718,0.446-1.326,0.873-2.119,0.168c-2.425-2.155-4.94-1.712-7.433-0.209
	c-0.611-0.086-0.643-0.714-1.022-0.971c-1.457-0.987-3.771-0.325-3.755,1.182c0.053,5.408-0.33,10.824,0.195,16.227
	c-1.109,0.292-2.216,0.194-3.323-0.021c0.07-0.732-0.188-1.372-0.438-2.055C70.713,166.593,68.435,160.243,66.142,153.899z
	 M160.063,158.285c-0.668-0.244-0.966-0.334-1.247-0.46c-3.99-1.777-8.046-0.888-10.571,2.323
	c-2.427,3.088-2.508,8.444-0.174,11.473c2.571,3.336,6.478,4.358,10.466,2.618c0.876-0.382,1.282-0.183,2.049,0.311
	c2.025,1.304,3.749,0.24,3.753-2.152c0.011-6.717,0-13.434,0.014-20.15c0.003-1.268,0.059-2.52-1.78-2.383
	c-1.492,0.11-2.644,0.485-2.532,2.397C160.15,154.158,160.063,156.066,160.063,158.285z M179.737,139.742
	c3.839,0,7.423-0.04,11.005,0.019c1.526,0.025,2.269-0.561,2.141-2.106c-0.28-3.392-1.986-5.845-5.004-7.351
	c-3.325-1.661-6.626-1.294-9.484,0.896c-2.678,2.052-4.035,4.923-3.356,8.43c0.749,3.86,3.202,6.267,6.905,7.146
	c3.905,0.928,7.241-0.38,9.84-3.468c0.422-0.502,0.776-1.033,0.26-1.814c-1.984-0.409-3.869-0.293-5.776,0.858
	C183.5,144.022,181.023,143.053,179.737,139.742z M182.16,167.702c3.759,0,7.165,0.007,10.572-0.003
	c2.725-0.008,3.269-0.694,2.585-3.307c-0.181-0.691-0.456-1.367-0.76-2.017c-1.533-3.288-5.508-5.489-9.047-5.037
	c-3.362,0.431-7.212,3.516-7.791,6.206c-0.858,3.984,0.23,7.295,3.488,9.765c3.391,2.571,7.096,2.203,10.637,0.517
	c1.525-0.726,3.044-2.014,2.829-4.195c-3.047-0.285-3.047-0.285-5.614,0.622C185.396,171.548,183.679,171.017,182.16,167.702z
	 M162.396,111.631c3.844,0,7.418-0.052,10.99,0.021c1.82,0.038,2.395-0.7,2.208-2.467c-0.681-6.448-8.452-10.113-13.815-6.473
	c-3.129,2.124-4.733,5.573-4.021,8.835c0.848,3.879,3.174,6.412,7.114,7.195c3.842,0.765,7.088-0.406,9.633-3.419
	c0.373-0.441,0.684-0.931,0.372-1.516c-0.322-0.605-0.95-0.458-1.493-0.515c-2.289-0.242-4.27,0.925-6.397,1.412
	C164.894,115.185,163.265,114.25,162.396,111.631z M128.36,110.249c0-2.155,0.009-4.31-0.002-6.464
	c-0.011-2.271-1.428-3.433-3.316-2.277c-1.436,0.879-2.431,0.463-3.689,0.124c-3.754-1.013-7.546,0.426-9.633,3.593
	c-2.117,3.213-1.979,7.251,0.353,10.283c2.386,3.103,6.077,4.231,9.813,2.897c1.046-0.374,1.721-0.362,2.772,0.318
	c1.986,1.286,3.687,0.123,3.7-2.249C128.369,114.399,128.359,112.324,128.36,110.249z M148.135,141.862
	c-2.082-0.891-3.189-0.806-5.31,0.407c-2.894,1.655-5.955,0.661-7.004-2.532c3.572,0,7.056,0.012,10.54-0.004
	c2.321-0.011,2.852-0.66,2.42-2.875c-0.872-4.474-4.421-7.493-8.898-7.571c-4.021-0.069-7.975,3.049-8.728,6.885
	c-0.913,4.652,1.225,8.496,5.734,10.311C141.224,148.226,147.128,145.8,148.135,141.862z M132.116,158.734
	c-0.737-1.572-2.098-1.849-3.576-1.355c-1.591,0.531-0.986,2.002-1.001,3.106c-0.058,4.15,0.022,8.304-0.055,12.455
	c-0.031,1.66,0.602,2.281,2.244,2.272c1.578-0.008,2.094-0.659,2.043-2.182c-0.088-2.632-0.103-5.271-0.013-7.903
	c0.081-2.36,1.436-3.683,3.531-3.694c2.303-0.014,3.25,0.976,3.313,3.697c0.063,2.713,0.043,5.43-0.018,8.143
	c-0.039,1.713,0.977,1.902,2.328,1.938c1.417,0.037,2.07-0.506,2.045-1.948c-0.048-2.953,0.081-5.915-0.086-8.86
	C142.51,158.018,137.811,155.525,132.116,158.734z M216.741,175.142c2.584-0.174,4.531-1.468,5.579-4.021
	c0.89-2.165,0.347-4.082-1.133-5.772c-1.132-1.293-2.818-1.393-4.321-1.892c-0.672-0.223-1.484-0.541-1.18-1.484
	c0.308-0.953,1.039-0.812,1.746-0.406c1.567,0.899,2.227-0.363,2.821-1.329c0.761-1.232-0.459-1.724-1.209-2.167
	c-1.794-1.06-3.669-1.066-5.432,0.111c-1.861,1.243-2.615,3.066-2.071,5.204c0.564,2.218,1.902,3.872,4.381,4.084
	c1.218,0.104,1.925,0.588,2.098,1.809c0.188,1.321-1.032,1.334-1.701,1.569c-1.068,0.375-1.312-0.831-1.892-1.409
	c-1.087-1.086-2.54-1.259-3.688-0.486c-1.087,0.73-0.266,1.889,0.219,2.777C212.168,173.949,214.037,175.126,216.741,175.142z
	 M119.319,129.062c-0.3,0.08-0.534,0.209-0.756,0.191c-1.336-0.109-2.391,0.027-2.397,1.791c-0.005,1.537,0.333,2.473,2.172,2.233
	c1.276-0.167,1.317,0.829,1.31,1.767c-0.024,3.117,0.009,6.234-0.064,9.35c-0.038,1.623,0.113,2.755,2.244,2.727
	c2.032-0.027,2.125-1.139,2.098-2.644c-0.048-2.637,0.145-5.287-0.06-7.909c-0.193-2.462,0.242-3.851,3.138-3.312
	c1.288,0.24,2.079-0.425,2.097-1.902c0.02-1.53-0.609-2.358-2.135-2.099c-2.604,0.442-3.522-0.589-3.076-3.112
	c0.109-0.621,0.039-1.276,0.024-1.915c-0.024-1.027,0.164-2.294-1.446-2.166c-1.408,0.113-2.966,0.113-2.91,2.3
	C119.597,125.923,119.935,127.534,119.319,129.062z M164.605,138.189c-0.005,0-0.01,0-0.014,0c0,2.313,0.041,4.628-0.014,6.941
	c-0.04,1.67,0.898,1.936,2.292,1.966c1.407,0.03,2.099-0.444,2.07-1.904c-0.037-1.994,0.076-3.994-0.038-5.982
	c-0.159-2.779,0.219-5.049,3.438-5.946c1.529-0.426,1.191-2.018,0.851-3.082c-0.409-1.275-1.545-0.817-2.422-0.422
	c-0.861,0.387-1.508,0.975-2.429-0.158c-0.678-0.833-1.96-0.507-2.932-0.147c-1.075,0.398-0.805,1.416-0.805,2.273
	C164.605,133.88,164.605,136.035,164.605,138.189z M147.341,110.171c-0.003,0-0.006,0-0.009,0c0,2.315,0.058,4.632-0.019,6.945
	c-0.058,1.722,0.938,1.927,2.293,1.942c1.362,0.014,2.106-0.425,2.062-1.922c-0.06-1.994,0.097-3.999-0.046-5.984
	c-0.202-2.813,0.327-4.951,3.479-5.835c1.492-0.419,1.154-1.995,0.827-3.099c-0.322-1.092-1.343-0.985-2.204-0.592
	c-1.037,0.472-1.819,0.568-2.988-0.104c-1.926-1.107-3.39-0.013-3.396,2.184C147.335,105.861,147.341,108.016,147.341,110.171z
	 M152.521,138.173c-0.004,0-0.008,0-0.011,0c0,2.31,0.045,4.621-0.015,6.929c-0.043,1.655,0.863,1.965,2.266,1.986
	c1.384,0.022,2.104-0.435,2.077-1.897c-0.038-2.069,0.086-4.148-0.052-6.21c-0.185-2.745,0.381-4.834,3.41-5.689
	c1.556-0.439,1.253-1.947,0.924-3.04c-0.393-1.3-1.482-0.909-2.376-0.495c-0.863,0.4-1.432,0.717-2.481-0.102
	c-1.816-1.416-3.729-0.231-3.74,2.067C152.514,133.873,152.521,136.022,152.521,138.173z M204.122,158.589
	c-0.852-1.417-2.136-1.595-3.537-1.241c-0.966,0.243-1.054,1.069-1.053,1.909c0.001,4.708,0.016,9.418-0.018,14.126
	c-0.011,1.573,0.933,1.791,2.188,1.823c1.353,0.035,2.124-0.383,2.071-1.898c-0.066-1.913,0.058-3.835-0.054-5.744
	c-0.172-2.955,0.238-5.362,3.718-6.234c1.533-0.385,1.109-2.016,0.818-3.091c-0.347-1.283-1.452-0.962-2.377-0.583
	C205.368,157.866,204.896,158.173,204.122,158.589z M174.108,166.423c0-2.389-0.027-4.778,0.01-7.167
	c0.023-1.587-0.761-2.033-2.245-1.999c-1.489,0.034-2.181,0.538-2.163,2.108c0.053,4.539,0.069,9.079-0.006,13.618
	c-0.028,1.702,0.704,2.193,2.286,2.237c1.77,0.05,2.183-0.802,2.133-2.347C174.054,170.726,174.105,168.573,174.108,166.423z
	 M202.863,137.441c0,0.003,0,0.007,0,0.01c1.356,0,2.717-0.054,4.069,0.015c1.392,0.07,2.057-0.417,2.076-1.9
	c0.019-1.442-0.539-2.023-1.973-1.999c-2.792,0.046-5.587,0.027-8.38-0.004c-1.328-0.014-2.07,0.388-2.1,1.907
	c-0.031,1.679,0.806,2.045,2.235,1.983C200.147,137.395,201.506,137.441,202.863,137.441z M172.199,149.93
	c-1.487,0.031-2.96,1.527-2.981,2.833c-0.022,1.426,1.579,3.082,2.948,2.861c1.575-0.255,2.678-1.249,2.625-2.912
	C174.738,151.059,173.563,150.231,172.199,149.93z"/>
<path fill-rule="evenodd" clip-rule="evenodd" fill="#0B0A03" d="M111.434,180.619c0.949,0.061,1.897,0.175,2.847,0.175
	c35.404,0.009,70.809,0.01,106.213-0.001c1.501,0,2.861-0.158,2.894,2.088c0.03,2.032-0.523,2.837-2.702,2.819
	c-11.028-0.093-22.058-0.045-33.086-0.045c-24.615-0.001-49.23-0.003-73.846,0.005c-0.791,0-1.581,0.106-2.372,0.164
	c-1.271-0.051-2.542-0.145-3.813-0.146c-17.652-0.01-35.304-0.023-52.956,0.019c-1.772,0.004-2.844-0.201-2.875-2.403
	c-0.031-2.284,0.998-2.562,2.928-2.557c18.371,0.062,36.741,0.042,55.112,0.036C110.329,180.773,110.881,180.673,111.434,180.619z"
	/>
<path fill-rule="evenodd" clip-rule="evenodd" fill="#0B0A03" d="M70.641,125.731c-0.021,6.131-0.045,12.262-0.059,18.393
	c-0.002,0.956,0.08,1.917-0.354,2.814c-1.491,0.165-2.981,0.214-4.465-0.081c-2.271-4.829-4.542-9.659-6.9-14.673
	c-0.721,1.096-0.401,1.975-0.426,2.815c-0.114,3.969,0.339,7.951-0.258,11.91c-1.272,0.176-2.544,0.271-3.815,0.012
	c-0.368-0.913-0.311-1.873-0.316-2.831c-0.035-6.139-0.08-12.278-0.122-18.417c0.476-1.095-0.699-2.974,1.426-3.262
	c1.98-0.269,3.863-0.156,4.492,2.332c0.111,0.441,0.459,0.823,0.698,1.231c1.701,3.791,3.402,7.583,5.103,11.374
	c0.136-0.055,0.271-0.11,0.407-0.165c0-3.793,0-7.587,0-11.38c0.523-1.185-0.81-3.284,1.8-3.45
	C70.182,122.206,70.489,122.514,70.641,125.731z"/>
<path fill-rule="evenodd" clip-rule="evenodd" fill="#0B0A03" d="M76.802,175c-0.525-5.402-0.142-10.818-0.195-16.227
	c-0.015-1.507,2.298-2.169,3.755-1.182c0.379,0.257,0.411,0.885,1.022,0.971c2.493-1.503,5.007-1.946,7.433,0.209
	c0.793,0.705,1.401,0.278,2.119-0.168c4.935-3.067,9.688-0.624,9.817,5.155c0.083,3.733,0.261,7.481-0.156,11.214
	c-1.311,0.351-2.623,0.266-3.934,0.011c-0.462-3.256-0.135-6.529-0.181-9.794c-0.027-1.95-0.408-3.568-2.717-3.755
	c-1.872-0.151-2.959,1.279-3.031,3.735c-0.095,3.265,0.267,6.539-0.201,9.797c-1.327,0.327-2.65,0.34-3.971-0.033
	c-0.059-3.66-0.118-7.321-0.176-10.982c-0.022-1.413-0.773-2.248-2.123-2.463c-1.392-0.222-2.513,0.204-3.093,1.626
	c-0.342,0.838-0.329,1.708-0.353,2.585c-0.086,3.102,0.245,6.211-0.17,9.306C79.366,175.32,78.083,175.231,76.802,175z"/>
<path fill-rule="evenodd" clip-rule="evenodd" fill="#0B0A03" d="M66.142,153.899c2.292,6.344,4.571,12.693,6.899,19.024
	c0.251,0.683,0.508,1.322,0.438,2.055c-1.428,0.312-2.854,0.318-4.277-0.029c-0.465-3.736-2.926-4.283-6.057-3.832
	c-0.699,0.101-1.425,0.011-2.138,0.015c-4.05,0.02-3.628-0.692-4.943,3.701c-1.434,0.259-2.954,1.111-4.101-0.598
	c0.138-0.772,0.277-1.546,0.416-2.318c2.398-5.983,4.748-11.984,6.659-18.146c0.918-1.396,0.833-3.443,3.495-3.533
	C65.467,150.139,65.097,152.555,66.142,153.899z M66.329,166.84c-1.25-3.375-2.392-6.461-3.752-10.135
	c-1.355,3.736-2.474,6.815-3.678,10.135C61.438,166.84,63.692,166.84,66.329,166.84z"/>
<path fill-rule="evenodd" clip-rule="evenodd" fill="#0B0A03" d="M80.616,146.805c-1.998-1.146-4.044-2.22-5.138-4.432
	c-1.789-3.619-1.334-7.47,1.248-10.207c2.793-2.961,6.536-3.559,10.698-1.71c0.475,0.055,0.669-0.309,0.937-0.596
	c0.979-1.052,2.235-0.758,3.344-0.456c1.243,0.339,0.885,1.532,0.862,2.444c-0.126,5.01,0.292,10.027-0.217,15.031
	C88.438,146.854,84.527,146.829,80.616,146.805z M88.252,138.253c0.039-2.537-2.08-4.786-4.602-4.885
	c-2.526-0.1-4.98,2.29-4.959,4.829c0.022,2.506,2.274,4.732,4.784,4.729C86.088,142.922,88.212,140.844,88.252,138.253z"/>
<path fill-rule="evenodd" clip-rule="evenodd" fill="#0B0A03" d="M110.172,174.846c-2.803-1.558-5.167-3.511-5.778-6.878
	c-0.657-3.621,0.471-6.659,3.385-8.897c2.864-2.199,5.962-2.274,9.631-0.451c0.575-0.066,0.628-0.687,0.997-0.947
	c1.005-0.709,2.158-0.59,3.197-0.221c1.036,0.369,0.82,1.42,0.82,2.285c0.001,4.069,0.041,8.14-0.029,12.208
	c-0.018,1.085,0.692,2.66-0.942,3.082c-1.411,0.364-3.099,0.732-3.841-1.431c-2.037,1.451-4.133,1.695-6.316,1.516
	C110.921,175.022,110.546,174.934,110.172,174.846z M113.306,161.473c-2.613-0.012-4.78,2.074-4.806,4.626
	c-0.027,2.667,2.173,4.85,4.863,4.823c2.526-0.024,4.734-2.242,4.741-4.762C118.112,163.654,115.891,161.484,113.306,161.473z"/>
<path fill-rule="evenodd" clip-rule="evenodd" fill="#0B0A03" d="M95.854,118.754c-4.881-2.362-6.986-5.754-6.276-10.115
	c0.606-3.724,4.221-7.007,7.27-7.254c7.035-0.57,9.875,3.778,10.576,7.697c0.336,1.881-0.442,2.605-2.354,2.562
	c-3.429-0.076-6.862,0.016-10.293,0.053c-0.129,0.001-0.257,0.167-0.384,0.259c0.904,2.764,4.044,3.828,6.979,2.199
	c1.268-0.704,2.521-0.914,3.895-0.861c0.56,0.022,1.2-0.017,1.422,0.627c0.197,0.571-0.115,1.066-0.5,1.515
	c-1.271,1.482-2.763,2.675-4.519,3.533C99.731,118.897,97.793,118.826,95.854,118.754z M102.365,107.703
	c-0.85-2.067-2.457-2.419-4.109-2.359c-1.53,0.057-3.06,0.431-3.744,2.359C97.214,107.703,99.682,107.703,102.365,107.703z"/>
<path fill-rule="evenodd" clip-rule="evenodd" fill="#0B0A03" d="M74.604,97.598c0,1.58,0,3.159,0,4.925
	c1.872-0.721,3.666-1.475,5.715-1.101c3.055,0.557,4.965,2.149,5.316,5.256c0.456,4.033,0.416,8.1,0.011,12.15
	c-1.315,0.309-2.629,0.307-3.943,0.002c-0.467-3.324-0.131-6.665-0.203-9.998c-0.041-1.955-0.819-3.19-2.828-3.474
	c-2.254-0.318-4.052,1.157-4.169,3.478c-0.168,3.33,0.243,6.673-0.223,9.997c-1.217,0.279-2.443,0.25-3.666,0.092
	c-0.532-0.849-0.496-1.795-0.497-2.752c-0.011-6.319-0.043-12.639-0.068-18.958c0.104-1.267-0.298-2.723,1.655-3.098
	C74.025,93.67,74.325,93.966,74.604,97.598z"/>
<path fill-rule="evenodd" clip-rule="evenodd" fill="#FFFF03" d="M70.049,97.214c0.025,6.319,0.058,12.639,0.068,18.958
	c0.001,0.958-0.035,1.903,0.497,2.752c-3.104,0.318-6.2,0.198-9.296-0.05c0.552-5.887,0.081-11.788,0.248-17.679
	c0.024-0.848-0.295-1.76,0.492-2.667c0.908,0,1.937-0.043,2.959,0.01c1.449,0.076,2.077-0.573,1.937-2
	C67.635,98.369,68.842,97.794,70.049,97.214z"/>
<path fill-rule="evenodd" clip-rule="evenodd" fill="#0B0A03" d="M97.854,146.855c-0.469-5.343-0.11-10.697-0.193-16.044
	c-0.022-1.414,2.023-2.143,3.567-1.341c0.467,0.243,0.809,0.728,1.239,1.132c0.684-0.313,1.315-0.661,1.985-0.898
	c3.739-1.327,7.698,0.811,8.468,4.651c0.744,3.715,0.228,7.491,0.344,11.237c0.042,1.345-1.025,1.421-1.956,1.633
	c-0.675-0.114-1.35-0.228-2.024-0.341c-0.087-1.025-0.229-2.052-0.25-3.079c-0.05-2.39,0.067-4.789-0.094-7.169
	c-0.124-1.826-1.082-3.22-3.104-3.342c-1.938-0.118-3.18,0.9-3.63,2.772c-0.184,0.763-0.21,1.573-0.228,2.363
	c-0.062,2.787-0.09,5.574-0.132,8.361C100.523,147.222,99.189,147.116,97.854,146.855z"/>
<path fill-rule="evenodd" clip-rule="evenodd" fill="#0B0A03" d="M138.683,94.131c0.49,1.402,0.337,2.873,0.199,4.273
	c-0.223,2.259,0.4,3.301,2.842,2.911c1.07-0.171,2.365-0.244,2.572,1.37c0.214,1.664-0.142,2.763-2.231,2.725
	c-3.146-0.059-3.142,0.037-3.134,3.218c0.007,2.793-0.058,5.588,0.02,8.378c0.044,1.604-0.66,2.079-2.159,2.059
	c-1.495-0.02-2.184-0.527-2.144-2.112c0.08-3.19-0.001-6.384,0.067-9.575c0.028-1.309-0.124-2.242-1.772-2.039
	c-1.46,0.181-1.715-0.744-1.733-1.934c-0.021-1.3,0.278-2.254,1.846-2.095c1.494,0.151,1.659-0.692,1.665-1.916
	c0.009-1.726-0.463-3.516,0.468-5.164C136.35,94.104,137.51,93.885,138.683,94.131z"/>
<path fill-rule="evenodd" clip-rule="evenodd" fill="#0B0A03" d="M66.954,96.539c0.14,1.428-0.488,2.076-1.937,2
	c-1.023-0.053-2.051-0.01-2.959-0.01c-0.787,0.906-0.468,1.819-0.492,2.667c-0.167,5.892,0.304,11.792-0.248,17.679
	c-1.306,0.211-2.613,0.243-3.921,0.018c-0.557-5.486-0.061-10.988-0.254-16.479c-0.043-1.239,0.354-2.534-0.293-3.74
	c-1.574-0.484-3.236,0.263-4.729-0.502c-0.473-3.68-0.303-3.882,3.203-3.877c3.096,0.005,6.194,0.081,9.286-0.025
	C66.328,94.211,67.219,94.698,66.954,96.539z"/>
<path fill-rule="evenodd" clip-rule="evenodd" fill="#FFFF03" d="M52.122,98.171c1.492,0.765,3.155,0.018,4.729,0.502
	c0.646,1.207,0.25,2.501,0.293,3.74c0.193,5.491-0.303,10.993,0.254,16.479c-5.561,0.579-5.626,0.578-5.543-4.952
	C51.932,108.685,51.485,103.418,52.122,98.171z"/>
<path fill-rule="evenodd" clip-rule="evenodd" fill="#FFFF03" d="M74.28,118.833c0.466-3.324,0.055-6.667,0.223-9.997
	c0.118-2.32,1.916-3.796,4.169-3.478c2.009,0.284,2.787,1.52,2.828,3.474c0.071,3.333-0.265,6.674,0.203,9.998
	C79.229,119.179,76.754,119.235,74.28,118.833z"/>
<path fill-rule="evenodd" clip-rule="evenodd" fill="#FFFF03" d="M101.847,146.79c0.042-2.787,0.069-5.574,0.132-8.361
	c0.018-0.79,0.044-1.601,0.228-2.363c0.45-1.872,1.692-2.89,3.63-2.772c2.021,0.123,2.979,1.516,3.104,3.342
	c0.161,2.381,0.044,4.779,0.094,7.169c0.021,1.027,0.163,2.054,0.25,3.079C106.803,147.026,104.322,147.202,101.847,146.79z"/>
<path fill-rule="evenodd" clip-rule="evenodd" fill="#FFFF03" d="M90.534,174.967c0.467-3.258,0.105-6.532,0.201-9.797
	c0.071-2.456,1.159-3.887,3.031-3.735c2.309,0.187,2.689,1.805,2.717,3.755c0.046,3.265-0.281,6.538,0.181,9.794
	C94.619,175.266,92.576,175.285,90.534,174.967z"/>
<path fill-rule="evenodd" clip-rule="evenodd" fill="#FFFF03" d="M80.648,175.005c0.416-3.095,0.084-6.204,0.17-9.306
	c0.024-0.877,0.011-1.747,0.353-2.585c0.58-1.422,1.701-1.848,3.093-1.626c1.35,0.215,2.101,1.05,2.123,2.463
	c0.058,3.661,0.117,7.322,0.176,10.982C84.597,175.403,82.622,175.207,80.648,175.005z"/>
<path fill-rule="evenodd" clip-rule="evenodd" fill="#FFFF03" d="M59.038,153.771c-1.911,6.162-4.261,12.163-6.659,18.147
	c-0.149-0.345-0.297-0.69-0.446-1.036c-0.035-5.038-0.052-10.076-0.117-15.113c-0.018-1.386,0.451-2.076,1.949-2.008
	C55.519,153.841,57.28,153.774,59.038,153.771z"/>
<path fill-rule="evenodd" clip-rule="evenodd" fill="#FFFF03" d="M58.179,146.91c0.597-3.959,0.144-7.941,0.258-11.91
	c0.024-0.84-0.295-1.72,0.426-2.815c2.358,5.014,4.629,9.844,6.9,14.673C63.238,147.262,60.709,147.184,58.179,146.91z"/>
<path fill-rule="evenodd" clip-rule="evenodd" fill="#0B0A03" d="M123.764,94.188c0.681,0.771,1.292,1.623,2.06,2.295
	c1.108,0.97,1.038,1.785,0.061,2.796c-1.049,1.084-1.892,0.944-2.746-0.182c-0.239-0.315-0.572-0.56-0.808-0.876
	c-1.21-1.623-2.233-1.516-3.56,0.029c-2.184,2.542-2.679,2.436-4.775-0.354c0.794-1.589,2.695-2.166,3.498-3.755
	C120.505,91.585,120.505,91.585,123.764,94.188z"/>
<path fill-rule="evenodd" clip-rule="evenodd" fill="#FFFF03" d="M53.926,125.674c0.042,6.139,0.087,12.278,0.122,18.417
	c0.006,0.958-0.051,1.918,0.316,2.831c-1.932,0.54-2.573-0.291-2.555-2.174c0.056-5.569,0.069-11.141-0.016-16.71
	C51.769,126.417,52.339,125.673,53.926,125.674z"/>
<path fill-rule="evenodd" clip-rule="evenodd" fill="#FFFF03" d="M56.064,174.833c1.315-4.394,0.893-3.682,4.943-3.701
	c0.713-0.004,1.439,0.086,2.138-0.015c3.131-0.451,5.592,0.096,6.057,3.832C64.819,175.232,60.438,175.446,56.064,174.833z"/>
<path fill-rule="evenodd" clip-rule="evenodd" fill="#0B0A03" d="M102.147,97.5c-1.979,0.517-3.976,0.978-5.933,1.567
	c-1.5,0.452-2.593,0.229-3.148-1.366c0.101-1.587,1.048-2.363,2.517-2.692c1.245-0.279,2.467-0.652,3.713-0.923
	c0.889-0.194,1.906-0.875,2.652,0.127C102.685,95.204,103.073,96.346,102.147,97.5z"/>
<path fill-rule="evenodd" clip-rule="evenodd" fill="#FFFF03" d="M66.052,125.804c0,3.793,0,7.586,0,11.38
	c-0.136,0.055-0.271,0.109-0.407,0.165c-1.701-3.792-3.402-7.583-5.103-11.374C62.379,125.918,64.215,125.861,66.052,125.804z"/>
<path fill-rule="evenodd" clip-rule="evenodd" fill="#F5EF44" d="M51.933,170.882c0.148,0.346,0.297,0.691,0.446,1.036
	c-0.139,0.771-0.277,1.545-0.416,2.317C51.554,173.121,51.71,172.002,51.933,170.882z"/>
<path fill-rule="evenodd" clip-rule="evenodd" fill="#0B0A03" d="M160.063,158.285c0-2.219,0.087-4.127-0.023-6.023
	c-0.111-1.912,1.04-2.287,2.532-2.397c1.839-0.137,1.783,1.115,1.78,2.383c-0.014,6.717-0.003,13.434-0.014,20.15
	c-0.004,2.393-1.728,3.456-3.753,2.152c-0.767-0.493-1.173-0.692-2.049-0.311c-3.988,1.74-7.895,0.718-10.466-2.618
	c-2.334-3.028-2.253-8.385,0.174-11.473c2.525-3.211,6.581-4.101,10.571-2.323C159.098,157.951,159.396,158.041,160.063,158.285z
	 M150.643,166.014c0.037,2.859,2.022,4.906,4.757,4.904c2.725-0.002,4.709-2.092,4.697-4.948c-0.012-2.882-1.99-4.917-4.742-4.879
	C152.557,161.129,150.605,163.168,150.643,166.014z"/>
<path fill-rule="evenodd" clip-rule="evenodd" fill="#0B0A03" d="M179.737,139.742c1.286,3.311,3.763,4.281,6.529,2.61
	c1.907-1.151,3.792-1.268,5.776-0.858c0.517,0.781,0.162,1.312-0.26,1.814c-2.599,3.088-5.935,4.396-9.84,3.468
	c-3.703-0.879-6.156-3.286-6.905-7.146c-0.679-3.507,0.679-6.378,3.356-8.43c2.858-2.19,6.159-2.557,9.484-0.896
	c3.018,1.506,4.724,3.959,5.004,7.351c0.128,1.545-0.614,2.131-2.141,2.106C187.16,139.702,183.576,139.742,179.737,139.742z
	 M187.879,135.699c-0.957-1.825-2.389-2.436-3.98-2.451c-1.603-0.015-3.034,0.587-3.913,2.451
	C182.699,135.699,185.154,135.699,187.879,135.699z"/>
<path fill-rule="evenodd" clip-rule="evenodd" fill="#0B0A03" d="M182.16,167.702c1.519,3.314,3.235,3.846,6.899,2.551
	c2.567-0.907,2.567-0.907,5.614-0.622c0.215,2.182-1.304,3.47-2.829,4.195c-3.541,1.687-7.246,2.055-10.637-0.517
	c-3.258-2.47-4.347-5.78-3.488-9.765c0.579-2.69,4.429-5.775,7.791-6.206c3.539-0.452,7.514,1.749,9.047,5.037
	c0.304,0.649,0.579,1.325,0.76,2.017c0.684,2.612,0.14,3.299-2.585,3.307C189.325,167.709,185.919,167.702,182.16,167.702z
	 M182.398,163.779c2.839,0,5.366,0,8.019,0C188.469,160.588,184.749,160.562,182.398,163.779z"/>
<path fill-rule="evenodd" clip-rule="evenodd" fill="#0B0A03" d="M162.396,111.631c0.868,2.619,2.497,3.553,4.591,3.074
	c2.128-0.487,4.108-1.654,6.397-1.412c0.543,0.057,1.171-0.09,1.493,0.515c0.312,0.585,0.001,1.075-0.372,1.516
	c-2.545,3.013-5.791,4.184-9.633,3.419c-3.94-0.783-6.267-3.315-7.114-7.195c-0.713-3.262,0.892-6.711,4.021-8.835
	c5.363-3.64,13.135,0.024,13.815,6.473c0.187,1.767-0.388,2.504-2.208,2.467C169.814,111.58,166.24,111.631,162.396,111.631z
	 M162.404,107.652c2.899,0,5.41,0,7.986,0C168.771,104.621,165.4,104.472,162.404,107.652z"/>
<path fill-rule="evenodd" clip-rule="evenodd" fill="#0B0A03" d="M128.359,110.249c0,2.075,0.009,4.15-0.002,6.225
	c-0.013,2.372-1.714,3.535-3.7,2.249c-1.051-0.68-1.726-0.691-2.772-0.318c-3.737,1.334-7.427,0.206-9.813-2.897
	c-2.331-3.032-2.469-7.07-0.353-10.283c2.087-3.167,5.879-4.606,9.633-3.593c1.258,0.339,2.253,0.755,3.689-0.124
	c1.888-1.156,3.305,0.007,3.316,2.277C128.369,105.939,128.36,108.094,128.359,110.249z M119.251,114.784
	c2.668,0.06,4.799-1.923,4.877-4.538c0.077-2.55-2.004-4.733-4.614-4.841c-2.696-0.111-4.974,2.036-4.986,4.698
	C114.517,112.716,116.542,114.724,119.251,114.784z"/>
<path fill-rule="evenodd" clip-rule="evenodd" fill="#0B0A03" d="M148.135,141.862c-1.007,3.938-6.911,6.364-11.246,4.62
	c-4.509-1.814-6.647-5.658-5.734-10.311c0.753-3.836,4.706-6.954,8.728-6.885c4.478,0.078,8.026,3.097,8.898,7.571
	c0.432,2.216-0.099,2.865-2.42,2.875c-3.483,0.016-6.967,0.004-10.54,0.004c1.05,3.193,4.111,4.188,7.004,2.532
	C144.945,141.056,146.053,140.971,148.135,141.862z M135.995,135.688c2.706,0,5.171,0,7.749,0
	C141.702,132.424,138.184,132.412,135.995,135.688z"/>
<path fill-rule="evenodd" clip-rule="evenodd" fill="#0B0A03" d="M132.116,158.734c5.694-3.209,10.394-0.717,10.755,5.668
	c0.167,2.945,0.038,5.907,0.086,8.86c0.024,1.442-0.629,1.985-2.045,1.948c-1.351-0.035-2.366-0.225-2.328-1.938
	c0.061-2.713,0.081-5.43,0.018-8.143c-0.064-2.722-1.01-3.711-3.313-3.697c-2.095,0.012-3.45,1.334-3.531,3.694
	c-0.09,2.632-0.075,5.271,0.013,7.903c0.051,1.522-0.465,2.174-2.043,2.182c-1.642,0.009-2.275-0.612-2.244-2.272
	c0.077-4.151-0.003-8.305,0.055-12.455c0.015-1.104-0.59-2.575,1.001-3.106C130.018,156.886,131.379,157.162,132.116,158.734z"/>
<path fill-rule="evenodd" clip-rule="evenodd" fill="#0B0A03" d="M216.741,175.142c-2.704-0.016-4.573-1.192-5.782-3.413
	c-0.484-0.889-1.306-2.047-0.219-2.777c1.147-0.772,2.601-0.6,3.688,0.486c0.579,0.578,0.823,1.784,1.892,1.409
	c0.669-0.235,1.889-0.248,1.701-1.569c-0.173-1.221-0.88-1.704-2.098-1.809c-2.479-0.212-3.816-1.866-4.381-4.084
	c-0.544-2.138,0.21-3.961,2.071-5.204c1.763-1.178,3.638-1.171,5.432-0.111c0.75,0.443,1.97,0.935,1.209,2.167
	c-0.595,0.966-1.254,2.229-2.821,1.329c-0.707-0.405-1.438-0.547-1.746,0.406c-0.305,0.943,0.508,1.262,1.18,1.484
	c1.503,0.499,3.189,0.599,4.321,1.892c1.479,1.69,2.022,3.607,1.133,5.772C221.272,173.674,219.325,174.968,216.741,175.142z"/>
<path fill-rule="evenodd" clip-rule="evenodd" fill="#0B0A03" d="M119.319,129.062c0.616-1.528,0.278-3.139,0.238-4.7
	c-0.056-2.187,1.502-2.187,2.91-2.3c1.61-0.129,1.422,1.139,1.446,2.166c0.014,0.639,0.085,1.294-0.024,1.915
	c-0.447,2.523,0.472,3.554,3.076,3.112c1.526-0.259,2.155,0.569,2.135,2.099c-0.019,1.478-0.81,2.142-2.097,1.902
	c-2.896-0.539-3.331,0.85-3.138,3.312c0.205,2.622,0.012,5.272,0.06,7.909c0.027,1.505-0.066,2.616-2.098,2.644
	c-2.13,0.028-2.282-1.104-2.244-2.727c0.073-3.115,0.041-6.233,0.064-9.35c0.007-0.938-0.034-1.934-1.31-1.767
	c-1.839,0.24-2.177-0.696-2.172-2.233c0.006-1.764,1.061-1.9,2.397-1.791C118.786,129.271,119.02,129.143,119.319,129.062z"/>
<path fill-rule="evenodd" clip-rule="evenodd" fill="#0B0A03" d="M164.605,138.189c0-2.154,0-4.309-0.001-6.463
	c0-0.857-0.271-1.875,0.805-2.273c0.972-0.359,2.254-0.685,2.932,0.147c0.921,1.133,1.567,0.545,2.429,0.158
	c0.877-0.395,2.013-0.853,2.422,0.422c0.341,1.064,0.679,2.656-0.851,3.082c-3.22,0.897-3.598,3.167-3.438,5.946
	c0.114,1.988,0.001,3.988,0.038,5.982c0.028,1.46-0.663,1.935-2.07,1.904c-1.394-0.03-2.332-0.296-2.292-1.966
	c0.055-2.312,0.014-4.627,0.014-6.941C164.596,138.189,164.601,138.189,164.605,138.189z"/>
<path fill-rule="evenodd" clip-rule="evenodd" fill="#0B0A03" d="M147.341,110.171c0-2.155-0.006-4.31,0.001-6.466
	c0.006-2.197,1.47-3.291,3.396-2.184c1.169,0.672,1.951,0.576,2.988,0.104c0.861-0.393,1.882-0.5,2.204,0.592
	c0.327,1.104,0.665,2.68-0.827,3.099c-3.152,0.884-3.682,3.022-3.479,5.835c0.143,1.985-0.014,3.99,0.046,5.984
	c0.044,1.497-0.7,1.937-2.062,1.922c-1.355-0.015-2.351-0.221-2.293-1.942c0.076-2.313,0.019-4.629,0.019-6.945
	C147.335,110.171,147.338,110.171,147.341,110.171z"/>
<path fill-rule="evenodd" clip-rule="evenodd" fill="#0B0A03" d="M152.521,138.173c0-2.15-0.008-4.3,0.002-6.451
	c0.011-2.298,1.924-3.482,3.74-2.067c1.05,0.818,1.618,0.502,2.481,0.102c0.894-0.414,1.983-0.805,2.376,0.495
	c0.329,1.093,0.632,2.6-0.924,3.04c-3.029,0.855-3.595,2.944-3.41,5.689c0.138,2.062,0.014,4.141,0.052,6.21
	c0.026,1.463-0.693,1.92-2.077,1.897c-1.402-0.021-2.309-0.331-2.266-1.986c0.06-2.308,0.015-4.619,0.015-6.929
	C152.514,138.173,152.518,138.173,152.521,138.173z"/>
<path fill-rule="evenodd" clip-rule="evenodd" fill="#0B0A03" d="M204.122,158.589c0.773-0.416,1.246-0.723,1.758-0.934
	c0.925-0.379,2.03-0.7,2.377,0.583c0.291,1.075,0.715,2.706-0.818,3.091c-3.479,0.872-3.89,3.279-3.718,6.234
	c0.111,1.909-0.013,3.831,0.054,5.744c0.053,1.516-0.719,1.934-2.071,1.898c-1.256-0.032-2.199-0.25-2.188-1.823
	c0.033-4.708,0.019-9.418,0.018-14.126c-0.001-0.84,0.087-1.666,1.053-1.909C201.986,156.994,203.271,157.172,204.122,158.589z"/>
<path fill-rule="evenodd" clip-rule="evenodd" fill="#0B0A03" d="M174.107,166.423c-0.002,2.15-0.054,4.303,0.016,6.451
	c0.05,1.545-0.363,2.396-2.133,2.347c-1.582-0.044-2.314-0.535-2.286-2.237c0.075-4.539,0.059-9.079,0.006-13.618
	c-0.018-1.57,0.674-2.074,2.163-2.108c1.484-0.034,2.269,0.412,2.245,1.999C174.081,161.645,174.108,164.034,174.107,166.423z"/>
<path fill-rule="evenodd" clip-rule="evenodd" fill="#0B0A03" d="M202.863,137.441c-1.357,0-2.716-0.046-4.071,0.013
	c-1.43,0.062-2.267-0.305-2.235-1.983c0.029-1.52,0.771-1.921,2.1-1.907c2.793,0.031,5.588,0.05,8.38,0.004
	c1.434-0.024,1.991,0.557,1.973,1.999c-0.02,1.483-0.685,1.971-2.076,1.9c-1.353-0.069-2.713-0.015-4.069-0.015
	C202.863,137.448,202.863,137.444,202.863,137.441z"/>
<path fill-rule="evenodd" clip-rule="evenodd" fill="#0B0A03" d="M172.199,149.93c1.364,0.302,2.539,1.129,2.592,2.782
	c0.053,1.663-1.05,2.657-2.625,2.912c-1.369,0.221-2.971-1.436-2.948-2.861C169.239,151.457,170.712,149.961,172.199,149.93z"/>
<path fill-rule="evenodd" clip-rule="evenodd" fill="#FFFF03" d="M66.329,166.84c-2.637,0-4.89,0-7.43,0
	c1.204-3.319,2.322-6.398,3.678-10.135C63.937,160.379,65.079,163.465,66.329,166.84z"/>
<path fill-rule="evenodd" clip-rule="evenodd" fill="#FFFF03" d="M88.252,138.253c-0.04,2.59-2.164,4.668-4.777,4.672
	c-2.51,0.004-4.762-2.222-4.784-4.729c-0.021-2.539,2.433-4.929,4.959-4.829C86.172,133.468,88.291,135.717,88.252,138.253z"/>
<path fill-rule="evenodd" clip-rule="evenodd" fill="#FFFF03" d="M113.306,161.473c2.584,0.012,4.806,2.182,4.798,4.688
	c-0.007,2.52-2.215,4.737-4.741,4.762c-2.69,0.026-4.89-2.156-4.863-4.823C108.526,163.547,110.693,161.461,113.306,161.473z"/>
<path fill-rule="evenodd" clip-rule="evenodd" fill="#FFFF03" d="M102.365,107.703c-2.684,0-5.151,0-7.853,0
	c0.684-1.928,2.214-2.302,3.744-2.359C99.909,105.283,101.516,105.636,102.365,107.703z"/>
<path fill-rule="evenodd" clip-rule="evenodd" fill="#FFFF03" d="M150.643,166.014c-0.037-2.846,1.914-4.885,4.712-4.923
	c2.752-0.038,4.73,1.997,4.742,4.879c0.012,2.856-1.973,4.946-4.697,4.948C152.665,170.92,150.68,168.873,150.643,166.014z"/>
<path fill-rule="evenodd" clip-rule="evenodd" fill="#FFFF03" d="M187.879,135.699c-2.725,0-5.18,0-7.894,0
	c0.879-1.863,2.311-2.465,3.913-2.451C185.49,133.263,186.922,133.874,187.879,135.699z"/>
<path fill-rule="evenodd" clip-rule="evenodd" fill="#FFFF03" d="M182.398,163.779c2.351-3.218,6.07-3.191,8.019,0
	C187.765,163.779,185.237,163.779,182.398,163.779z"/>
<path fill-rule="evenodd" clip-rule="evenodd" fill="#FFFF03" d="M162.404,107.652c2.996-3.18,6.366-3.031,7.986,0
	C167.814,107.652,165.304,107.652,162.404,107.652z"/>
<path fill-rule="evenodd" clip-rule="evenodd" fill="#FFFF03" d="M119.251,114.784c-2.709-0.061-4.734-2.068-4.723-4.681
	c0.012-2.662,2.29-4.809,4.986-4.698c2.61,0.108,4.691,2.291,4.614,4.841C124.05,112.861,121.919,114.844,119.251,114.784z"/>
<path fill-rule="evenodd" clip-rule="evenodd" fill="#FFFF03" d="M135.995,135.688c2.189-3.276,5.707-3.264,7.749,0
	C141.167,135.688,138.701,135.688,135.995,135.688z"/>
</svg>
