<?xml version="1.0" encoding="utf-8"?>
<!-- Generator: Adobe Illustrator 16.0.0, SVG Export Plug-In . SVG Version: 6.00 Build 0)  -->
<!DOCTYPE svg PUBLIC "-//W3C//DTD SVG 1.1//EN" "http://www.w3.org/Graphics/SVG/1.1/DTD/svg11.dtd">
<svg version="1.1" id="Calque_1" xmlns="http://www.w3.org/2000/svg" xmlns:xlink="http://www.w3.org/1999/xlink" x="0px" y="0px"
	 width="283.46px" height="283.46px" viewBox="0 0 283.46 283.46" enable-background="new 0 0 283.46 283.46" xml:space="preserve">
<rect fill="#B61717" width="283.46" height="283.46"/>
<path fill-rule="evenodd" clip-rule="evenodd" d="M51.191,167.192c0,1.274-0.033,2.18,0.008,3.082
	c0.054,1.18-0.499,1.549-1.625,1.941c-5.008,1.747-8.182-1.225-11.354-4.199c-0.436-0.409-0.609-1.267-0.626-1.924
	c-0.069-2.698-0.033-5.398-0.033-8.099c0-15.003-0.001-30.007,0-45.01c0-2.499,0.052-2.549,2.504-2.553
	c2.434-0.003,4.87,0.057,7.302-0.022c1.378-0.045,2.357,0.448,3.186,1.515c0.667,0.859,1.469,1.613,2.212,2.414
	c0.121-0.031,0.242-0.063,0.363-0.094c0.038-0.708,0.125-1.416,0.103-2.122c-0.036-1.164,0.444-1.758,1.644-1.687
	c0.132,0.008,0.266-0.002,0.398-0.004c7.061-0.103,7.085-0.126,11.849,5.088c0.521,0.571,0.762,1.59,0.771,2.406
	c0.065,5.664,0.036,11.33,0.036,16.995c0,11.02,0.001,22.041-0.002,33.061c0,2.093-0.038,2.14-2.092,2.366
	c-2.682,0.295-5.363,0.633-8.054,0.802c-0.75,0.047-1.624-0.293-2.28-0.71c-1.039-0.658-1.937-1.539-2.907-2.31
	C52.267,167.871,51.9,167.663,51.191,167.192z M44.899,126.111c0.266,1.669,0.689,4.284,1.095,6.9
	c1.597,10.299,3.202,20.597,4.757,30.902c0.139,0.924,0.483,1.226,1.357,1.128c2.195-0.244,4.399-0.416,6.588-0.704
	c2.087-0.273,2.085-0.322,2.085-2.4c0.001-15.979,0.001-31.958,0-47.937c0-0.354-0.019-0.708-0.012-1.062
	c0.016-0.825-0.366-1.217-1.207-1.201c-1.018,0.02-2.041,0.061-3.052-0.019c-1.3-0.103-1.776,0.339-1.763,1.715
	c0.124,13.189,0.184,26.379,0.262,39.569c0.003,0.458,0,0.917,0,1.376c-0.381-1.079-0.552-2.157-0.716-3.237
	c-1.284-8.426-2.566-16.852-3.847-25.278c-0.644-4.235-1.3-8.469-1.915-12.708c-0.157-1.08-0.657-1.489-1.762-1.441
	c-1.812,0.078-3.629,0.017-5.443,0.02c-2.201,0.003-2.206,0.006-2.207,2.193c0,16.776,0,33.552,0.002,50.327
	c0,0.398-0.111,0.861,0.053,1.178c0.194,0.375,0.627,0.874,0.964,0.88c1.007,0.018,2.016-0.231,3.029-0.279
	c1.369-0.065,1.778-0.64,1.77-2.063C44.872,151.045,44.899,138.122,44.899,126.111z"/>
<path fill-rule="evenodd" clip-rule="evenodd" d="M230.243,114.394c0.242-1.144,0.421-1.898,0.557-2.66
	c0.158-0.879,0.647-1.301,1.55-1.294c1.991,0.015,3.987-0.072,5.972,0.048c0.672,0.041,1.435,0.449,1.946,0.917
	c1.468,1.342,2.794,2.839,4.244,4.202c0.871,0.818,1.095,1.678,0.875,2.847c-1.392,7.392-2.754,14.79-4.048,22.2
	c-0.208,1.191-0.215,2.486,0.006,3.675c1.69,9.092,3.46,18.168,5.205,27.25c0.083,0.435,0.146,0.873,0.242,1.305
	c0.178,0.805-0.121,1.227-0.955,1.12c-3.137-0.402-6.359-0.435-8.82-2.994c-1.145-1.189-2.613-2.065-3.936-3.084
	c-0.157,0.035-0.314,0.069-0.472,0.104c0,0.837-0.021,1.674,0.005,2.509c0.037,1.213-0.508,1.602-1.717,1.536
	c-2.521-0.137-4.697-0.893-6.605-2.637c-1.528-1.397-3.275-2.561-4.953-3.788c-0.845-0.618-1.128-1.332-0.954-2.394
	c1.388-8.471,2.766-16.943,4.045-25.431c0.211-1.404,0.103-2.915-0.154-4.323c-1.279-7.008-2.657-13.997-4-20.993
	c-0.361-1.888-0.218-2.064,1.736-2.076c1.638-0.01,3.276,0.047,4.911-0.017c1.224-0.048,2.098,0.401,2.847,1.354
	C228.438,112.618,229.25,113.353,230.243,114.394z M228.858,142.388c0.08-0.014,0.16-0.026,0.24-0.04
	c0.507,4.116,1.02,8.231,1.521,12.347c0.384,3.157,0.731,6.317,1.157,9.468c0.062,0.458,0.414,1.195,0.725,1.247
	c1.938,0.324,3.903,0.491,5.981,0.724c0-0.639,0.057-1.077-0.009-1.496c-1.174-7.549-2.391-15.092-3.529-22.646
	c-0.327-2.17-0.862-4.435-0.562-6.551c0.762-5.373,1.948-10.685,2.952-16.023c0.463-2.461,0.897-4.927,1.399-7.693
	c-1.727,0-3.218,0.085-4.694-0.025c-1.348-0.101-1.875,0.434-2.059,1.728c-0.594,4.197-1.267,8.383-1.925,12.571
	c-0.238,1.513-0.521,3.019-0.783,4.528c-0.531-1.864-0.826-3.691-1.124-5.518c-0.641-3.922-1.292-7.842-1.915-11.768
	c-0.157-0.99-0.479-1.639-1.677-1.535c-1.099,0.096-2.212,0.009-3.318,0.022c-1.533,0.019-1.61,0.116-1.32,1.599
	c1.159,5.938,2.343,11.873,3.471,17.817c0.353,1.858,0.978,3.798,0.75,5.609c-0.716,5.692-1.785,11.339-2.702,17.006
	c-0.501,3.095-0.955,6.197-1.466,9.29c-0.143,0.866,0.116,1.182,1.009,1.227c1.232,0.062,2.457,0.27,3.683,0.434
	c0.828,0.111,1.303-0.071,1.421-1.051c0.471-3.901,1.025-7.793,1.538-11.688C228.041,148.777,228.446,145.582,228.858,142.388z"/>
<path fill-rule="evenodd" clip-rule="evenodd" d="M76.882,137.274c0-8.189-0.003-16.379,0.001-24.568
	c0.001-2.143,0.127-2.269,2.248-2.273c3.719-0.007,7.438,0.021,11.155-0.015c1.096-0.011,1.958,0.317,2.717,1.111
	c1.131,1.183,2.272,2.368,3.509,3.437c1.066,0.922,1.461,1.973,1.435,3.371c-0.071,3.787,0.236,3.582-3.505,3.58
	c-2.908-0.002-2.908,0.001-2.909,2.949c0,1.948,0.071,3.899-0.022,5.842c-0.073,1.532,0.36,2.718,1.53,3.75
	c1.325,1.169,2.495,2.512,3.781,3.728c0.797,0.752,1.194,1.598,1.134,2.702c-0.053,0.971-0.054,1.95-0.002,2.92
	c0.068,1.275-0.542,1.757-1.753,1.726c-1.105-0.028-2.213,0.006-3.319,0.022c-0.857,0.013-1.322,0.45-1.324,1.314
	c-0.004,2.435-0.042,4.87,0.046,7.302c0.02,0.554,0.395,1.174,0.774,1.621c1.405,1.65,2.834,3.285,4.347,4.837
	c0.871,0.894,1.24,1.851,1.214,3.084c-0.095,4.49,0.611,4.332-4.221,4.482c-3.005,0.095-6.001,0.43-9.006,0.545
	c-0.727,0.028-1.586-0.213-2.185-0.623c-1.495-1.021-2.846-2.25-4.312-3.319c-0.992-0.724-1.356-1.604-1.351-2.824
	C76.9,153.741,76.882,145.508,76.882,137.274z M78.432,137.247c0,7.786-0.001,15.571,0.001,23.356
	c0.001,2.104,0.009,2.134,2.158,2.015c2.866-0.16,5.732-0.351,8.594-0.567c2.174-0.166,2.173-0.194,2.174-2.439
	c0-0.619-0.029-1.239-0.001-1.857c0.04-0.862-0.353-1.201-1.197-1.137c-1.365,0.104-2.736,0.138-4.097,0.273
	c-1.274,0.127-1.744-0.39-1.731-1.655c0.043-4.025,0.018-8.051,0.012-12.076c-0.005-3.44-0.134-3.081,3.059-3.127
	c4.695-0.069,3.857,0.745,3.962-4.142c0.021-0.952-0.318-1.371-1.306-1.339c-1.458,0.047-2.92-0.024-4.378,0.019
	c-0.993,0.03-1.477-0.325-1.472-1.37c0.019-4.866,0.019-9.732-0.001-14.598c-0.004-1.013,0.41-1.445,1.432-1.416
	c1.414,0.041,2.832-0.028,4.246,0.015c1.044,0.031,1.578-0.31,1.49-1.446c-0.068-0.879-0.062-1.771-0.001-2.652
	c0.073-1.069-0.424-1.386-1.416-1.377c-3.229,0.029-6.458,0.002-9.687,0.01c-1.789,0.004-1.837,0.054-1.838,1.89
	C78.43,121.499,78.433,129.373,78.432,137.247z"/>
<path fill-rule="evenodd" clip-rule="evenodd" d="M109.047,142.361c-0.002-5.929-0.031-11.858,0.02-17.787
	c0.012-1.378-0.442-2.361-1.554-3.15c-1.153-0.819-2.3-1.67-3.319-2.643c-0.489-0.467-0.907-1.23-0.958-1.89
	c-0.133-1.715-0.031-3.448-0.05-5.173c-0.011-1.002,0.472-1.47,1.448-1.47c5.885,0,11.77-0.028,17.653,0.044
	c0.656,0.008,1.451,0.452,1.929,0.94c1.546,1.578,3.027,3.229,4.419,4.943c0.465,0.572,0.713,1.399,0.837,2.146
	c0.142,0.862,0.01,1.766,0.047,2.649c0.05,1.217-0.453,1.817-1.719,1.763c-0.927-0.04-1.857,0.015-2.787,0.02
	c-0.87,0.005-1.306,0.438-1.314,1.306c-0.005,0.531-0.017,1.062-0.017,1.593c-0.001,12.787,0,25.574-0.002,38.361
	c0,0.531-0.014,1.062-0.019,1.593c-0.008,0.904-0.434,1.424-1.363,1.434c-1.99,0.021-3.984,0.087-5.97-0.001
	c-0.604-0.026-1.258-0.401-1.769-0.78c-1.419-1.055-2.746-2.235-4.167-3.287c-0.983-0.728-1.372-1.603-1.363-2.824
	C109.072,154.22,109.048,148.29,109.047,142.361z M110.684,139.171c0,6.552-0.004,13.104,0.002,19.656
	c0.002,2.058,0.015,2.055,2.007,1.979c0.531-0.021,1.062-0.012,1.594-0.016c2.233-0.014,2.241-0.014,2.244-2.302
	c0.012-13.104,0.019-26.209,0.031-39.313c0.002-1.922,0.049-1.933,1.917-1.977c4.821-0.113,3.856,0.927,3.972-4.363
	c0.018-0.818-0.376-1.095-1.128-1.094c-5.135,0.007-10.271,0.007-15.406,0c-0.761-0.001-1.16,0.329-1.157,1.108
	c0.004,1.062,0.005,2.125-0.002,3.187c-0.005,0.763,0.352,1.146,1.126,1.144c0.93-0.003,1.859,0.009,2.789,0.015
	c1.901,0.01,2.004,0.103,2.006,2.055C110.685,125.89,110.681,132.53,110.684,139.171z"/>
<path fill-rule="evenodd" clip-rule="evenodd" d="M136.912,136.066c0-7.792-0.003-15.583,0.001-23.375
	c0.001-2.131,0.128-2.255,2.262-2.259c3.719-0.006,7.438,0.023,11.156-0.015c1.1-0.011,1.952,0.336,2.713,1.123
	c1.23,1.273,2.482,2.53,3.799,3.711c0.795,0.713,1.172,1.503,1.114,2.557c-0.044,0.794-0.042,1.595-0.005,2.39
	c0.059,1.263-0.548,1.764-1.768,1.721c-1.017-0.036-2.036,0.018-3.054,0c-1.034-0.018-1.569,0.425-1.563,1.498
	c0.015,2.833-0.05,5.668,0.055,8.498c0.024,0.667,0.463,1.43,0.933,1.947c1.338,1.473,2.761,2.874,4.211,4.238
	c0.871,0.82,1.306,1.734,1.221,2.935c-0.059,0.837-0.003,1.681-0.014,2.522c-0.021,1.749-0.222,1.944-2.024,1.972
	c-0.841,0.012-1.683-0.008-2.523,0.011c-1.592,0.033-1.852,0.272-1.856,1.877c-0.016,5.445-0.008,10.891-0.009,16.336
	c0,0.487-0.019,0.975-0.007,1.461c0.027,1.084-0.427,1.683-1.576,1.618c-0.265-0.015-0.541-0.044-0.795,0.011
	c-5.098,1.104-8.421-1.931-11.636-5.08c-0.472-0.463-0.604-1.445-0.608-2.189C136.896,151.737,136.912,143.902,136.912,136.066z
	 M138.459,136.013c0,6.905-0.039,13.812,0.015,20.717c0.031,4.034-0.814,3.629,3.642,3.659c2.229,0.016,2.237-0.009,2.24-2.297
	c0.006-5.4-0.003-10.801,0.008-16.201c0.004-1.691,0.164-1.837,1.81-1.851c1.283-0.01,2.567-0.028,3.851-0.003
	c0.919,0.019,1.418-0.298,1.37-1.304c-0.047-0.972-0.04-1.949-0.003-2.921c0.034-0.904-0.336-1.282-1.251-1.259
	c-1.504,0.038-3.011-0.017-4.515,0.012c-0.924,0.018-1.4-0.304-1.396-1.3c0.019-4.913,0.019-9.827-0.001-14.741
	c-0.004-0.974,0.424-1.353,1.367-1.334c1.415,0.027,2.834-0.039,4.248,0.014c1.108,0.041,1.667-0.315,1.563-1.516
	c-0.072-0.835-0.065-1.685-0.002-2.521c0.087-1.133-0.441-1.457-1.491-1.444c-3.098,0.037-6.197,0.008-9.295,0.011
	c-2.152,0.002-2.157,0.006-2.158,2.102C138.458,121.228,138.459,128.62,138.459,136.013z"/>
<path fill-rule="evenodd" clip-rule="evenodd" d="M166.664,136.164c0-7.835-0.004-15.67,0.002-23.505
	c0.002-2.074,0.145-2.211,2.164-2.227c1.018-0.008,2.051,0.108,3.051-0.024c2.435-0.325,4.189,0.672,5.831,2.394
	c4.288,4.497,3.56,2.339,3.59,8.575c0.05,10.092,0.04,20.186-0.013,30.277c-0.009,1.622,0.438,2.891,1.565,4.047
	c1.39,1.423,2.738,2.902,3.947,4.479c0.606,0.792,1.023,1.817,1.236,2.8c0.241,1.108,0.142,2.288,0.218,3.436
	c0.082,1.239-0.444,1.806-1.712,1.729c-1.986-0.12-3.977-0.191-5.965-0.283c-1.943-0.09-3.895-0.108-5.828-0.303
	c-0.788-0.079-1.665-0.378-2.28-0.859c-1.703-1.336-3.375-2.739-4.881-4.289c-0.562-0.578-0.88-1.634-0.887-2.476
	C166.639,152.012,166.665,144.088,166.664,136.164z M168.228,136.211c0,7.611,0.001,15.224-0.001,22.835
	c-0.001,0.919-0.053,1.733,1.315,1.766c3.313,0.078,6.626,0.258,9.935,0.469c1.216,0.077,1.858-0.201,1.705-1.567
	c-0.089-0.787-0.079-1.598-0.001-2.387c0.104-1.061-0.403-1.447-1.362-1.463c-1.372-0.023-2.743-0.064-4.114-0.064
	c-1.104,0-1.641-0.499-1.595-1.618c0.021-0.53-0.004-1.062-0.004-1.593c-0.001-12.922,0.001-25.844-0.007-38.766
	c-0.001-2.081-0.022-2.081-2.045-2.089c-0.486-0.002-0.974-0.001-1.46,0c-2.362,0.004-2.366,0.004-2.367,2.308
	C168.225,121.431,168.226,128.821,168.228,136.211z"/>
<path fill-rule="evenodd" clip-rule="evenodd" d="M209.212,142.96c0,8.188,0.004,16.375-0.002,24.562
	c-0.002,2.136-0.188,2.284-2.303,2.058c-1.1-0.118-2.209-0.338-3.302-0.28c-1.759,0.094-3.031-0.684-4.214-1.842
	c-1.264-1.237-2.691-2.324-3.842-3.655c-0.567-0.657-0.934-1.713-0.943-2.593c-0.075-6.991-0.043-13.984-0.043-20.977
	c0-9.161-0.002-18.322,0.002-27.483c0.001-2.205,0.116-2.308,2.342-2.319c0.088,0,0.181,0.017,0.265-0.003
	c5.256-1.198,8.411,2.049,11.405,5.495c0.478,0.55,0.604,1.549,0.608,2.343C209.228,126.497,209.212,134.729,209.212,142.96z
	 M201.981,137.2c0-7.703,0.004-15.405-0.002-23.108c-0.001-2.356-0.013-2.358-2.302-2.359c-0.797,0-1.594,0.021-2.391,0.009
	c-0.782-0.012-1.13,0.379-1.134,1.134c-0.002,0.531-0.018,1.062-0.018,1.594c-0.001,14.652-0.028,29.305,0.016,43.958
	c0.013,4.291-0.814,3.511,3.843,3.922c1.947,0.172,1.979,0.069,1.981-1.908C201.986,152.694,201.98,144.947,201.981,137.2z"/>
<path fill-rule="evenodd" clip-rule="evenodd" fill="#FFFFFF" d="M44.899,126.111c0,12.011-0.028,24.934,0.039,37.857
	c0.008,1.424-0.401,1.998-1.77,2.063c-1.013,0.048-2.021,0.297-3.029,0.279c-0.337-0.006-0.77-0.505-0.964-0.88
	c-0.164-0.316-0.053-0.779-0.053-1.178c-0.001-16.775-0.002-33.551-0.002-50.327c0-2.187,0.006-2.189,2.207-2.193
	c1.814-0.003,3.632,0.058,5.443-0.02c1.105-0.048,1.605,0.361,1.762,1.441c0.615,4.239,1.271,8.473,1.915,12.708
	c1.281,8.426,2.563,16.853,3.847,25.278c0.164,1.08,0.335,2.158,0.716,3.237c0-0.459,0.002-0.918,0-1.376
	c-0.078-13.19-0.139-26.38-0.262-39.569c-0.013-1.375,0.463-1.817,1.763-1.715c1.012,0.08,2.035,0.039,3.052,0.019
	c0.84-0.017,1.223,0.375,1.207,1.201c-0.006,0.354,0.012,0.708,0.012,1.062c0,15.979,0.001,31.958,0,47.937
	c0,2.078,0.001,2.127-2.085,2.4c-2.189,0.288-4.393,0.46-6.588,0.704c-0.874,0.098-1.218-0.204-1.357-1.128
	c-1.555-10.305-3.16-20.603-4.757-30.902C45.589,130.395,45.165,127.78,44.899,126.111z"/>
<path fill-rule="evenodd" clip-rule="evenodd" fill="#FFFFFF" d="M228.858,142.388c-0.412,3.194-0.817,6.39-1.237,9.584
	c-0.513,3.896-1.067,7.787-1.538,11.688c-0.118,0.979-0.593,1.162-1.421,1.051c-1.226-0.164-2.45-0.372-3.683-0.434
	c-0.893-0.045-1.151-0.36-1.009-1.227c0.511-3.093,0.965-6.195,1.466-9.29c0.917-5.667,1.986-11.314,2.702-17.006
	c0.228-1.811-0.397-3.75-0.75-5.609c-1.128-5.945-2.312-11.879-3.471-17.817c-0.29-1.483-0.213-1.58,1.32-1.599
	c1.106-0.014,2.22,0.073,3.318-0.022c1.198-0.104,1.52,0.545,1.677,1.535c0.623,3.925,1.274,7.845,1.915,11.768
	c0.298,1.827,0.593,3.654,1.124,5.518c0.263-1.509,0.545-3.015,0.783-4.528c0.658-4.188,1.331-8.374,1.925-12.571
	c0.184-1.294,0.711-1.829,2.059-1.728c1.477,0.11,2.968,0.025,4.694,0.025c-0.502,2.766-0.937,5.232-1.399,7.693
	c-1.004,5.338-2.19,10.65-2.952,16.023c-0.3,2.116,0.235,4.38,0.562,6.551c1.139,7.554,2.355,15.097,3.529,22.646
	c0.065,0.419,0.009,0.857,0.009,1.496c-2.078-0.232-4.043-0.399-5.981-0.724c-0.311-0.052-0.663-0.789-0.725-1.247
	c-0.426-3.15-0.773-6.311-1.157-9.468c-0.501-4.116-1.014-8.231-1.521-12.347C229.019,142.361,228.938,142.374,228.858,142.388z"/>
<path fill-rule="evenodd" clip-rule="evenodd" fill="#FFFFFF" d="M78.433,137.247c0-7.874-0.002-15.748,0.002-23.622
	c0.001-1.836,0.05-1.885,1.838-1.89c3.229-0.007,6.458,0.02,9.687-0.01c0.992-0.009,1.489,0.308,1.416,1.377
	c-0.061,0.88-0.066,1.772,0.001,2.652c0.087,1.136-0.446,1.477-1.49,1.446c-1.414-0.042-2.832,0.026-4.246-0.015
	c-1.022-0.029-1.436,0.403-1.432,1.416c0.02,4.866,0.02,9.731,0.001,14.598c-0.004,1.045,0.479,1.399,1.472,1.37
	c1.458-0.043,2.92,0.028,4.378-0.019c0.988-0.032,1.326,0.387,1.306,1.339c-0.104,4.887,0.733,4.073-3.962,4.142
	c-3.193,0.046-3.064-0.312-3.059,3.127c0.006,4.025,0.031,8.051-0.012,12.076c-0.013,1.266,0.457,1.782,1.731,1.655
	c1.361-0.136,2.732-0.17,4.097-0.273c0.844-0.064,1.237,0.274,1.197,1.137c-0.028,0.618,0.001,1.238,0.001,1.857
	c-0.001,2.245,0,2.273-2.174,2.439c-2.862,0.217-5.728,0.407-8.594,0.567c-2.149,0.119-2.157,0.09-2.158-2.015
	C78.431,152.817,78.432,145.032,78.433,137.247z"/>
<path fill-rule="evenodd" clip-rule="evenodd" fill="#FFFFFF" d="M110.683,139.171c-0.001-6.641,0.002-13.281-0.003-19.922
	c-0.002-1.952-0.105-2.044-2.006-2.055c-0.93-0.005-1.859-0.018-2.789-0.015c-0.774,0.003-1.131-0.38-1.126-1.144
	c0.007-1.062,0.006-2.125,0.002-3.187c-0.003-0.779,0.396-1.109,1.157-1.108c5.135,0.006,10.271,0.006,15.406,0
	c0.752-0.001,1.146,0.276,1.128,1.094c-0.116,5.291,0.849,4.25-3.972,4.363c-1.869,0.044-1.916,0.055-1.917,1.977
	c-0.012,13.104-0.019,26.208-0.031,39.313c-0.002,2.288-0.011,2.288-2.244,2.302c-0.531,0.004-1.063-0.005-1.594,0.016
	c-1.992,0.076-2.005,0.079-2.007-1.979C110.679,152.275,110.684,145.723,110.683,139.171z"/>
<path fill-rule="evenodd" clip-rule="evenodd" fill="#FFFFFF" d="M138.459,136.013c0-7.393-0.001-14.785,0.001-22.178
	c0.001-2.095,0.006-2.1,2.158-2.102c3.098-0.003,6.198,0.026,9.295-0.011c1.05-0.013,1.578,0.311,1.491,1.444
	c-0.063,0.836-0.07,1.686,0.002,2.521c0.104,1.201-0.455,1.557-1.563,1.516c-1.414-0.053-2.833,0.014-4.248-0.014
	c-0.943-0.018-1.371,0.361-1.367,1.334c0.02,4.914,0.02,9.828,0.001,14.741c-0.004,0.996,0.473,1.318,1.396,1.3
	c1.504-0.029,3.011,0.025,4.515-0.012c0.915-0.023,1.285,0.355,1.251,1.259c-0.037,0.972-0.044,1.949,0.003,2.921
	c0.048,1.006-0.451,1.323-1.37,1.304c-1.283-0.025-2.567-0.007-3.851,0.003c-1.646,0.013-1.806,0.16-1.81,1.851
	c-0.011,5.4-0.002,10.801-0.008,16.201c-0.003,2.288-0.011,2.312-2.24,2.297c-4.457-0.03-3.611,0.375-3.642-3.659
	C138.42,149.824,138.459,142.918,138.459,136.013z"/>
<path fill-rule="evenodd" clip-rule="evenodd" fill="#FFFFFF" d="M168.227,136.211c-0.001-7.39-0.002-14.78,0-22.171
	c0.001-2.304,0.005-2.304,2.367-2.308c0.486,0,0.974-0.001,1.46,0c2.022,0.008,2.044,0.009,2.045,2.089
	c0.008,12.922,0.006,25.844,0.007,38.766c0,0.531,0.025,1.062,0.004,1.593c-0.046,1.119,0.49,1.618,1.595,1.618
	c1.371,0,2.742,0.041,4.114,0.064c0.959,0.016,1.467,0.402,1.362,1.463c-0.078,0.789-0.088,1.6,0.001,2.387
	c0.153,1.366-0.489,1.645-1.705,1.567c-3.309-0.211-6.621-0.391-9.935-0.469c-1.368-0.032-1.316-0.847-1.315-1.766
	C168.229,151.435,168.228,143.822,168.227,136.211z"/>
<path fill-rule="evenodd" clip-rule="evenodd" fill="#FFFFFF" d="M201.98,137.2c0,7.747,0.006,15.494-0.005,23.24
	c-0.002,1.978-0.034,2.08-1.981,1.908c-4.657-0.411-3.83,0.369-3.843-3.922c-0.044-14.652-0.017-29.305-0.016-43.958
	c0-0.531,0.016-1.062,0.018-1.594c0.004-0.755,0.352-1.146,1.134-1.134c0.797,0.012,1.594-0.009,2.391-0.009
	c2.289,0.001,2.301,0.003,2.302,2.359C201.985,121.795,201.981,129.498,201.98,137.2z"/>
</svg>
