<?xml version="1.0" encoding="utf-8"?>
<!-- Generator: Adobe Illustrator 16.0.0, SVG Export Plug-In . SVG Version: 6.00 Build 0)  -->
<!DOCTYPE svg PUBLIC "-//W3C//DTD SVG 1.1//EN" "http://www.w3.org/Graphics/SVG/1.1/DTD/svg11.dtd">
<svg version="1.1" id="Calque_1" xmlns="http://www.w3.org/2000/svg" xmlns:xlink="http://www.w3.org/1999/xlink" x="0px" y="0px"
	 width="283.46px" height="283.46px" viewBox="0 0 283.46 283.46" enable-background="new 0 0 283.46 283.46" xml:space="preserve">
<rect fill="#FFFFFF" width="283.46" height="283.46"/>
<path fill-rule="evenodd" clip-rule="evenodd" d="M189.381,199.48c0.062,25.831-20.488,46.601-46.148,46.642
	c-26.049,0.04-46.651-20.646-46.845-46.531c-0.178-23.522,18.616-46.396,46.467-46.397
	C171.572,153.193,189.849,176.872,189.381,199.48z M131.651,196.144c1.933,0.162,1.987-0.949,1.617-2.368
	c-0.137-0.527-0.223-1.068-0.386-1.867c1.263,1.061,2.215,1.859,3.884,3.26c-0.474-3.856-0.861-6.647-2.418-9.276
	c-0.086,0.997-0.172,1.994-0.262,3.031c-1.074-0.619-2.098-1.209-3.543-2.042c0.471,3.571,0.857,6.496,1.243,9.422
	c-0.994,0-1.987,0-3.683,0c2.625-2.838-1.274-5.054,0.543-7.674c-1.158,0.597-2.546,1.335-2.518,2.015
	c0.119,2.845-0.174,5.886,2.2,8.88C129.581,198.248,130.616,197.195,131.651,196.144z M128.928,214.233
	c-2.146-1.02-3.405-2.237-2.703-5.066c0.534-2.15-0.872-3.056-3.137-2.44c-0.655,0.179-1.165,0.886-1.597,1.235
	c0.574,2.846,1.066,5.418,1.642,7.972c0.069,0.308,0.591,0.514,1.25,1.05c0.071-1.385,0.122-2.375,0.177-3.467
	c2.597,1.625,2.597,1.625,4.229,0.598c0.729-1.199,1.458-2.398,2.162-3.556c0.701,0.426,1.436,0.872,2.789,1.696
	c-0.893-3.625-1.418-6.462-3.904-8.967C128.061,207.094,127.855,210.601,128.928,214.233z M148.666,186.808
	c-0.888-0.59-1.776-1.179-2.803-1.86c0.251-0.757,0.45-1.313,0.621-1.881c0.389-1.294,0.484-2.781-0.96-3.2
	c-0.978-0.283-2.287,0.274-3.345,0.71c-0.466,0.192-0.672,1.015-0.997,1.552c-2.201-0.64-3.528,0.569-4.256,1.54
	c0.989,3.103,1.808,5.668,2.625,8.234c0.308-0.055,0.616-0.109,0.924-0.164c-0.126-1.457-0.433-2.928-0.332-4.369
	c0.127-1.812,0.589-3.602,0.906-5.4c2.527,1.689,1.226,4.528,2.043,6.728c0.127,0.339,0.618,0.542,1.132,0.965
	c0.375-0.987,0.679-1.783,0.962-2.529c1.052,0.436,2.071,0.857,3.335,1.381c0-0.941,0-1.392,0-1.843
	c1.796,0.021,3.273-0.423,3.823-2.469c-0.865-0.243-1.56-0.438-2.036-0.572c-1.431-1.407,1.947-2.016,0.213-3.59
	c-0.668-0.606-0.449-2.193-0.672-3.569c-1.494,0.295-2.557,0.996-2.241,3.002C147.992,181.912,148.316,184.362,148.666,186.808z
	 M156.231,187.215c-0.587,1.56-1.249,2.798-1.513,4.113c-0.87,4.334,1.454,6.319,5.695,4.957c0.27-0.087,0.479-0.361,0.472-0.354
	c-0.304-1.61-0.581-3.076-0.887-4.694c1.148,1.217,2.049,2.17,2.979,3.155c3.263-3.745,3.368-7.141,0.294-10.656
	c0,2.768,0,5.209,0,7.649c-0.223,0.015-0.445,0.029-0.668,0.043c-0.443-2.017-0.887-4.034-1.33-6.052
	c-0.244,0-0.489-0.001-0.734-0.002c-0.281,1.239-0.562,2.479-0.875,3.853C158.63,188.621,157.632,188.036,156.231,187.215z
	 M151.789,216.254c3.084-2.269,2.758-4.867,1.933-7.447c-0.563-1.767-1.66-3.054-3.976-2.018c-0.451,1.204-0.918,2.451-1.431,3.821
	c-0.442-0.779-0.773-1.362-1.104-1.944c-0.731,3.293-0.851,6.341,1.531,9.011c0-1.589,0-3.178,0-4.741
	C149.766,214.05,150.731,215.102,151.789,216.254z M141.319,207.055c-0.193-3.21-0.415-6.277-2.552-9.415
	c-0.763,1.98-1.244,3.229-1.71,4.44c-0.867-0.81-1.594-1.489-2.552-2.386c-0.654,8.101-0.635,8.252,1.497,10.453
	c-0.167-1.822-0.304-3.314-0.464-5.059c1.11,1.132,1.992,2.031,3.104,3.167c0.318-1.552,0.534-2.602,0.741-3.61
	C140.138,205.585,140.729,206.319,141.319,207.055z M117.599,220.074c3.201-1.697,4.2-3.212,3.621-6.073
	c-0.273-1.352-1.163-2.974-2.275-3.657c-1.39-0.855-2.969-0.112-3.544,1.015C116.176,214.433,116.836,217.049,117.599,220.074z
	 M129.543,218.615c0.763,2.996-0.412,6.275,2.354,9.084c0-1.673,0-2.698,0-3.811c1.09,0.788,2.061,1.487,3.554,2.566
	c-0.54-3.356-0.929-5.957-1.41-8.54c-0.059-0.316-0.608-0.541-1.127-0.972c-0.239,1.207-0.432,2.175-0.598,3.011
	C131.291,219.46,130.417,219.037,129.543,218.615z M157.692,205.855c-1.021-0.646-2.041-1.291-3.753-2.374
	c0.705,3.411,1.206,5.972,1.795,8.512c0.072,0.313,0.607,0.521,1.107,0.921c0.193-1.172,0.349-2.123,0.486-2.961
	c1.017,0.5,1.854,0.911,3.214,1.58c-0.617-3.355-1.111-6.041-1.605-8.726c-0.252,0.014-0.506,0.027-0.759,0.04
	C158.019,203.851,157.858,204.854,157.692,205.855z M164.211,199.36c-0.395,0.01-0.789,0.02-1.184,0.03
	c-1.318,3.21-2.172,6.44-0.195,10.709c0.642-1.677,0.979-2.554,1.334-3.483c0.798,0.438,1.5,0.823,3.31,1.817
	C166.129,204.69,165.17,202.025,164.211,199.36z M137.842,224.325c0.558-1.415,0.967-2.453,1.367-3.467
	c0.921,0.683,1.563,1.16,3.022,2.244c-0.957-3.851-1.348-6.799-4.157-9.505C136.991,217.42,135.492,220.575,137.842,224.325z
	 M143.569,194.713c-0.766,3.771-2.159,6.615-0.89,9.744c0.133,0.325,0.556,0.534,0.982,0.925c0.35-1.197,0.634-2.17,0.939-3.218
	c0.979,0.595,1.755,1.065,2.53,1.536C146.713,200.562,146.538,197.57,143.569,194.713z M168.894,181.243
	c-2.763,1.138-2.748,1.136-2.323,5.545c0.162,1.69,0.29,3.365,2.187,4.728c0.961-0.974,1.805-1.829,2.926-2.965
	c-1.478-0.204-2.239-0.309-3.075-0.424c0.422-1.31,1.018-3.007,0.967-3.026C167.154,184.169,169.405,182.441,168.894,181.243z
	 M125.982,199.684c-3.291-0.947-3.984-2.797-1.811-5.544c0.788-0.995,0.81-1.792-0.042-2.212c-0.5-0.246-1.771,0.259-2.188,0.81
	c-1.318,1.744-1.085,5.726,0.216,7.504C123.237,201.716,124.047,201.598,125.982,199.684z M149.485,201.339
	c0.362,0.006,0.724,0.013,1.087,0.019c-0.235-1.62-0.56-3.232-0.679-4.86c-0.117-1.605-0.025-3.227-0.025-5.266
	c-1.268,0.764-2.506,1.51-3.261,1.965C147.673,196.212,148.579,198.775,149.485,201.339z M167.912,196.827
	c-0.466,0.653-1.028,1.079-1.009,1.479c0.082,1.688,0.185,3.406,0.592,5.036c0.223,0.889,0.935,2.054,1.678,2.287
	c0.596,0.188,1.573-0.846,2.633-1.489C169.422,202.913,169.422,202.913,167.912,196.827z M144.439,220.143c0-3.404,0-6.617,0-10.429
	c-1.589,1.141-2.743,1.969-4.513,3.239C144.789,213.808,141.297,218.563,144.439,220.143z"/>
<path fill-rule="evenodd" clip-rule="evenodd" d="M222.958,92.11c-53.27,0-106.578,0-160.179,0c0-13.907,0-27.656,0-41.415
	c3.348-0.89,150.553-1.269,159.862-0.404C223.584,53.54,223.86,85.721,222.958,92.11z M118.624,78.533
	c2.339,1.098,3.135,0.203,3.206-1.551c0.087-2.154,0.021-4.315,0.021-7.635c2.209,2.502,3.499,4.227,5.06,5.655
	c1.564,1.431,2.142,4.349,5.619,3.84c0.068-5.172,0.324-10.22-0.171-15.107c-2.297-0.604-2.718,0.399-2.792,1.873
	c-0.11,2.192,0.252,4.446-0.312,6.839c-4.017-2.646-5.409-7.362-10.358-9.378C118.36,68.672,118.574,73.698,118.624,78.533z
	 M98.972,63.4c-1.237,0.15-2.045,0.132-2.072,0.268c-0.55,2.794-1.012,5.606-1.582,8.949c-1.568-1.828-2.843-3.584-4.394-5.049
	c-1.546-1.46-2.257-4.197-5.554-3.945c-0.064,5.266-0.357,10.324,0.146,15.24c2.229,0.486,2.762-0.413,2.778-1.935
	c0.023-2.19,0.083-4.378,0.134-6.913c4.079,2.805,5.638,7.339,10.612,9.814C99.286,73.863,99.404,68.844,98.972,63.4z
	 M180.478,72.796c3.604,1.255,3.75,7.366,9.334,6.01c-1.786-2.397-3.357-4.506-4.958-6.653c1.985-1.956,3.64-4.118,1.625-6.648
	c-2.565-3.224-6.062-2.232-9.625-1.631c0.018,5.211-0.191,10.174,0.127,15.396C181.768,78.511,178.66,74.672,180.478,72.796z
	 M164.998,72.778c3.799,0.811,3.866,7.195,9.537,6.043c-1.787-2.405-3.339-4.493-4.909-6.606c1.79-1.977,3.73-4.022,1.656-6.633
	c-2.562-3.225-6.024-2.338-9.625-1.695c0,5.199-0.208,10.152,0.134,15.202C164.367,78.471,164.367,78.471,164.998,72.778z
	 M109.739,62.694c-3.026,2.867-6.484,10.208-7.963,15.993c3.282,1.809,2.908-2.449,4.817-2.91c2.887-0.451,5.602-0.62,7.021,2.819
	c0.168,0.408,1.575,0.306,3.107,0.553C114.29,73.418,112.129,68.326,109.739,62.694z M156.802,71.471
	c0.248-2.583-1.56-2.116-2.824-2.309c-1.766-0.269-1.941-1.196-1.124-2.845c0.831-0.048,1.748-0.062,2.653-0.166
	c0.881-0.101,1.75-0.295,2.686-0.458c-1.181-2.688-2.955-2.994-8.948-1.664c0,4.861,0,9.775,0,15.044
	c2.95,0,5.582,0.093,8.195-0.082c0.489-0.033,0.906-1.14,1.704-2.22c-2.616-0.306-4.562-0.534-6.799-0.796
	c0.089-1.334,0.164-2.476,0.233-3.516C154.241,72.07,155.555,71.763,156.802,71.471z M201.391,65.313
	c-1.476-2.295-3.343-2.562-9.113-1.337c0,4.905,0,9.834,0,14.715c7.188,1.085,8.551,0.791,9.003-2.056
	c-1.956-0.219-3.907-0.438-6.049-0.677c0.071-1.318,0.126-2.348,0.184-3.42c1.672-0.414,3.112-0.769,4.591-1.135
	c-0.214-3.499-3.718-1.201-4.758-3.352C195.89,64.427,199.595,67.326,201.391,65.313z M146.885,65.629
	c-1.947-2.266-5.17-2.834-9.752-2.267c-1.354,0.167-1.995,0.733-1.642,2.376c1.053,0.261,2.206,0.546,3.721,0.921
	c0,3.469-0.007,6.888,0.002,10.307c0.006,1.891,0.89,2.424,3.116,1.666c0-4.022,0-8.021,0-11.997
	C144,66.266,145.174,66.006,146.885,65.629z"/>
<path fill-rule="evenodd" clip-rule="evenodd" d="M62.756,141.335c0-13.994,0-27.737,0-41.774c53.504,0,106.816,0,160.404,0
	c0,13.99,0,27.73,0,41.774C169.628,141.335,116.327,141.335,62.756,141.335z M110.113,112.726c-2.928,0.846-3.382,2.665-4.306,4.013
	c-1.026,1.497-1.952,3.062-2.916,4.589c-3.503-2.042-3.134-7.333-8.077-8.367c0,4.984-0.114,9.492,0.054,13.99
	c0.07,1.883,1.395,1.615,2.928,0.784c0-2.064,0-4.175,0-6.994c1.746,2.247,3.029,3.898,4.722,6.076
	c1.658-2.122,2.912-3.727,4.431-5.67c0.164,2.617,0.298,4.753,0.421,6.7c1.486,0.769,2.684,0.763,2.78-0.733
	C110.447,122.492,110.448,117.857,110.113,112.726z M130.077,113.099c-0.323,5.057-0.393,9.947-0.001,14.781
	c1.905,0.883,2.966,0.527,3.058-1.455c0.097-2.085,0.106-4.174,0.163-6.624c4.223,2.471,5.332,7.602,10.557,8.902
	c0-5.139,0.05-9.649-0.028-14.156c-0.026-1.485-1.065-1.714-2.873-1.087c0,2.624,0,5.476,0,9.433
	c-2.223-2.531-3.543-4.254-5.093-5.74C134.289,115.647,133.503,112.986,130.077,113.099z M196.016,128.077
	c-1.744-2.356-3.278-4.426-4.812-6.499c0.584-0.673,1.063-1.092,1.379-1.612c2.153-3.535,0.697-6.588-3.389-6.962
	c-1.815-0.166-3.659-0.027-5.692-0.027c-0.47,5.431-0.339,10.326-0.177,15.406c5.135-0.371,1.449-4.852,3.651-6.249
	C190.337,123.421,190.436,129.27,196.016,128.077z M147.751,128.258c2.706,0,5.065,0.29,7.323-0.065
	c3.751-0.591,6.08-3.958,5.89-7.899c-0.18-3.719-2.642-6.719-6.231-7.146c-2.245-0.267-4.549-0.049-6.981-0.049
	C147.751,118.331,147.751,122.999,147.751,128.258z M127.693,127.871c-1.938-4.6-3.703-8.936-5.624-13.201
	c-0.315-0.7-1.263-1.351-2.028-1.519c-0.416-0.091-1.297,0.779-1.572,1.394c-1.966,4.385-3.83,8.816-5.721,13.223
	c1.515,0.994,2.451,0.665,3.448-0.443c2.596-2.885,5.469-2.952,7.897-0.091C125.092,128.411,125.983,128.671,127.693,127.871z
	 M91.518,128.645c0.248-0.326,0.495-0.652,0.743-0.979c-1.826-4.291-3.605-8.602-5.52-12.853c-0.326-0.723-1.148-1.426-1.895-1.669
	c-0.364-0.119-1.327,0.728-1.599,1.328c-1.982,4.37-3.856,8.788-5.742,13.137c3.327,2.174,3.244-1.646,5.896-2.498
	C86.381,123.219,88.444,127.699,91.518,128.645z M170.593,113.251c-0.263,5.095-0.249,10-0.05,15.03
	c3.609,0.033,6.675,0.783,9.897-0.549c-1.102-3.729-4.728-0.98-6.404-2.97c0-0.767,0-1.669,0-2.344
	c1.189-1.663,4.657,0.468,4.399-3.21c-1.516-0.336-2.96-0.657-4.98-1.105c0.773-1.002,1.139-1.952,1.763-2.173
	c0.995-0.354,2.229-0.026,3.232-0.366c0.628-0.212,1.021-1.12,2.018-2.312C176.757,113.251,173.872,113.251,170.593,113.251z
	 M197.729,126.733c0.717,0.46,1.417,1.098,2.239,1.407c3.354,1.262,6.598,0.254,7.737-2.3c1.154-2.587,0.049-4.541-3.572-6.517
	c-1.143-0.625-2.884-0.753-2.641-2.643c0.642-3.25,5.224,1.356,5.562-2.902c-0.657-0.311-1.184-0.663-1.762-0.816
	c-3.432-0.903-6.094,0.153-7.068,2.753c-0.847,2.258,0.12,3.825,3.558,5.646c1.343,0.712,2.981,1.082,3.117,3.003
	c-1.229,2.173-2.943,1.503-4.501,0.789C198.816,124.431,198.081,124.883,197.729,126.733z M166.489,113.292
	c-1.738-0.404-2.746-0.141-2.768,1.337c-0.061,4.055-0.104,8.114,0.006,12.167c0.05,1.825,1.303,1.668,2.762,1.296
	C166.489,123.105,166.489,118.329,166.489,113.292z"/>
<path fill-rule="evenodd" clip-rule="evenodd" d="M150.893,125.395c0-3.238,0-6.127,0-9.123c2.446-0.724,4.492-0.619,6.004,1.44
	c1.193,1.625,1.409,3.41,0.462,5.272C156.067,125.521,153.898,125.796,150.893,125.395z"/>
</svg>
