<?xml version="1.0" encoding="utf-8"?>
<!-- Generator: Adobe Illustrator 16.0.0, SVG Export Plug-In . SVG Version: 6.00 Build 0)  -->
<!DOCTYPE svg PUBLIC "-//W3C//DTD SVG 1.1//EN" "http://www.w3.org/Graphics/SVG/1.1/DTD/svg11.dtd">
<svg version="1.1" id="Calque_1" xmlns="http://www.w3.org/2000/svg" xmlns:xlink="http://www.w3.org/1999/xlink" x="0px" y="0px"
	 width="283.46px" height="283.46px" viewBox="0 0 283.46 283.46" enable-background="new 0 0 283.46 283.46" xml:space="preserve">
<path d="M0.315,283.775c0-94.667,0-189.333,0-284c94.667,0,189.333,0,284,0c0,94.667,0,189.333,0,284
	C189.648,283.775,94.982,283.775,0.315,283.775z M170.048,90.22c-0.058-0.617-0.118-0.972-0.119-1.327
	c-0.013-3.733-0.05-7.467-0.005-11.2c0.017-1.332-0.449-1.922-1.828-1.902c-3.206,0.048-6.415,0.045-9.622-0.001
	c-1.457-0.021-2.093,0.538-2.09,2.042c0.026,13.725,0.01,27.45,0.022,41.175c0.002,1.804,0.29,2.051,2.165,2.06
	c3.05,0.015,6.1,0.013,9.149,0.002c2.03-0.007,2.178-0.154,2.181-2.136c0.008-4.891-0.062-9.783,0.044-14.671
	c0.033-1.542,0.345-3.137,0.85-4.597c0.657-1.902,2.534-2.609,5.011-2.206c1.62,0.264,2.556,1.377,2.731,3.348
	c0.102,1.151,0.156,2.309,0.161,3.464c0.02,4.838-0.003,9.676,0.022,14.514c0.011,1.97,0.336,2.272,2.323,2.282
	c3.208,0.016,6.416-0.014,9.623,0.006c1.181,0.007,1.912-0.346,1.903-1.694c-0.047-6.888,0.045-13.779-0.149-20.663
	c-0.071-2.541-0.683-5.062-2.177-7.304c-3.877-5.818-12.764-5.735-17.216-3.151C172.086,88.809,171.203,89.457,170.048,90.22z
	 M220.86,107.439c0-0.003,0-0.006,0-0.009c3.468,0,6.937,0.021,10.404-0.008c1.884-0.015,2.214-0.376,2.044-2.28
	c-0.131-1.462-0.341-2.922-0.6-4.369c-0.728-4.051-2.525-7.522-5.658-10.259c-2.833-2.474-6.208-3.659-9.864-4.129
	c-5.098-0.655-10.017,0.048-14.392,2.8c-6.282,3.952-8.395,10.099-7.751,17.122c0.811,8.871,5.974,14.062,14.566,15.546
	c4.293,0.742,8.714,0.52,12.941-0.878c4.007-1.326,7.115-3.751,8.914-7.675c0.878-1.917,0.455-2.672-1.595-2.69
	c-2.89-0.025-5.781-0.054-8.67,0.023c-0.731,0.019-1.75,0.207-2.127,0.704c-1.495,1.973-3.491,2.118-5.656,1.959
	c-2.129-0.155-4.01-1.945-4.432-4.053c-0.263-1.316,0.088-1.84,1.469-1.82C213.923,107.473,217.392,107.439,220.86,107.439z
	 M95.518,122.417c2.413-0.433,4.877-0.683,7.228-1.337c4.462-1.243,7.814-3.989,9.809-8.217c2.273-4.819,2.448-9.827,0.956-14.883
	c-1.785-6.045-6.036-9.547-11.993-11.05c-3.756-0.948-7.547-1.017-11.388-0.146c-3.873,0.877-7.192,2.56-9.715,5.649
	c-3.678,4.504-4.472,9.779-3.612,15.302c0.804,5.164,3.344,9.357,8.061,11.958C88.155,121.507,91.712,122.266,95.518,122.417z
	 M146.464,100.478c1.734,0,3.47,0.04,5.202-0.012c1.468-0.044,1.908-0.6,1.622-2.005c-1.323-6.517-5.92-10.08-11.763-11.522
	c-4.088-1.009-8.215-1.073-12.328-0.04c-3.99,1.003-7.438,2.899-9.84,6.323c-3.239,4.617-3.72,9.761-2.856,15.206
	c0.877,5.532,5.843,11.167,11.249,12.647c4.979,1.364,9.939,1.53,14.904,0.061c5.719-1.692,9.343-5.417,10.671-11.273
	c0.381-1.681-0.051-2.177-1.838-2.191c-3.101-0.023-6.202,0.04-9.301-0.027c-1.55-0.034-2.433,0.508-2.842,2.07
	c-0.43,1.643-1.997,2.622-3.839,2.671c-2.372,0.063-4.067-0.758-4.665-2.431c-1.336-3.734-1.429-7.506-0.055-11.259
	c0.619-1.69,2.555-2.861,4.523-2.82c2.127,0.044,3.53,1.028,4.082,2.992c0.304,1.08,0.942,1.598,2.028,1.604
	C143.101,100.479,144.782,100.473,146.464,100.478z M57.875,179.43c0.173,0.109,0.532,0.271,0.811,0.521
	c2.541,2.283,5.519,3.309,8.924,3.347c6.041,0.068,10.584-2.384,13.24-7.87c2.79-5.765,2.769-11.748,0.991-17.8
	c-3.156-10.739-16.277-14.12-23.567-6.345c-0.152,0.163-0.422,0.215-0.819,0.406c-0.031-0.69-0.072-1.197-0.073-1.705
	c-0.009-4.048,0.008-8.096-0.023-12.144c-0.015-1.882-0.386-2.205-2.234-2.192c-0.368,0.003-0.736,0.013-1.104,0.019
	c-2.578,0.043-2.808,0.254-2.81,2.806c-0.009,10.936-0.006,21.87-0.006,32.806c0,2.943-0.03,5.889,0.038,8.831
	c0.014,0.62,0.325,1.723,0.622,1.766c1.528,0.226,3.134,0.385,4.631,0.115C57.022,181.894,57.32,180.519,57.875,179.43z
	 M130.061,179.278c0.371,0.298,0.629,0.466,0.84,0.681c4.292,4.349,12.904,4.037,16.901,1.359c3.911-2.619,5.938-6.303,6.892-10.823
	c1.21-5.739,0.554-11.18-2.189-16.327c-3.78-7.091-13.461-9.292-20.022-4.616c-0.857,0.61-1.656,1.303-2.693,2.125
	c-0.039-0.84-0.082-1.354-0.083-1.87c-0.008-3.468-0.004-6.937-0.009-10.405c-0.005-3.709-0.007-3.709-3.741-3.748
	c-2.004-0.021-2.332,0.255-2.333,2.223c-0.01,14.084-0.009,28.167,0.003,42.251c0.001,1.807,0.309,2.073,2.131,2.124
	C129.061,182.345,129.061,182.345,130.061,179.278z M64.087,91.176c0-0.292,0-0.735,0-1.178c-0.002-2.228-0.321-2.569-2.543-2.584
	c-2.628-0.018-5.256-0.021-7.885,0.003c-2.043,0.019-2.437,0.382-2.44,2.382c-0.017,9.672-0.017,19.344-0.001,29.016
	c0.003,1.955,0.329,2.241,2.344,2.252c2.996,0.016,5.993,0.012,8.989,0.003c2.446-0.007,2.558-0.129,2.58-2.6
	c0.04-4.362,0.006-8.726,0.156-13.084c0.073-2.118,1.008-3.965,3.225-4.554c1.638-0.434,3.377-0.529,5.08-0.659
	c1.006-0.077,1.794-0.23,1.794-1.451c0.001-3.522,0.05-7.045-0.06-10.563c-0.016-0.522-0.803-1.472-1.199-1.454
	c-1.707,0.077-3.569,0.086-5.057,0.792C67.265,88.354,65.779,89.886,64.087,91.176z M157.995,165.247
	c0.442,2.515,0.722,5.071,1.364,7.533c0.952,3.654,3.219,6.441,6.438,8.409c3.746,2.289,7.872,2.37,12.048,1.867
	c5.22-0.629,8.88-3.497,11.163-8.153c2.192-4.471,2.325-9.273,1.616-14.028s-2.749-8.923-7.141-11.502
	c-3.381-1.984-7.075-2.66-10.912-2.224c-5.102,0.581-9.357,2.723-11.934,7.412C158.825,157.86,158.123,161.434,157.995,165.247z
	 M119.198,166.261c-0.022-3.462-0.142-6.909-1.575-10.173c-2.357-5.367-6.624-8.155-12.257-8.874
	c-4.917-0.628-9.535,0.302-13.395,3.668c-2.896,2.526-4.33,5.867-5.012,9.568c-1.074,5.827-0.566,11.479,2.714,16.516
	c2.882,4.425,7.294,6.197,12.519,6.331c5.977,0.153,10.982-1.604,14.321-6.817C118.491,173.392,119.183,169.904,119.198,166.261z
	 M219.709,183.298c1.029-0.081,2.138-0.11,3.229-0.264c5.29-0.742,9.782-3.856,10.356-10.104c0.311-3.38-0.688-6.463-3.78-8.281
	c-1.688-0.992-3.639-1.594-5.533-2.163c-3.058-0.92-6.208-1.546-9.241-2.534c-2.008-0.653-2.384-1.58-2.189-3.641
	c0.151-1.606,1.268-2.932,2.935-3.283c1.126-0.238,2.296-0.444,3.437-0.404c3.21,0.114,6.233,0.594,7.344,4.383
	c0.15,0.514,1.043,1.016,1.668,1.138c0.962,0.189,1.99,0.081,2.986,0.031c1.121-0.058,1.597-0.7,1.404-1.804
	c-0.492-2.814-1.728-5.217-4.225-6.721c-5.577-3.357-11.457-3.57-17.129-0.601c-5.605,2.935-5.931,9.615-3.243,13.465
	c1.762,2.523,4.588,3.367,7.39,4.147c3.23,0.9,6.475,1.757,9.696,2.688c1.211,0.35,1.888,1.209,2.059,2.512
	c0.377,2.862-0.64,4.353-3.803,5.421c-5.279,1.784-9.571-0.145-11.651-5.116c-0.246-0.586-1.11-1.267-1.704-1.282
	c-1.353-0.036-2.722,0.283-4.065,0.55c-0.146,0.029-0.263,0.666-0.238,1.011c0.182,2.517,0.888,4.83,2.603,6.777
	C211.132,182.767,215.27,183.346,219.709,183.298z M201.653,165.274c0.002,0,0.004,0,0.005,0c0-0.578,0.001-1.155,0-1.732
	c-0.002-4.357,0.01-8.714-0.013-13.07c-0.011-2.032-0.351-2.338-2.413-2.382c-0.262-0.006-0.524-0.004-0.787-0.003
	c-2.852,0.001-3.034,0.161-3.039,3.033c-0.014,9.08-0.011,18.161-0.009,27.242c0.001,3.981,0.006,3.981,4.019,3.892
	c1.967-0.045,2.228-0.295,2.233-2.335C201.662,175.037,201.653,170.155,201.653,165.274z M176.462,201.629c0.002,0,0.004,0,0.007,0
	c0,1.418,0.002,2.836-0.001,4.254c-0.003,0.951,0.251,1.664,1.398,1.658c1.107-0.006,1.265-0.721,1.249-1.593
	c-0.005-0.315,0.005-0.631,0.015-0.945c0.028-0.904-0.045-1.803,1.313-1.861c1.271-0.056,2.02,0.408,2.248,1.654
	c0.104,0.567,0.128,1.149,0.238,1.715c0.223,1.141,1.09,1.148,1.961,1.011c0.935-0.147,0.831-0.772,0.769-1.544
	c-0.166-2.062-0.95-4.034-0.057-6.237c0.734-1.81-0.802-3.529-2.812-3.651c-1.519-0.092-3.045-0.032-4.567-0.074
	c-1.283-0.035-1.801,0.595-1.769,1.833C176.487,199.107,176.462,200.368,176.462,201.629z M228.097,208.109
	c0.063-0.111,0.126-0.222,0.188-0.332c0.574-0.06,1.153-0.088,1.722-0.184c1.683-0.281,2.728-1.331,2.971-3.003
	c0.229-1.575-0.3-2.838-1.786-3.495c-1.096-0.484-2.295-0.729-3.401-1.194c-0.449-0.189-0.772-0.678-1.152-1.03
	c0.544-0.239,1.112-0.713,1.625-0.658c0.612,0.064,1.145,0.715,1.771,0.866c0.736,0.179,1.536,0.094,2.309,0.124
	c-0.14-0.656-0.091-1.451-0.453-1.942c-1.312-1.776-3.229-1.72-5.146-1.364c-1.507,0.278-2.645,1.007-2.804,2.722
	c-0.193,2.093,0.317,2.999,2.271,3.768c0.775,0.306,1.662,0.356,2.396,0.728c0.6,0.304,1.047,0.91,1.562,1.382
	c-0.624,0.25-1.254,0.709-1.869,0.69c-0.595-0.019-1.299-0.407-1.733-0.851c-0.713-0.728-1.589-1.311-2.236-0.459
	c-0.37,0.487-0.184,1.989,0.299,2.41C225.585,207.122,226.919,207.526,228.097,208.109z M154.226,195.481
	c-0.884,0.785-1.771,1.205-2.036,1.872c-1.098,2.765-2.002,5.604-2.989,8.413c-0.221,0.629-0.736,1.352,0.293,1.669
	c0.859,0.264,1.738,0.371,2.253-0.757c0.237-0.521,0.7-1.108,1.202-1.308c1.537-0.609,2.911-0.029,3.745,1.452
	c0.586,1.043,1.512,0.88,2.313,0.546c0.231-0.097,0.301-1.062,0.146-1.531c-0.937-2.825-1.898-5.646-3.001-8.409
	C155.881,196.751,155.056,196.295,154.226,195.481z M123.631,201.842c0,1.415-0.098,2.842,0.051,4.241
	c0.055,0.519,0.603,1.266,1.073,1.402c1.052,0.304,1.449-0.412,1.51-1.43c0.131-2.209,0.16-2.201,2.409-2.395
	c0.415-0.035,0.838-0.097,1.231-0.225c1.918-0.628,2.842-2.179,2.588-4.292c-0.218-1.811-1.554-3.003-3.542-3.085
	c-1.256-0.053-2.516-0.027-3.774-0.027c-1.035,0-1.54,0.542-1.544,1.562C123.626,199.01,123.63,200.426,123.631,201.842z
	 M201.654,139.162c0-3.448,0-3.448-3.481-3.503c-0.367-0.006-0.735-0.012-1.103-0.02c-1.038-0.022-1.576,0.532-1.609,1.523
	c-0.045,1.31-0.044,2.623-0.006,3.933c0.029,0.997,0.597,1.54,1.603,1.566C201.702,142.783,201.707,142.773,201.654,139.162z
	 M206.277,201.866c0-1.414,0.006-2.827-0.003-4.24c-0.006-0.876-0.26-1.573-1.313-1.572c-0.983,0-1.629,0.438-1.636,1.483
	c-0.021,2.879-0.025,5.758-0.001,8.637c0.01,1.092,0.745,1.388,1.703,1.381c0.983-0.007,1.239-0.625,1.245-1.448
	C206.282,204.692,206.275,203.279,206.277,201.866z"/>
<path fill-rule="evenodd" clip-rule="evenodd" fill="#FFFFFF" d="M170.048,90.22c1.155-0.763,2.038-1.412,2.98-1.958
	c4.452-2.584,13.339-2.667,17.216,3.151c1.494,2.242,2.105,4.764,2.177,7.304c0.194,6.884,0.103,13.775,0.149,20.663
	c0.009,1.348-0.723,1.702-1.903,1.694c-3.207-0.02-6.415,0.009-9.623-0.006c-1.987-0.01-2.312-0.312-2.323-2.282
	c-0.025-4.838-0.003-9.676-0.022-14.514c-0.005-1.155-0.06-2.313-0.161-3.464c-0.176-1.971-1.111-3.084-2.731-3.348
	c-2.477-0.403-4.354,0.303-5.011,2.206c-0.505,1.46-0.816,3.055-0.85,4.597c-0.106,4.888-0.036,9.78-0.044,14.671
	c-0.003,1.982-0.15,2.128-2.181,2.136c-3.05,0.011-6.1,0.013-9.149-0.002c-1.875-0.009-2.163-0.256-2.165-2.06
	c-0.013-13.725,0.004-27.45-0.022-41.175c-0.003-1.504,0.633-2.063,2.09-2.042c3.207,0.047,6.416,0.049,9.622,0.001
	c1.379-0.021,1.845,0.57,1.828,1.902c-0.045,3.733-0.008,7.467,0.005,11.2C169.93,89.249,169.99,89.603,170.048,90.22z"/>
<path fill-rule="evenodd" clip-rule="evenodd" fill="#FFFFFF" d="M220.86,107.439c-3.469,0-6.938,0.034-10.405-0.017
	c-1.381-0.02-1.731,0.504-1.469,1.82c0.422,2.107,2.303,3.897,4.432,4.053c2.165,0.158,4.161,0.013,5.656-1.959
	c0.377-0.497,1.396-0.685,2.127-0.704c2.889-0.077,5.78-0.048,8.67-0.023c2.05,0.018,2.473,0.773,1.595,2.69
	c-1.799,3.924-4.907,6.35-8.914,7.675c-4.228,1.398-8.648,1.62-12.941,0.878c-8.593-1.484-13.756-6.675-14.566-15.546
	c-0.644-7.022,1.469-13.17,7.751-17.122c4.375-2.752,9.294-3.455,14.392-2.8c3.656,0.47,7.031,1.655,9.864,4.129
	c3.133,2.737,4.931,6.208,5.658,10.259c0.259,1.446,0.469,2.906,0.6,4.369c0.17,1.903-0.16,2.265-2.044,2.28
	c-3.468,0.029-6.937,0.008-10.404,0.008C220.86,107.433,220.86,107.436,220.86,107.439z M214.262,100.313
	c1.312,0,2.623-0.012,3.935,0.003c1.047,0.012,1.387-0.507,1.261-1.497c-0.473-3.692-4.501-5.044-7.83-3.595
	c-1.452,0.632-2.398,1.833-2.629,3.487c-0.144,1.03,0.186,1.624,1.328,1.602C211.638,100.289,212.949,100.308,214.262,100.313z"/>
<path fill-rule="evenodd" clip-rule="evenodd" fill="#FFFFFF" d="M95.518,122.417c-3.805-0.15-7.363-0.91-10.655-2.725
	c-4.717-2.6-7.257-6.794-8.061-11.958c-0.86-5.523-0.066-10.798,3.612-15.302c2.522-3.089,5.842-4.771,9.715-5.649
	c3.841-0.87,7.631-0.801,11.388,0.146c5.958,1.502,10.208,5.005,11.993,11.05c1.493,5.056,1.318,10.064-0.956,14.883
	c-1.995,4.229-5.347,6.975-9.809,8.217C100.395,121.734,97.931,121.983,95.518,122.417z M90.213,104.167
	c0.075,0.019,0.151,0.037,0.226,0.055c0.1,1.415,0.117,2.842,0.32,4.243c0.342,2.373,1.996,3.846,4.224,3.92
	c2.931,0.097,4.538-0.926,5.122-3.353c0.775-3.223,0.759-6.463,0.011-9.69c-0.434-1.87-2.009-3.168-4.068-3.435
	c-1.847-0.24-4.096,0.746-4.668,2.46C90.76,100.224,90.583,102.228,90.213,104.167z"/>
<path fill-rule="evenodd" clip-rule="evenodd" fill="#FFFFFF" d="M146.464,100.476c-1.682-0.002-3.363,0.004-5.045-0.004
	c-1.086-0.006-1.725-0.524-2.028-1.604c-0.552-1.964-1.955-2.948-4.082-2.992c-1.968-0.041-3.904,1.13-4.523,2.82
	c-1.374,3.753-1.281,7.524,0.055,11.259c0.598,1.673,2.293,2.494,4.665,2.431c1.842-0.049,3.409-1.028,3.839-2.671
	c0.409-1.562,1.292-2.104,2.842-2.07c3.099,0.067,6.2,0.003,9.301,0.027c1.787,0.014,2.219,0.51,1.838,2.191
	c-1.328,5.855-4.952,9.581-10.671,11.273c-4.965,1.469-9.925,1.303-14.904-0.061c-5.406-1.479-10.372-7.115-11.249-12.647
	c-0.864-5.445-0.383-10.589,2.856-15.206c2.402-3.424,5.85-5.32,9.84-6.323c4.113-1.034,8.239-0.97,12.328,0.04
	c5.843,1.442,10.44,5.005,11.763,11.522c0.286,1.405-0.154,1.961-1.622,2.005C149.934,100.518,148.198,100.478,146.464,100.476z"/>
<path fill-rule="evenodd" clip-rule="evenodd" fill="#FFFFFF" d="M57.875,179.43c-0.554,1.089-0.852,2.464-1.38,2.56
	c-1.497,0.27-3.103,0.11-4.631-0.115c-0.297-0.043-0.608-1.146-0.622-1.766c-0.068-2.942-0.038-5.888-0.038-8.831
	c0-10.936-0.003-21.87,0.006-32.806c0.002-2.552,0.231-2.763,2.81-2.806c0.368-0.006,0.736-0.016,1.104-0.019
	c1.848-0.013,2.22,0.311,2.234,2.192c0.032,4.048,0.014,8.096,0.023,12.144c0.001,0.508,0.042,1.015,0.073,1.705
	c0.397-0.191,0.667-0.243,0.819-0.406c7.29-7.775,20.411-4.395,23.567,6.345c1.778,6.052,1.799,12.035-0.991,17.8
	c-2.656,5.486-7.199,7.938-13.24,7.87c-3.405-0.038-6.383-1.063-8.924-3.347C58.406,179.7,58.047,179.539,57.875,179.43z
	 M76.875,165.43c-0.103-0.024-0.206-0.049-0.308-0.073c-0.058-0.996-0.027-2.005-0.187-2.984c-0.93-5.726-3.639-10.125-10.893-9.5
	c-3.762,0.324-6.732,2.896-7.617,6.607c-0.896,3.765-0.854,7.447,0.024,11.208c0.921,3.944,4.038,6.853,7.988,7.119
	c4.497,0.304,8.322-1.919,9.578-5.829C76.141,169.861,76.417,167.616,76.875,165.43z"/>
<path fill-rule="evenodd" clip-rule="evenodd" fill="#FFFFFF" d="M130.061,179.278c-1,3.066-1,3.066-4.303,2.975
	c-1.822-0.051-2.129-0.317-2.131-2.124c-0.012-14.084-0.014-28.167-0.003-42.251c0.001-1.968,0.329-2.244,2.333-2.223
	c3.734,0.039,3.736,0.039,3.741,3.748c0.005,3.468,0.001,6.937,0.009,10.405c0.001,0.516,0.044,1.03,0.083,1.87
	c1.038-0.822,1.836-1.515,2.693-2.125c6.561-4.676,16.242-2.475,20.022,4.616c2.743,5.147,3.399,10.588,2.189,16.327
	c-0.953,4.521-2.98,8.204-6.892,10.823c-3.997,2.678-12.609,2.989-16.901-1.359C130.689,179.744,130.431,179.576,130.061,179.278z
	 M148.688,165.514c-0.111-1.413-0.084-2.854-0.36-4.234c-0.683-3.413-1.996-6.581-5.59-7.773c-1.776-0.589-3.82-0.626-5.722-0.521
	c-2.838,0.157-5.061,1.748-6.125,4.317c-1.975,4.771-1.965,9.712-0.334,14.61c1.183,3.556,3.773,5.505,7.441,5.861
	c3.887,0.378,7.009-1.066,9.043-4.488C148.461,170.897,148.683,168.229,148.688,165.514z"/>
<path fill-rule="evenodd" clip-rule="evenodd" fill="#FFFFFF" d="M64.087,91.176c1.691-1.29,3.178-2.822,4.984-3.678
	c1.488-0.705,3.35-0.714,5.057-0.792c0.396-0.018,1.183,0.931,1.199,1.454c0.109,3.519,0.061,7.042,0.06,10.563
	c0,1.221-0.789,1.374-1.794,1.451c-1.703,0.13-3.442,0.225-5.08,0.659c-2.217,0.588-3.152,2.436-3.225,4.554
	c-0.15,4.358-0.116,8.722-0.156,13.084c-0.022,2.471-0.134,2.593-2.58,2.6c-2.996,0.008-5.993,0.012-8.989-0.003
	c-2.015-0.011-2.34-0.297-2.344-2.252c-0.016-9.672-0.016-19.344,0.001-29.016c0.003-2,0.397-2.364,2.44-2.382
	c2.628-0.024,5.257-0.021,7.885-0.003c2.222,0.015,2.541,0.356,2.543,2.584C64.088,90.441,64.087,90.884,64.087,91.176z"/>
<path fill-rule="evenodd" clip-rule="evenodd" fill="#FFFFFF" d="M157.995,165.247c0.128-3.813,0.83-7.387,2.643-10.686
	c2.576-4.689,6.832-6.831,11.934-7.412c3.837-0.437,7.531,0.239,10.912,2.224c4.392,2.579,6.432,6.747,7.141,11.502
	s0.576,9.558-1.616,14.028c-2.283,4.656-5.943,7.524-11.163,8.153c-4.176,0.503-8.302,0.422-12.048-1.867
	c-3.219-1.968-5.485-4.755-6.438-8.409C158.717,170.318,158.438,167.762,157.995,165.247z M164.087,165.059
	c0.146,0.034,0.292,0.068,0.438,0.103c0,0.631-0.074,1.271,0.012,1.891c0.729,5.31,2.149,9.062,7.282,10.438
	c3.932,1.055,9.462-0.139,11.355-4.938c1.319-3.343,1.902-6.804,1.123-10.332c-0.444-2.014-1-4.124-2.054-5.858
	c-2.021-3.325-5.435-3.754-9.013-3.521c-3.359,0.218-5.887,1.79-7.128,4.859C165.156,160.041,164.739,162.598,164.087,165.059z"/>
<path fill-rule="evenodd" clip-rule="evenodd" fill="#FFFFFF" d="M119.198,166.261c-0.016,3.644-0.708,7.131-2.685,10.219
	c-3.339,5.214-8.344,6.971-14.321,6.817c-5.225-0.134-9.637-1.906-12.519-6.331c-3.28-5.037-3.788-10.688-2.714-16.516
	c0.682-3.701,2.116-7.042,5.012-9.568c3.86-3.366,8.479-4.296,13.395-3.668c5.633,0.719,9.9,3.507,12.257,8.874
	C119.056,159.352,119.176,162.799,119.198,166.261z M113.328,165.453c-0.595-2.622-0.844-5.069-1.714-7.271
	c-1.648-4.175-4.831-5.688-10.148-5.322c-3.407,0.234-5.847,1.897-7.172,5.036c-1.556,3.685-1.733,7.493-0.999,11.424
	c0.745,3.99,2.62,6.886,6.677,8.111c3.802,1.149,9.679-0.027,11.346-4.569C112.208,170.44,112.688,167.868,113.328,165.453z"/>
<path fill-rule="evenodd" clip-rule="evenodd" fill="#FFFFFF" d="M219.709,183.298c-4.439,0.048-8.577-0.531-11.696-4.075
	c-1.715-1.947-2.421-4.261-2.603-6.777c-0.024-0.345,0.093-0.981,0.238-1.011c1.344-0.267,2.713-0.586,4.065-0.55
	c0.594,0.016,1.458,0.696,1.704,1.282c2.08,4.972,6.372,6.9,11.651,5.116c3.163-1.068,4.18-2.559,3.803-5.421
	c-0.171-1.303-0.848-2.162-2.059-2.512c-3.222-0.931-6.466-1.787-9.696-2.688c-2.802-0.78-5.628-1.624-7.39-4.147
	c-2.688-3.85-2.362-10.53,3.243-13.465c5.672-2.97,11.552-2.757,17.129,0.601c2.497,1.504,3.732,3.906,4.225,6.721
	c0.192,1.104-0.283,1.746-1.404,1.804c-0.996,0.05-2.024,0.158-2.986-0.031c-0.625-0.122-1.518-0.624-1.668-1.138
	c-1.11-3.789-4.134-4.269-7.344-4.383c-1.141-0.04-2.311,0.166-3.437,0.404c-1.667,0.352-2.783,1.677-2.935,3.283
	c-0.194,2.061,0.182,2.987,2.189,3.641c3.033,0.988,6.184,1.614,9.241,2.534c1.895,0.569,3.846,1.171,5.533,2.163
	c3.093,1.818,4.091,4.901,3.78,8.281c-0.574,6.247-5.066,9.361-10.356,10.104C221.847,183.188,220.738,183.217,219.709,183.298z"/>
<path fill-rule="evenodd" clip-rule="evenodd" fill="#FFFFFF" d="M201.653,165.274c0,4.881,0.009,9.763-0.004,14.645
	c-0.006,2.04-0.267,2.29-2.233,2.335c-4.013,0.09-4.018,0.09-4.019-3.892c-0.002-9.081-0.005-18.162,0.009-27.242
	c0.005-2.872,0.188-3.032,3.039-3.033c0.263-0.001,0.525-0.003,0.787,0.003c2.062,0.044,2.402,0.35,2.413,2.382
	c0.022,4.356,0.011,8.713,0.013,13.07c0.001,0.577,0,1.154,0,1.732C201.657,165.274,201.655,165.274,201.653,165.274z"/>
<path fill-rule="evenodd" clip-rule="evenodd" fill="#FFFFFF" d="M176.462,201.629c0-1.261,0.025-2.521-0.007-3.781
	c-0.032-1.238,0.485-1.868,1.769-1.833c1.522,0.042,3.049-0.018,4.567,0.074c2.01,0.122,3.546,1.842,2.812,3.651
	c-0.894,2.203-0.109,4.176,0.057,6.237c0.062,0.771,0.166,1.396-0.769,1.544c-0.871,0.138-1.738,0.13-1.961-1.011
	c-0.11-0.565-0.135-1.147-0.238-1.715c-0.229-1.246-0.977-1.71-2.248-1.654c-1.358,0.059-1.285,0.957-1.313,1.861
	c-0.01,0.314-0.02,0.63-0.015,0.945c0.016,0.872-0.142,1.587-1.249,1.593c-1.147,0.006-1.401-0.707-1.398-1.658
	c0.003-1.418,0.001-2.836,0.001-4.254C176.466,201.629,176.464,201.629,176.462,201.629z M180.814,201.329
	c0.916-0.744,1.932-1.162,2.021-1.728c0.178-1.12-0.909-1.214-1.767-1.171c-0.811,0.04-2.062-0.328-1.91,1.094
	C179.217,200.072,180.054,200.537,180.814,201.329z"/>
<path fill-rule="evenodd" clip-rule="evenodd" fill="#FFFFFF" d="M228.097,208.109c-1.178-0.583-2.512-0.987-3.469-1.823
	c-0.482-0.421-0.669-1.923-0.299-2.41c0.647-0.852,1.523-0.269,2.236,0.459c0.435,0.443,1.139,0.832,1.733,0.851
	c0.615,0.019,1.245-0.44,1.869-0.69c-0.515-0.472-0.962-1.078-1.562-1.382c-0.733-0.371-1.62-0.422-2.396-0.728
	c-1.954-0.769-2.465-1.675-2.271-3.768c0.159-1.715,1.297-2.443,2.804-2.722c1.917-0.355,3.834-0.412,5.146,1.364
	c0.362,0.491,0.313,1.286,0.453,1.942c-0.772-0.03-1.572,0.055-2.309-0.124c-0.626-0.151-1.158-0.802-1.771-0.866
	c-0.513-0.055-1.081,0.419-1.625,0.658c0.38,0.353,0.703,0.841,1.152,1.03c1.106,0.465,2.306,0.71,3.401,1.194
	c1.486,0.657,2.016,1.92,1.786,3.495c-0.243,1.672-1.288,2.722-2.971,3.003c-0.568,0.096-1.147,0.124-1.722,0.184
	C228.223,207.888,228.16,207.998,228.097,208.109z"/>
<path fill-rule="evenodd" clip-rule="evenodd" fill="#FFFFFF" d="M154.226,195.481c0.83,0.813,1.655,1.27,1.926,1.947
	c1.103,2.763,2.064,5.584,3.001,8.409c0.155,0.469,0.086,1.435-0.146,1.531c-0.802,0.334-1.728,0.497-2.313-0.546
	c-0.834-1.481-2.208-2.062-3.745-1.452c-0.502,0.199-0.965,0.787-1.202,1.308c-0.515,1.128-1.394,1.021-2.253,0.757
	c-1.029-0.317-0.514-1.04-0.293-1.669c0.987-2.809,1.892-5.648,2.989-8.413C152.454,196.687,153.342,196.267,154.226,195.481z
	 M154.604,200.31c-0.271-0.02-0.543-0.04-0.815-0.06c-0.057,0.749-0.113,1.498-0.171,2.247c0.329,0.022,0.658,0.045,0.986,0.067
	C154.604,201.812,154.604,201.062,154.604,200.31z"/>
<path fill-rule="evenodd" clip-rule="evenodd" fill="#FFFFFF" d="M123.631,201.842c0-1.416-0.004-2.832,0.001-4.247
	c0.004-1.021,0.509-1.562,1.544-1.562c1.258,0,2.518-0.025,3.774,0.027c1.988,0.082,3.325,1.274,3.542,3.085
	c0.254,2.113-0.67,3.664-2.588,4.292c-0.393,0.128-0.816,0.189-1.231,0.225c-2.249,0.193-2.277,0.186-2.409,2.395
	c-0.061,1.018-0.458,1.733-1.51,1.43c-0.47-0.137-1.018-0.884-1.073-1.402C123.534,204.684,123.631,203.257,123.631,201.842z
	 M127.613,201.62c0.856-0.865,1.676-1.312,1.795-1.9c0.205-1.012-0.697-1.212-1.553-1.205c-0.83,0.006-1.718,0.068-1.519,1.194
	C126.434,200.252,126.986,200.715,127.613,201.62z"/>
<path fill-rule="evenodd" clip-rule="evenodd" fill="#FFFFFF" d="M201.654,139.162c0.053,3.611,0.048,3.621-4.597,3.499
	c-1.006-0.026-1.573-0.569-1.603-1.566c-0.038-1.31-0.039-2.623,0.006-3.933c0.033-0.992,0.571-1.545,1.609-1.523
	c0.367,0.008,0.735,0.014,1.103,0.02C201.654,135.714,201.654,135.714,201.654,139.162z"/>
<path fill-rule="evenodd" clip-rule="evenodd" fill="#FFFFFF" d="M206.276,201.866c-0.001,1.413,0.006,2.826-0.004,4.24
	c-0.006,0.823-0.262,1.441-1.245,1.448c-0.958,0.007-1.693-0.289-1.703-1.381c-0.024-2.879-0.02-5.758,0.001-8.637
	c0.007-1.046,0.652-1.483,1.636-1.483c1.054-0.001,1.308,0.696,1.313,1.572C206.283,199.039,206.277,200.452,206.276,201.866z"/>
<path fill-rule="evenodd" clip-rule="evenodd" d="M214.262,100.311c-1.312-0.002-2.624-0.021-3.936,0.003
	c-1.143,0.022-1.472-0.572-1.328-1.602c0.23-1.653,1.177-2.854,2.629-3.487c3.329-1.45,7.357-0.098,7.83,3.595
	c0.126,0.99-0.214,1.509-1.261,1.497C216.885,100.302,215.573,100.313,214.262,100.311z"/>
<path fill-rule="evenodd" clip-rule="evenodd" d="M90.213,104.167c0.37-1.939,0.546-3.944,1.165-5.801
	c0.572-1.714,2.822-2.7,4.668-2.46c2.059,0.267,3.635,1.565,4.068,3.435c0.749,3.227,0.764,6.467-0.011,9.69
	c-0.584,2.427-2.191,3.45-5.122,3.353c-2.228-0.074-3.881-1.547-4.224-3.92c-0.203-1.4-0.22-2.828-0.32-4.243
	C90.364,104.204,90.289,104.186,90.213,104.167z"/>
<path fill-rule="evenodd" clip-rule="evenodd" d="M76.875,165.43c-0.458,2.187-0.735,4.432-1.415,6.548
	c-1.256,3.91-5.081,6.133-9.578,5.829c-3.95-0.267-7.067-3.175-7.988-7.119c-0.878-3.761-0.921-7.443-0.024-11.208
	c0.884-3.712,3.855-6.283,7.617-6.607c7.254-0.625,9.963,3.774,10.893,9.5c0.16,0.979,0.129,1.988,0.187,2.984
	C76.67,165.381,76.773,165.405,76.875,165.43z"/>
<path fill-rule="evenodd" clip-rule="evenodd" d="M148.688,165.514c-0.005,2.715-0.227,5.384-1.647,7.772
	c-2.034,3.422-5.156,4.866-9.043,4.488c-3.668-0.356-6.258-2.306-7.441-5.861c-1.63-4.898-1.641-9.84,0.334-14.61
	c1.064-2.569,3.287-4.16,6.125-4.317c1.901-0.105,3.945-0.068,5.722,0.521c3.594,1.192,4.907,4.36,5.59,7.773
	C148.604,162.659,148.576,164.101,148.688,165.514z"/>
<path fill-rule="evenodd" clip-rule="evenodd" d="M164.087,165.059c0.652-2.461,1.069-5.018,2.017-7.359
	c1.241-3.069,3.769-4.642,7.128-4.859c3.578-0.232,6.991,0.196,9.013,3.521c1.054,1.734,1.609,3.845,2.054,5.858
	c0.779,3.528,0.196,6.989-1.123,10.332c-1.894,4.8-7.424,5.993-11.355,4.938c-5.133-1.376-6.553-5.129-7.282-10.438
	c-0.086-0.619-0.012-1.26-0.012-1.891C164.379,165.127,164.233,165.093,164.087,165.059z"/>
<path fill-rule="evenodd" clip-rule="evenodd" d="M113.328,165.453c-0.641,2.415-1.12,4.987-2.009,7.409
	c-1.667,4.542-7.544,5.719-11.346,4.569c-4.057-1.226-5.932-4.121-6.677-8.111c-0.734-3.931-0.557-7.739,0.999-11.424
	c1.325-3.139,3.765-4.802,7.172-5.036c5.317-0.366,8.5,1.147,10.148,5.322C112.484,160.384,112.733,162.831,113.328,165.453z"/>
<path fill-rule="evenodd" clip-rule="evenodd" d="M180.814,201.329c-0.761-0.792-1.598-1.257-1.655-1.805
	c-0.151-1.422,1.1-1.054,1.91-1.094c0.857-0.043,1.944,0.051,1.767,1.171C182.746,200.167,181.73,200.585,180.814,201.329z"/>
<path fill-rule="evenodd" clip-rule="evenodd" d="M154.604,200.31c0,0.752,0,1.503,0,2.255c-0.328-0.022-0.657-0.045-0.986-0.067
	c0.058-0.749,0.114-1.498,0.171-2.247C154.061,200.27,154.332,200.29,154.604,200.31z"/>
<path fill-rule="evenodd" clip-rule="evenodd" d="M127.613,201.62c-0.627-0.905-1.18-1.368-1.276-1.911
	c-0.199-1.126,0.689-1.188,1.519-1.194c0.856-0.007,1.758,0.193,1.553,1.205C129.29,200.308,128.469,200.755,127.613,201.62z"/>
</svg>
