<?xml version="1.0" encoding="utf-8"?>
<!-- Generator: Adobe Illustrator 16.0.0, SVG Export Plug-In . SVG Version: 6.00 Build 0)  -->
<!DOCTYPE svg PUBLIC "-//W3C//DTD SVG 1.1//EN" "http://www.w3.org/Graphics/SVG/1.1/DTD/svg11.dtd">
<svg version="1.1" id="Calque_1" xmlns="http://www.w3.org/2000/svg" xmlns:xlink="http://www.w3.org/1999/xlink" x="0px" y="0px"
	 width="110px" height="110px" viewBox="0 0 110 110" enable-background="new 0 0 110 110" xml:space="preserve">
<path fill="#A99C7F" d="M0,96c0-27,0-54,0-81C2.542,7.542,7.522,2.522,15,0c27,0,54,0,81,0c6.402,2.931,11.369,7.297,14,14
	c0,27.333,0,54.667,0,82c-2.58,6.753-7.236,11.43-14,14c-27.334,0-54.667,0-82,0C7.342,107.324,2.901,102.433,0,96z M72.086,53.443
	c7.549-4.084,9.454-10.477,7.957-17.968c-1.338-6.699-6.355-10.669-12.636-11.012c-12.359-0.676-24.782-0.199-37.307-0.199
	c0,21.341,0,42.516,0,63.812c12.306,0,24.282,0.578,36.173-0.184c9.476-0.607,15.799-6.837,16.862-14.378
	C84.483,63.958,81.217,57.769,72.086,53.443z"/>
<path fill-rule="evenodd" clip-rule="evenodd" fill="#A99C7F" d="M41.757,59.266c7.23,0,14.2-0.242,21.143,0.076
	c5.604,0.256,8.744,4.003,8.789,9.523c0.046,5.643-3.328,9.609-9.062,9.852c-6.801,0.286-13.624,0.067-20.87,0.067
	C41.757,72.404,41.757,66.198,41.757,59.266z"/>
<path fill-rule="evenodd" clip-rule="evenodd" fill="#A99C7F" d="M41.583,50.199c0-5.584,0-10.854,0-16.6
	c6.964,0,13.716-0.221,20.445,0.077c4.572,0.202,6.719,3.292,6.785,7.722c0.066,4.486-1.737,8.283-6.453,8.663
	C55.635,50.604,48.833,50.199,41.583,50.199z"/>
</svg>
