<?xml version="1.0" encoding="utf-8"?>
<!-- Generator: Adobe Illustrator 16.0.0, SVG Export Plug-In . SVG Version: 6.00 Build 0)  -->
<!DOCTYPE svg PUBLIC "-//W3C//DTD SVG 1.1//EN" "http://www.w3.org/Graphics/SVG/1.1/DTD/svg11.dtd">
<svg version="1.1" id="Layer_1" xmlns="http://www.w3.org/2000/svg" xmlns:xlink="http://www.w3.org/1999/xlink" x="0px" y="0px"
	 width="437.289px" height="491.729px" viewBox="0 0 437.289 491.729" enable-background="new 0 0 437.289 491.729"
	 xml:space="preserve">
<title>CSS</title>
<polygon fill="none" points="79.848,173.789 79.687,228.556 218.645,228.556 218.645,173.789 "/>
<polygon fill="none" points="218.241,320.768 134.602,291.018 134.664,263.931 79.901,263.931 79.65,329.65 218.003,378.939 
	218.645,378.71 218.645,320.624 "/>
<polygon fill="none" points="80.384,83.647 80.076,138.414 218.645,138.414 218.645,83.649 "/>
<path fill="#A99C7F" d="M3.71,0l38.965,440.121l174.854,48.884l175.335-48.953L431.868,0H3.71z M362.119,414.677l-143.474,39.774
	V378.71l-0.643,0.229L79.65,329.65l0.251-65.719h54.763l-0.062,27.087l83.639,29.75l0.404-0.144v-92.068H79.687l0.161-54.767
	h138.797v-35.375H80.076l0.308-54.768l138.262,0.002V36.537h177.228L362.119,414.677z"/>
<polygon fill="#CAC2AF" points="218.645,36.537 218.645,83.649 358.056,83.651 357.49,210.943 357.347,230.777 356.881,329.65 
	218.645,378.71 218.645,454.451 362.119,414.677 395.873,36.537 "/>
<polygon fill="#CAC2AF" points="302.596,228.556 218.645,228.556 218.645,320.624 302.303,291.018 "/>
<polygon fill="#CAC2AF" points="302.985,138.414 218.645,138.414 218.645,173.789 302.905,173.789 "/>
</svg>
