<?xml version="1.0" encoding="utf-8"?>
<!-- Generator: Adobe Illustrator 16.0.0, SVG Export Plug-In . SVG Version: 6.00 Build 0)  -->
<!DOCTYPE svg PUBLIC "-//W3C//DTD SVG 1.1//EN" "http://www.w3.org/Graphics/SVG/1.1/DTD/svg11.dtd">
<svg version="1.1" id="Calque_1" xmlns="http://www.w3.org/2000/svg" xmlns:xlink="http://www.w3.org/1999/xlink" x="0px" y="0px"
	 width="283.46px" height="283.46px" viewBox="0 0 283.46 283.46" enable-background="new 0 0 283.46 283.46" xml:space="preserve">
<path fill="#CAC2AF" d="M140.509,38.658c-0.009,22.894-0.02,45.787-0.029,68.68c-12.836,0.094-25.673,0.187-38.51,0.281
	c-0.196-0.204-0.37-0.556-0.592-0.59c-5.6-0.843-10.753-2.814-15.307-6.194c-8.008-5.944-12.751-13.833-14.008-23.78
	C70.2,62.311,78.09,48.238,91.716,41.77c4.292-2.038,8.898-3.121,13.678-3.132C117.1,38.609,128.805,38.646,140.509,38.658z"/>
<path fill="#CAC2AF" d="M101.97,107.619c12.836-0.094,25.673-0.188,38.51-0.281l-0.01-0.012c0.004,9.468,0.002,18.936,0.024,28.403
	c0.001,0.78,0.163,1.559,0.251,2.339c-0.001,2.403-0.004,4.807-0.006,7.212c-0.086,0.781-0.245,1.562-0.247,2.345
	c-0.035,9.471-0.048,18.94-0.065,28.412c-12.614-0.099-25.229-0.195-37.842-0.293c-7.353-0.55-13.735-3.464-19.163-8.316
	c-7.995-7.148-11.809-16.211-11.644-26.942C72.033,124.078,85.924,108.953,101.97,107.619z"/>
<path fill="#CAC2AF" d="M102.585,175.742c12.614,0.098,25.229,0.195,37.842,0.293c0.009,12.08,0.335,24.17-0.049,36.238
	c-0.526,16.516-13.708,30.287-30.18,32.191c-18.985,2.195-35.911-11.148-38.15-30.072c-2.203-18.629,11.032-35.682,29.51-38.055
	C101.92,176.292,102.244,175.949,102.585,175.742z"/>
<path fill="#A99C7F" d="M280.914,62.117c-0.004-3.791-0.301-7.642-1.008-11.361c-5.261-27.704-28.885-48.136-57.947-48.215
	C167.675,2.393,113.391,2.469,59.107,2.558c-4.199,0.007-8.477,0.481-12.58,1.374C19.707,9.769,0.02,33.245,0.011,62.015
	c-0.016,53.806-0.021,107.613,0.032,161.42c0.004,3.582,0.289,7.205,0.889,10.734c2.774,16.322,11.077,29.242,24.581,38.752
	c10.133,7.137,21.533,10.494,33.888,10.514c27.036,0.045,54.072,0.014,81.108,0.014c27.089,0,54.179,0.039,81.266-0.045
	c3.686-0.012,7.428-0.328,11.045-1.02c27.76-5.301,48.09-29.16,48.121-58.211C281.001,170.156,280.976,116.136,280.914,62.117z
	 M180.367,175.599c-1.741,0.303-3.479,0.46-5.201,0.481c-16.643,0.21-31.843-12.267-34.312-29.218
	c-0.075-0.523-0.078-1.057-0.115-1.584c-0.086,0.782-0.245,1.561-0.247,2.344c-0.035,9.472-0.047,18.941-0.065,28.412
	c0.009,12.08,0.335,24.17-0.047,36.238c-0.526,16.516-13.708,30.287-30.18,32.191c-18.985,2.195-35.911-11.148-38.15-30.072
	c-2.203-18.629,11.032-35.682,29.51-38.055c0.361-0.045,0.685-0.39,1.026-0.596c-7.353-0.549-13.736-3.463-19.163-8.316
	c-7.995-7.149-11.809-16.211-11.644-26.942c0.253-16.406,14.145-31.531,30.191-32.865c-0.196-0.204-0.37-0.556-0.592-0.59
	c-5.6-0.842-10.753-2.814-15.307-6.194c-8.008-5.944-12.751-13.833-14.008-23.78C70.2,62.311,78.09,48.238,91.715,41.768
	c4.292-2.037,8.898-3.12,13.678-3.132c11.705-0.027,23.41,0.01,35.115,0.021c12.031-0.008,24.065-0.204,36.092,0.024
	c6.516,0.123,12.748,2.431,17.983,6.196c7.652,5.503,13.177,14.12,14.342,23.581c1.832,14.863-5.945,29.284-19.49,35.551
	c-3.035,1.404-6.441,2.005-9.672,2.994c-0.47,0.145-0.909,0.391-1.361,0.592c12.064,1.354,21.135,7.424,26.745,18.065
	C216.19,146.603,203.692,171.546,180.367,175.599z"/>
<path fill="#A99C7F" d="M170.675,107.639c-6.838,0.731-12.856,3.413-18.038,7.865c-6.908,5.936-10.997,13.425-11.891,22.564
	c-0.088-0.78-0.25-1.559-0.251-2.339c-0.022-9.467-0.021-18.935-0.024-28.403c9.35,0.003,18.702,0,28.053,0.022
	C169.24,107.35,169.958,107.538,170.675,107.639z"/>
</svg>
