<?xml version="1.0" encoding="utf-8"?>
<!-- Generator: Adobe Illustrator 16.0.0, SVG Export Plug-In . SVG Version: 6.00 Build 0)  -->
<!DOCTYPE svg PUBLIC "-//W3C//DTD SVG 1.1//EN" "http://www.w3.org/Graphics/SVG/1.1/DTD/svg11.dtd">
<svg version="1.1" id="Calque_1" xmlns="http://www.w3.org/2000/svg" xmlns:xlink="http://www.w3.org/1999/xlink" x="0px" y="0px"
	 width="283.46px" height="283.46px" viewBox="0 0 283.46 283.46" enable-background="new 0 0 283.46 283.46" xml:space="preserve">
<path fill-rule="evenodd" clip-rule="evenodd" fill="#A99C7F" d="M140.509,283.449c-27.036,0-54.072,0.031-81.108-0.014
	c-12.355-0.02-23.755-3.377-33.888-10.514c-13.504-9.51-21.807-22.43-24.581-38.752c-0.6-3.529-0.885-7.152-0.889-10.734
	C-0.01,169.629-0.005,115.821,0.011,62.015C0.02,33.245,19.707,9.769,46.527,3.932c4.103-0.893,8.381-1.367,12.58-1.374
	c54.284-0.089,108.568-0.165,162.852-0.017c29.062,0.079,52.686,20.511,57.947,48.215c0.707,3.719,1.004,7.57,1.008,11.361
	c0.062,54.019,0.088,108.039,0.027,162.056c-0.031,29.051-20.361,52.91-48.121,58.211c-3.617,0.691-7.359,1.008-11.045,1.02
	C194.688,283.488,167.598,283.449,140.509,283.449z M140.427,176.035c0.018-9.471,0.03-18.941,0.065-28.412
	c0.002-0.783,0.161-1.562,0.247-2.344c0.037,0.527,0.04,1.061,0.115,1.584c2.723,18.705,20.95,31.961,39.51,28.736
	c23.326-4.053,35.824-28.996,24.781-49.939c-5.611-10.642-14.68-16.711-26.746-18.065c0.453-0.201,0.893-0.448,1.363-0.593
	c3.23-0.989,6.637-1.589,9.672-2.994c13.545-6.267,21.322-20.688,19.49-35.551c-1.963-15.933-16.287-29.473-32.324-29.776
	c-12.027-0.228-24.061-0.032-36.092-0.024c-11.705-0.011-23.41-0.048-35.115-0.021c-4.78,0.012-9.386,1.095-13.678,3.132
	C78.09,48.238,70.2,62.311,72.063,77.054c1.257,9.947,6,17.836,14.008,23.78c4.554,3.38,9.707,5.352,15.307,6.194
	c0.222,0.034,0.396,0.386,0.592,0.59c-16.046,1.334-29.938,16.459-30.191,32.865c-0.165,10.731,3.649,19.793,11.644,26.942
	c5.427,4.854,11.81,7.768,19.163,8.316c-0.341,0.207-0.665,0.551-1.026,0.596c-18.478,2.373-31.713,19.426-29.51,38.055
	c2.239,18.924,19.165,32.268,38.15,30.072c16.472-1.904,29.654-15.676,30.18-32.191
	C140.762,200.205,140.436,188.115,140.427,176.035z"/>
<path fill-rule="evenodd" clip-rule="evenodd" fill="#FFFFFF" d="M140.509,38.658c12.032-0.007,24.065-0.204,36.092,0.024
	c16.037,0.303,30.361,13.843,32.324,29.776c1.832,14.863-5.945,29.284-19.49,35.551c-3.035,1.404-6.441,2.005-9.672,2.994
	c-0.471,0.145-0.91,0.392-1.363,0.593c-2.574,0.015-5.15,0.03-7.725,0.044c-0.717-0.101-1.436-0.289-2.152-0.291
	c-9.352-0.023-18.703-0.019-28.053-0.022l0.01,0.012C140.49,84.445,140.5,61.551,140.509,38.658z"/>
<path fill-rule="evenodd" clip-rule="evenodd" fill="#CAC2AF" d="M140.509,38.658c-0.009,22.894-0.02,45.787-0.029,68.68
	c-12.836,0.094-25.673,0.187-38.51,0.281c-0.196-0.204-0.37-0.556-0.592-0.59c-5.6-0.843-10.753-2.814-15.307-6.194
	c-8.008-5.944-12.751-13.833-14.008-23.78C70.2,62.311,78.09,48.238,91.716,41.77c4.292-2.038,8.898-3.121,13.678-3.132
	C117.1,38.609,128.805,38.646,140.509,38.658z"/>
<path fill-rule="evenodd" clip-rule="evenodd" fill="#CAC2AF" d="M101.97,107.619c12.836-0.094,25.673-0.188,38.51-0.281
	l-0.01-0.012c0.004,9.468,0.002,18.936,0.024,28.403c0.001,0.78,0.163,1.559,0.251,2.339c-0.001,2.403-0.004,4.807-0.006,7.212
	c-0.086,0.781-0.245,1.561-0.247,2.344c-0.035,9.471-0.048,18.941-0.065,28.412c-12.614-0.098-25.229-0.195-37.842-0.293
	c-7.353-0.549-13.735-3.463-19.163-8.316c-7.995-7.148-11.809-16.211-11.644-26.942C72.033,124.078,85.924,108.953,101.97,107.619z"
	/>
<path fill-rule="evenodd" clip-rule="evenodd" fill="#CAC2AF" d="M102.585,175.742c12.614,0.098,25.229,0.195,37.842,0.293
	c0.009,12.08,0.335,24.17-0.049,36.238c-0.526,16.516-13.708,30.287-30.18,32.191c-18.985,2.195-35.911-11.148-38.15-30.072
	c-2.203-18.629,11.032-35.682,29.51-38.055C101.92,176.293,102.244,175.949,102.585,175.742z"/>
<path fill-rule="evenodd" clip-rule="evenodd" fill="#FFFFFF" d="M140.74,145.279c0.002-2.405,0.005-4.809,0.006-7.211
	c0.895-9.139,4.983-16.628,11.891-22.564c5.182-4.452,11.201-7.133,18.039-7.865c2.574-0.014,5.15-0.029,7.725-0.044
	c12.066,1.354,21.135,7.424,26.746,18.065c11.043,20.943-1.455,45.886-24.781,49.939c-18.561,3.225-36.787-10.031-39.51-28.736
	C140.78,146.34,140.777,145.807,140.74,145.279z"/>
<path fill-rule="evenodd" clip-rule="evenodd" fill="#A99C7F" d="M170.676,107.639c-6.838,0.731-12.857,3.413-18.039,7.865
	c-6.908,5.936-10.997,13.425-11.891,22.564c-0.088-0.78-0.25-1.559-0.251-2.339c-0.022-9.467-0.021-18.935-0.024-28.403
	c9.35,0.003,18.702,0,28.053,0.022C169.24,107.35,169.959,107.538,170.676,107.639z"/>
</svg>
