<?xml version="1.0" encoding="utf-8"?>
<!-- Generator: Adobe Illustrator 16.0.0, SVG Export Plug-In . SVG Version: 6.00 Build 0)  -->
<!DOCTYPE svg PUBLIC "-//W3C//DTD SVG 1.1//EN" "http://www.w3.org/Graphics/SVG/1.1/DTD/svg11.dtd">
<svg version="1.1" id="Calque_1" xmlns="http://www.w3.org/2000/svg" xmlns:xlink="http://www.w3.org/1999/xlink" x="0px" y="0px"
	 width="640px" height="896px" viewBox="0 0 640 896" enable-background="new 0 0 640 896" xml:space="preserve">
<path fill="#A99C7F" d="M537.221,291.327c-55.604,0-100.778,45.151-100.778,100.779c0,37.179,20.373,69.334,50.39,86.828v13.951
	c0,0,0,100.777-100.78,100.777c-41.776,0-74.525,8.956-100.778,22.687V378.155c30.04-17.494,50.389-49.65,50.389-86.828
	c0-55.629-45.148-100.779-100.778-100.779c-55.629,0-100.777,45.15-100.777,100.779c0,37.179,20.348,69.334,50.389,86.828v330.263
	c-30.041,17.47-50.389,49.602-50.389,86.803c0,55.605,45.148,100.779,100.778,100.779c55.627,0,100.778-45.174,100.778-100.778
	c0-26.375-10.384-50.192-26.966-68.202c14.664-18.011,38.505-32.576,77.354-32.576c199.983,0,201.558-201.558,201.558-201.558
	v-13.951C617.627,461.441,638,429.284,638,392.106C638.001,336.476,592.827,291.327,537.221,291.327z M234.885,240.937
	c27.874,0,50.39,22.515,50.39,50.39c0,27.876-22.516,50.389-50.39,50.389c-27.877,0-50.39-22.513-50.39-50.389
	S207.008,240.937,234.885,240.937z M234.885,845.61c-27.877,0-50.39-22.537-50.39-50.39c0-27.803,22.513-50.39,50.39-50.39
	c27.874,0,50.39,22.587,50.39,50.39C285.275,823.073,262.761,845.61,234.885,845.61z M537.221,442.495
	c-27.852,0-50.389-22.513-50.389-50.389c0-27.875,22.537-50.391,50.389-50.391c27.853,0,50.39,22.516,50.39,50.391
	C587.611,419.982,565.073,442.495,537.221,442.495z"/>
<rect x="0" y="345.309" fill="none" width="136.105" height="141.015"/>
</svg>
