<?xml version="1.0" encoding="utf-8"?>
<!-- Generator: Adobe Illustrator 16.0.0, SVG Export Plug-In . SVG Version: 6.00 Build 0)  -->
<!DOCTYPE svg PUBLIC "-//W3C//DTD SVG 1.1//EN" "http://www.w3.org/Graphics/SVG/1.1/DTD/svg11.dtd">
<svg version="1.1" id="Calque_1" xmlns="http://www.w3.org/2000/svg" xmlns:xlink="http://www.w3.org/1999/xlink" x="0px" y="0px"
	 width="640px" height="705.452px" viewBox="0 0 640 705.452" enable-background="new 0 0 640 705.452" xml:space="preserve">
<path fill="#A99C7F" d="M471.166,100.779c-55.604,0-100.777,45.151-100.777,100.779c0,37.179,20.373,69.334,50.389,86.828v13.951
	c0,0,0,100.776-100.779,100.776c-41.776,0-74.525,8.956-100.778,22.688V187.607c30.04-17.494,50.389-49.65,50.389-86.828
	C269.609,45.15,224.462,0,168.832,0C113.203,0,68.054,45.15,68.054,100.779c0,37.179,20.349,69.334,50.39,86.828V517.87
	c-30.041,17.471-50.39,49.603-50.39,86.804c0,55.604,45.148,100.778,100.778,100.778c55.627,0,100.777-45.174,100.777-100.777
	c0-26.375-10.384-50.192-26.966-68.202c14.664-18.011,38.505-32.576,77.354-32.576c199.982,0,201.558-201.558,201.558-201.558
	v-13.951c30.016-17.494,50.389-49.651,50.389-86.829C571.946,145.928,526.772,100.779,471.166,100.779z M168.831,50.389
	c27.874,0,50.39,22.515,50.39,50.39c0,27.876-22.516,50.389-50.39,50.389c-27.877,0-50.39-22.513-50.39-50.389
	S140.954,50.389,168.831,50.389z M168.831,655.062c-27.877,0-50.39-22.537-50.39-50.39c0-27.803,22.513-50.391,50.39-50.391
	c27.874,0,50.39,22.587,50.39,50.391C219.22,632.525,196.707,655.062,168.831,655.062z M471.166,251.947
	c-27.852,0-50.389-22.513-50.389-50.389c0-27.875,22.537-50.392,50.389-50.392c27.854,0,50.391,22.517,50.391,50.392
	C521.557,229.434,499.018,251.947,471.166,251.947z"/>
<rect x="0" y="345.309" fill="none" width="118.444" height="141.015"/>
<rect x="521.557" y="288.387" fill="none" width="118.443" height="117.205"/>
</svg>
