<?xml version="1.0" encoding="utf-8"?>
<!-- Generator: Adobe Illustrator 16.0.0, SVG Export Plug-In . SVG Version: 6.00 Build 0)  -->
<!DOCTYPE svg PUBLIC "-//W3C//DTD SVG 1.1//EN" "http://www.w3.org/Graphics/SVG/1.1/DTD/svg11.dtd">
<svg version="1.1" id="Calque_1" xmlns="http://www.w3.org/2000/svg" xmlns:xlink="http://www.w3.org/1999/xlink" x="0px" y="0px"
	 width="640px" height="896px" viewBox="0 0 640 896" enable-background="new 0 0 640 896" xml:space="preserve">
<path fill="#A99C7F" d="M512,128c-70.625,0-128,57.346-128,128c0,47.221,25.875,88.062,64,110.281V384c0,0,0,128-128,128
	c-53.062,0-94.656,11.375-128,28.812V238.281c38.154-22.219,64-63.062,64-110.281C256,57.344,198.656,0,128,0
	C57.344,0,0,57.344,0,128c0,47.221,25.844,88.062,64,110.281V657.75C25.844,679.938,0,720.75,0,768c0,70.625,57.344,128,128,128
	c70.654,0,128-57.375,128-128c0-33.5-13.188-63.75-34.25-86.625C240.375,658.5,270.656,640,320,640c254,0,256-256,256-256v-17.719
	c38.125-22.219,64-63.062,64-110.281C640,185.344,582.625,128,512,128z M128,64c35.404,0,64,28.596,64,64c0,35.406-28.596,64-64,64
	c-35.406,0-64-28.594-64-64C64,92.594,92.594,64,128,64z M128,832c-35.406,0-64-28.625-64-64c0-35.312,28.594-64,64-64
	c35.404,0,64,28.688,64,64C192,803.375,163.406,832,128,832z M512,320c-35.375,0-64-28.594-64-64c0-35.404,28.625-64,64-64
	s64,28.596,64,64C576,291.406,547.375,320,512,320z"/>
</svg>
