<?xml version="1.0" encoding="utf-8"?>
<!-- Generator: Adobe Illustrator 16.0.0, SVG Export Plug-In . SVG Version: 6.00 Build 0)  -->
<!DOCTYPE svg PUBLIC "-//W3C//DTD SVG 1.1//EN" "http://www.w3.org/Graphics/SVG/1.1/DTD/svg11.dtd">
<svg version="1.1" id="Capa_1" xmlns="http://www.w3.org/2000/svg" xmlns:xlink="http://www.w3.org/1999/xlink" x="0px" y="0px"
	 width="438.549px" height="438.549px" viewBox="0 0 438.549 438.549" enable-background="new 0 0 438.549 438.549"
	 xml:space="preserve">
<g>
	<path fill="#A99C7F" d="M409.132,112.052c-19.608-34.47-46.205-61.76-79.798-81.877C295.736,10.057,259.057,0,219.271,0
		c-39.781,0-76.472,10.06-110.062,30.174c-33.598,20.116-60.192,47.407-79.8,81.877C9.803,146.522,0,184.163,0,224.975
		c0,49.024,13.938,93.107,41.827,132.262c27.884,39.158,63.904,66.253,108.062,81.29c5.14,0.979,8.945,0.29,11.419-2.048
		c2.477-2.342,3.711-5.273,3.711-8.786c0-0.585-0.049-5.855-0.144-15.818c-0.1-9.962-0.146-18.65-0.146-26.065l-6.565,1.165
		c-4.188,0.787-9.471,1.12-15.848,1.026c-6.374-0.092-12.989-0.776-19.842-2.051c-6.854-1.264-13.229-4.193-19.13-8.781
		c-5.896-4.591-10.085-10.599-12.56-18.016l-2.855-6.739c-1.903-4.487-4.897-9.475-8.992-14.938
		c-4.093-5.47-8.23-9.178-12.419-11.13l-1.999-1.469c-1.332-0.977-2.566-2.153-3.711-3.52c-1.142-1.365-1.997-2.731-2.566-4.101
		c-0.572-1.37-0.1-2.493,1.427-3.375c1.523-0.881,4.281-1.31,8.28-1.31l5.708,0.874c3.807,0.784,8.516,3.121,14.133,7.03
		c5.612,3.905,10.229,8.982,13.846,15.229c4.38,8.009,9.657,14.111,15.846,18.312c6.186,4.2,12.419,6.297,18.699,6.297
		s11.704-0.488,16.274-1.461c4.563-0.977,8.848-2.444,12.847-4.396c1.713-13.092,6.377-23.147,13.988-30.178
		c-10.85-1.171-20.603-2.932-29.266-5.273c-8.656-2.345-17.604-6.152-26.835-11.43c-9.233-5.271-16.896-11.815-22.983-19.624
		c-6.09-7.812-11.088-18.069-14.987-30.761c-3.901-12.695-5.852-27.342-5.852-43.939c0-23.635,7.52-43.748,22.557-60.35
		c-7.044-17.769-6.379-37.688,1.997-59.757c5.52-1.759,13.706-0.438,24.554,3.954c10.852,4.395,18.794,8.159,23.84,11.28
		s9.09,5.764,12.137,7.909c17.705-5.076,35.976-7.615,54.816-7.615s37.117,2.539,54.823,7.615l10.849-7.027
		c7.419-4.69,16.182-8.986,26.262-12.892c10.09-3.905,17.804-4.98,23.136-3.221c8.562,22.07,9.323,41.987,2.277,59.757
		c15.036,16.601,22.561,36.719,22.561,60.349c0,16.599-1.958,31.291-5.854,44.085c-3.898,12.795-8.939,23.042-15.125,30.759
		c-6.189,7.718-13.899,14.211-23.131,19.48c-9.23,5.272-18.182,9.081-26.84,11.426c-8.662,2.346-18.415,4.107-29.263,5.28
		c9.894,8.784,14.842,22.65,14.842,41.596v61.804c0,3.511,1.19,6.443,3.572,8.785c2.379,2.338,6.136,3.025,11.274,2.046
		c44.163-15.033,80.187-42.13,108.068-81.288c27.88-39.153,41.825-83.236,41.825-132.262
		C438.534,184.159,428.728,146.522,409.132,112.052z"/>
</g>
</svg>
