<?xml version="1.0" encoding="utf-8"?>
<!-- Generator: Adobe Illustrator 16.0.0, SVG Export Plug-In . SVG Version: 6.00 Build 0)  -->
<!DOCTYPE svg PUBLIC "-//W3C//DTD SVG 1.1//EN" "http://www.w3.org/Graphics/SVG/1.1/DTD/svg11.dtd">
<svg version="1.1" id="Calque_1" xmlns="http://www.w3.org/2000/svg" xmlns:xlink="http://www.w3.org/1999/xlink" x="0px" y="0px"
	 width="230.572px" height="283.46px" viewBox="0 0 230.572 283.46" enable-background="new 0 0 230.572 283.46"
	 xml:space="preserve">
<g>
	<path fill="#A99C7F" d="M0,142.145c0-38.136-0.02-76.271,0.011-114.407C0.021,14.689,7.802,4.491,20.449,1.155
		c3.037-0.801,6.293-1.097,9.448-1.101C86.835-0.009,143.772-0.02,200.709,0.03c11.646,0.011,21.43,3.955,26.757,14.931
		c1.832,3.775,2.962,8.296,2.971,12.479c0.174,76.377,0.142,152.755,0.116,229.132c-0.005,16.311-12.63,26.633-24.646,27.045
		c-3.18,0.108-6.354,0.502-9.529,0.504c-55.447,0.032-110.896,0.043-166.343,0.01c-11.781-0.01-21.675-3.941-26.974-15.088
		c-1.887-3.967-2.908-8.723-2.935-13.127C-0.095,217.994,0,180.069,0,142.145z M86.143,104.655c0-1.723,0-2.975,0-4.229
		c0-19.377-0.054-38.755,0.053-58.133c0.018-3.051-0.681-4.306-4.062-4.208c-8.397,0.244-16.809,0.211-25.209,0.022
		c-3.03-0.068-3.974,0.767-3.964,3.87c0.11,32.613,0.071,65.228,0.083,97.842c0,1.126,0.104,2.253,0.182,3.813
		c1.991-0.629,3.604-1.055,5.156-1.635c18.599-6.968,37.305-13.603,56.938-17.132c7.413-1.333,14.889-2.575,22.376-0.356
		c4.774,1.415,6.159,3.404,6.156,8.237c-0.022,36.425,0.009,72.853-0.073,109.28c-0.007,3.104,1.146,4.006,4.131,3.949
		c7.976-0.153,15.955-0.042,23.934-0.056c4.215-0.008,4.33-0.112,4.331-4.262c0.009-23.296,0.074-46.592-0.02-69.888
		c-0.061-15.131,0.064-30.282-0.685-45.384c-0.608-12.285-6.599-21.678-18.188-26.981c-6.096-2.789-12.602-3.719-19.199-3.994
		c-10.902-0.454-21.613,1.097-32.154,3.726C99.469,100.75,93.095,102.703,86.143,104.655z M128.453,79.218
		c1.001,0.296,1.585,0.62,2.172,0.622c10.203,0.034,20.408,0.082,30.609-0.049c1.06-0.014,2.426-0.899,3.109-1.791
		c8.658-11.286,16.373-23.164,22.272-36.137c0.452-0.996,0.695-2.086,1.071-3.235c-0.834-0.208-1.236-0.396-1.642-0.398
		c-10.735-0.026-21.471-0.104-32.204,0.065c-1.08,0.017-2.547,1.32-3.139,2.403c-4.459,8.173-8.584,16.529-13.146,24.644
		C134.932,70.014,131.684,74.339,128.453,79.218z M53.663,245.58c1.29-1.039,2.059-1.558,2.704-2.195
		c9.49-9.42,18.921-18.903,28.483-28.252c1.924-1.881,1.444-2.993-0.207-4.617c-9.38-9.232-18.677-18.547-28.016-27.821
		c-0.724-0.718-1.549-1.335-2.965-2.543C53.663,202.175,53.663,223.423,53.663,245.58z"/>
</g>
</svg>
