<?xml version="1.0" encoding="utf-8"?>
<!-- Generator: Adobe Illustrator 16.0.0, SVG Export Plug-In . SVG Version: 6.00 Build 0)  -->
<!DOCTYPE svg PUBLIC "-//W3C//DTD SVG 1.1//EN" "http://www.w3.org/Graphics/SVG/1.1/DTD/svg11.dtd">
<svg version="1.1" id="Layer_1" xmlns="http://www.w3.org/2000/svg" xmlns:xlink="http://www.w3.org/1999/xlink" x="0px" y="0px"
	 width="437.289px" height="491.729px" viewBox="0 0 437.289 491.729" enable-background="new 0 0 437.289 491.729"
	 xml:space="preserve">
<title>CSS3 Logo</title>
<polygon fill="none" points="155.798,303.89 155.798,263.743 94.591,263.743 101.388,345.593 218.003,380.4 218.645,380.208 
	218.645,319.768 "/>
<polygon fill="none" points="148.768,188.923 142.438,133.967 218.645,133.967 218.645,83.647 79.639,83.647 92.613,239.904 
	218.645,239.904 218.645,188.923 "/>
<polygon fill="#A99C7F" points="148.768,188.923 218.645,188.923 218.645,133.967 142.438,133.967 "/>
<path fill="#A99C7F" d="M3.71,0l38.965,440.12l174.854,48.885l175.335-48.953L431.868,0H3.71z M362.119,415.048l-143.474,39.773
	v-74.613l-0.643,0.191l-116.614-34.807l-6.798-81.85h61.207v40.146l62.848,15.878v-79.864H92.613L79.639,83.647h139.006V36.908
	h177.228L362.119,415.048z"/>
<polygon fill="#CAC2AF" points="218.645,36.908 218.645,83.647 356.364,83.647 352.189,133.967 218.645,133.967 218.645,188.923 
	347.628,188.923 334.618,345.593 218.645,380.208 218.645,454.822 362.119,415.048 395.873,36.908 "/>
<polygon fill="#CAC2AF" points="283.094,303.89 288.018,239.904 218.645,239.904 218.645,319.768 219.64,320.019 "/>
</svg>
