<?xml version="1.0" encoding="utf-8"?>
<!-- Generator: Adobe Illustrator 16.0.0, SVG Export Plug-In . SVG Version: 6.00 Build 0)  -->
<!DOCTYPE svg PUBLIC "-//W3C//DTD SVG 1.1//EN" "http://www.w3.org/Graphics/SVG/1.1/DTD/svg11.dtd">
<svg version="1.1" id="Calque_2" xmlns="http://www.w3.org/2000/svg" xmlns:xlink="http://www.w3.org/1999/xlink" x="0px" y="0px"
	 width="283.46px" height="283.46px" viewBox="0 0 283.46 283.46" enable-background="new 0 0 283.46 283.46" xml:space="preserve">
<linearGradient id="SVGID_1_" gradientUnits="userSpaceOnUse" x1="141.9058" y1="-60.5864" x2="141.9057" y2="326.0615">
	<stop  offset="0" style="stop-color:#D4CEBF"/>
	<stop  offset="0.0135" style="stop-color:#D3CCBD"/>
	<stop  offset="0.2052" style="stop-color:#C0B7A2"/>
	<stop  offset="0.3999" style="stop-color:#B3A88E"/>
	<stop  offset="0.5978" style="stop-color:#AC9F83"/>
	<stop  offset="0.8034" style="stop-color:#A99C7F"/>
</linearGradient>
<path fill="url(#SVGID_1_)" d="M-51.418,327.598c0-126.079,0-252.16,0-378.369c128.782,0,257.606,0,386.648,0
	c0,126.037,0,252.204,0,378.369C206.447,327.598,77.535,327.598-51.418,327.598z M117.641,72.302
	c-0.21,4.119-0.437,6.629-0.449,9.138c-0.052,10.739-0.037,21.481-0.054,32.22c-0.059,36.423-0.125,72.847-0.177,109.27
	c-0.017,11.256-0.033,11.825,11.456,12.465c14.661,0.815,29.467,1.719,44.055,0.591c26.179-2.023,47.197-13.744,58.275-38.547
	c11.896-26.63,13.047-54.4,3.533-81.982c-8.102-23.489-25.273-37.772-49.535-42.764c-8.367-1.722-17.158-1.947-25.748-1.904
	C145.515,70.857,132.039,71.732,117.641,72.302z M52.757,47.825c-0.185,3.007-0.42,5.067-0.422,7.128
	c-0.051,56.534-0.078,113.069-0.11,169.602c0,0.7-0.011,1.401,0.005,2.103c0.166,7.387,0.802,8.104,7.985,8.229
	c5.838,0.101,11.681,0.039,17.521,0.028c11.016-0.017,11.05-0.021,11.039-10.774c-0.056-56.3-0.125-112.601-0.22-168.902
	c-0.004-2.261-0.314-4.521-0.529-7.415C76.185,47.825,64.921,47.825,52.757,47.825z"/>
<linearGradient id="SVGID_2_" gradientUnits="userSpaceOnUse" x1="178.6851" y1="-31.1855" x2="178.685" y2="303.5753">
	<stop  offset="0.1535" style="stop-color:#CAC2AF"/>
	<stop  offset="0.5362" style="stop-color:#B1A78E"/>
	<stop  offset="0.7499" style="stop-color:#A79D81"/>
</linearGradient>
<path fill="url(#SVGID_2_)" d="M154.281,100.5c16.633-5.736,34.987,1.782,42.613,17.109c6.676,13.414,7.521,27.862,6.35,42.373
	c-0.689,8.531-1.91,17.273-4.632,25.337c-6.556,19.425-20.749,24.106-39.196,22.884c-3.365-0.223-5.049-2.033-5.092-5.402
	c-0.019-1.633-0.094-3.264-0.104-4.896c-0.191-31.012-0.384-62.023-0.535-93.036C153.675,103.503,154.048,102.137,154.281,100.5z"/>
</svg>
