<?xml version="1.0" encoding="utf-8"?>
<!-- Generator: Adobe Illustrator 16.0.0, SVG Export Plug-In . SVG Version: 6.00 Build 0)  -->
<!DOCTYPE svg PUBLIC "-//W3C//DTD SVG 1.1//EN" "http://www.w3.org/Graphics/SVG/1.1/DTD/svg11.dtd">
<svg version="1.1" id="Calque_1" xmlns="http://www.w3.org/2000/svg" xmlns:xlink="http://www.w3.org/1999/xlink" x="0px" y="0px"
	 width="283.46px" height="283.46px" viewBox="0 0 283.46 283.46" enable-background="new 0 0 283.46 283.46" xml:space="preserve">
<path fill="#A99C7F" d="M281.512,141.684c0,23.418,0.007,46.836-0.005,70.255c-0.004,6.922-0.394,13.803-1.791,20.618
	c-4.93,24.028-23.787,42.36-47.963,46.618c-8.674,1.527-17.416,1.707-26.182,1.713c-28.447,0.014-56.895,0.072-85.342,0.054
	c-16.188-0.011-32.375-0.026-48.561-0.256c-9.513-0.134-19.037-0.787-28.084-4.08c-20.351-7.411-33.053-21.803-38.284-42.763
	c-1.506-6.034-2.167-12.219-2.177-18.446C3.055,169.11,2.975,122.825,2.968,76.539c-0.001-5.689,0.173-11.4,0.678-17.063
	c1.45-16.275,7.622-30.372,20-41.375C32.102,10.584,42.043,6.081,53.136,4c9.171-1.721,18.445-1.608,27.706-1.613
	c42.004-0.024,84.007-0.04,126.011,0.045c6.549,0.014,13.134,0.224,19.639,0.93c17.459,1.896,31.956,9.458,42.627,23.63
	c6.469,8.591,10.227,18.383,11.457,29.046c0.602,5.215,0.869,10.494,0.891,15.745c0.093,23.3,0.041,46.601,0.041,69.901
	C281.509,141.684,281.51,141.684,281.512,141.684z M39.459,141.795c0,7.976-0.069,15.953,0.018,23.927
	c0.102,9.347,0.161,18.703,1.395,27.992c1.178,8.865,3.76,17.289,8.655,24.836c8.609,13.275,21.033,20.82,36.394,23.869
	c8.409,1.67,16.944,1.929,25.451,1.985c24.121,0.166,48.25,0.603,72.36-0.472c5.354-0.238,10.744-0.861,15.999-1.898
	c13.319-2.63,24.396-9.156,32.737-20.018c6.859-8.934,10.234-19.246,11.316-30.291c0.719-7.338,1.108-14.734,1.147-22.109
	c0.126-23.14,0.586-46.287-0.458-69.415c-0.239-5.315-0.872-10.661-1.885-15.883c-2.072-10.679-6.735-20.109-14.453-27.955
	c-8.942-9.09-19.971-13.813-32.348-15.804c-8.25-1.328-16.593-1.55-24.91-1.555c-22.746-0.014-45.492,0.193-68.237,0.372
	c-6.375,0.05-12.702,0.712-18.931,2.141c-12.385,2.84-22.856,8.837-30.903,18.808c-7.351,9.107-11.045,19.721-12.102,31.188
	c-0.802,8.708-0.998,17.483-1.207,26.235C39.308,125.761,39.458,133.779,39.459,141.795z"/>
<path fill="#A99C7F" d="M226.408,141.632c0,10.374,0.108,20.749-0.039,31.118c-0.102,7.221-0.252,14.457-1.617,21.594
	c-2.049,10.714-7.219,19.369-16.729,25.066c-5.028,3.014-10.583,4.689-16.378,5.239c-6.367,0.604-12.768,1.011-19.159,1.149
	c-10.407,0.227-20.821,0.213-31.234,0.209c-9.704-0.002-19.411-0.002-29.111-0.23c-7.373-0.174-14.77-0.25-22.07-1.578
	c-10.132-1.84-18.587-6.424-24.497-15.076c-3.644-5.338-5.569-11.371-6.27-17.723c-0.634-5.73-1.093-11.507-1.16-17.27
	c-0.202-17.562-0.276-35.125-0.197-52.688c0.039-8.519,0.398-17.043,0.862-25.553c0.353-6.479,1.794-12.776,4.87-18.558
	c4.61-8.67,11.785-14.226,21.162-17.027c5.696-1.702,11.551-2.409,17.447-2.477c20.427-0.233,40.857-0.386,61.286-0.424
	c7.226-0.014,14.453,0.296,21.673,0.625c7.353,0.335,14.562,1.549,21.164,5.012c8.775,4.604,14.389,11.839,17.193,21.308
	c1.428,4.814,2.177,9.749,2.311,14.745c0.381,14.176,0.646,28.354,0.959,42.533C226.716,141.629,226.562,141.63,226.408,141.632z
	 M142.291,88.893c-29.104-0.027-52.782,23.552-52.853,52.631c-0.072,29.22,23.562,52.952,52.751,52.974
	c29.158,0.02,52.828-23.608,52.85-52.758C195.062,112.57,171.457,88.92,142.291,88.893z M209.453,86.819
	c0.018-6.838-5.408-12.314-12.221-12.332c-6.854-0.018-12.312,5.366-12.357,12.192c-0.045,6.903,5.381,12.377,12.274,12.383
	C203.994,99.069,209.435,93.655,209.453,86.819z"/>
<path fill="#A99C7F" d="M142.228,107.396c18.952-0.019,34.447,15.481,34.336,34.343c-0.113,19.007-15.342,34.214-34.305,34.261
	c-18.944,0.045-34.32-15.355-34.292-34.348C107.997,122.688,123.271,107.414,142.228,107.396z"/>
</svg>
