<?xml version="1.0" encoding="utf-8"?>
<!-- Generator: Adobe Illustrator 16.0.0, SVG Export Plug-In . SVG Version: 6.00 Build 0)  -->
<!DOCTYPE svg PUBLIC "-//W3C//DTD SVG 1.1//EN" "http://www.w3.org/Graphics/SVG/1.1/DTD/svg11.dtd">
<svg version="1.1" id="Calque_1" xmlns="http://www.w3.org/2000/svg" xmlns:xlink="http://www.w3.org/1999/xlink" x="0px" y="0px"
	 width="283.46px" height="283.46px" viewBox="0 0 283.46 283.46" enable-background="new 0 0 283.46 283.46" xml:space="preserve">
<path fill-rule="evenodd" clip-rule="evenodd" fill="#A99C7F" d="M1.361,140.755c0-12.341-0.146-24.683,0.042-37.021
	c0.186-12.223,0.247-24.476,2.205-36.589c2.509-15.528,8.179-29.619,18.972-41.397c9.75-10.64,21.685-17.542,35.504-21.389
	c8.826-2.457,17.853-3.51,26.966-3.882c32.212-1.315,64.439-0.749,96.659-0.58c11.466,0.06,22.957,0.352,34.326,2.171
	c21.611,3.459,39.497,13.177,52.191,31.421c6.671,9.588,10.391,20.379,12.497,31.789c1.551,8.402,2.115,16.908,2.177,25.411
	c0.22,30.498,0.357,60.998,0.257,91.496c-0.036,10.707-0.379,21.444-2.1,32.063c-2.797,17.267-9.473,32.577-22.269,44.926
	c-10.608,10.236-23.287,16.44-37.583,19.253c-7.054,1.388-14.279,2.312-21.458,2.57c-16.257,0.588-32.533,0.677-48.803,0.882
	c-10.02,0.127-20.041,0.183-30.061,0.107c-10.396-0.078-20.794-0.248-31.186-0.571c-9.203-0.286-18.39-0.878-27.397-3.033
	c-29.585-7.078-48.61-25.157-56.739-54.536c-2.325-8.402-3.313-17.033-3.524-25.716C1.574,179.01,1.31,159.884,0.965,140.76
	C1.097,140.758,1.229,140.756,1.361,140.755z M141.838,25.372c-0.001-0.17-0.002-0.34-0.003-0.511
	c-17.24,0.276-34.48,0.492-51.717,0.854c-8.898,0.187-17.758,0.874-26.355,3.464c-15.856,4.777-26.688,14.863-32.204,30.532
	c-2.582,7.334-3.671,14.964-3.954,22.683c-0.429,11.683-0.825,23.373-0.866,35.062c-0.078,21.77-0.032,43.541,0.255,65.309
	c0.114,8.657,0.763,17.328,1.617,25.949c0.787,7.943,3.129,15.545,7.309,22.416c8.461,13.91,21.385,21.008,37.114,22.989
	c9.594,1.209,19.317,1.828,28.988,1.901c32.596,0.247,65.2,0.839,97.788-0.497c6.737-0.276,13.425-1.078,19.942-2.912
	c16.344-4.602,27.634-14.694,33.324-30.816c2.569-7.281,3.669-14.854,3.959-22.518c0.441-11.683,0.845-23.373,0.886-35.062
	c0.077-21.931,0.021-43.864-0.268-65.792c-0.113-8.604-0.722-17.227-1.613-25.788c-0.908-8.712-3.565-16.987-8.533-24.322
	C239.118,35.928,227,29.649,212.547,27.296c-9.393-1.529-18.885-1.745-28.357-1.874C170.075,25.23,155.955,25.372,141.838,25.372z"
	/>
<path fill-rule="evenodd" clip-rule="evenodd" fill="#A99C7F" d="M214.776,140.817c-0.019,40.055-32.493,72.461-72.57,72.415
	c-39.97-0.047-72.342-32.492-72.327-72.493c0.015-40.044,32.534-72.488,72.574-72.407
	C182.477,68.412,214.795,100.803,214.776,140.817z M189.298,140.744c-0.032-26.035-20.989-46.956-47.006-46.923
	c-26.038,0.032-46.949,20.98-46.921,47.003c0.028,26.029,21.002,46.97,47.001,46.928C168.412,187.71,189.33,166.755,189.298,140.744
	z"/>
<path fill-rule="evenodd" clip-rule="evenodd" fill="#A99C7F" d="M217.612,82.375c-9.431-0.023-16.918-7.562-16.868-16.982
	c0.05-9.433,7.572-16.868,17.025-16.827c9.332,0.04,16.79,7.55,16.786,16.901C234.552,74.898,227.035,82.398,217.612,82.375z"/>
</svg>
