<?xml version="1.0" encoding="utf-8"?>
<!-- Generator: Adobe Illustrator 16.0.0, SVG Export Plug-In . SVG Version: 6.00 Build 0)  -->
<!DOCTYPE svg PUBLIC "-//W3C//DTD SVG 1.1//EN" "http://www.w3.org/Graphics/SVG/1.1/DTD/svg11.dtd">
<svg version="1.1" id="Layer_1" xmlns="http://www.w3.org/2000/svg" xmlns:xlink="http://www.w3.org/1999/xlink" x="0px" y="0px"
	 width="437.289px" height="491.729px" viewBox="0 0 437.289 491.729" enable-background="new 0 0 437.289 491.729"
	 xml:space="preserve">
<title>CSS3 Logo</title>
<polygon fill="none" points="143.874,292.043 139.307,264.82 88.639,264.82 93.957,330.865 218.645,379.115 218.645,320.588 "/>
<polygon fill="none" points="94.636,83.647 81.133,83.714 83.908,137.982 218.645,138.411 218.645,83.648 "/>
<path fill="#A99C7F" d="M3.71,0l38.965,440.119l174.854,48.886l175.335-48.953L431.868,0H3.71z M362.119,414.677l-143.474,39.772
	v-75.334L93.957,330.865l-5.317-66.045h50.668l4.566,27.224l74.771,28.545V138.411l-134.737-0.429l-2.775-54.268l13.504-0.067
	l124.009,0.001V36.537h177.228L362.119,414.677z"/>
<polygon fill="#CAC2AF" points="218.645,36.537 218.645,83.648 355.237,83.65 350.449,330.868 221.963,380.4 218.645,379.115 
	218.645,454.449 362.119,414.677 395.873,36.537 "/>
<polygon fill="#CAC2AF" points="301.805,291.038 304.287,138.684 218.645,138.411 218.645,320.588 222.183,321.939 "/>
</svg>
