<?xml version="1.0" encoding="utf-8"?>
<!-- Generator: Adobe Illustrator 16.0.0, SVG Export Plug-In . SVG Version: 6.00 Build 0)  -->
<!DOCTYPE svg PUBLIC "-//W3C//DTD SVG 1.1//EN" "http://www.w3.org/Graphics/SVG/1.1/DTD/svg11.dtd">
<svg version="1.1" id="Layer_1" xmlns="http://www.w3.org/2000/svg" xmlns:xlink="http://www.w3.org/1999/xlink" x="0px" y="0px"
	 width="283.46px" height="283.46px" viewBox="0 0 283.46 283.46" enable-background="new 0 0 283.46 283.46" xml:space="preserve">
<path fill="#A99C7F" d="M69.023,272.886c0,5.268-4.308,9.537-9.625,9.537H18.434c-5.315,0-9.623-4.271-9.623-9.537V102.711
	c0-5.269,4.308-9.537,9.623-9.537H59.4c5.316,0,9.624,4.269,9.624,9.537L69.023,272.886L69.023,272.886z M38.917,77.133
	C17.424,77.133,0,59.867,0,38.567C0,17.267,17.424,0,38.917,0c21.495,0,38.917,17.267,38.917,38.567
	C77.834,59.867,60.412,77.133,38.917,77.133z M283.106,273.654c0,4.844-3.96,8.77-8.847,8.77h-43.961
	c-4.887,0-8.846-3.926-8.846-8.77v-79.82c0-11.908,3.523-52.18-31.404-52.18c-27.09,0-32.586,27.565-33.69,39.934v92.066
	c0,4.844-3.96,8.77-8.849,8.77h-42.514c-4.887,0-8.848-3.926-8.848-8.77V101.942c0-4.842,3.961-8.769,8.848-8.769h42.514
	c4.888,0,8.849,3.926,8.849,8.769v14.848c10.046-14.939,24.978-26.471,56.763-26.471c70.391,0,69.988,65.167,69.988,100.974v82.361
	H283.106z"/>
</svg>
