<?xml version="1.0" encoding="utf-8"?>
<!-- Generator: Adobe Illustrator 16.0.0, SVG Export Plug-In . SVG Version: 6.00 Build 0)  -->
<!DOCTYPE svg PUBLIC "-//W3C//DTD SVG 1.1//EN" "http://www.w3.org/Graphics/SVG/1.1/DTD/svg11.dtd">
<svg version="1.1" id="Calque_1" xmlns="http://www.w3.org/2000/svg" xmlns:xlink="http://www.w3.org/1999/xlink" x="0px" y="0px"
	 width="283.46px" height="283.46px" viewBox="0 0 283.46 283.46" enable-background="new 0 0 283.46 283.46" xml:space="preserve">
<g>
	<path fill-rule="evenodd" clip-rule="evenodd" fill="#A99C7F" d="M22.173,249.284c1.524-1.424,2.535-2.426,3.604-3.357
		c19.495-17.028,38.969-34.079,58.516-51.042c4.343-3.77,6.767-8.194,5.441-14.049c-2.236-9.885-13.509-13.48-21.302-6.736
		c-16.802,14.544-33.505,29.208-50.25,43.82C12.279,223.07,6.371,228.217,0,233.768C0,175.916,0,118.652,0,61.39
		c0.314-0.362,0.629-0.724,0.944-1.085c0.632,1.139,1.08,2.447,1.921,3.393c32.801,36.815,65.86,73.394,98.364,110.479
		c13.878,15.835,30.844,20.496,50.534,17.62c10.789-1.575,20.106-6.274,27.616-14.719c33.577-37.762,67.29-75.399,100.958-113.078
		c0.884-0.988,1.796-1.946,3.123-3.383c0,57.881,0,115.145,0,173.166c-2.209-1.913-4.098-3.537-5.977-5.176
		c-20.721-18.093-41.442-36.186-62.16-54.284c-4.517-3.944-9.481-4.992-14.925-2.247c-4.733,2.385-7.487,7.53-6.991,12.843
		c0.392,4.221,2.643,7.284,5.74,9.977c19.637,17.065,39.222,34.195,58.816,51.313c0.968,0.845,1.868,1.769,3.241,3.075
		C181.317,249.284,102.1,249.284,22.173,249.284z"/>
	<path fill-rule="evenodd" clip-rule="evenodd" fill="#A99C7F" d="M14.626,35.505c84.895,0,169.229,0,253.983,0
		c-0.478,0.724-0.745,1.285-1.149,1.722c-35.819,38.492-71.641,76.981-107.482,115.45c-6.885,7.388-15.516,10.046-25.147,6.964
		c-4.303-1.375-8.595-4.251-11.69-7.53c-29.073-30.813-57.89-61.858-86.767-92.847c-6.326-6.788-12.603-13.618-18.893-20.439
		C16.608,37.876,15.799,36.871,14.626,35.505z"/>
</g>
</svg>
