<?xml version="1.0" encoding="utf-8"?>
<!-- Generator: Adobe Illustrator 16.0.0, SVG Export Plug-In . SVG Version: 6.00 Build 0)  -->
<!DOCTYPE svg PUBLIC "-//W3C//DTD SVG 1.1//EN" "http://www.w3.org/Graphics/SVG/1.1/DTD/svg11.dtd">
<svg version="1.1" id="Calque_1" xmlns="http://www.w3.org/2000/svg" xmlns:xlink="http://www.w3.org/1999/xlink" x="0px" y="0px"
	 width="283.46px" height="283.46px" viewBox="0 0 283.46 283.46" enable-background="new 0 0 283.46 283.46" xml:space="preserve">
<g id="Calque_1_1_" display="none">
	
		<radialGradient id="SVGID_1_" cx="963.0776" cy="-1131.0005" r="141.7185" gradientTransform="matrix(1 0 0 -1 -821.3477 -989.2705)" gradientUnits="userSpaceOnUse">
		<stop  offset="0" style="stop-color:#ECE7D8"/>
		<stop  offset="0.1619" style="stop-color:#E9E4D3"/>
		<stop  offset="0.3544" style="stop-color:#E2DBC5"/>
		<stop  offset="0.5625" style="stop-color:#D6CBAD"/>
		<stop  offset="0.7812" style="stop-color:#C5B68B"/>
		<stop  offset="1" style="stop-color:#B09C62"/>
	</radialGradient>
	<path display="inline" fill="url(#SVGID_1_)" d="M0.022,283.46c0-94.486,0-188.978,0-283.46c94.472,0,188.942,0,283.415,0
		c0,94.487,0,188.974,0,283.46C188.964,283.46,94.494,283.46,0.022,283.46z M92.523,158.867c0.513-0.076,0.816-0.146,1.121-0.158
		c1.808-0.064,3.615-0.138,5.423-0.176c3.62-0.08,7.218-0.384,10.8-0.938c9.894-1.531,18.381-5.844,25.386-13.151
		c2.608-2.722,4.718-5.782,6.298-9.223c2.158-4.7,3.212-9.671,3.613-14.826c0.4-5.167-0.022-10.238-1.479-15.2
		c-1.946-6.642-5.322-12.362-10.704-16.736c-3.995-3.247-8.545-5.356-13.438-6.761c-5.913-1.699-11.969-2.307-18.079-2.267
		c-10.46,0.069-20.918,0.267-31.376,0.419c-0.423,0.006-0.845,0.098-1.349,0.161c-0.024,0.498-0.062,0.931-0.063,1.363
		c-0.002,1.401,0.013,2.802,0.012,4.203c-0.014,36.025-0.03,72.051-0.044,108.076c0,0.562,0.009,1.122,0.028,1.683
		c0.014,0.418,0.224,0.668,0.652,0.693c0.235,0.014,0.471,0.028,0.707,0.028c7.039,0,14.077,0.001,21.116-0.009
		c0.416,0,0.832-0.078,1.377-0.133C92.523,183.535,92.523,171.264,92.523,158.867z M210.223,131.255
		c0.043-0.549,0.098-0.93,0.101-1.312c0.008-5.604-0.009-11.208,0.03-16.812c0.006-0.922-0.267-1.434-1.112-1.841
		c-5.625-2.705-11.466-4.601-17.699-5.14c-6.467-0.56-12.799,0.064-18.939,2.251c-5.062,1.802-9.502,4.605-13.047,8.755
		c-4.229,4.954-6.225,10.777-6.291,17.297c-0.059,5.093,1.66,9.47,5.254,13.064c1.75,1.753,3.711,3.214,5.812,4.49
		c3.797,2.312,7.866,4,12.021,5.515c1.519,0.554,3.032,1.108,4.51,1.769c2.209,0.986,4.259,2.254,5.942,4.045
		c1.98,2.104,2.947,4.6,2.767,7.524c-0.12,1.96-0.942,3.525-2.521,4.668c-1.071,0.781-2.293,1.231-3.565,1.515
		c-3.112,0.69-6.25,0.668-9.377,0.127c-6.524-1.127-12.688-3.352-18.547-6.473c-0.295-0.156-0.604-0.273-1.047-0.471
		c-0.044,0.52-0.099,0.863-0.099,1.21c-0.002,5.563,0.021,11.129-0.014,16.692c-0.006,0.938,0.314,1.441,1.127,1.854
		c3.951,2.018,8.037,3.655,12.303,4.838c3.041,0.846,6.123,1.479,9.273,1.653c3.264,0.181,6.521,0.146,9.773-0.229
		c4.846-0.562,9.516-1.752,13.856-4.062c6.111-3.249,10.531-8.047,12.769-14.759c1.608-4.842,1.869-9.788,0.854-14.805
		c-0.957-4.732-3.153-8.754-6.594-12.084c-1.748-1.695-3.688-3.121-5.757-4.369c-2.987-1.806-6.182-3.146-9.422-4.396
		c-2.976-1.148-5.935-2.342-8.851-3.636c-1.138-0.504-2.2-1.25-3.185-2.034c-3.404-2.716-2.492-7.701,0.459-9.702
		c1.133-0.768,2.367-1.256,3.691-1.514c2.737-0.533,5.479-0.418,8.201,0.123c5.596,1.111,10.88,3.135,16.005,5.63
		C209.296,130.828,209.68,131.001,210.223,131.255z"/>
</g>
<g id="Calque_2">
	
		<linearGradient id="SVGID_2_" gradientUnits="userSpaceOnUse" x1="634.5386" y1="-480.2705" x2="634.5386" y2="-763.7314" gradientTransform="matrix(1 0 0 -1 -492.8086 -480.2705)">
		<stop  offset="0" style="stop-color:#CAC2AF;stop-opacity:0"/>
		<stop  offset="0.0903" style="stop-color:#C3B9A4;stop-opacity:0.2"/>
		<stop  offset="0.1762" style="stop-color:#B7AC93;stop-opacity:0.5"/>
		<stop  offset="0.2832" style="stop-color:#AFA388;stop-opacity:0.8"/>
		<stop  offset="0.4333" style="stop-color:#AA9D81;stop-opacity:0.9"/>
		<stop  offset="0.7339" style="stop-color:#A99C7F"/>
	</linearGradient>
	<path fill="url(#SVGID_2_)" d="M0,283.46C0,156.558,0,126.902,0,0c129.161,0,154.303,0,283.46,0c0,129.124,0,156.317,0,283.46
		C154.303,283.46,129.161,283.46,0,283.46z M46.446,57.233c-0.044,0.764-0.108,1.345-0.107,1.925
		c0.006,2.635,0.046,5.269,0.044,7.904c-0.021,47.802-0.046,95.604-0.068,143.407c-0.001,2.606,0.015,2.624,2.584,2.625
		c9.087,0.003,18.175-0.001,27.262-0.005c2.805-0.002,2.81-0.008,2.808-2.881c-0.01-14.355-0.024-28.713-0.034-43.069
		c-0.001-0.968,0.022-1.937,0.015-2.903c-0.005-0.861,0.407-1.283,1.266-1.311c1.934-0.062,3.868-0.166,5.802-0.195
		c5.651-0.086,11.279-0.438,16.865-1.335c11.176-1.796,21.237-6.039,29.929-13.416c6.129-5.203,11.152-11.223,14.072-18.774
		c4.568-11.808,5.621-23.94,2.492-36.252c-4.039-15.89-13.884-26.62-29.359-32.128c-7.514-2.674-15.306-4.129-23.235-4.165
		c-16.128-0.074-32.258,0.214-48.388,0.363C47.814,57.028,47.235,57.145,46.446,57.233z M163.647,178.314
		c-0.048,0.989-0.106,1.616-0.104,2.244c0.002,7.097,0.063,14.193-0.012,21.289c-0.018,1.688,0.545,2.615,2.059,3.363
		c13.312,6.576,27.222,9.914,42.141,8.16c6.129-0.725,12.076-2.086,17.673-4.744c8.001-3.801,14.198-9.465,17.802-17.674
		c2.939-6.718,3.764-13.73,2.648-20.986c-1.146-7.471-4.471-13.777-10.163-18.729c-2.183-1.896-4.585-3.562-7.03-5.104
		c-4.02-2.527-8.426-4.272-12.861-5.929c-3.625-1.352-7.269-2.686-10.795-4.258c-2.039-0.909-4.021-2.093-5.775-3.473
		c-4.627-3.633-3.32-10.341,0.789-12.999c1.467-0.949,3.054-1.573,4.75-1.935c3.852-0.82,7.697-0.618,11.527,0.139
		c7.592,1.499,14.771,4.194,21.729,7.519c0.521,0.247,1.042,0.476,1.793,0.817c0.063-0.753,0.146-1.263,0.146-1.772
		c0.024-7.473,0.011-14.946,0.08-22.418c0.018-1.395-0.513-2.087-1.739-2.678c-12.396-5.95-25.351-8.371-39.028-6.41
		c-6.883,0.986-13.438,2.981-19.393,6.649c-11.141,6.87-17.315,16.767-17.868,29.954c-0.304,7.18,1.962,13.425,7.139,18.535
		c2.701,2.664,5.771,4.817,9.056,6.688c4.729,2.696,9.767,4.717,14.862,6.604c3.021,1.115,6.005,2.353,8.929,3.699
		c2.252,1.041,4.229,2.557,5.94,4.374c2.604,2.761,3.896,6.007,3.692,9.819c-0.146,2.82-1.307,5.141-3.737,6.582
		c-1.41,0.835-3.003,1.479-4.599,1.861c-4.291,1.037-8.646,0.932-12.975,0.188c-8.761-1.504-17.041-4.437-24.921-8.521
		C164.937,178.928,164.46,178.708,163.647,178.314z"/>
	
		<linearGradient id="SVGID_3_" gradientUnits="userSpaceOnUse" x1="591.5044" y1="-561.377" x2="591.5044" y2="-615.6226" gradientTransform="matrix(1 0 0 -1 -492.8086 -480.2705)">
		<stop  offset="0" style="stop-color:#CAC2AF;stop-opacity:0.9"/>
		<stop  offset="0.3678" style="stop-color:#AB9F83;stop-opacity:0.95"/>
		<stop  offset="1" style="stop-color:#A99C7F"/>
	</linearGradient>
	<path fill="url(#SVGID_3_)" d="M78.892,108.166c0-8.222-0.002-16.443,0.001-24.665c0.001-2.309,0.04-2.41,2.313-2.393
		c4.457,0.033,8.923-0.003,13.369,0.265c12.312,0.744,21.542,9.253,23.482,21.443c0.693,4.355,0.604,8.686-0.489,12.956
		c-2.554,9.973-9.091,15.965-18.921,18.424c-2.635,0.659-5.404,0.902-8.127,1.053c-3.214,0.178-6.446,0.079-9.669,0.041
		c-1.785-0.021-1.917-0.183-1.919-1.976c-0.011-8.383-0.005-16.766-0.005-25.148C78.915,108.166,78.903,108.166,78.892,108.166z"/>
</g>
</svg>
