<?xml version="1.0" encoding="utf-8"?>
<!-- Generator: Adobe Illustrator 16.0.0, SVG Export Plug-In . SVG Version: 6.00 Build 0)  -->
<!DOCTYPE svg PUBLIC "-//W3C//DTD SVG 1.1//EN" "http://www.w3.org/Graphics/SVG/1.1/DTD/svg11.dtd">
<svg version="1.1" id="Calque_1" xmlns="http://www.w3.org/2000/svg" xmlns:xlink="http://www.w3.org/1999/xlink" x="0px" y="0px"
	 width="283.46px" height="283.46px" viewBox="0 0 283.46 283.46" enable-background="new 0 0 283.46 283.46" xml:space="preserve">
<path fill-rule="evenodd" clip-rule="evenodd" fill="#A99C7F" d="M142.115,68.449c30.516,0.472,60.216,4.927,88.459,16.94
	c14.586,6.204,28.099,14.153,38.666,26.277c17.474,20.046,17.068,43.429-1.101,62.91c-12.476,13.374-28.186,21.691-45.057,28.004
	c-20.567,7.694-41.921,11.647-63.801,13.001c-31.051,1.921-61.569-0.85-91.263-10.5c-18.094-5.881-35.041-13.991-49.024-27.272
	c-8.095-7.687-14.278-16.634-16.346-27.863c-2.572-13.972,1.871-26.021,10.684-36.683c10.749-13,24.827-21.333,40.06-27.884
	c20.007-8.603,41.005-13.33,62.641-15.263C124.708,69.341,133.42,68.992,142.115,68.449z M169.85,184.009
	c4.854,0,9.296-0.139,13.724,0.055c2.406,0.105,3.153-0.967,3.509-3.067c0.693-4.093,1.837-8.128,2.272-12.241
	c0.368-3.479,1.786-4.432,5.212-4.386c6.47,0.087,13.049,0.212,19.403-0.803c15.46-2.473,26.346-15.888,26.704-32.003
	c0.246-11.123-5.434-18.57-16.278-21.014c-2.844-0.641-5.815-0.937-8.733-0.977c-8.922-0.124-17.847-0.046-26.77-0.045
	c-4.704,0-4.68,0.007-5.565,4.584c-3.407,17.599-6.838,35.194-10.245,52.793C172.01,172.441,170.985,177.988,169.85,184.009z
	 M44.23,183.987c5.421,0,10.174,0.086,14.916-0.095c0.699-0.026,1.768-1.224,1.954-2.042c1.125-4.938,2.124-9.91,2.99-14.902
	c0.329-1.897,1.19-2.524,3.041-2.502c4.868,0.058,9.743,0.097,14.607-0.08c8.881-0.321,16.927-2.721,23.382-9.341
	c6.263-6.423,9.258-14.061,9.807-22.933c0.655-10.588-4.824-18.688-15.085-21.286c-3.114-0.789-6.401-1.169-9.618-1.223
	c-9.331-0.159-18.668,0.048-28-0.122c-2.785-0.05-3.872,0.848-4.386,3.576c-3.506,18.622-7.174,37.213-10.774,55.816
	C46.125,173.707,45.243,178.57,44.23,183.987z M111.193,164.468c4.87,0,9.109-0.111,13.339,0.044
	c2.404,0.088,3.313-0.786,3.753-3.165c2.263-12.257,4.69-24.485,7.165-36.701c0.2-0.983,1.19-2.583,1.81-2.582
	c5.46,0.013,10.935,0.166,16.375,0.626c2.19,0.185,3.565,1.869,3.544,4.265c-0.015,1.518,0.03,3.066-0.244,4.546
	c-1.221,6.576-2.561,13.13-3.827,19.697c-0.82,4.247-1.59,8.504-2.478,13.27c4.922,0,9.355-0.089,13.783,0.039
	c2.095,0.061,3.059-0.578,3.461-2.748c2.038-10.96,4.423-21.857,6.313-32.84c1.998-11.617-2.671-17.678-14.391-18.783
	c-5.839-0.55-11.74-0.424-17.612-0.612c-1.164-0.038-2.325-0.113-3.767-0.184c1.229-6.562,2.378-12.7,3.625-19.353
	c-4.5,0-8.645,0.23-12.751-0.076c-3.044-0.228-3.979,1.007-4.498,3.76c-3.305,17.524-6.767,35.02-10.158,52.53
	C113.504,152.046,112.429,157.901,111.193,164.468z"/>
<path fill-rule="evenodd" clip-rule="evenodd" fill="#A99C7F" d="M192.7,152.046c1.296-6.802,2.517-13.236,3.75-19.668
	c0.533-2.78,0.979-5.585,1.71-8.313c0.225-0.839,1.259-2.084,1.921-2.084c5.247,0,10.541-0.123,15.726,0.538
	c5.364,0.685,7.862,3.677,7.396,8.952c-0.367,4.151-1.378,8.413-2.997,12.249c-2.479,5.877-7.973,7.814-13.863,8.261
	C201.944,152.312,197.499,152.046,192.7,152.046z"/>
<path fill-rule="evenodd" clip-rule="evenodd" fill="#A99C7F" d="M67.086,151.78c0.645-3.31,1.263-6.462,1.873-9.615
	c1.155-5.966,2.239-11.947,3.528-17.884c0.197-0.907,1.334-2.299,2.035-2.298c5.356,0.004,10.761-0.072,16.055,0.613
	c4.913,0.635,6.939,3.491,6.924,8.45c-0.007,2.21-0.234,4.462-0.704,6.621c-1.952,8.966-6.076,12.977-15.121,14.174
	c-3.993,0.527-8.096,0.24-12.149,0.284C68.847,152.131,68.164,151.938,67.086,151.78z"/>
</svg>
