<?xml version="1.0" encoding="utf-8"?>
<!-- Generator: Adobe Illustrator 16.0.0, SVG Export Plug-In . SVG Version: 6.00 Build 0)  -->
<!DOCTYPE svg PUBLIC "-//W3C//DTD SVG 1.1//EN" "http://www.w3.org/Graphics/SVG/1.1/DTD/svg11.dtd">
<svg version="1.1" id="Calque_1" xmlns="http://www.w3.org/2000/svg" xmlns:xlink="http://www.w3.org/1999/xlink" x="0px" y="0px"
	 width="283.46px" height="283.46px" viewBox="0 0 283.46 283.46" enable-background="new 0 0 283.46 283.46" xml:space="preserve">
<path fill="#A99C7F" d="M275.478,177.018c-2.096,7.526-7.706,12.075-13.771,16.228c-8.691,5.948-18.429,8.983-28.82,9.905
	c-4.627,0.41-9.305,0.267-13.959,0.377c-0.109,0.003-0.219,0.041-0.516,0.101c-0.156,2.041-0.387,4.117-0.463,6.199
	c-0.294,8.063-0.851,16.104-2.111,24.08c-1.354,8.559-3.387,16.916-7.332,24.706c-5.31,10.485-13.557,17.554-24.729,21.16
	c-6.303,2.035-12.706,3.597-19.387,3.749c-12.948,0.297-23.53-6.271-28.836-18.089c-3.832-8.532-6.313-17.448-6.894-26.812
	c-0.546-8.812-0.924-17.631-1.377-26.446c-0.014-0.267-0.027-0.531-0.043-0.855c-1.935,0.647-3.81,1.362-5.733,1.905
	c-8.076,2.275-16.219,2.197-24.403,0.621c-4.615-0.889-9.049-2.27-12.98-4.902c-1.765-1.182-3.355-2.623-5.104-4.009
	c-1.071,0.735-2.284,1.653-3.575,2.442c-9.107,5.57-19.718,4.93-28.216-1.555c-6.14-4.686-10.618-10.727-14.458-17.304
	c-6.325-10.836-10.878-22.449-14.834-34.31c-6.825-20.46-11.9-41.361-15.637-62.6c-1.982-11.267-2.357-22.567-0.92-33.906
	c1.336-10.54,4.337-20.538,10.289-29.473c7.275-10.924,17.431-17.904,29.917-21.631c9.456-2.822,19.136-3.439,28.932-2.884
	c12.899,0.731,25.383,3.539,37.651,7.465c0.526,0.168,1.294,0.06,1.786-0.214c8.797-4.914,18.258-7.483,28.282-8.066
	c8.7-0.506,17.334,0.154,25.926,1.536c0.584,0.093,1.235,0.062,1.803-0.099c8.932-2.529,18.023-4.053,27.299-4.483
	c0.338-0.016,0.672-0.109,1.008-0.167c3.135,0,6.27,0,9.404,0c0.371,0.066,0.74,0.153,1.113,0.196
	c4.019,0.465,8.07,0.727,12.051,1.416c18.373,3.183,33.996,11.505,46.639,25.295c3.745,4.085,7.029,8.428,8.666,13.858
	c1.809,6.001,2.312,12.136,2.195,18.35c-0.221,11.679-2.295,23.089-5.221,34.351c-6.261,24.088-15.877,46.792-28.41,68.277
	c-0.225,0.385-0.438,0.774-0.733,1.303c0.506,0,0.841,0.032,1.167-0.005c2.807-0.32,5.617-0.613,8.417-0.995
	c3.476-0.473,6.928-1.294,10.415-1.476c5.938-0.311,10.87,1.795,14.006,7.14c0.626,1.067,1.006,2.279,1.499,3.425
	C275.478,172.888,275.478,174.953,275.478,177.018z M226.946,167.873c0.347-0.547,0.646-0.981,0.909-1.438
	c4.311-7.474,8.932-14.788,12.863-22.456c11.703-22.82,20.478-46.677,24.296-72.167c1.175-7.843,1.729-15.73,0.598-23.641
	c-0.635-4.432-1.772-8.716-4.602-12.304c-13.433-17.042-31.247-25.941-52.624-28.143c-6.521-0.671-13.051-0.62-19.576-0.015
	c-8.126,0.754-16.098,2.266-23.859,4.821c-0.441,0.146-0.979,0.199-1.428,0.096c-8.547-1.967-17.188-2.805-25.946-2.144
	c-9.568,0.722-18.513,3.395-26.62,8.655c-0.426,0.276-1.169,0.394-1.638,0.228c-10.875-3.857-22.019-6.558-33.493-7.822
	c-9.282-1.023-18.54-1.006-27.713,1.014c-17.245,3.797-29.259,13.713-35.448,30.401c-2.532,6.826-3.856,13.924-4.152,21.165
	c-0.219,5.373-0.458,10.826,0.195,16.136c1.069,8.703,2.61,17.369,4.39,25.96c3.854,18.595,8.891,36.876,15.558,54.678
	c3.663,9.779,7.87,19.309,13.758,27.996c2.781,4.104,5.968,7.846,10.1,10.688c6.364,4.381,13.545,4.418,19.731-0.207
	c2.302-1.722,4.354-3.838,6.282-5.987c6.993-7.796,13.89-15.677,20.804-23.544c0.493-0.561,0.86-0.605,1.531-0.266
	c2.941,1.488,6.019,2.625,9.288,3.154c1.832,0.297,3.676,0.516,5.625,0.784c-0.156,0.284-0.261,0.562-0.437,0.78
	c-1.335,1.674-2.688,3.332-4.03,5c-1.402,1.742-3.133,3.067-5.283,3.674c-3.522,0.992-7.075,1.88-10.628,2.76
	c-3.271,0.811-6.53,1.625-9.273,3.732c-3.203,2.463-3.779,6.682-1.074,9.67c1.302,1.439,2.964,2.658,4.669,3.607
	c4.564,2.544,9.646,3.34,14.766,3.745c10.575,0.838,20.16-1.677,28.352-8.685c0.156-0.133,0.345-0.227,0.653-0.426
	c0,0.504,0,0.838,0,1.174c-0.036,14.795,0.184,29.578,1.564,44.33c0.677,7.229,2.451,14.035,6.372,20.219
	c5.402,8.52,13.125,12.854,23.199,13.012c6.119,0.096,11.979-1.29,17.726-3.209c5.765-1.924,10.994-4.751,15.12-9.359
	c3.683-4.111,6.045-8.943,7.279-14.238c1.211-5.196,2.139-10.475,2.889-15.758c1.396-9.832,2.583-19.692,3.836-29.545
	c0.419-3.293,0.773-6.594,1.148-9.822c2.033,0.334,3.977,0.75,5.939,0.953c4.968,0.512,9.916,0.182,14.866-0.414
	c9.685-1.164,18.532-4.396,26.312-10.366c2.682-2.058,5.236-4.251,6.856-7.294c1.144-2.148,1.413-4.369,0.017-6.525
	c-1.337-2.062-3.438-2.832-5.734-2.738c-2.428,0.098-4.856,0.467-7.258,0.879c-6.3,1.08-12.598,2.076-19.022,1.468
	C231.966,169.888,229.386,169.427,226.946,167.873z"/>
<path fill="#A99C7F" d="M218.598,73.451c-0.72,0-1.276,0.038-1.827-0.006c-5.314-0.424-10.587-0.305-15.811,0.959
	c-8.633,2.09-14.379,8.229-15.645,16.979c-0.842,5.814,0.131,11.486,1.676,17.075c2.73,9.882,7.16,19.046,11.94,28.061
	c3.2,6.035,6.188,12.188,9.601,18.102c2.184,3.785,4.961,7.229,7.475,10.824c0.281,0.402,0.587,0.79,0.975,1.311
	c-0.412,0.17-0.734,0.326-1.074,0.439c-6.82,2.27-10.087,7.471-10.429,14.135c-0.41,8.01-1.304,15.961-2.286,23.908
	c-0.855,6.924-1.631,13.858-2.604,20.766c-1.016,7.203-1.742,14.461-3.642,21.515c-1.993,7.405-6.106,13.103-13.308,16.224
	c-1.885,0.817-3.823,1.545-5.791,2.133c-4.174,1.244-8.408,2.164-12.809,2.18c-7.746,0.027-13.418-3.408-17.299-10.042
	c-2.717-4.64-4.039-9.661-4.574-14.97c-1.695-16.834-1.648-33.722-1.571-50.609c0.015-3.057,0.192-6.112,0.209-9.17
	c0.044-8.18-5.812-15.076-13.855-16.307c-1.036-0.16-2.117-0.021-3.344-0.021c0.089-0.438,0.121-0.956,0.298-1.418
	c2.339-6.084,4.568-12.214,7.088-18.223c2.64-6.293,4.777-12.701,5.616-19.492c0.676-5.475,0.707-10.964,0.33-16.468
	c-0.469-6.826-1.509-13.563-3.044-20.219c-1.221-5.296-3.734-9.835-8.35-12.975c-3.24-2.204-6.87-3.29-10.749-3.498
	c-9.289-0.5-17.744,2.385-25.885,6.492c-0.271,0.136-0.542,0.271-0.82,0.392c-0.059,0.026-0.146-0.011-0.39-0.037
	c0.272-2.304,0.478-4.615,0.827-6.905c1.28-8.393,3.252-16.603,6.636-24.427c3.741-8.65,8.815-16.323,16.332-22.189
	c5.929-4.628,12.623-7.671,20.049-8.688c26.168-3.581,48.446,4.338,66.776,23.26c8.168,8.433,14.329,18.229,18.65,29.163
	C218.177,72.222,218.35,72.755,218.598,73.451z"/>
<path fill="#A99C7F" d="M102.62,25.64c-1.577,1.815-3.122,3.458-4.516,5.219c-6.722,8.492-10.933,18.208-13.77,28.576
	c-1.927,7.042-3.073,14.214-3.739,21.485c-0.539,5.884-0.262,11.737-0.048,17.62c0.228,6.252,0.156,12.529-0.104,18.783
	c-0.217,5.252-1.261,10.483-1.29,15.727c-0.066,12.075,4.302,22.417,13.144,30.766c0.249,0.235,0.517,0.45,0.822,0.717
	c-0.223,0.313-0.373,0.571-0.565,0.791c-7.067,8.035-14.128,16.074-21.22,24.088c-0.933,1.055-1.956,2.053-3.048,2.938
	c-3.91,3.173-7.778,3.207-11.802,0.183c-3.67-2.759-6.337-6.39-8.76-10.212c-4.888-7.713-8.454-16.065-11.655-24.577
	c-6.402-17.017-11.103-34.528-14.905-52.285c-1.451-6.777-2.7-13.602-3.858-20.436c-1.159-6.842-1.232-13.752-0.771-20.672
	c0.443-6.656,1.584-13.168,3.985-19.414c5.064-13.17,14.696-21.06,28.288-24.292c7.232-1.719,14.573-1.934,21.962-1.443
	c10.677,0.71,21.037,2.976,31.207,6.216C102.151,25.473,102.324,25.537,102.62,25.64z"/>
<path fill="#A99C7F" d="M222.248,159.969c-1.051-0.722-1.107-1.438-0.488-2.519c3.259-5.688,4.91-11.853,5.422-18.382
	c0.47-5.986-0.199-11.889-0.903-17.802c-0.69-5.803-1.409-11.618-0.926-17.467c0.313-3.794,1.008-7.555,1.435-11.341
	c0.412-3.673,0.66-7.365,1.051-11.042c0.644-6.081-1.539-11.509-3.985-16.817c-7.679-16.666-18.739-30.56-34.151-40.733
	c-3.363-2.221-7.039-3.971-10.574-5.936c-0.258-0.144-0.527-0.272-1.066-0.549c1.794-0.319,3.307-0.621,4.83-0.854
	c6.546-0.998,13.135-1.455,19.746-1.146c18.773,0.877,35.265,7.071,48.318,21.082c1.301,1.396,2.537,2.861,3.699,4.375
	c2.053,2.67,2.682,5.875,3.073,9.103c1.001,8.228,0.192,16.388-1.271,24.484c-5.49,30.396-17.326,58.298-33.396,84.521
	c-0.179,0.292-0.376,0.573-0.573,0.854C222.447,159.856,222.369,159.886,222.248,159.969z"/>
<path fill="#A99C7F" d="M129.987,118.879c0.278,8.851-2.307,17.952-6.207,26.847c-2.658,6.062-4.75,12.377-7.019,18.605
	c-0.292,0.803-0.645,0.972-1.384,0.938c-6.218-0.282-11.666-2.549-16.405-6.502c-6.748-5.628-10.549-12.949-11.424-21.607
	c-0.376-3.716,0.167-7.534,0.404-11.299c0.191-3.044,0.731-6.074,0.794-9.117c0.128-6.147,0.065-12.299,0.018-18.449
	c-0.014-1.867-0.193-3.737-0.385-5.597c-0.082-0.788,0.268-1.194,0.836-1.587c4.18-2.891,8.743-4.976,13.576-6.507
	c3.771-1.195,7.604-1.954,11.583-1.836c6.871,0.204,10.959,3.351,12.5,10.024C128.785,101.057,130.058,109.422,129.987,118.879z
	 M113.423,86.926c-0.568,0.128-1.68,0.263-2.705,0.637c-1.891,0.69-2.534,2.363-1.61,4.159c1.371,2.666,3.521,4.368,6.513,4.911
	c2.754,0.5,6.275-1.195,7.605-3.649c0.684-1.261,0.583-2.333-0.415-3.344c-0.45-0.456-0.983-0.866-1.55-1.162
	C118.976,87.285,116.508,86.89,113.423,86.926z"/>
<path fill="#A99C7F" d="M215.841,150.97c-0.17-0.229-0.276-0.34-0.346-0.471c-3.985-7.603-8.041-15.167-11.931-22.818
	c-3.755-7.383-7.151-14.931-9.104-23.03c-1.041-4.318-1.762-8.665-0.851-13.13c0.824-4.034,3.075-6.949,6.929-8.287
	c2.562-0.889,5.301-1.54,7.996-1.714c3.633-0.234,7.301,0.093,11.11,0.183c-0.09,1.669-0.076,3.073-0.256,4.452
	c-0.606,4.646-1.345,9.277-1.912,13.928c-0.548,4.479-0.64,8.972-0.207,13.481c0.694,7.248,1.496,14.494,1.851,21.761
	c0.237,4.89-0.688,9.725-2.617,14.297c-0.118,0.281-0.229,0.566-0.354,0.844C216.085,150.602,215.994,150.724,215.841,150.97z
	 M207.246,84.773c-2.511,0.228-4.899,0.644-6.998,2.041c-1.707,1.137-1.863,2.505-0.485,4.014
	c4.079,4.471,10.053,2.679,12.433-2.169c0.688-1.402,0.186-2.619-1.296-3.112C209.725,85.156,208.466,85.021,207.246,84.773z"/>
<path fill="#A99C7F" d="M92.604,194.819c1.896-0.483,3.797-0.952,5.688-1.455c3.569-0.948,7.171-1.797,10.688-2.911
	c3.623-1.15,6.516-3.447,8.884-6.418c1.667-2.094,3.381-4.147,5.082-6.214c0.315-0.383,0.654-0.749,1.006-1.099
	c1.838-1.828,2.855-2.018,5.21-0.985c2.912,1.275,5.09,5.696,4.261,8.732c-0.157,0.573-0.432,1.149-0.779,1.633
	c-4.771,6.633-11.085,10.89-19.233,12.089c-6.251,0.921-12.408,0.286-18.385-1.809c-0.842-0.295-1.617-0.781-2.424-1.18
	C92.603,195.076,92.604,194.947,92.604,194.819z"/>
<path fill="#A99C7F" d="M256.492,176.677c-0.968,0.732-1.918,1.488-2.904,2.193c-6.162,4.392-13.041,6.951-20.543,7.705
	c-4.016,0.401-8.062,0.633-12.096,0.625c-2.134-0.004-4.267-0.673-6.396-1.064c-0.79-0.146-1.214-0.68-1.128-1.477
	c0.193-1.813,0.294-3.656,0.703-5.426c0.47-2.018,1.828-3.396,3.834-4.066c0.182-0.06,0.363-0.116,0.539-0.189
	c1.851-0.771,3.446-0.93,5.377,0.355c3.095,2.057,6.807,2.602,10.479,2.883c7.173,0.553,14.233-0.359,21.251-1.756
	c0.252-0.051,0.518-0.035,0.777-0.051C256.423,176.5,256.458,176.587,256.492,176.677z"/>
</svg>
