<?xml version="1.0" encoding="utf-8"?>
<!-- Generator: Adobe Illustrator 16.0.0, SVG Export Plug-In . SVG Version: 6.00 Build 0)  -->
<!DOCTYPE svg PUBLIC "-//W3C//DTD SVG 1.1//EN" "http://www.w3.org/Graphics/SVG/1.1/DTD/svg11.dtd">
<svg version="1.1" id="Calque_1" xmlns="http://www.w3.org/2000/svg" xmlns:xlink="http://www.w3.org/1999/xlink" x="0px" y="0px"
	 width="512px" height="512px" viewBox="0 0 512 512" enable-background="new 0 0 512 512" xml:space="preserve">
<path fill="#A99C7F" d="M256,0C114.615,0,0,114.615,0,256c0,141.387,114.615,256,256,256s256-114.613,256-256
	C512,114.615,397.385,0,256,0z M377.824,107.145l19.299,14.101l-3.5,5.3l-16.397-8.8L377.824,107.145z M321.428,90.045l2.397,15.302
	l-24.1,0.6l-3.5-17L321.428,90.045z M246.927,98.246l14.1,15.899l-19.397,11.2l-14.103-17L246.927,98.246z M181.226,148.845
	l20.5,13.5l-15.898,18.8l-21.102-14.102L181.226,148.845z M128.826,226.246l27,10.602l-8.199,22.898l-27.603-8.801L128.826,226.246z
	 M95.927,353.645l3.6-29.3l30.5,2.3l-5.3,30.5L95.927,353.645z M293.326,239.846l-4.699,19.398l-20-17l7.6-15.301L293.326,239.846z
	 M287.427,189.246l12.3-11.101l11.7,17.601l-7,12.3L287.427,189.246z M290.327,292.046l1.198,19.399l-24.698-10.6l1.198-20.5
	L290.327,292.046z M275.127,353.145L275.127,353.145l25.8,0.001l11.199,22.898l-31.102-1.8L275.127,353.145L275.127,353.145
	L275.127,353.145z M331.427,174.046l-7.603-14.101l16.5-4.099l2.302,9.398L331.427,174.046z M390.226,162.945l-15.9-1.8v-8.8
	l15.9,3.6V162.945z M409.026,159.945c0,0-17.599-19.899-49.898-16.399c-32.301,3.5-89.3,36.4-98.102,108.602
	c-8.8,72.2,25.802,150.9,25.802,150.9h-156.2c0,0-4.102-25.802,5.897-75.201c10-49.302,24.7-82.2,49.9-129.2
	c25.3-47,65.8-85.7,124.5-91s105.1,41.7,105.1,41.7L409.026,159.945z"/>
</svg>
