<?xml version="1.0" encoding="utf-8"?>
<!-- Generator: Adobe Illustrator 16.0.0, SVG Export Plug-In . SVG Version: 6.00 Build 0)  -->
<!DOCTYPE svg PUBLIC "-//W3C//DTD SVG 1.1//EN" "http://www.w3.org/Graphics/SVG/1.1/DTD/svg11.dtd">
<svg version="1.1" id="Calque_1" xmlns="http://www.w3.org/2000/svg" xmlns:xlink="http://www.w3.org/1999/xlink" x="0px" y="0px"
	 width="281.23px" height="239.95px" viewBox="0 0 281.23 239.95" enable-background="new 0 0 281.23 239.95" xml:space="preserve">
<path fill="#A99C7F" d="M205.981,91.655c-43.89,0-86.958,0-130.709,0c21.828,50.053,43.364,99.436,65.371,149.902
	C162.67,191.017,184.214,141.597,205.981,91.655z M204.718,83.47c0.155-0.31,0.308-0.62,0.458-0.932
	c-21.5-26.211-43.006-52.423-64.826-79.022C118.521,30.123,96.972,56.39,74.758,83.47C118.802,83.47,161.761,83.47,204.718,83.47z
	 M281.105,91.883c-0.132-0.338-0.262-0.675-0.392-1.012c-0.938-0.111-1.875-0.316-2.816-0.316
	c-20.043-0.019-40.084,0.045-60.126-0.083c-2.653-0.017-3.598,1.542-4.6,3.825C193.138,139.9,173.059,185.479,153,231.066
	c-0.46,1.045-0.83,2.142-1.242,3.213c0.232,0.187,0.469,0.372,0.702,0.56C195.341,187.186,238.223,139.536,281.105,91.883z
	 M0.574,90.786c-0.134,0.318-0.268,0.632-0.403,0.948c43.135,47.203,86.268,94.406,129.402,141.61
	c0.225-0.217,0.45-0.428,0.674-0.643c-0.376-0.99-0.706-2.011-1.138-2.969c-20.302-45.189-40.63-90.361-60.88-135.583
	c-1.223-2.731-2.713-3.699-5.384-3.685c-19.72,0.123-39.438,0.063-59.156,0.078C2.651,90.543,1.613,90.701,0.574,90.786z
	 M280.352,82.645c-22.1-26.867-43.573-52.975-65.744-79.925c-0.198,2.549-0.395,3.871-0.396,5.191
	c-0.018,23.407,0.046,46.817-0.073,70.222c-0.018,3.725,0.893,5.035,4.278,5.006c19.159-0.158,38.32-0.068,57.479-0.089
	C277.053,83.048,278.212,82.845,280.352,82.645z M67.372,2.916C45.316,29.729,23.865,55.812,1.862,82.562
	c1.934,0.25,2.887,0.482,3.84,0.482c19.493,0.021,38.985-0.023,58.476,0.061c2.673,0.011,3.59-0.92,3.574-4.098
	c-0.105-23.914-0.056-47.829-0.067-71.743C67.685,6.196,67.537,5.129,67.372,2.916z M73.999,69.441
	c0.295,0.172,0.591,0.342,0.888,0.513c18.378-22.349,36.755-44.698,55.715-67.751c-2.077-0.112-3.052-0.208-4.028-0.208
	c-16.311-0.01-32.621,0.084-48.929-0.09c-3.139-0.032-3.893,1.167-3.874,4.533c0.108,19.9,0.052,39.802,0.061,59.704
	C73.831,67.241,73.941,68.341,73.999,69.441z M150.751,2.288C169.677,25.29,187.98,47.541,206.954,70.6c0-23.617,0-45.914,0-68.312
	C188.39,2.288,170.088,2.288,150.751,2.288z"/>
</svg>
