<?xml version="1.0" encoding="utf-8"?>
<!-- Generator: Adobe Illustrator 16.0.0, SVG Export Plug-In . SVG Version: 6.00 Build 0)  -->
<!DOCTYPE svg PUBLIC "-//W3C//DTD SVG 1.1//EN" "http://www.w3.org/Graphics/SVG/1.1/DTD/svg11.dtd">
<svg version="1.1" id="Calque_1" xmlns="http://www.w3.org/2000/svg" xmlns:xlink="http://www.w3.org/1999/xlink" x="0px" y="0px"
	 width="283.46px" height="283.46px" viewBox="0 0 283.46 283.46" enable-background="new 0 0 283.46 283.46" xml:space="preserve">
<path fill="#A99C7F" d="M283.46,141.86c0.218,77.909-62.27,139.062-136.217,141.529C63.416,286.188-0.233,219.363,0,141.897
	C0.243,61.275,64.452-0.217,142.08,0C222.716,0.226,283.938,65.626,283.46,141.86z M141.769,126.469
	c8.014-0.594,16.064-0.885,24.031-1.862c8.896-1.089,17.672-2.957,25.697-7.284c5.943-3.204,9.129-7.828,8.553-14.91
	c-0.426-5.188-0.581-10.455-0.199-15.637c0.468-6.362-2.438-10.556-7.719-13.067c-4.87-2.315-9.959-4.492-15.188-5.67
	c-21.963-4.941-44.118-5.168-66.176-0.811c-6.622,1.308-13.036,3.963-19.329,6.53c-4.811,1.961-7.608,5.976-7.686,11.332
	c-0.102,7.023,0.05,14.049,0.105,21.075c0.028,3.587,1.542,6.595,4.469,8.465c3.441,2.198,7.043,4.37,10.872,5.697
	C112.958,125.094,127.279,126.189,141.769,126.469z M144.81,173.076c5.341-0.47,14.182-0.937,22.925-2.105
	c8.372-1.12,16.647-2.99,24.154-7.176c4.188-2.334,7.834-5.354,8.019-10.541c0.256-7.205,0.113-14.427,0.01-21.642
	c-0.039-2.836-1.633-4.79-4.429-5.36c-2.823-0.576-4.62,0.95-6.22,3.222c-1.258,1.787-2.861,3.733-4.77,4.577
	c-3.834,1.696-7.908,3.007-12.006,3.911c-15.75,3.475-31.713,3.762-47.686,2.229c-8.698-0.835-17.361-2.252-25.452-5.906
	c-2.22-1.002-4.191-2.12-5.132-4.717c-0.908-2.503-3.054-3.698-5.794-3.298c-2.753,0.401-4.353,2.007-4.405,4.861
	c-0.133,7.217-0.362,14.434-0.258,21.648c0.052,3.674,1.566,7.082,4.964,8.807c5.156,2.617,10.359,5.42,15.871,7.002
	C116.546,172.012,128.93,172.728,144.81,173.076z M145.925,219.085c5.512-0.57,15.64-1.306,25.662-2.764
	c7.966-1.158,15.785-3.261,22.58-7.969c3.099-2.146,5.453-4.919,5.701-8.811c0.248-3.896,0.116-7.817,0.111-11.729
	c-0.005-3.509,0.089-7.025-0.15-10.521c-0.172-2.498-1.57-4.412-4.203-4.862c-2.582-0.441-5.114,0.173-6.049,2.802
	c-1.002,2.823-3.02,4.223-5.502,5.135c-3.484,1.28-7,2.567-10.604,3.41c-16.144,3.778-32.525,3.885-48.908,2.385
	c-9.005-0.824-18.03-2.179-26.214-6.433c-1.619-0.842-2.998-2.535-3.963-4.146c-1.462-2.442-4.048-3.929-6.839-3.076
	c-2.651,0.811-3.714,2.759-3.687,5.527c0.052,5.111,0.372,10.271-0.198,15.324c-0.875,7.768,1.719,13.374,8.72,16.86
	c1.886,0.938,3.821,1.817,5.808,2.513C112.145,217.615,126.658,218.65,145.925,219.085z"/>
<path fill="#A99C7F" d="M144.114,94.592c-15.721-0.592-28.572-1.279-40.929-5.439c-1.988-0.669-3.951-1.521-5.773-2.555
	c-3.374-1.916-3.434-3.521-0.042-5.229c2.855-1.437,5.872-2.881,8.976-3.433c8.782-1.558,17.61-3.029,26.485-3.851
	c13.075-1.211,26.135-0.305,38.972,2.475c4.866,1.054,9.655,2.786,14.226,4.787c3.688,1.613,3.725,3.878,0.018,5.25
	c-6.369,2.359-12.909,4.582-19.572,5.738C158.189,93.773,149.707,94.067,144.114,94.592z"/>
</svg>
