<?xml version="1.0" encoding="utf-8"?>
<!-- Generator: Adobe Illustrator 16.0.0, SVG Export Plug-In . SVG Version: 6.00 Build 0)  -->
<!DOCTYPE svg PUBLIC "-//W3C//DTD SVG 1.1//EN" "http://www.w3.org/Graphics/SVG/1.1/DTD/svg11.dtd">
<svg version="1.1" id="Calque_1" xmlns="http://www.w3.org/2000/svg" xmlns:xlink="http://www.w3.org/1999/xlink" x="0px" y="0px"
	 width="238.566px" height="283.46px" viewBox="0 0 238.566 283.46" enable-background="new 0 0 238.566 283.46"
	 xml:space="preserve">
<path fill="#A99C7F" d="M176.093,282.539c-14.612-2.824-25.733-11.929-36.839-20.779c-31.134-24.809-59.799-52.246-83.879-83.922
	c-23.149-30.449-40.598-64.106-52.739-100.45c-4.975-14.892-2.755-28.468,5.362-41.518c5.423-8.719,11.873-16.578,19.484-23.478
	C33.651,6.8,40.653,2.715,48.949,1.083c0.327-0.064,0.61-0.357,0.916-0.544c0.923,0,1.845,0,2.768,0
	c14.429,15.072,20.636,34.388,27.442,53.31C82.979,61.92,84.713,70.411,87,78.704c0.725,2.628-0.251,4.593-2.527,5.772
	c-4.974,2.577-10.037,4.984-15.06,7.467c-7.743,3.829-12.574,9.994-14.521,18.322c-0.78,3.343,0.007,6.66,1.705,9.563
	c5.51,9.421,10.801,18.999,16.867,28.059c11.876,17.735,24.939,34.604,39.763,50.036c3.494,3.641,7.277,7.046,11.206,10.216
	c5.114,4.128,11.091,6.089,17.751,5.641c3.902-0.26,7.102-1.786,9.265-5.166c2.229-3.479,4.417-6.987,6.745-10.401
	c5.028-7.366,8.454-8.57,16.532-4.643c6.35,3.09,12.499,6.708,18.34,10.674c14.879,10.104,28.72,21.534,41.917,33.729
	c4.278,3.953,4.543,5.49,1.754,10.504c-10.635,19.128-27.023,30.027-48.577,33.509c-0.713,0.115-1.402,0.366-2.103,0.554
	C182.737,282.539,179.416,282.539,176.093,282.539z"/>
</svg>
