<?xml version="1.0" encoding="utf-8"?>
<!-- Generator: Adobe Illustrator 16.0.0, SVG Export Plug-In . SVG Version: 6.00 Build 0)  -->
<!DOCTYPE svg PUBLIC "-//W3C//DTD SVG 1.1//EN" "http://www.w3.org/Graphics/SVG/1.1/DTD/svg11.dtd">
<svg version="1.1" id="Capa_1" xmlns="http://www.w3.org/2000/svg" xmlns:xlink="http://www.w3.org/1999/xlink" x="0px" y="0px"
	 width="438.549px" height="438.549px" viewBox="0 0 438.549 438.549" enable-background="new 0 0 438.549 438.549"
	 xml:space="preserve">
<g>
	<path fill="#B09C62" d="M409.132,112.052c-19.608-34.47-46.205-61.76-79.798-81.877C295.736,10.057,259.057,0,219.271,0
		c-39.781,0-76.472,10.06-110.062,30.174c-33.597,20.116-60.192,47.407-79.8,81.877C9.803,146.522,0,184.163,0,224.975
		c0,49.024,13.939,93.107,41.827,132.262c27.884,39.158,63.905,66.253,108.062,81.29c5.14,0.979,8.945,0.29,11.419-2.048
		c2.476-2.342,3.711-5.273,3.711-8.786c0-0.585-0.049-5.856-0.144-15.818c-0.099-9.962-0.145-18.651-0.145-26.066l-6.566,1.165
		c-4.188,0.787-9.47,1.12-15.847,1.026c-6.374-0.092-12.99-0.776-19.842-2.051c-6.854-1.263-13.229-4.193-19.13-8.781
		c-5.897-4.591-10.085-10.598-12.56-18.015l-2.855-6.74c-1.903-4.487-4.898-9.474-8.992-14.938
		c-4.093-5.47-8.231-9.178-12.419-11.13l-1.999-1.469c-1.332-0.976-2.567-2.153-3.711-3.519c-1.142-1.366-1.997-2.732-2.567-4.101
		c-0.572-1.37-0.099-2.493,1.427-3.375c1.524-0.881,4.281-1.309,8.28-1.309l5.708,0.874c3.807,0.784,8.516,3.121,14.133,7.03
		c5.613,3.905,10.229,8.982,13.846,15.229c4.38,8.009,9.657,14.112,15.846,18.312c6.185,4.2,12.419,6.297,18.699,6.297
		s11.704-0.489,16.274-1.461c4.564-0.977,8.848-2.445,12.847-4.396c1.713-13.092,6.377-23.147,13.988-30.177
		c-10.849-1.171-20.602-2.932-29.265-5.274c-8.657-2.345-17.604-6.152-26.835-11.43c-9.234-5.271-16.896-11.815-22.984-19.624
		c-6.09-7.812-11.088-18.069-14.987-30.76c-3.901-12.696-5.852-27.342-5.852-43.94c0-23.635,7.52-43.748,22.557-60.349
		c-7.044-17.769-6.379-37.688,1.997-59.757c5.52-1.759,13.706-0.438,24.554,3.954c10.851,4.394,18.794,8.159,23.84,11.28
		c5.046,3.121,9.09,5.764,12.136,7.909c17.705-5.076,35.976-7.615,54.817-7.615s37.117,2.539,54.823,7.615l10.849-7.027
		c7.419-4.69,16.181-8.986,26.262-12.892c10.089-3.905,17.803-4.98,23.135-3.22c8.562,22.07,9.324,41.987,2.278,59.756
		c15.036,16.601,22.56,36.719,22.56,60.349c0,16.599-1.958,31.291-5.854,44.085c-3.899,12.795-8.94,23.042-15.125,30.759
		c-6.19,7.718-13.9,14.211-23.131,19.48c-9.231,5.273-18.182,9.081-26.84,11.426c-8.662,2.346-18.415,4.108-29.263,5.28
		c9.894,8.785,14.842,22.651,14.842,41.596v61.804c0,3.511,1.19,6.443,3.572,8.785c2.379,2.338,6.136,3.026,11.275,2.046
		c44.163-15.033,80.186-42.13,108.068-81.288c27.88-39.154,41.825-83.237,41.825-132.262
		C438.535,184.159,428.728,146.522,409.132,112.052z"/>
</g>
</svg>
