<?xml version="1.0" encoding="utf-8"?>
<!-- Generator: Adobe Illustrator 16.0.0, SVG Export Plug-In . SVG Version: 6.00 Build 0)  -->
<!DOCTYPE svg PUBLIC "-//W3C//DTD SVG 1.1//EN" "http://www.w3.org/Graphics/SVG/1.1/DTD/svg11.dtd">
<svg version="1.1" id="Calque_1" xmlns="http://www.w3.org/2000/svg" xmlns:xlink="http://www.w3.org/1999/xlink" x="0px" y="0px"
	 width="230.573px" height="283.46px" viewBox="0 0 230.573 283.46" enable-background="new 0 0 230.573 283.46"
	 xml:space="preserve">
<g>
	<path fill-rule="evenodd" clip-rule="evenodd" fill="#B09C62" d="M0,142.145c0-38.136-0.019-76.271,0.011-114.407
		C0.021,14.689,7.802,4.491,20.449,1.155c3.038-0.801,6.293-1.097,9.449-1.101C86.835-0.009,143.772-0.02,200.709,0.03
		c11.646,0.011,21.43,3.955,26.757,14.931c1.832,3.775,2.962,8.296,2.971,12.479c0.174,76.377,0.141,152.755,0.116,229.132
		c-0.005,16.311-12.63,26.633-24.646,27.044c-3.179,0.109-6.354,0.503-9.529,0.504c-55.447,0.033-110.895,0.043-166.343,0.01
		c-11.781-0.009-21.674-3.941-26.973-15.087c-1.887-3.967-2.908-8.723-2.935-13.128C-0.095,217.993,0,180.069,0,142.145z
		 M86.143,104.655c0-1.723,0-2.975,0-4.229c0-19.377-0.054-38.755,0.053-58.133c0.017-3.051-0.681-4.306-4.062-4.208
		c-8.397,0.244-16.809,0.211-25.209,0.022c-3.03-0.068-3.974,0.767-3.964,3.87c0.111,32.613,0.071,65.228,0.083,97.842
		c0,1.126,0.104,2.253,0.182,3.813c1.991-0.628,3.603-1.054,5.156-1.635c18.599-6.968,37.305-13.603,56.939-17.132
		c7.413-1.333,14.888-2.575,22.376-0.356c4.774,1.415,6.159,3.404,6.156,8.237c-0.023,36.425,0.009,72.853-0.073,109.28
		c-0.007,3.104,1.146,4.006,4.13,3.949c7.976-0.153,15.955-0.042,23.934-0.056c4.215-0.008,4.33-0.112,4.331-4.262
		c0.009-23.295,0.074-46.591-0.019-69.887c-0.061-15.131,0.064-30.282-0.685-45.384c-0.608-12.285-6.599-21.678-18.189-26.981
		c-6.095-2.789-12.601-3.719-19.199-3.994c-10.902-0.454-21.613,1.097-32.154,3.726C99.469,100.75,93.095,102.703,86.143,104.655z
		 M128.453,79.218c1.001,0.296,1.585,0.62,2.172,0.622c10.203,0.034,20.408,0.082,30.61-0.049c1.059-0.014,2.425-0.899,3.109-1.791
		c8.658-11.286,16.373-23.164,22.272-36.137c0.453-0.996,0.696-2.086,1.072-3.235c-0.834-0.208-1.237-0.396-1.642-0.398
		c-10.735-0.026-21.471-0.104-32.204,0.065c-1.08,0.017-2.547,1.32-3.139,2.403c-4.459,8.173-8.584,16.529-13.146,24.644
		C134.932,70.014,131.684,74.339,128.453,79.218z M53.663,245.58c1.29-1.04,2.059-1.558,2.704-2.196
		c9.491-9.42,18.921-18.903,28.484-28.251c1.924-1.881,1.444-2.994-0.207-4.618c-9.38-9.232-18.677-18.547-28.016-27.821
		c-0.723-0.718-1.549-1.335-2.965-2.543C53.663,202.175,53.663,223.423,53.663,245.58z"/>
</g>
</svg>
