<?xml version="1.0" encoding="utf-8"?>
<!-- Generator: Adobe Illustrator 16.0.0, SVG Export Plug-In . SVG Version: 6.00 Build 0)  -->
<!DOCTYPE svg PUBLIC "-//W3C//DTD SVG 1.1//EN" "http://www.w3.org/Graphics/SVG/1.1/DTD/svg11.dtd">
<svg version="1.1" xmlns="http://www.w3.org/2000/svg" xmlns:xlink="http://www.w3.org/1999/xlink" x="0px" y="0px"
	 width="283.46px" height="283.46px" viewBox="0 0 283.46 283.46" enable-background="new 0 0 283.46 283.46" xml:space="preserve">
<g id="Calque_1" display="none">
	<path display="inline" fill="#FFFFFF" d="M-8.73,295.632c0-102.534,0-205.069,0-307.658c100.146,0,200.31,0,300.562,0
		c0,102.518,0,205.088,0,307.658C191.682,295.632,91.484,295.632-8.73,295.632z M110.953,58.509c-4.795,0-9.591,0.08-14.383-0.034
		c-2.304-0.055-3.029,0.837-3.1,3.095c-0.118,3.791-0.021,7.731-1.019,11.329c-6.694,24.119-13.629,48.171-20.536,72.231
		c-4.75,16.548-9.586,33.07-14.367,49.608c-1.066,3.689-0.524,4.423,3.202,4.431c5.969,0.015,11.943-0.147,17.905,0.066
		c2.964,0.105,4.083-1.062,4.767-3.812c2.429-9.771,5.182-19.459,7.631-29.226c0.668-2.665,1.873-3.552,4.645-3.507
		c10.468,0.168,20.941,0.18,31.408-0.005c2.938-0.052,4.053,1.021,4.801,3.724c2.74,9.889,5.79,19.693,8.577,29.57
		c0.681,2.413,1.889,3.283,4.37,3.236c6.847-0.131,13.698-0.033,20.548-0.045c3.811-0.008,4.273-0.621,3.154-4.394
		c-2.865-9.657-5.812-19.291-8.653-28.956c-5.297-18.014-10.489-36.058-15.823-54.061c-4.946-16.686-10.056-33.323-14.998-50.008
		c-0.741-2.501-2.034-3.409-4.626-3.302C119.96,58.641,115.454,58.506,110.953,58.509z M181.619,145.003c-0.021,0-0.046,0-0.068,0
		c0,16.637-0.008,33.271,0.009,49.908c0.004,3.795,0.471,4.248,4.211,4.258c6.558,0.019,13.114-0.064,19.669,0.041
		c2.646,0.041,3.68-0.989,3.675-3.629c-0.06-33.662-0.077-67.326-0.062-100.99c0.001-2.422-1.02-3.287-3.365-3.258
		c-6.457,0.077-12.917,0.021-19.375,0.03c-4.453,0.006-4.689,0.243-4.689,4.612C181.617,112.319,181.619,128.661,181.619,145.003z
		 M195.489,77.219c9.076-0.014,14.638-5.136,14.673-13.516c0.035-8.582-5.701-14.36-14.31-14.412
		c-8.772-0.053-14.297,5.442-14.3,14.228C181.55,72.182,186.688,77.233,195.489,77.219z"/>
	
		<linearGradient id="SVGID_1_" gradientUnits="userSpaceOnUse" x1="305.9995" y1="22.792" x2="305.9995" y2="-254.1285" gradientTransform="matrix(1 0 0 -1 -164.2695 28.7295)">
		<stop  offset="0" style="stop-color:#ECE7D8"/>
		<stop  offset="0.0588" style="stop-color:#E8E3D1"/>
		<stop  offset="1" style="stop-color:#B09C62"/>
	</linearGradient>
	<path display="inline" fill="url(#SVGID_1_)" d="M0,283.46C0,188.99,0,94.52,0,0c94.448,0,188.912,0,283.46,0
		c0,94.454,0,188.957,0,283.46C189.009,283.46,94.513,283.46,0,283.46z M112.874,64.988c-4.522,0-9.045,0.073-13.565-0.032
		c-2.172-0.051-2.857,0.771-2.923,2.852c-0.111,3.493-0.02,7.123-0.961,10.438c-6.313,22.222-12.854,44.382-19.367,66.55
		c-4.48,15.246-9.041,30.47-13.55,45.707c-1.006,3.398-0.494,4.074,3.02,4.082c5.629,0.013,11.264-0.137,16.886,0.062
		c2.795,0.099,3.851-0.979,4.495-3.512c2.291-9.003,4.887-17.931,7.197-26.927c0.63-2.457,1.767-3.272,4.38-3.231
		c9.872,0.155,19.75,0.165,29.621-0.004c2.771-0.047,3.822,0.94,4.528,3.43c2.584,9.111,5.46,18.146,8.089,27.245
		c0.641,2.225,1.781,3.023,4.121,2.98c6.457-0.118,12.919-0.029,19.379-0.041c3.594-0.006,4.029-0.571,2.975-4.047
		c-2.701-8.897-5.479-17.772-8.16-26.679c-4.996-16.597-9.894-33.222-14.925-49.808c-4.664-15.374-9.482-30.702-14.144-46.075
		c-0.699-2.305-1.918-3.141-4.363-3.042C121.369,65.109,117.119,64.985,112.874,64.988z M179.52,144.679c-0.021,0-0.043,0-0.063,0
		c0,15.328-0.008,30.654,0.008,45.982c0.002,3.496,0.443,3.914,3.971,3.922c6.184,0.018,12.368-0.06,18.55,0.039
		c2.497,0.037,3.472-0.912,3.466-3.345c-0.056-31.015-0.072-62.03-0.059-93.046c0.001-2.231-0.961-3.028-3.174-3.001
		c-6.09,0.071-12.184,0.019-18.272,0.027c-4.2,0.006-4.424,0.224-4.424,4.25C179.518,114.564,179.52,129.622,179.52,144.679z
		 M192.601,82.226c8.561-0.013,13.804-4.732,13.837-12.453c0.034-7.907-5.377-13.23-13.494-13.279
		c-8.274-0.048-13.483,5.015-13.485,13.109C179.455,77.585,184.3,82.239,192.601,82.226z"/>
</g>
<g id="Calque_2">
	<g>
		<linearGradient id="SVGID_2_" gradientUnits="userSpaceOnUse" x1="144.73" y1="-18.27" x2="144.73" y2="319.2303">
			<stop  offset="0" style="stop-color:#ECE7D8"/>
			<stop  offset="0.0546" style="stop-color:#E1D9C2"/>
			<stop  offset="0.1462" style="stop-color:#D2C6A5"/>
			<stop  offset="0.248" style="stop-color:#C5B78C"/>
			<stop  offset="0.3621" style="stop-color:#BCAB79"/>
			<stop  offset="0.4954" style="stop-color:#B5A26C"/>
			<stop  offset="0.6657" style="stop-color:#B19D64"/>
			<stop  offset="1" style="stop-color:#B09C62"/>
		</linearGradient>
		<path fill-rule="evenodd" clip-rule="evenodd" fill="url(#SVGID_2_)" d="M-28.076-19.27c0,115.041,0,230.021,0,345
			c115.237,0,230.454,0,345.613,0c0-115.021,0-230.041,0-345C202.257-19.27,87.081-19.27-28.076-19.27z M171.393,217.665
			c-7.639,0.002-15.279-0.12-22.913,0.051c-3.152,0.07-4.638-1.17-5.494-4.131c-3.148-10.888-6.596-21.692-9.68-32.599
			c-0.834-2.948-2.23-3.856-5.19-3.823c-12.13,0.14-24.264,0.192-36.392-0.028c-3.428-0.062-4.66,1.267-5.452,4.341
			c-2.712,10.543-5.795,20.988-8.462,31.542c-0.867,3.432-2.367,4.852-6.003,4.714c-6.618-0.251-13.252-0.063-19.879-0.069
			c-4.583-0.004-4.984-0.509-3.701-4.886c12.183-41.593,24.37-83.182,36.572-124.77c2.431-8.285,5.428-16.458,4.517-25.34
			c-0.25-2.445,1.153-3.05,3.316-3.023c5.616,0.068,11.233,0.022,16.849,0.022c5.055-0.004,10.119,0.179,15.161-0.072
			c3.183-0.158,4.583,1.083,5.469,4.041c7.83,26.129,15.792,52.22,23.688,78.331c7.116,23.538,14.2,47.088,21.297,70.633
			C176.496,217.243,176.19,217.663,171.393,217.665z M221.853,212.275c-0.003,5.085-0.31,5.378-5.321,5.385
			c-6.735,0.009-13.473,0.005-20.208,0c-5.654-0.003-5.969-0.297-5.968-5.843c0.01-27.506,0.031-55.012,0.046-82.517
			c0.004-9.318-0.011-18.636,0-27.955c0.006-4.075,0.558-4.631,4.7-4.646c7.297-0.025,14.595-0.022,21.893-0.008
			c4.479,0.01,4.819,0.368,4.819,4.775c-0.001,18.637,0,37.273,0,55.91c0.015,0,0.029,0,0.043,0
			C221.857,175.675,221.865,193.974,221.853,212.275z M206.133,80.984c-10.087-0.025-15.764-5.748-15.762-15.891
			c0.002-9.187,6.593-15.336,16.345-15.252c9.767,0.083,16.457,6.535,16.387,15.803C223.031,75.21,216.614,81.01,206.133,80.984z"/>
		<linearGradient id="SVGID_3_" gradientUnits="userSpaceOnUse" x1="110.1924" y1="-18.27" x2="110.1924" y2="319.2303">
			<stop  offset="0" style="stop-color:#ECE7D8"/>
			<stop  offset="0.0546" style="stop-color:#E1D9C2"/>
			<stop  offset="0.1462" style="stop-color:#D2C6A5"/>
			<stop  offset="0.248" style="stop-color:#C5B78C"/>
			<stop  offset="0.3621" style="stop-color:#BCAB79"/>
			<stop  offset="0.4954" style="stop-color:#B5A26C"/>
			<stop  offset="0.6657" style="stop-color:#B19D64"/>
			<stop  offset="1" style="stop-color:#B09C62"/>
		</linearGradient>
		<path fill-rule="evenodd" clip-rule="evenodd" fill="url(#SVGID_3_)" d="M109.323,87.696c-4.998,20.757-9.995,41.516-15.08,62.634
			c10.685,0,20.821,0,31.897,0c-5.481-21.241-10.826-41.955-16.171-62.668C109.754,87.673,109.539,87.685,109.323,87.696z"/>
	</g>
</g>
</svg>
