<?xml version="1.0" encoding="utf-8"?>
<!-- Generator: Adobe Illustrator 16.0.0, SVG Export Plug-In . SVG Version: 6.00 Build 0)  -->
<!DOCTYPE svg PUBLIC "-//W3C//DTD SVG 1.1//EN" "http://www.w3.org/Graphics/SVG/1.1/DTD/svg11.dtd">
<svg version="1.1" id="Layer_1" xmlns="http://www.w3.org/2000/svg" xmlns:xlink="http://www.w3.org/1999/xlink" x="0px" y="0px"
	 width="283.46px" height="283.46px" viewBox="0 0 283.46 283.46" enable-background="new 0 0 283.46 283.46" xml:space="preserve">
<path fill="#B09C62" d="M257.819,0H25.641C11.48,0,0,11.48,0,25.641v232.177c0,14.162,11.48,25.643,25.641,25.643h232.177
	c14.162,0,25.643-11.479,25.643-25.643V25.641C283.46,11.48,271.98,0,257.819,0z M87.714,244.757c0,4.121-3.34,7.463-7.462,7.463
	H48.489c-4.122,0-7.462-3.342-7.462-7.463V111.605c0-4.122,3.34-7.462,7.462-7.462h31.764c4.122,0,7.462,3.34,7.462,7.462
	L87.714,244.757L87.714,244.757z M64.371,91.592c-16.666,0-30.176-13.51-30.176-30.176S47.705,31.24,64.371,31.24
	s30.175,13.51,30.175,30.176S81.037,91.592,64.371,91.592z M253.71,245.359c0,3.789-3.07,6.861-6.859,6.861h-34.086
	c-3.789,0-6.86-3.072-6.86-6.861v-62.456c0-9.317,2.733-40.828-24.349-40.828c-21.006,0-25.268,21.568-26.123,31.247v72.037
	c0,3.789-3.071,6.861-6.861,6.861h-32.965c-3.789,0-6.861-3.072-6.861-6.861V111.004c0-3.789,3.072-6.861,6.861-6.861h32.965
	c3.789,0,6.861,3.072,6.861,6.861v11.617c7.789-11.689,19.365-20.712,44.012-20.712c54.579,0,54.268,50.99,54.268,79.006v64.443
	H253.71z"/>
</svg>
