<?xml version="1.0" encoding="utf-8"?>
<!-- Generator: Adobe Illustrator 16.0.0, SVG Export Plug-In . SVG Version: 6.00 Build 0)  -->
<!DOCTYPE svg PUBLIC "-//W3C//DTD SVG 1.1//EN" "http://www.w3.org/Graphics/SVG/1.1/DTD/svg11.dtd">
<svg version="1.1" xmlns="http://www.w3.org/2000/svg" xmlns:xlink="http://www.w3.org/1999/xlink" x="0px" y="0px"
	 width="283.46px" height="283.46px" viewBox="0 0 283.46 283.46" enable-background="new 0 0 283.46 283.46" xml:space="preserve">
<g id="Calque_1" display="none">
	
		<radialGradient id="SVGID_1_" cx="305.9995" cy="-113.0005" r="141.7185" gradientTransform="matrix(1 0 0 -1 -164.2695 28.7295)" gradientUnits="userSpaceOnUse">
		<stop  offset="0" style="stop-color:#ECE7D8"/>
		<stop  offset="0.1619" style="stop-color:#E9E4D3"/>
		<stop  offset="0.3544" style="stop-color:#E2DBC5"/>
		<stop  offset="0.5625" style="stop-color:#D6CBAD"/>
		<stop  offset="0.7812" style="stop-color:#C5B68B"/>
		<stop  offset="1" style="stop-color:#B09C62"/>
	</radialGradient>
	<path display="inline" fill="url(#SVGID_1_)" d="M0.022,283.46c0-94.486,0-188.974,0-283.46c94.472,0,188.942,0,283.415,0
		c0,94.487,0,188.974,0,283.46C188.964,283.46,94.494,283.46,0.022,283.46z M92.523,158.867c0.513-0.076,0.816-0.147,1.121-0.158
		c1.808-0.068,3.615-0.138,5.423-0.176c3.62-0.08,7.218-0.384,10.8-0.938c9.894-1.531,18.381-5.844,25.386-13.151
		c2.608-2.722,4.718-5.782,6.298-9.223c2.158-4.7,3.212-9.671,3.613-14.826c0.4-5.167-0.026-10.238-1.481-15.2
		c-1.946-6.642-5.322-12.362-10.704-16.736c-3.995-3.247-8.545-5.356-13.438-6.761c-5.913-1.699-11.969-2.307-18.079-2.267
		C91.003,79.5,80.545,79.698,70.087,79.85c-0.423,0.006-0.845,0.098-1.349,0.161c-0.024,0.498-0.062,0.931-0.063,1.363
		c-0.002,1.401,0.013,2.802,0.012,4.203c-0.014,36.025-0.03,72.051-0.044,108.076c0,0.562,0.009,1.122,0.028,1.683
		c0.014,0.418,0.224,0.668,0.652,0.693c0.235,0.014,0.471,0.028,0.707,0.028c7.039,0,14.077,0.001,21.116-0.009
		c0.416,0,0.832-0.078,1.377-0.133C92.523,183.535,92.523,171.264,92.523,158.867z M210.223,131.255
		c0.043-0.549,0.098-0.93,0.101-1.312c0.008-5.604-0.009-11.208,0.03-16.812c0.006-0.922-0.267-1.434-1.112-1.841
		c-5.625-2.705-11.466-4.601-17.699-5.14c-6.467-0.56-12.799,0.064-18.943,2.251c-5.062,1.802-9.502,4.605-13.047,8.755
		c-4.23,4.954-6.221,10.777-6.291,17.297c-0.055,5.093,1.664,9.47,5.254,13.064c1.75,1.753,3.711,3.214,5.811,4.49
		c3.797,2.312,7.869,4,12.021,5.515c1.516,0.554,3.035,1.108,4.51,1.769c2.209,0.986,4.256,2.254,5.943,4.045
		c1.981,2.104,2.949,4.596,2.766,7.524c-0.121,1.96-0.945,3.525-2.518,4.668c-1.074,0.781-2.293,1.231-3.568,1.515
		c-3.115,0.69-6.25,0.668-9.377,0.127c-6.527-1.127-12.689-3.352-18.547-6.473c-0.295-0.156-0.607-0.273-1.047-0.471
		c-0.043,0.52-0.096,0.863-0.096,1.21c-0.002,5.563,0.022,11.129-0.013,16.692c-0.006,0.938,0.315,1.445,1.127,1.857
		c3.951,2.014,8.037,3.655,12.302,4.838c3.041,0.842,6.123,1.479,9.274,1.653c3.263,0.181,6.522,0.146,9.774-0.231
		c4.845-0.562,9.515-1.752,13.859-4.062c6.111-3.249,10.531-8.047,12.766-14.758c1.611-4.842,1.869-9.789,0.857-14.805
		c-0.957-4.733-3.156-8.754-6.594-12.084c-1.748-1.694-3.686-3.121-5.756-4.369c-2.988-1.803-6.18-3.145-9.42-4.395
		c-2.975-1.148-5.934-2.342-8.85-3.636c-1.138-0.504-2.201-1.25-3.185-2.034c-3.404-2.716-2.492-7.701,0.459-9.702
		c1.133-0.768,2.368-1.256,3.692-1.514c2.74-0.533,5.479-0.418,8.203,0.123c5.594,1.111,10.879,3.135,16.004,5.63
		C209.296,130.828,209.68,131.001,210.223,131.255z"/>
</g>
<g id="Calque_2">
	<linearGradient id="SVGID_2_" gradientUnits="userSpaceOnUse" x1="146.2134" y1="-50.2202" x2="146.2134" y2="330.4883">
		<stop  offset="0" style="stop-color:#ECE7D8"/>
		<stop  offset="0.052" style="stop-color:#E2DAC4"/>
		<stop  offset="0.1471" style="stop-color:#D2C7A6"/>
		<stop  offset="0.2523" style="stop-color:#C6B78D"/>
		<stop  offset="0.3694" style="stop-color:#BCAB7A"/>
		<stop  offset="0.5053" style="stop-color:#B5A26C"/>
		<stop  offset="0.6768" style="stop-color:#B19D64"/>
		<stop  offset="1" style="stop-color:#B09C62"/>
	</linearGradient>
	<path fill="url(#SVGID_2_)" d="M-47.528,330.488c0-126.903,0-253.806,0-380.708c129.161,0,258.322,0,387.482,0
		c0,126.902,0,253.805,0,380.708C210.794,330.488,81.633,330.488-47.528,330.488z M46.446,57.233
		c-0.044,0.764-0.108,1.345-0.107,1.925c0.006,2.635,0.046,5.269,0.044,7.904c-0.021,47.802-0.046,95.604-0.068,143.407
		c-0.001,2.606,0.015,2.624,2.584,2.625c9.087,0.003,18.175-0.001,27.262-0.005c2.805-0.002,2.81-0.007,2.808-2.88
		c-0.01-14.356-0.024-28.714-0.034-43.07c-0.001-0.968,0.022-1.936,0.015-2.903c-0.005-0.862,0.407-1.283,1.266-1.31
		c1.934-0.061,3.868-0.167,5.802-0.196c5.651-0.086,11.279-0.438,16.865-1.335c11.176-1.796,21.237-6.039,29.929-13.416
		c6.129-5.203,11.152-11.223,14.073-18.774c4.567-11.808,5.621-23.94,2.491-36.252c-4.039-15.89-13.884-26.62-29.359-32.128
		c-7.514-2.674-15.306-4.129-23.235-4.165c-16.128-0.074-32.258,0.214-48.388,0.363C47.814,57.028,47.235,57.145,46.446,57.233z
		 M163.647,178.314c-0.048,0.989-0.106,1.616-0.105,2.244c0.003,7.097,0.064,14.193-0.011,21.289
		c-0.018,1.687,0.545,2.615,2.059,3.363c13.308,6.576,27.218,9.915,42.137,8.16c6.129-0.721,12.076-2.085,17.673-4.744
		c8.001-3.8,14.198-9.464,17.798-17.673c2.943-6.715,3.765-13.731,2.652-20.987c-1.146-7.471-4.467-13.777-10.163-18.729
		c-2.179-1.895-4.585-3.562-7.032-5.104c-4.018-2.531-8.424-4.276-12.863-5.933c-3.624-1.352-7.265-2.686-10.794-4.258
		c-2.04-0.909-4.021-2.093-5.776-3.473c-4.627-3.633-3.321-10.341,0.789-12.999c1.467-0.949,3.054-1.573,4.75-1.935
		c3.852-0.82,7.697-0.618,11.528,0.139c7.591,1.499,14.771,4.194,21.732,7.519c0.517,0.247,1.042,0.476,1.793,0.817
		c0.066-0.753,0.148-1.263,0.149-1.772c0.024-7.473,0.007-14.946,0.08-22.418c0.014-1.395-0.513-2.087-1.743-2.678
		c-12.392-5.95-25.348-8.371-39.028-6.41c-6.883,0.986-13.439,2.981-19.389,6.649c-11.142,6.87-17.319,16.767-17.872,29.954
		c-0.3,7.18,1.962,13.425,7.139,18.532c2.701,2.665,5.771,4.82,9.052,6.691c4.733,2.699,9.767,4.717,14.866,6.604
		c3.019,1.117,6.003,2.351,8.925,3.701c2.253,1.041,4.229,2.555,5.944,4.374c2.603,2.758,3.899,6.005,3.696,9.819
		c-0.15,2.822-1.307,5.141-3.741,6.582c-1.41,0.835-3.003,1.479-4.596,1.864c-4.291,1.037-8.645,0.929-12.974,0.187
		c-8.761-1.504-17.041-4.433-24.921-8.522C164.937,178.928,164.461,178.709,163.647,178.314z"/>
	<linearGradient id="SVGID_3_" gradientUnits="userSpaceOnUse" x1="98.6953" y1="81.1069" x2="98.6953" y2="135.3521">
		<stop  offset="0" style="stop-color:#ECE7D8"/>
		<stop  offset="0.052" style="stop-color:#E2DAC4"/>
		<stop  offset="0.1471" style="stop-color:#D2C7A6"/>
		<stop  offset="0.2523" style="stop-color:#C6B78D"/>
		<stop  offset="0.3694" style="stop-color:#BCAB7A"/>
		<stop  offset="0.5053" style="stop-color:#B5A26C"/>
		<stop  offset="0.6768" style="stop-color:#B19D64"/>
		<stop  offset="1" style="stop-color:#B09C62"/>
	</linearGradient>
	<path fill-rule="evenodd" clip-rule="evenodd" fill="url(#SVGID_3_)" d="M78.892,108.166c0-8.222-0.002-16.443,0.001-24.665
		c0.001-2.309,0.04-2.41,2.313-2.393c4.457,0.033,8.923-0.003,13.369,0.265c12.312,0.744,21.542,9.253,23.482,21.443
		c0.693,4.355,0.604,8.686-0.489,12.956c-2.554,9.973-9.091,15.965-18.921,18.424c-2.635,0.659-5.404,0.902-8.127,1.053
		c-3.214,0.178-6.446,0.079-9.669,0.041c-1.785-0.021-1.917-0.183-1.919-1.976c-0.011-8.383-0.005-16.766-0.005-25.148
		C78.915,108.166,78.903,108.166,78.892,108.166z"/>
</g>
</svg>
