<?xml version="1.0" encoding="utf-8"?>
<!-- Generator: Adobe Illustrator 16.0.0, SVG Export Plug-In . SVG Version: 6.00 Build 0)  -->
<!DOCTYPE svg PUBLIC "-//W3C//DTD SVG 1.1//EN" "http://www.w3.org/Graphics/SVG/1.1/DTD/svg11.dtd">
<svg version="1.1" id="Calque_1" xmlns="http://www.w3.org/2000/svg" xmlns:xlink="http://www.w3.org/1999/xlink" x="0px" y="0px"
	 width="283.46px" height="283.46px" viewBox="0 0 283.46 283.46" enable-background="new 0 0 283.46 283.46" xml:space="preserve">
<path fill-rule="evenodd" clip-rule="evenodd" fill="#B09C62" d="M275.478,177.018c-2.095,7.526-7.706,12.075-13.771,16.227
	c-8.692,5.949-18.429,8.984-28.821,9.906c-4.627,0.41-9.304,0.267-13.959,0.377c-0.109,0.003-0.219,0.041-0.515,0.101
	c-0.156,2.04-0.387,4.117-0.463,6.199c-0.294,8.063-0.851,16.104-2.112,24.08c-1.354,8.558-3.387,16.915-7.332,24.706
	c-5.309,10.485-13.556,17.554-24.729,21.16c-6.303,2.035-12.706,3.597-19.387,3.749c-12.948,0.297-23.53-6.271-28.836-18.089
	c-3.832-8.532-6.313-17.448-6.894-26.812c-0.546-8.811-0.924-17.63-1.377-26.446c-0.014-0.266-0.027-0.531-0.043-0.855
	c-1.935,0.647-3.81,1.362-5.733,1.905c-8.076,2.276-16.219,2.198-24.403,0.621c-4.615-0.889-9.049-2.269-12.98-4.902
	c-1.765-1.182-3.355-2.623-5.104-4.009c-1.071,0.735-2.284,1.653-3.575,2.443c-9.107,5.569-19.718,4.929-28.216-1.555
	c-6.14-4.686-10.618-10.727-14.458-17.304c-6.325-10.836-10.878-22.449-14.834-34.309c-6.825-20.461-11.9-41.362-15.637-62.6
	c-1.982-11.267-2.357-22.567-0.92-33.906c1.336-10.54,4.337-20.538,10.289-29.473c7.275-10.924,17.431-17.904,29.917-21.631
	c9.456-2.822,19.136-3.439,28.932-2.884c12.899,0.731,25.383,3.539,37.651,7.465c0.526,0.168,1.294,0.06,1.786-0.214
	c8.797-4.914,18.258-7.483,28.282-8.066c8.7-0.506,17.334,0.154,25.926,1.536c0.583,0.093,1.235,0.062,1.802-0.099
	c8.932-2.529,18.024-4.053,27.299-4.483c0.338-0.016,0.672-0.109,1.008-0.167c3.135,0,6.27,0,9.405,0
	c0.37,0.066,0.739,0.153,1.112,0.196c4.019,0.465,8.071,0.727,12.051,1.416c18.373,3.183,33.997,11.505,46.639,25.295
	c3.745,4.085,7.03,8.428,8.666,13.858c1.809,6.001,2.313,12.136,2.196,18.35c-0.221,11.679-2.295,23.089-5.222,34.351
	c-6.26,24.088-15.877,46.792-28.409,68.277c-0.225,0.385-0.438,0.775-0.734,1.303c0.506,0,0.841,0.032,1.167-0.005
	c2.807-0.321,5.617-0.614,8.417-0.995c3.476-0.473,6.928-1.294,10.415-1.476c5.938-0.31,10.87,1.795,14.006,7.14
	c0.626,1.067,1.006,2.279,1.499,3.424C275.478,172.888,275.478,174.953,275.478,177.018z M226.946,167.872
	c0.347-0.546,0.646-0.981,0.909-1.438c4.311-7.474,8.931-14.788,12.863-22.456c11.703-22.82,20.478-46.677,24.296-72.167
	c1.175-7.843,1.729-15.73,0.598-23.641c-0.635-4.432-1.773-8.716-4.602-12.304c-13.433-17.042-31.247-25.941-52.624-28.143
	c-6.521-0.671-13.051-0.62-19.576-0.015c-8.126,0.754-16.098,2.266-23.86,4.821c-0.441,0.146-0.979,0.199-1.427,0.096
	c-8.547-1.967-17.188-2.805-25.946-2.144c-9.568,0.722-18.513,3.395-26.62,8.655c-0.426,0.276-1.169,0.394-1.638,0.228
	c-10.875-3.857-22.019-6.558-33.493-7.822c-9.282-1.023-18.54-1.006-27.713,1.014c-17.245,3.797-29.259,13.713-35.448,30.401
	c-2.532,6.826-3.856,13.924-4.152,21.165c-0.219,5.373-0.458,10.826,0.195,16.136c1.069,8.703,2.61,17.369,4.39,25.96
	c3.854,18.595,8.891,36.876,15.558,54.678c3.663,9.78,7.87,19.309,13.758,27.996c2.781,4.104,5.968,7.846,10.1,10.688
	c6.364,4.38,13.545,4.417,19.731-0.208c2.302-1.721,4.354-3.838,6.282-5.987c6.993-7.796,13.89-15.677,20.804-23.543
	c0.493-0.561,0.86-0.606,1.531-0.267c2.941,1.489,6.019,2.625,9.288,3.155c1.832,0.297,3.676,0.516,5.625,0.784
	c-0.156,0.284-0.261,0.562-0.437,0.781c-1.335,1.673-2.688,3.331-4.03,4.999c-1.402,1.743-3.133,3.068-5.283,3.674
	c-3.522,0.993-7.075,1.88-10.628,2.76c-3.271,0.81-6.53,1.625-9.273,3.733c-3.203,2.463-3.779,6.681-1.074,9.67
	c1.302,1.439,2.964,2.657,4.669,3.607c4.564,2.544,9.646,3.339,14.766,3.745c10.575,0.838,20.16-1.677,28.352-8.684
	c0.156-0.133,0.345-0.227,0.653-0.426c0,0.504,0,0.838,0,1.173c-0.036,14.796,0.184,29.579,1.564,44.331
	c0.677,7.229,2.451,14.034,6.372,20.218c5.402,8.52,13.125,12.854,23.199,13.012c6.118,0.096,11.979-1.29,17.725-3.209
	c5.765-1.924,10.994-4.751,15.12-9.359c3.683-4.112,6.045-8.944,7.279-14.239c1.211-5.196,2.139-10.474,2.889-15.758
	c1.396-9.832,2.583-19.692,3.836-29.545c0.419-3.292,0.773-6.593,1.149-9.821c2.033,0.333,3.976,0.749,5.939,0.952
	c4.968,0.512,9.916,0.182,14.866-0.413c9.685-1.164,18.533-4.397,26.312-10.367c2.681-2.058,5.236-4.251,6.856-7.294
	c1.144-2.148,1.414-4.369,0.017-6.525c-1.337-2.062-3.438-2.832-5.734-2.739c-2.429,0.098-4.857,0.467-7.258,0.879
	c-6.3,1.08-12.598,2.077-19.023,1.468C231.966,169.888,229.386,169.427,226.946,167.872z"/>
<path fill-rule="evenodd" clip-rule="evenodd" fill="#B09C62" d="M218.598,73.451c-0.719,0-1.276,0.038-1.827-0.006
	c-5.315-0.424-10.587-0.305-15.811,0.959c-8.632,2.09-14.378,8.229-15.644,16.979c-0.842,5.814,0.131,11.486,1.675,17.075
	c2.731,9.882,7.161,19.046,11.941,28.061c3.2,6.035,6.189,12.188,9.6,18.101c2.185,3.786,4.961,7.229,7.476,10.825
	c0.281,0.402,0.586,0.79,0.974,1.31c-0.412,0.17-0.735,0.327-1.074,0.44c-6.821,2.269-10.087,7.47-10.429,14.135
	c-0.41,8.01-1.304,15.961-2.286,23.908c-0.855,6.924-1.631,13.858-2.604,20.765c-1.015,7.203-1.742,14.461-3.641,21.515
	c-1.993,7.406-6.107,13.103-13.308,16.224c-1.885,0.817-3.823,1.545-5.791,2.132c-4.174,1.245-8.408,2.165-12.809,2.18
	c-7.746,0.027-13.417-3.408-17.299-10.042c-2.716-4.64-4.039-9.661-4.573-14.969c-1.696-16.835-1.649-33.722-1.572-50.61
	c0.015-3.057,0.192-6.112,0.209-9.17c0.044-8.179-5.812-15.076-13.855-16.307c-1.036-0.159-2.117-0.021-3.344-0.021
	c0.089-0.438,0.121-0.956,0.298-1.418c2.339-6.084,4.568-12.214,7.088-18.223c2.64-6.293,4.777-12.701,5.616-19.492
	c0.676-5.475,0.707-10.964,0.33-16.468c-0.469-6.826-1.509-13.563-3.044-20.219c-1.221-5.296-3.734-9.835-8.35-12.975
	c-3.24-2.204-6.87-3.29-10.749-3.498c-9.289-0.5-17.744,2.385-25.885,6.492c-0.271,0.136-0.542,0.271-0.82,0.392
	c-0.059,0.026-0.146-0.011-0.39-0.037c0.272-2.304,0.478-4.615,0.827-6.905c1.28-8.393,3.252-16.603,6.636-24.427
	c3.741-8.65,8.815-16.323,16.332-22.189c5.929-4.628,12.623-7.671,20.049-8.688c26.169-3.581,48.446,4.338,66.776,23.26
	c8.168,8.433,14.329,18.229,18.65,29.163C218.177,72.222,218.35,72.755,218.598,73.451z"/>
<path fill-rule="evenodd" clip-rule="evenodd" fill="#B09C62" d="M102.62,25.64c-1.577,1.815-3.122,3.458-4.516,5.219
	c-6.722,8.492-10.933,18.208-13.77,28.576c-1.927,7.042-3.073,14.214-3.739,21.485c-0.539,5.884-0.262,11.737-0.048,17.62
	c0.228,6.252,0.156,12.529-0.104,18.783c-0.217,5.252-1.261,10.483-1.29,15.727c-0.066,12.075,4.302,22.417,13.144,30.766
	c0.249,0.235,0.517,0.45,0.822,0.716c-0.223,0.314-0.373,0.572-0.565,0.792c-7.067,8.035-14.128,16.074-21.22,24.088
	c-0.933,1.055-1.956,2.052-3.048,2.938c-3.91,3.173-7.778,3.207-11.802,0.183c-3.67-2.759-6.337-6.39-8.76-10.212
	c-4.888-7.713-8.454-16.066-11.655-24.577c-6.402-17.017-11.103-34.528-14.905-52.285c-1.451-6.777-2.7-13.602-3.858-20.436
	c-1.159-6.842-1.232-13.752-0.771-20.672c0.443-6.656,1.584-13.168,3.985-19.414c5.064-13.17,14.696-21.06,28.288-24.292
	c7.232-1.719,14.573-1.934,21.962-1.443c10.677,0.71,21.037,2.976,31.207,6.216C102.151,25.473,102.324,25.537,102.62,25.64z"/>
<path fill-rule="evenodd" clip-rule="evenodd" fill="#B09C62" d="M222.248,159.969c-1.051-0.721-1.108-1.437-0.488-2.519
	c3.258-5.688,4.909-11.852,5.421-18.381c0.47-5.986-0.199-11.889-0.903-17.802c-0.691-5.803-1.41-11.618-0.926-17.467
	c0.314-3.794,1.008-7.555,1.434-11.341c0.412-3.673,0.661-7.365,1.051-11.042c0.644-6.081-1.539-11.509-3.985-16.817
	c-7.679-16.666-18.739-30.56-34.151-40.733c-3.364-2.221-7.04-3.971-10.574-5.936c-0.259-0.144-0.528-0.272-1.067-0.549
	c1.794-0.319,3.307-0.621,4.83-0.854c6.546-0.998,13.135-1.455,19.746-1.146c18.774,0.877,35.265,7.071,48.318,21.082
	c1.301,1.396,2.537,2.861,3.7,4.375c2.052,2.67,2.681,5.875,3.073,9.103c1.001,8.228,0.192,16.388-1.271,24.484
	c-5.49,30.396-17.326,58.298-33.395,84.521c-0.179,0.292-0.376,0.573-0.573,0.854C222.447,159.856,222.368,159.886,222.248,159.969z
	"/>
<path fill-rule="evenodd" clip-rule="evenodd" fill="#B09C62" d="M129.987,118.879c0.278,8.851-2.307,17.952-6.207,26.847
	c-2.658,6.063-4.75,12.377-7.019,18.606c-0.292,0.802-0.645,0.971-1.384,0.938c-6.218-0.282-11.666-2.549-16.405-6.502
	c-6.748-5.628-10.549-12.949-11.424-21.607c-0.376-3.716,0.167-7.534,0.404-11.299c0.191-3.044,0.731-6.074,0.794-9.117
	c0.128-6.147,0.065-12.299,0.018-18.449c-0.014-1.867-0.193-3.737-0.385-5.597c-0.082-0.788,0.268-1.194,0.836-1.587
	c4.18-2.891,8.743-4.976,13.576-6.507c3.771-1.195,7.604-1.954,11.583-1.836c6.871,0.204,10.959,3.351,12.5,10.024
	C128.785,101.057,130.058,109.422,129.987,118.879z M113.423,86.926c-0.568,0.128-1.68,0.263-2.705,0.637
	c-1.891,0.69-2.534,2.363-1.61,4.159c1.371,2.666,3.521,4.368,6.513,4.911c2.754,0.5,6.275-1.195,7.605-3.649
	c0.684-1.261,0.583-2.333-0.415-3.344c-0.45-0.456-0.983-0.866-1.55-1.162C118.976,87.285,116.508,86.89,113.423,86.926z"/>
<path fill-rule="evenodd" clip-rule="evenodd" fill="#B09C62" d="M215.842,150.97c-0.17-0.229-0.277-0.34-0.346-0.471
	c-3.986-7.602-8.041-15.167-11.931-22.818c-3.755-7.383-7.152-14.931-9.105-23.03c-1.041-4.318-1.762-8.665-0.85-13.13
	c0.824-4.034,3.075-6.949,6.929-8.287c2.562-0.889,5.3-1.54,7.996-1.714c3.633-0.234,7.301,0.093,11.11,0.183
	c-0.09,1.669-0.076,3.073-0.256,4.452c-0.606,4.646-1.344,9.277-1.912,13.928c-0.548,4.479-0.639,8.972-0.207,13.481
	c0.694,7.248,1.496,14.494,1.85,21.761c0.238,4.89-0.688,9.725-2.617,14.298c-0.118,0.281-0.228,0.566-0.354,0.843
	C216.086,150.602,215.993,150.724,215.842,150.97z M207.245,84.773c-2.51,0.228-4.899,0.644-6.998,2.041
	c-1.707,1.137-1.863,2.505-0.485,4.014c4.08,4.471,10.053,2.679,12.433-2.169c0.688-1.402,0.186-2.619-1.296-3.112
	C209.725,85.156,208.466,85.021,207.245,84.773z"/>
<path fill-rule="evenodd" clip-rule="evenodd" fill="#B09C62" d="M92.604,194.819c1.896-0.484,3.797-0.952,5.688-1.455
	c3.569-0.949,7.171-1.797,10.688-2.912c3.623-1.15,6.516-3.447,8.884-6.418c1.667-2.093,3.381-4.147,5.082-6.213
	c0.315-0.383,0.654-0.749,1.006-1.099c1.838-1.828,2.855-2.017,5.21-0.985c2.912,1.275,5.09,5.696,4.261,8.732
	c-0.157,0.574-0.432,1.149-0.779,1.633c-4.771,6.633-11.085,10.889-19.233,12.089c-6.251,0.921-12.408,0.286-18.385-1.809
	c-0.842-0.295-1.617-0.781-2.424-1.179C92.603,195.075,92.604,194.947,92.604,194.819z"/>
<path fill-rule="evenodd" clip-rule="evenodd" fill="#B09C62" d="M256.492,176.677c-0.968,0.732-1.918,1.489-2.905,2.193
	c-6.162,4.392-13.04,6.952-20.543,7.705c-4.015,0.402-8.062,0.633-12.096,0.626c-2.133-0.004-4.266-0.673-6.395-1.065
	c-0.79-0.146-1.213-0.679-1.128-1.476c0.193-1.814,0.294-3.657,0.704-5.426c0.469-2.017,1.827-3.396,3.834-4.066
	c0.181-0.06,0.362-0.117,0.538-0.19c1.851-0.771,3.447-0.929,5.378,0.355c3.094,2.057,6.806,2.602,10.479,2.884
	c7.173,0.552,14.233-0.36,21.251-1.757c0.252-0.051,0.518-0.035,0.777-0.05C256.423,176.499,256.458,176.588,256.492,176.677z"/>
</svg>
