<?xml version="1.0" encoding="utf-8"?>
<!-- Generator: Adobe Illustrator 16.0.0, SVG Export Plug-In . SVG Version: 6.00 Build 0)  -->
<!DOCTYPE svg PUBLIC "-//W3C//DTD SVG 1.1//EN" "http://www.w3.org/Graphics/SVG/1.1/DTD/svg11.dtd">
<svg version="1.1" id="Calque_1" xmlns="http://www.w3.org/2000/svg" xmlns:xlink="http://www.w3.org/1999/xlink" x="0px" y="0px"
	 width="512px" height="512px" viewBox="0 0 512 512" enable-background="new 0 0 512 512" xml:space="preserve">
<title>Layer 1</title>
<g>
	<g>
		<title>background</title>
		<rect id="canvas_background" x="-1" y="-1" fill="none" width="582" height="402"/>
	</g>
	<circle id="ellipse" fill="#B09C62" cx="256" cy="256" r="256"/>
	<path id="path3966" fill="#FFFFFF" d="M130.627,403.046h156.199c0,0-34.6-78.7-25.8-150.9s65.8-105.1,98.1-108.6
		c32.301-3.5,49.9,16.399,49.9,16.399l7-10.6c0,0-46.4-47-105.1-41.7c-58.7,5.3-99.2,44-124.5,91c-25.2,47-39.9,79.9-49.9,129.2
		C126.527,377.246,130.627,403.046,130.627,403.046z"/>
	<path id="path3968" fill="#FFFFFF" d="M99.527,324.345l30.5,2.3l-5.3,30.5l-28.8-3.5L99.527,324.345z"/>
	<path id="path3970" fill="#FFFFFF" d="M147.627,259.746l8.199-22.9l-27-10.6l-8.8,24.699L147.627,259.746z"/>
	<path id="path3972" fill="#FFFFFF" d="M185.826,181.145l15.9-18.8l-20.5-13.5l-16.5,18.2L185.826,181.145z"/>
	<path id="path3974" fill="#FFFFFF" d="M227.527,108.345l14.101,17l19.399-11.2l-14.1-15.899L227.527,108.345z"/>
	<path id="path3976" fill="#FFFFFF" d="M296.227,88.945l3.5,17l24.1-0.6l-2.399-15.3L296.227,88.945z"/>
	<path id="path3978" fill="#FFFFFF" d="M377.826,107.145l-0.6,10.601l16.399,8.8l3.5-5.3L377.826,107.145z"/>
	<path id="path3980" fill="#FFFFFF" d="M374.326,152.345v8.8l15.9,1.8v-7L374.326,152.345z"/>
	<path id="path3982" fill="#FFFFFF" d="M323.826,159.945l7.601,14.101l11.199-8.8l-2.3-9.4L323.826,159.945z"/>
	<path id="path3984" fill="#FFFFFF" d="M299.727,178.145l11.7,17.601l-7,12.3l-17-18.8L299.727,178.145z"/>
	<path id="path3986" fill="#FFFFFF" d="M276.227,226.945l-7.6,15.301l20,17l4.699-19.4L276.227,226.945z"/>
	<path id="path3988" fill="#FFFFFF" d="M268.027,280.345l-1.2,20.5l24.7,10.6l-1.2-19.399L268.027,280.345z"/>
	<path id="path3990" fill="#FFFFFF" d="M275.127,353.145l5.899,21.101l31.1,1.8l-11.199-22.9H275.127L275.127,353.145z"/>
</g>
</svg>
