<?xml version="1.0" encoding="utf-8"?>
<!-- Generator: Adobe Illustrator 16.0.0, SVG Export Plug-In . SVG Version: 6.00 Build 0)  -->
<!DOCTYPE svg PUBLIC "-//W3C//DTD SVG 1.1//EN" "http://www.w3.org/Graphics/SVG/1.1/DTD/svg11.dtd">
<svg version="1.1" id="Calque_1" xmlns="http://www.w3.org/2000/svg" xmlns:xlink="http://www.w3.org/1999/xlink" x="0px" y="0px"
	 width="283.46px" height="253.219px" viewBox="0 0 283.46 253.219" enable-background="new 0 0 283.46 253.219"
	 xml:space="preserve">
<path fill-rule="evenodd" clip-rule="evenodd" fill="#B09C62" d="M59.506,79.005c-0.141-0.614-0.265-1.176-0.398-1.736
	c-1.833-7.665-3.217-15.404-3.923-23.262c-0.532-5.917-0.69-11.837-0.246-17.76c0.527-7.032,1.787-13.909,4.816-20.352
	c2.341-4.98,5.547-9.248,10.349-12.126c4.7-2.818,9.857-3.708,15.253-3.438c8.89,0.445,16.991,3.534,24.784,7.566
	c9.321,4.823,17.729,10.977,25.635,17.836c1.97,1.71,3.868,3.503,5.8,5.255c0.148,0.134,0.307,0.257,0.485,0.405
	c1.485-1.374,2.935-2.746,4.417-4.083c8.658-7.822,17.901-14.831,28.315-20.187c5.786-2.977,11.797-5.358,18.241-6.482
	c5.728-1,11.4-0.988,16.901,1.193c4.62,1.833,8.178,4.99,10.966,9.054c3.545,5.169,5.482,10.978,6.661,17.065
	c1.612,8.316,1.717,16.705,1.116,25.125c-0.608,8.531-2.038,16.931-4.031,25.238c-0.175,0.728-0.009,0.952,0.669,1.148
	c8.079,2.348,15.978,5.191,23.588,8.798c8.205,3.888,15.977,8.463,22.746,14.589c3.915,3.543,7.317,7.504,9.725,12.25
	c4.101,8.081,3.7,16.046-0.646,23.896c-2.787,5.034-6.63,9.181-10.976,12.889c-6.442,5.498-13.664,9.763-21.275,13.407
	c-7.297,3.492-14.858,6.3-22.591,8.656c-0.238,0.073-0.473,0.153-0.787,0.257c0.292,1.283,0.58,2.532,0.858,3.783
	c1.682,7.522,2.836,15.118,3.328,22.817c0.456,7.128,0.309,14.229-0.805,21.291c-1.024,6.498-2.807,12.755-6.25,18.432
	c-3.675,6.059-8.733,10.324-15.774,11.942c-4.334,0.997-8.692,0.931-13.054,0.198c-8.621-1.447-16.43-4.987-23.893-9.373
	c-9.642-5.665-18.245-12.682-26.326-20.369c-0.218-0.207-0.44-0.412-0.726-0.679c-0.482,0.44-0.947,0.854-1.4,1.281
	c-7.573,7.155-15.705,13.585-24.67,18.92c-6.816,4.058-13.951,7.397-21.693,9.294c-5.564,1.363-11.179,1.89-16.857,0.738
	c-7.069-1.433-12.301-5.456-16.082-11.492c-3.14-5.013-4.873-10.549-5.908-16.319c-1.447-8.057-1.498-16.167-0.833-24.303
	c0.692-8.475,2.215-16.805,4.221-25.055c0.029-0.12,0.049-0.243,0.093-0.457c-0.295-0.095-0.57-0.188-0.849-0.27
	c-11.109-3.286-21.808-7.548-31.803-13.455c-6.615-3.911-12.771-8.425-17.921-14.188c-4.034-4.514-7.228-9.508-8.583-15.509
	c-1.384-6.129-0.196-11.861,2.735-17.307c2.792-5.189,6.729-9.419,11.201-13.181c6.661-5.604,14.15-9.86,22.031-13.471
	c7.262-3.328,14.774-5.973,22.443-8.185C58.873,79.208,59.156,79.114,59.506,79.005z M141.463,172.668
	c0.002-0.113,0.004-0.227,0.006-0.34c4.18,0,8.361,0.091,12.537-0.025c4.454-0.122,8.902-0.445,13.354-0.664
	c0.486-0.024,0.774-0.217,1.03-0.62c0.937-1.476,1.917-2.922,2.861-4.392c8.166-12.705,15.649-25.797,22.279-39.372
	c0.211-0.432,0.382-0.8,0.113-1.336c-7.557-15.069-15.946-29.652-25.356-43.643c-0.264-0.392-0.551-0.58-1.04-0.603
	c-5.54-0.266-11.075-0.67-16.618-0.813c-11.325-0.291-22.644-0.061-33.945,0.8c-0.548,0.042-0.857,0.256-1.151,0.69
	c-9.361,13.815-17.676,28.233-24.981,43.236c-0.364,0.747-0.4,1.338-0.023,2.111c7.161,14.648,15.31,28.722,24.374,42.277
	c0.897,1.341,1.849,1.857,3.399,1.9C126.025,172.091,133.744,172.396,141.463,172.668z M62.788,90.735
	c-0.279,0.059-0.5,0.091-0.713,0.153c-7.08,2.048-14.028,4.462-20.737,7.53c-6.838,3.127-13.371,6.765-19.18,11.59
	c-3.43,2.849-6.52,6.009-8.647,9.988c-1.483,2.775-2.255,5.681-1.507,8.848c0.781,3.31,2.523,6.113,4.647,8.693
	c4.488,5.453,10.1,9.548,16.12,13.118c8.489,5.035,17.565,8.728,26.969,11.653c0.934,0.291,1.874,0.558,2.839,0.843
	c0.1-0.273,0.176-0.458,0.235-0.648c3.711-11.952,8.264-23.581,13.471-34.956c0.291-0.635,0.292-1.128,0-1.763
	c-4.707-10.238-8.85-20.699-12.337-31.417C63.557,93.169,63.181,91.967,62.788,90.735z M71.121,177.833
	c-0.098,0.354-0.187,0.64-0.256,0.93c-1.726,7.194-3.07,14.452-3.712,21.832c-0.619,7.114-0.679,14.215,0.509,21.282
	c0.744,4.418,1.936,8.692,4.288,12.566c2.173,3.579,5.199,5.864,9.458,6.379c2.955,0.357,5.863,0.112,8.755-0.477
	c6.318-1.285,12.135-3.861,17.726-6.982c8.829-4.931,16.747-11.094,24.139-17.96c0.64-0.594,1.266-1.202,1.897-1.804
	c-2.003-2.246-3.961-4.4-5.873-6.595c-6.426-7.378-12.437-15.084-18.14-23.033c-0.231-0.322-0.69-0.627-1.074-0.669
	c-3.648-0.399-7.307-0.697-10.954-1.104c-7.246-0.808-14.449-1.905-21.601-3.325C74.578,178.535,72.874,178.187,71.121,177.833z
	 M213.382,177.286c-0.333,0.063-0.574,0.11-0.815,0.156c-5.941,1.122-11.856,2.411-17.83,3.32
	c-6.427,0.979-12.909,1.591-19.363,2.394c-0.345,0.043-0.764,0.295-0.963,0.581c-7.098,10.197-14.677,20.016-23.018,29.234
	c-0.162,0.179-0.309,0.372-0.526,0.636c0.24,0.193,0.43,0.325,0.595,0.481c4.418,4.182,8.985,8.189,13.862,11.834
	c6.493,4.854,13.311,9.151,20.872,12.163c4.231,1.686,8.576,2.878,13.177,3.017c5.589,0.168,9.843-2.053,12.538-6.968
	c1.077-1.964,2.026-4.032,2.746-6.151c2.066-6.078,2.675-12.401,2.752-18.782c0.109-8.927-0.991-17.731-2.811-26.456
	C214.222,180.942,213.798,179.149,213.382,177.286z M133.488,40.055c-0.139-0.147-0.268-0.3-0.412-0.437
	c-5.906-5.571-12.145-10.728-18.896-15.25c-5.822-3.899-11.909-7.3-18.543-9.636c-4.057-1.428-8.205-2.444-12.545-2.328
	c-3.022,0.082-5.872,0.76-8.231,2.823c-1.949,1.704-3.272,3.851-4.31,6.182c-2.479,5.571-3.312,11.495-3.647,17.512
	c-0.304,5.476-0.013,10.933,0.58,16.38c0.737,6.778,2.007,13.458,3.622,20.077c0.128,0.53,0.331,0.623,0.835,0.522
	c4.638-0.923,9.257-1.985,13.929-2.69c7.504-1.132,15.042-2.034,22.571-2.996c0.614-0.078,0.999-0.28,1.352-0.778
	c4.954-6.985,10.169-13.77,15.733-20.281C128.124,46.115,130.791,43.133,133.488,40.055z M212.625,76.109
	c0.075-0.1,0.119-0.135,0.132-0.18c0.079-0.266,0.161-0.533,0.224-0.803c2.12-9.144,3.594-18.375,3.875-27.777
	c0.184-6.122-0.124-12.202-1.416-18.204c-0.856-3.983-2.123-7.815-4.412-11.239c-1.746-2.613-3.993-4.571-7.124-5.325
	c-3.301-0.795-6.595-0.5-9.864,0.198c-5.749,1.226-11.058,3.583-16.163,6.426c-9.94,5.534-18.691,12.639-26.893,20.461
	c-0.138,0.132-0.247,0.294-0.383,0.458c0.223,0.25,0.408,0.456,0.59,0.666c3.187,3.672,6.512,7.235,9.528,11.043
	c4.62,5.834,9.025,11.839,13.54,17.758c0.203,0.267,0.566,0.535,0.884,0.574c3.517,0.431,7.054,0.713,10.556,1.238
	c6.504,0.975,12.993,2.053,19.478,3.154C207.665,74.98,210.124,75.583,212.625,76.109z M221.256,90.875
	c-0.101,0.264-0.181,0.445-0.239,0.632c-3.662,11.652-8.164,22.977-13.296,34.054c-0.297,0.641-0.271,1.128,0.025,1.757
	c5.277,11.175,9.976,22.584,13.735,34.365c0.224,0.702,0.483,0.816,1.164,0.605c8.719-2.702,17.209-5.963,25.264-10.29
	c6.092-3.271,11.852-7.017,16.79-11.912c2.497-2.475,4.675-5.188,6.169-8.405c1.689-3.637,1.647-7.233-0.151-10.823
	c-1.144-2.284-2.627-4.325-4.35-6.196c-4.495-4.88-9.888-8.587-15.62-11.829c-8.144-4.603-16.79-8.022-25.697-10.811
	C223.801,91.632,222.544,91.264,221.256,90.875z M200.383,140.579c-5.213,10.062-10.884,19.811-16.911,29.442
	c3.062,0.103,24.907-3.68,26.47-4.55C209.195,162.059,201.798,142.75,200.383,140.579z M100.693,170.348
	c-6.19-9.608-11.802-19.314-17.067-29.438c-3.514,8.372-6.604,16.65-9.247,25.203C83.065,168.004,91.749,169.34,100.693,170.348z
	 M125.331,184.446c5.377,7.083,11.013,13.873,17.062,20.408c5.939-6.552,11.432-13.382,16.601-20.408
	C147.78,184.446,136.606,184.446,125.331,184.446z M125.115,69.022c11.329-0.522,22.432-0.491,33.631-0.011
	c-1.724-2.947-15.03-18.95-16.764-20.188C136.072,55.204,130.526,61.895,125.115,69.022z M200.435,112.159
	c3.363-7.881,6.419-15.961,8.991-24.217c-2.604-1.034-23.845-4.733-25.636-4.505C189.314,92.968,194.868,102.552,200.435,112.159z
	 M100.345,83.39c-2.681-0.067-23.654,3.49-25.681,4.413c0.275,2.383,8.03,23.335,9.057,24.405
	C88.821,102.357,94.351,92.772,100.345,83.39z"/>
<path fill-rule="evenodd" clip-rule="evenodd" fill="#B09C62" d="M116.513,126.33c0.046-14.075,11.437-25.385,25.503-25.324
	c14.023,0.062,25.329,11.399,25.3,25.37c-0.03,14.086-11.478,25.471-25.535,25.397C127.828,151.701,116.469,140.261,116.513,126.33z
	"/>
</svg>
