<?xml version="1.0" encoding="utf-8"?>
<!-- Generator: Adobe Illustrator 16.0.0, SVG Export Plug-In . SVG Version: 6.00 Build 0)  -->
<!DOCTYPE svg PUBLIC "-//W3C//DTD SVG 1.1//EN" "http://www.w3.org/Graphics/SVG/1.1/DTD/svg11.dtd">
<svg version="1.1" id="Calque_1" xmlns="http://www.w3.org/2000/svg" xmlns:xlink="http://www.w3.org/1999/xlink" x="0px" y="0px"
	 width="283.46px" height="283.46px" viewBox="0 0 283.46 283.46" enable-background="new 0 0 283.46 283.46" xml:space="preserve">
<path fill-rule="evenodd" clip-rule="evenodd" fill="#B09C62" d="M283.46,141.86c0.218,77.909-62.269,139.062-136.216,141.529
	C63.416,286.188-0.233,219.363,0,141.897C0.243,61.275,64.452-0.217,142.08,0C222.716,0.226,283.938,65.626,283.46,141.86z
	 M141.769,126.469c8.013-0.594,16.065-0.885,24.032-1.862c8.896-1.089,17.671-2.957,25.697-7.284
	c5.943-3.204,9.128-7.828,8.552-14.91c-0.425-5.188-0.581-10.455-0.199-15.637c0.468-6.362-2.438-10.556-7.719-13.067
	c-4.87-2.315-9.958-4.492-15.188-5.67c-21.963-4.941-44.118-5.168-66.176-0.811c-6.622,1.308-13.036,3.963-19.329,6.53
	c-4.811,1.961-7.608,5.976-7.686,11.332c-0.102,7.023,0.05,14.049,0.105,21.075c0.028,3.587,1.542,6.595,4.469,8.465
	c3.441,2.198,7.043,4.37,10.872,5.697C112.958,125.094,127.279,126.189,141.769,126.469z M144.81,173.076
	c5.341-0.47,14.181-0.937,22.925-2.106c8.372-1.12,16.647-2.99,24.154-7.175c4.188-2.334,7.834-5.354,8.019-10.542
	c0.255-7.205,0.113-14.427,0.01-21.641c-0.04-2.836-1.634-4.79-4.429-5.36c-2.824-0.576-4.621,0.95-6.22,3.222
	c-1.258,1.787-2.862,3.733-4.769,4.577c-3.834,1.696-7.908,3.007-12.006,3.911c-15.75,3.475-31.713,3.762-47.686,2.229
	c-8.698-0.835-17.361-2.252-25.452-5.906c-2.22-1.002-4.191-2.12-5.132-4.717c-0.908-2.503-3.054-3.698-5.794-3.298
	c-2.753,0.401-4.353,2.007-4.405,4.861c-0.133,7.217-0.362,14.434-0.258,21.648c0.052,3.673,1.566,7.082,4.964,8.807
	c5.156,2.617,10.359,5.419,15.871,7.001C116.546,172.012,128.93,172.728,144.81,173.076z M145.926,219.086
	c5.511-0.571,15.639-1.306,25.661-2.764c7.966-1.159,15.785-3.261,22.58-7.969c3.099-2.146,5.454-4.919,5.702-8.81
	c0.248-3.896,0.116-7.818,0.111-11.729c-0.005-3.509,0.089-7.026-0.151-10.522c-0.171-2.498-1.57-4.411-4.202-4.862
	c-2.582-0.441-5.115,0.173-6.049,2.802c-1.003,2.823-3.02,4.223-5.503,5.135c-3.484,1.28-7,2.567-10.604,3.41
	c-16.143,3.778-32.525,3.884-48.908,2.385c-9.005-0.825-18.03-2.179-26.214-6.433c-1.619-0.842-2.998-2.535-3.963-4.146
	c-1.462-2.442-4.048-3.928-6.839-3.075c-2.651,0.81-3.714,2.758-3.687,5.526c0.052,5.112,0.372,10.272-0.198,15.325
	c-0.875,7.768,1.719,13.374,8.72,16.86c1.886,0.938,3.821,1.817,5.808,2.513C112.145,217.615,126.658,218.65,145.926,219.086z"/>
<path fill-rule="evenodd" clip-rule="evenodd" fill="#B09C62" d="M144.114,94.592c-15.721-0.592-28.572-1.279-40.929-5.439
	c-1.988-0.669-3.951-1.521-5.773-2.555c-3.374-1.916-3.434-3.521-0.042-5.229c2.855-1.437,5.872-2.881,8.976-3.433
	c8.782-1.558,17.61-3.029,26.485-3.851c13.075-1.211,26.135-0.305,38.972,2.475c4.866,1.054,9.655,2.786,14.226,4.787
	c3.687,1.613,3.724,3.878,0.018,5.25c-6.37,2.359-12.91,4.582-19.573,5.738C158.189,93.773,149.707,94.067,144.114,94.592z"/>
</svg>
