<?xml version="1.0" encoding="utf-8"?>
<!-- Generator: Adobe Illustrator 16.0.0, SVG Export Plug-In . SVG Version: 6.00 Build 0)  -->
<!DOCTYPE svg PUBLIC "-//W3C//DTD SVG 1.1//EN" "http://www.w3.org/Graphics/SVG/1.1/DTD/svg11.dtd">
<svg version="1.1" id="Calque_1" xmlns="http://www.w3.org/2000/svg" xmlns:xlink="http://www.w3.org/1999/xlink" x="0px" y="0px"
	 width="238.567px" height="283.46px" viewBox="0 0 238.567 283.46" enable-background="new 0 0 238.567 283.46"
	 xml:space="preserve">
<path fill-rule="evenodd" clip-rule="evenodd" fill="#B09C62" d="M176.093,282.538c-14.612-2.824-25.733-11.928-36.839-20.779
	c-31.134-24.809-59.799-52.246-83.879-83.921c-23.149-30.45-40.597-64.107-52.739-100.451c-4.975-14.892-2.755-28.468,5.362-41.518
	c5.423-8.719,11.873-16.578,19.485-23.478C33.651,6.8,40.653,2.715,48.949,1.083c0.328-0.064,0.611-0.357,0.916-0.544
	c0.923,0,1.845,0,2.768,0c14.429,15.072,20.636,34.388,27.442,53.31C82.979,61.92,84.713,70.411,87,78.704
	c0.725,2.628-0.251,4.593-2.527,5.772c-4.974,2.577-10.037,4.984-15.06,7.467c-7.743,3.829-12.574,9.994-14.52,18.322
	c-0.78,3.343,0.007,6.66,1.705,9.563c5.51,9.421,10.801,18.999,16.867,28.059c11.876,17.736,24.94,34.604,39.763,50.037
	c3.494,3.64,7.277,7.045,11.206,10.215c5.114,4.128,11.091,6.089,17.751,5.641c3.902-0.26,7.101-1.786,9.264-5.166
	c2.229-3.479,4.417-6.988,6.746-10.402c5.028-7.366,8.454-8.57,16.532-4.642c6.349,3.09,12.499,6.708,18.34,10.674
	c14.879,10.104,28.719,21.534,41.917,33.728c4.278,3.953,4.543,5.49,1.754,10.504c-10.635,19.128-27.024,30.028-48.578,33.509
	c-0.712,0.115-1.402,0.366-2.102,0.554C182.737,282.538,179.416,282.538,176.093,282.538z"/>
</svg>
